<svg width="434" height="495" viewBox="0 0 434 495" fill="none" xmlns="http://www.w3.org/2000/svg">
<g style="mix-blend-mode:multiply">
<path d="M423.657 21.3158H19.1078C15.8899 21.3158 13.2812 23.9212 13.2812 27.1352V605.967C13.2812 609.181 15.8899 611.787 19.1078 611.787H423.657C426.875 611.787 429.483 609.181 429.483 605.967V27.1352C429.483 23.9212 426.875 21.3158 423.657 21.3158Z" fill="#C7C7C7"/>
</g>
<path d="M417.258 9.49231H12.7094C9.49145 9.49231 6.88281 12.0977 6.88281 15.3117V594.144C6.88281 597.358 9.49145 599.963 12.7094 599.963H417.258C420.476 599.963 423.085 597.358 423.085 594.144V15.3117C423.085 12.0977 420.476 9.49231 417.258 9.49231Z" fill="#E8E8E8"/>
<path d="M427.932 590.967L23.5862 603.215C20.3677 603.307 17.6856 600.776 17.5746 597.562L0.0024531 19.0066C-0.0900321 15.7921 2.44406 13.1134 5.66255 13.0025L410.008 0.754159C413.227 0.661788 415.909 3.19275 416.02 6.40725L433.592 584.962C433.684 588.177 431.169 590.856 427.932 590.967Z" fill="white"/>
</svg>
