<svg width="22" height="22" viewBox="0 0 22 22" fill="none" xmlns="http://www.w3.org/2000/svg">
<path fill-rule="evenodd" clip-rule="evenodd" d="M16.7938 13.2303C17.9368 11.7566 18.4755 9.9028 18.3003 8.04602C18.1251 6.18925 17.2491 4.46897 15.8505 3.23516C14.4519 2.00136 12.6358 1.34671 10.7717 1.40439C8.90753 1.46208 7.13539 2.22776 5.81577 3.54568C4.49499 4.86451 3.7268 6.63734 3.66774 8.50289C3.60868 10.3684 4.26319 12.1863 5.49789 13.586C6.7326 14.9858 8.45457 15.862 10.3129 16.0363C12.1712 16.2105 14.0261 15.6695 15.4994 14.5237L15.5389 14.5649L19.4274 18.4543C19.5125 18.5395 19.6136 18.6071 19.7249 18.6532C19.8362 18.6993 19.9554 18.723 20.0759 18.723C20.1963 18.723 20.3156 18.6993 20.4269 18.6532C20.5382 18.6071 20.6393 18.5395 20.7244 18.4543C20.8096 18.3692 20.8772 18.2681 20.9233 18.1568C20.9693 18.0455 20.9931 17.9263 20.9931 17.8058C20.9931 17.6854 20.9693 17.5661 20.9233 17.4548C20.8772 17.3435 20.8096 17.2424 20.7244 17.1573L16.835 13.2688C16.8216 13.2556 16.8079 13.2427 16.7938 13.2303ZM14.8908 4.84276C15.4083 5.35195 15.8199 5.95858 16.1019 6.62764C16.3838 7.2967 16.5305 8.01497 16.5334 8.741C16.5364 9.46703 16.3956 10.1865 16.1191 10.8578C15.8426 11.5291 15.436 12.1391 14.9226 12.6525C14.4092 13.1659 13.7992 13.5725 13.1279 13.849C12.4566 14.1255 11.7371 14.2663 11.0111 14.2633C10.2851 14.2604 9.56679 14.1137 8.89772 13.8318C8.22866 13.5498 7.62204 13.1382 7.11285 12.6207C6.09527 11.5864 5.52762 10.1919 5.53352 8.741C5.53943 7.29008 6.11843 5.90027 7.14439 4.87431C8.17036 3.84834 9.56016 3.26935 11.0111 3.26344C12.462 3.25753 13.8565 3.82519 14.8908 4.84276Z" fill="#798087"/>
</svg>
