<svg width="26" height="26" viewBox="0 0 26 26" fill="none" xmlns="http://www.w3.org/2000/svg">
<g id="gg:search">
<path id="Vector" fill-rule="evenodd" clip-rule="evenodd" d="M19.8529 15.6358C21.2038 13.8942 21.8404 11.7034 21.6333 9.50899C21.4262 7.31462 20.3909 5.28157 18.7381 3.82343C17.0852 2.3653 14.9389 1.59162 12.7358 1.65979C10.5328 1.72796 8.43842 2.63287 6.87886 4.19041C5.31794 5.74903 4.41008 7.84418 4.34028 10.0489C4.27048 12.2537 5.04399 14.4021 6.50319 16.0563C7.96239 17.7105 9.99745 18.7461 12.1937 18.952C14.3899 19.1579 16.582 18.5186 18.3232 17.1644L18.3698 17.2132L22.9653 21.8097C23.0659 21.9104 23.1854 21.9902 23.3169 22.0447C23.4484 22.0992 23.5894 22.1272 23.7317 22.1272C23.8741 22.1272 24.015 22.0992 24.1465 22.0447C24.278 21.9902 24.3975 21.9104 24.4982 21.8097C24.5988 21.7091 24.6787 21.5896 24.7332 21.4581C24.7876 21.3266 24.8157 21.1856 24.8157 21.0433C24.8157 20.9009 24.7876 20.76 24.7332 20.6285C24.6787 20.497 24.5988 20.3775 24.4982 20.2768L19.9016 15.6813C19.8858 15.6657 19.8695 15.6505 19.8529 15.6358ZM17.6039 5.72332C18.2155 6.32509 18.702 7.04201 19.0352 7.83272C19.3684 8.62343 19.5417 9.47229 19.5452 10.3303C19.5487 11.1884 19.3823 12.0386 19.0555 12.832C18.7288 13.6254 18.2482 14.3463 17.6414 14.953C17.0347 15.5597 16.3139 16.0403 15.5205 16.3671C14.7271 16.6938 13.8768 16.8602 13.0188 16.8567C12.1607 16.8532 11.3119 16.6799 10.5212 16.3467C9.73046 16.0135 9.01355 15.5271 8.41178 14.9154C7.20919 13.6931 6.53832 12.0451 6.5453 10.3303C6.55228 8.6156 7.23655 6.9731 8.44905 5.7606C9.66156 4.5481 11.3041 3.86383 13.0188 3.85685C14.7335 3.84987 16.3815 4.52073 17.6039 5.72332Z" fill="#09101D"/>
</g>
</svg>
