<svg width="76" height="10" viewBox="0 0 76 10" fill="none" xmlns="http://www.w3.org/2000/svg">
<path d="M75 1L75.3199 1.2401C75.4109 1.1189 75.4255 0.956715 75.3578 0.82117C75.2901 0.685626 75.1515 0.6 75 0.6V1ZM68.6001 9.05645C68.6313 9.27515 68.8338 9.42717 69.0525 9.396L72.6165 8.88799C72.8352 8.85682 72.9872 8.65426 72.9561 8.43555C72.9249 8.21685 72.7223 8.06483 72.5036 8.096L69.3356 8.54756L68.8841 5.37958C68.8529 5.16087 68.6503 5.00885 68.4316 5.04003C68.2129 5.0712 68.0609 5.27376 68.0921 5.49247L68.6001 9.05645ZM0 1.4H75V0.6H0V1.4ZM74.6801 0.7599L68.6762 8.7599L69.316 9.2401L75.3199 1.2401L74.6801 0.7599Z" fill="#09101D"/>
</svg>
