<svg width="212" height="154" viewBox="0 0 212 154" fill="none" xmlns="http://www.w3.org/2000/svg">
<g clip-path="url(#clip0_1962_12961)">
<path d="M212 0H0V141.629H212V0Z" fill="#D29D7E"/>
<path d="M8.70312 118.779V22.8505C16.4198 22.8505 22.6758 16.5467 22.6758 8.771H189.322C189.322 16.5467 195.578 22.8505 203.295 22.8505V118.779C195.578 118.779 189.322 125.083 189.322 132.859H22.6758C22.6758 125.083 16.4198 118.779 8.70312 118.779Z" fill="white"/>
<path d="M162.121 24.7217H49.875V28.3574H162.121V24.7217Z" fill="#D29D7E"/>
<path d="M183.642 44.3018H28.3594V47.9375H183.642V44.3018Z" fill="#D29D7E"/>
<path d="M183.642 58.4292H28.3594V62.0649H183.642V58.4292Z" fill="#D29D7E"/>
<path d="M183.642 71.4595H28.3594V75.0952H183.642V71.4595Z" fill="#D29D7E"/>
<path d="M30.3109 102.828H38.6562V95.7607H30.8158C30.1684 95.7635 29.6457 96.3241 29.6484 96.9716V102.916C29.8491 102.863 30.0725 102.832 30.3092 102.828H30.3109V102.828Z" fill="#BE7346"/>
<path d="M39.0751 106.797H33.263L33.0391 107.631H39.0784C39.2979 107.63 39.4758 107.413 39.4747 107.194C39.4736 106.974 39.2946 106.796 39.0751 106.797V106.797Z" fill="#09101D"/>
<path d="M38.7769 105.631C38.9898 105.63 39.1611 105.457 39.1605 105.244C39.1594 105.032 38.9864 104.86 38.7736 104.861L31.9322 104.89L30.6018 104.895C30.4887 104.896 30.3873 104.945 30.318 105.022C30.2553 105.091 30.2182 105.182 30.2188 105.282C30.2193 105.381 30.257 105.472 30.3191 105.539C30.3668 105.592 30.4288 105.631 30.4992 105.651C30.5325 105.66 30.568 105.665 30.6051 105.665L31.0951 105.663L31.0569 105.798L30.7903 106.748L30.221 108.776L31.3457 108.38L32.0996 109.304L33.124 105.654L38.7769 105.631Z" fill="#09101D"/>
<path d="M38.3436 94.1104H30.2761C29.0155 94.1159 27.9945 95.2082 28 96.4689V105.515C28.0045 106.558 28.7478 107.277 29.7057 107.546C29.8332 107.582 29.9656 107.607 30.1009 107.619L30.3215 106.834V106.795C29.4928 106.754 28.8326 106.068 28.8326 105.228C28.8326 104.873 28.9501 104.546 29.1491 104.283C29.4191 103.925 29.8393 103.687 30.316 103.662H31.9673L39.0598 103.659C39.2793 103.658 39.4844 103.443 39.4833 103.223V95.2098C39.4806 94.6171 38.9362 94.1081 38.3436 94.1104ZM38.6579 95.7609V102.828H30.311C30.0743 102.832 29.8509 102.863 29.6502 102.916C29.2661 103.017 28.9673 103.198 28.8282 103.42L28.8249 103.421V96.4656C28.8215 95.6439 29.4584 94.9392 30.2794 94.9359H38.347C38.5005 94.9354 38.6574 95.0596 38.6579 95.2131V95.7609Z" fill="#09101D"/>
<g clip-path="url(#clip1_1962_12961)">
<path d="M42.8659 100.628C42.8693 100.628 42.8726 100.628 42.8754 100.628C43.6041 100.606 44.3401 100.464 45.0632 100.204C45.7224 99.9678 46.267 99.6401 46.6851 99.2278L50.5568 100.599C50.718 100.656 50.8954 100.579 50.9648 100.422L51.1204 100.07C51.1573 99.9863 51.1573 99.8916 51.1215 99.8081C51.0857 99.7246 51.0163 99.6597 50.9307 99.6294L47.3158 98.3477C47.3477 98.2765 47.3762 98.2032 47.4014 98.1287H50.6352C50.8154 98.1287 50.962 97.9824 50.962 97.8015V97.4077C50.962 97.2273 50.8159 97.0805 50.6352 97.0805H47.388V96.3809C47.388 96.2005 47.2419 96.0537 47.0612 96.0537H46.6263C46.4461 96.0537 46.2994 96.1999 46.2994 96.3809V97.0805H43.0422C42.862 97.0805 42.7154 97.2268 42.7154 97.4077V97.8015C42.7154 97.9819 42.8614 98.1287 43.0422 98.1287H46.1959C46.0745 98.3197 45.9094 98.4945 45.6972 98.6569C45.3195 98.946 44.8717 99.1706 44.3658 99.3241C43.8504 99.481 43.3427 99.5667 42.857 99.5796C42.6801 99.584 42.5391 99.7291 42.5391 99.9061V100.3C42.5391 100.388 42.5749 100.473 42.6381 100.535C42.6991 100.594 42.7808 100.627 42.8653 100.627L42.8659 100.628Z" fill="#09101D"/>
<path d="M49.6306 103.031C48.8818 102.809 47.9393 102.696 46.829 102.696C45.7186 102.696 44.7761 102.809 44.0273 103.031C43.4267 103.209 42.7109 103.594 42.7109 104.413C42.7109 105.232 43.4267 105.616 44.0273 105.794C44.7761 106.017 45.7186 106.129 46.829 106.129C47.9393 106.129 48.8818 106.017 49.6306 105.794C50.2312 105.616 50.947 105.231 50.947 104.413C50.947 103.594 50.2312 103.21 49.6306 103.031ZM49.1225 104.851C48.4895 104.996 47.7177 105.07 46.829 105.07C45.9402 105.07 45.1679 104.996 44.5354 104.851C44.3144 104.8 43.7995 104.655 43.7995 104.413C43.7995 104.171 44.3144 104.026 44.5354 103.975C45.1684 103.829 45.9396 103.755 46.829 103.755C47.7183 103.755 48.4895 103.829 49.1225 103.975C49.3435 104.026 49.8584 104.171 49.8584 104.413C49.8584 104.655 49.3441 104.8 49.1225 104.851Z" fill="#09101D"/>
<path d="M51.2022 101.266H47.3752V100.307C47.3752 100.127 47.2291 99.98 47.0483 99.98H46.6135C46.4333 99.98 46.2866 100.126 46.2866 100.307V101.266H42.4597C42.2794 101.266 42.1328 101.412 42.1328 101.593V101.987C42.1328 102.167 42.2789 102.314 42.4597 102.314H51.2022C51.3824 102.314 51.529 102.168 51.529 101.987V101.593C51.529 101.412 51.3829 101.266 51.2022 101.266Z" fill="#09101D"/>
<path d="M61.0225 102.437H52.28C52.0998 102.437 51.9531 102.583 51.9531 102.764V103.199C51.9531 103.379 52.0992 103.526 52.28 103.526H56.107V105.796C56.107 105.976 56.253 106.123 56.4338 106.123H56.8687C57.0489 106.123 57.1955 105.977 57.1955 105.796L57.1955 103.526H61.0225C61.2027 103.526 61.3493 103.38 61.3493 103.199V102.764C61.3493 102.583 61.2033 102.437 61.0225 102.437Z" fill="#09101D"/>
<path d="M52.9831 101.742H60.3169C60.4971 101.742 60.6438 101.596 60.6438 101.415V97.3926C60.6438 97.2122 60.4977 97.0654 60.3169 97.0654H52.9831C52.8029 97.0654 52.6562 97.2116 52.6562 97.3926V101.415C52.6562 101.596 52.8023 101.742 52.9831 101.742ZM53.7448 98.1236H59.5552V100.684H53.7448V98.1236Z" fill="#09101D"/>
<path d="M70.8512 104.604H67.0343V102.375H70.2087C70.3889 102.375 70.5355 102.229 70.5355 102.048V101.634C70.5355 101.453 70.3895 101.306 70.2087 101.306H63.5537V97.3965C63.5537 97.2161 63.4076 97.0693 63.2269 97.0693H62.7814C62.6012 97.0693 62.4545 97.2155 62.4545 97.3965V102.049C62.4545 102.229 62.6006 102.376 62.7814 102.376H65.9457V104.604H62.1081C61.9279 104.604 61.7812 104.751 61.7812 104.931V105.336C61.7812 105.516 61.9273 105.663 62.1081 105.663H70.8506C71.0308 105.663 71.1775 105.517 71.1775 105.336V104.931C71.1775 104.751 71.0314 104.604 70.8506 104.604L70.8512 104.604Z" fill="#09101D"/>
<path d="M72.6081 103.194H80.1804C80.3606 103.194 80.5072 103.048 80.5072 102.867V102.462C80.5072 102.282 80.3611 102.135 80.1804 102.135H73.3698V100.664H79.9319C80.1121 100.664 80.2587 100.517 80.2587 100.336V99.9319C80.2587 99.7515 80.1126 99.6048 79.9319 99.6048H73.3698V98.1432H80.0147C80.1949 98.1432 80.3415 97.997 80.3415 97.8161V97.4116C80.3415 97.2312 80.1955 97.0845 80.0147 97.0845H72.6081C72.4279 97.0845 72.2812 97.2307 72.2812 97.4116V102.866C72.2812 103.046 72.4273 103.193 72.6081 103.193V103.194Z" fill="#09101D"/>
<path d="M80.6709 104.604H71.9284C71.7479 104.604 71.6016 104.75 71.6016 104.931V105.335C71.6016 105.515 71.7479 105.662 71.9284 105.662H80.6709C80.8514 105.662 80.9978 105.515 80.9978 105.335V104.931C80.9978 104.75 80.8514 104.604 80.6709 104.604Z" fill="#09101D"/>
</g>
<path d="M168.275 120.623C166.069 128.12 160.113 131.889 154.703 129.213L162.5 154L166.899 142.117L176.075 145.419L168.275 120.623Z" fill="#ED5D1D"/>
<path d="M147.51 129.051C144.721 127.536 142.627 124.565 141.495 120.984L134.75 145.938L143.788 141.945L148.629 153.477L155.226 129.073C152.825 130.361 150.095 130.455 147.51 129.051V129.051Z" fill="#ED5D1D"/>
<path d="M156.334 134.372C161.648 134.243 166.78 132.458 171.024 129.336L168.283 120.622C166.077 128.12 160.121 131.889 154.711 129.212L156.334 134.372H156.334Z" fill="#DB4D0E"/>
<path d="M147.506 129.051C144.718 127.536 142.624 124.565 141.492 120.984L138.984 130.261C140.438 131.196 142.006 131.998 143.679 132.643C147.009 133.929 150.439 134.477 153.792 134.366L155.223 129.073C152.822 130.361 150.092 130.455 147.507 129.051L147.506 129.051Z" fill="#DB4D0E"/>
<path d="M170.374 124.412C179.23 115.487 179.23 101.018 170.374 92.0943C161.517 83.1702 147.158 83.1702 138.302 92.0943C129.445 101.018 129.445 115.487 138.302 124.412C147.158 133.336 161.517 133.336 170.374 124.412Z" fill="#FDCD00"/>
<path d="M173.194 113.412C172.754 113.636 172.431 113.868 172.157 114.176C172.386 113.382 172.567 112.543 172.7 111.659C173.654 111.765 174.342 111.545 175.123 110.891C175.798 110.325 176.115 109.811 176.338 108.92C175.324 108.816 174.636 109.028 173.825 109.695C173.323 110.109 173.015 110.49 172.788 111.015C172.889 110.169 172.947 109.282 172.956 108.355C172.957 108.268 172.956 108.183 172.956 108.097C173.936 107.993 174.578 107.625 175.225 106.797C175.777 106.091 175.988 105.518 176.036 104.595C175.023 104.721 174.391 105.083 173.726 105.918C173.294 106.459 173.065 106.919 172.949 107.524C172.919 106.49 172.813 105.49 172.634 104.527C173.534 104.204 174.074 103.702 174.538 102.768C174.942 101.954 175.038 101.346 174.906 100.434C173.94 100.785 173.391 101.28 172.901 102.246C172.635 102.771 172.497 103.209 172.46 103.7C172.248 102.792 171.97 101.92 171.631 101.088C172.406 100.578 172.823 99.9716 173.089 98.9828C173.328 98.0954 173.305 97.4786 173 96.6157C172.122 97.1762 171.681 97.7838 171.388 98.8387C171.251 99.333 171.194 99.7423 171.218 100.159C170.847 99.3886 170.422 98.6572 169.944 97.9695C170.59 97.3042 170.875 96.6214 170.944 95.6052C171.006 94.6839 170.866 94.0862 170.401 93.3098C169.65 94.0545 169.336 94.7493 169.252 95.8471C169.214 96.3492 169.235 96.755 169.333 97.1481C168.821 96.5039 168.26 95.9034 167.654 95.3492C168.172 94.5426 168.324 93.8042 168.195 92.7831C168.079 91.8682 167.825 91.3154 167.222 90.6607C166.631 91.558 166.457 92.307 166.587 93.3998C166.652 93.9462 166.763 94.3633 166.966 94.7543C166.322 94.2297 165.634 93.7536 164.905 93.3302C165.28 92.3984 165.293 91.6305 164.963 90.6396C164.674 89.7697 164.32 89.2859 163.604 88.781C163.198 89.7908 163.173 90.5637 163.509 91.6038C163.699 92.1889 163.915 92.6003 164.248 92.968C163.486 92.5707 162.683 92.2282 161.845 91.9441C162.041 90.9343 161.909 90.1734 161.39 89.269C160.94 88.4842 160.5 88.0897 159.703 87.7563C159.5 88.8358 159.624 89.5974 160.153 90.5384C160.46 91.0827 160.758 91.442 161.171 91.7303C160.899 91.6502 160.625 91.5756 160.347 91.5074L159.68 91.6614C160.116 91.7676 160.546 91.8914 160.968 92.0299C160.294 92.1579 159.77 92.4856 159.222 93.0932C158.626 93.7564 158.379 94.3119 158.272 95.2275C159.291 95.1783 159.945 94.8654 160.662 94.0827C161.198 93.4969 161.459 92.9997 161.605 92.2528C162.36 92.5341 163.088 92.8661 163.787 93.2451C163.202 93.2697 162.683 93.4758 162.106 93.8935C161.396 94.4076 161.047 94.8949 160.766 95.7676C161.772 95.9484 162.472 95.7887 163.324 95.1839C163.935 94.7508 164.283 94.3401 164.563 93.6931C165.23 94.1031 165.866 94.5574 166.466 95.0539C165.917 94.9674 165.39 95.0574 164.774 95.3239C163.98 95.6664 163.545 96.0651 163.102 96.8562C164.051 97.2585 164.767 97.2599 165.716 96.8591C166.389 96.5757 166.807 96.2564 167.201 95.6987C167.781 96.2395 168.323 96.8211 168.822 97.4413C168.299 97.2304 167.765 97.1994 167.107 97.3211C166.265 97.4779 165.762 97.7705 165.177 98.4449C166.028 99.0525 166.727 99.2142 167.733 99.0356C168.449 98.909 168.92 98.6889 169.416 98.2269C169.885 98.8872 170.307 99.5841 170.679 100.315C170.203 99.9821 169.681 99.8274 169.005 99.8C168.151 99.7648 167.602 99.9378 166.9 100.466C167.615 101.251 168.269 101.566 169.288 101.618C170.015 101.654 170.52 101.544 171.097 101.2C171.42 101.943 171.694 102.717 171.911 103.519C171.512 103.093 171.034 102.828 170.385 102.651C169.556 102.424 168.986 102.471 168.198 102.829C168.747 103.758 169.325 104.213 170.311 104.492C171.01 104.69 171.522 104.697 172.145 104.496C172.306 105.269 172.417 106.064 172.474 106.879C172.169 106.405 171.762 106.056 171.186 105.749C170.419 105.342 169.853 105.259 169.013 105.433C169.371 106.465 169.849 107.039 170.759 107.534C171.394 107.879 171.887 108.003 172.517 107.953C172.519 108.084 172.519 108.216 172.517 108.348C172.51 109.043 172.476 109.711 172.416 110.356C172.209 109.823 171.878 109.391 171.373 108.961C170.701 108.389 170.163 108.182 169.308 108.164C169.46 109.252 169.817 109.922 170.612 110.611C171.177 111.1 171.643 111.33 172.289 111.42C172.157 112.346 171.968 113.218 171.727 114.036C171.665 113.342 171.418 112.767 170.937 112.144C170.39 111.434 169.904 111.11 169.071 110.899C169.01 111.999 169.23 112.735 169.876 113.587C170.364 114.231 170.799 114.564 171.482 114.799C171.151 115.751 170.745 116.626 170.274 117.429C170.408 116.634 170.289 115.959 169.899 115.159C169.5 114.342 169.087 113.915 168.313 113.523C168.041 114.585 168.115 115.353 168.583 116.332C168.946 117.094 169.318 117.519 169.976 117.913C169.475 118.691 168.909 119.397 168.285 120.034C168.516 119.342 168.516 118.689 168.302 117.875C168.069 116.986 167.747 116.477 167.065 115.919C166.595 116.896 166.52 117.665 166.789 118.728C166.99 119.52 167.257 120.013 167.781 120.522C167.213 121.043 166.605 121.515 165.959 121.937C166.185 121.416 166.26 120.863 166.217 120.174C166.161 119.252 165.944 118.681 165.385 117.982C164.737 118.832 164.515 119.567 164.574 120.667C164.614 121.408 164.753 121.921 165.084 122.466C164.348 122.879 163.571 123.235 162.761 123.539C163.098 123.072 163.286 122.539 163.38 121.837C163.502 120.922 163.399 120.315 162.987 119.506C162.189 120.192 161.831 120.861 161.677 121.95C161.572 122.697 161.612 123.235 161.841 123.857C160.826 124.178 159.765 124.423 158.671 124.597C159.486 124.163 159.95 123.597 160.295 122.636C160.604 121.775 160.631 121.158 160.398 120.269C159.478 120.745 158.989 121.31 158.612 122.332C158.304 123.17 158.261 123.771 158.449 124.632C158.398 124.64 158.345 124.647 158.294 124.654C158.286 124.654 158.279 124.654 158.27 124.654C158.27 124.655 158.27 124.656 158.27 124.657C157.673 124.742 157.067 124.807 156.453 124.851C155.792 124.899 155.182 125.088 154.608 125.366C154.037 125.092 153.432 124.905 152.775 124.857C152.16 124.813 151.555 124.747 150.957 124.663C150.957 124.662 150.957 124.661 150.957 124.659C150.95 124.659 150.943 124.659 150.935 124.659C150.883 124.652 150.831 124.645 150.779 124.638C150.968 123.778 150.924 123.176 150.616 122.338C150.239 121.315 149.751 120.75 148.831 120.275C148.598 121.164 148.624 121.78 148.933 122.642C149.278 123.602 149.743 124.169 150.557 124.603C149.463 124.429 148.402 124.185 147.387 123.863C147.617 123.242 147.658 122.702 147.551 121.956C147.397 120.867 147.039 120.197 146.241 119.51C145.829 120.32 145.726 120.927 145.849 121.842C145.942 122.544 146.13 123.077 146.468 123.544C145.657 123.24 144.881 122.884 144.144 122.471C144.475 121.926 144.615 121.413 144.654 120.671C144.712 119.572 144.49 118.837 143.843 117.986C143.284 118.685 143.067 119.256 143.01 120.178C142.968 120.868 143.043 121.42 143.269 121.941C142.624 121.519 142.015 121.048 141.448 120.526C141.971 120.017 142.238 119.524 142.439 118.732C142.708 117.669 142.633 116.901 142.163 115.923C141.481 116.481 141.159 116.991 140.926 117.88C140.713 118.692 140.712 119.346 140.944 120.038C140.32 119.401 139.754 118.695 139.253 117.917C139.911 117.524 140.282 117.098 140.646 116.337C141.114 115.357 141.188 114.589 140.916 113.527C140.143 113.92 139.729 114.346 139.33 115.163C138.94 115.963 138.821 116.638 138.955 117.433C138.484 116.63 138.078 115.755 137.747 114.803C138.431 114.568 138.865 114.235 139.353 113.591C139.999 112.739 140.219 112.003 140.159 110.903C139.326 111.114 138.84 111.438 138.292 112.148C137.812 112.772 137.565 113.346 137.503 114.041C137.262 113.222 137.073 112.351 136.941 111.425C137.587 111.335 138.053 111.104 138.618 110.615C139.414 109.927 139.771 109.256 139.922 108.168C139.067 108.186 138.53 108.394 137.857 108.965C137.352 109.395 137.021 109.827 136.814 110.361C136.754 109.716 136.719 109.047 136.712 108.353C136.711 108.221 136.711 108.089 136.712 107.958C137.343 108.007 137.836 107.884 138.47 107.539C139.381 107.044 139.859 106.469 140.217 105.438C139.378 105.264 138.811 105.346 138.044 105.754C137.467 106.061 137.061 106.41 136.756 106.884C136.812 106.069 136.923 105.273 137.085 104.501C137.708 104.702 138.22 104.695 138.918 104.497C139.905 104.217 140.483 103.763 141.032 102.834C140.244 102.477 139.674 102.429 138.845 102.657C138.196 102.834 137.719 103.099 137.319 103.524C137.536 102.723 137.809 101.949 138.133 101.206C138.71 101.549 139.214 101.66 139.942 101.623C140.96 101.571 141.613 101.256 142.329 100.472C141.627 99.9435 141.079 99.7698 140.225 99.8056C139.549 99.8338 139.027 99.9885 138.551 100.321C138.922 99.5897 139.345 98.8921 139.813 98.2325C140.309 98.6938 140.78 98.9146 141.496 99.0412C142.502 99.2191 143.201 99.0567 144.052 98.4505C143.467 97.7768 142.964 97.4835 142.122 97.3267C141.464 97.2036 140.93 97.2353 140.408 97.4463C140.907 96.826 141.448 96.2444 142.029 95.7036C142.423 96.2613 142.841 96.5806 143.513 96.864C144.464 97.2648 145.179 97.2641 146.128 96.8605C145.685 96.07 145.25 95.6713 144.456 95.3288C143.839 95.0623 143.312 94.9723 142.763 95.0588C143.363 94.5623 143.999 94.1073 144.666 93.698C144.946 94.345 145.294 94.7557 145.905 95.1889C146.757 95.7937 147.457 95.9533 148.463 95.7726C148.182 94.8998 147.833 94.4118 147.122 93.8984C146.545 93.4807 146.027 93.2747 145.442 93.25C146.141 92.8703 146.87 92.5384 147.624 92.2578C147.77 93.0046 148.031 93.5018 148.568 94.0876C149.285 94.8703 149.939 95.1832 150.957 95.2325C150.85 94.3154 150.603 93.7599 150.007 93.0981C149.459 92.4905 148.935 92.1628 148.262 92.0348C148.684 91.8963 149.113 91.7732 149.55 91.6663L148.883 91.5123C148.605 91.5806 148.33 91.6551 148.058 91.7353C148.471 91.4462 148.769 91.0876 149.076 90.5433C149.605 89.6023 149.728 88.8407 149.526 87.7613C148.728 88.0946 148.289 88.4884 147.838 89.2732C147.319 90.1776 147.188 90.9385 147.383 91.9483C146.544 92.2325 145.742 92.5749 144.98 92.9723C145.313 92.6045 145.53 92.1931 145.719 91.608C146.057 90.5686 146.031 89.7957 145.625 88.7852C144.908 89.2901 144.555 89.7739 144.265 90.6438C143.935 91.634 143.949 92.4026 144.323 93.3344C143.594 93.7578 142.906 94.2339 142.261 94.7592C142.464 94.3682 142.577 93.9505 142.642 93.404C142.772 92.3112 142.597 91.5609 142.006 90.6649C141.403 91.3197 141.15 91.8724 141.034 92.7873C140.905 93.8091 141.057 94.5475 141.575 95.3534C140.97 95.9083 140.408 96.5088 139.896 97.153C139.995 96.7599 140.015 96.3541 139.977 95.852C139.893 94.7543 139.579 94.0602 138.828 93.3147C138.364 94.0911 138.223 94.6889 138.285 95.6101C138.354 96.6263 138.64 97.3098 139.285 97.9744C138.807 98.6622 138.382 99.3935 138.011 100.164C138.036 99.7473 137.978 99.338 137.842 98.8436C137.548 97.788 137.107 97.1811 136.229 96.6207C135.925 97.4842 135.902 98.101 136.141 98.9878C136.407 99.9772 136.823 100.584 137.599 101.093C137.259 101.924 136.982 102.796 136.77 103.704C136.733 103.213 136.595 102.776 136.328 102.251C135.839 101.285 135.29 100.789 134.323 100.439C134.192 101.351 134.288 101.959 134.692 102.773C135.155 103.706 135.695 104.209 136.595 104.532C136.417 105.494 136.31 106.495 136.28 107.529C136.164 106.924 135.935 106.465 135.504 105.924C134.838 105.088 134.206 104.726 133.194 104.601C133.24 105.524 133.452 106.097 134.004 106.802C134.651 107.631 135.292 107.998 136.273 108.102C136.273 108.188 136.273 108.274 136.273 108.36C136.282 109.288 136.34 110.175 136.442 111.022C136.214 110.496 135.906 110.114 135.404 109.702C134.594 109.034 133.905 108.822 132.891 108.926C133.115 109.818 133.431 110.331 134.106 110.897C134.887 111.551 135.575 111.772 136.529 111.665C136.662 112.55 136.844 113.389 137.072 114.182C136.798 113.875 136.475 113.643 136.035 113.418C135.113 112.947 134.399 112.895 133.426 113.224C133.816 114.047 134.224 114.477 134.995 114.88C135.839 115.32 136.526 115.397 137.375 115.132C137.641 115.892 137.952 116.607 138.304 117.28C138.035 117.121 137.735 117.007 137.366 116.913C136.373 116.659 135.665 116.768 134.777 117.309C135.317 118.026 135.799 118.356 136.63 118.576C137.504 118.808 138.173 118.745 138.914 118.34C139.328 118.995 139.784 119.602 140.278 120.165C139.998 120.081 139.697 120.041 139.34 120.031C138.321 120.007 137.649 120.271 136.884 121.001C137.551 121.58 138.086 121.794 138.941 121.824C139.847 121.855 140.491 121.64 141.144 121.069C141.723 121.623 142.344 122.126 143.001 122.578C142.654 122.529 142.299 122.552 141.873 122.639C140.87 122.843 140.264 123.254 139.657 124.138C140.42 124.555 140.985 124.645 141.827 124.482C142.758 124.301 143.358 123.92 143.904 123.154C144.588 123.559 145.305 123.915 146.05 124.224C145.784 124.273 145.514 124.366 145.209 124.503C144.268 124.929 143.753 125.466 143.33 126.468C144.157 126.705 144.726 126.666 145.518 126.317C146.354 125.948 146.861 125.472 147.241 124.671C147.852 124.877 148.479 125.055 149.118 125.204C149.035 125.261 148.951 125.323 148.863 125.39C148.035 126.033 147.646 126.682 147.442 127.761C148.297 127.791 148.844 127.614 149.543 127.081C150.143 126.624 150.515 126.149 150.743 125.518C151.405 125.621 152.079 125.698 152.76 125.747C153.082 125.771 153.382 125.829 153.664 125.914C152.35 126.791 151.19 128.013 149.941 128.813L150.938 129.262C152.329 128.371 153.306 127.074 154.607 126.325C155.912 127.073 156.891 128.374 158.286 129.267L159.282 128.818C158.03 128.015 156.866 126.789 155.548 125.911C155.833 125.824 156.136 125.765 156.463 125.741C157.144 125.692 157.818 125.615 158.48 125.512C158.708 126.143 159.08 126.618 159.68 127.075C160.379 127.607 160.926 127.784 161.781 127.754C161.576 126.675 161.188 126.026 160.359 125.384C160.272 125.316 160.188 125.254 160.105 125.197C160.744 125.048 161.371 124.871 161.982 124.665C162.362 125.465 162.869 125.942 163.704 126.311C164.496 126.659 165.066 126.7 165.893 126.462C165.469 125.46 164.955 124.922 164.014 124.497C163.709 124.359 163.438 124.268 163.173 124.218C163.917 123.909 164.635 123.553 165.319 123.148C165.865 123.915 166.465 124.294 167.396 124.475C168.238 124.638 168.803 124.549 169.566 124.132C168.959 123.247 168.352 122.837 167.35 122.633C166.924 122.546 166.569 122.522 166.222 122.572C166.879 122.119 167.5 121.617 168.079 121.062C168.731 121.633 169.375 121.848 170.281 121.818C171.136 121.788 171.672 121.574 172.338 120.995C171.574 120.266 170.902 120.001 169.882 120.025C169.525 120.034 169.224 120.074 168.945 120.159C169.439 119.596 169.895 118.989 170.309 118.334C171.05 118.738 171.718 118.801 172.593 118.569C173.423 118.349 173.906 118.019 174.446 117.303C173.558 116.762 172.85 116.653 171.857 116.907C171.489 117.001 171.189 117.115 170.92 117.273C171.272 116.601 171.583 115.886 171.849 115.126C172.697 115.391 173.384 115.315 174.228 114.874C174.998 114.472 175.406 114.041 175.797 113.218C174.824 112.889 174.111 112.941 173.188 113.413L173.194 113.412Z" fill="#FDE558"/>
</g>
<defs>
<clipPath id="clip0_1962_12961">
<rect width="212" height="154" fill="white"/>
</clipPath>
<clipPath id="clip1_1962_12961">
<rect width="38.8667" height="15.1933" fill="white" transform="translate(42.1328 94.1104)"/>
</clipPath>
</defs>
</svg>
