<svg width="445" height="440" viewBox="0 0 445 440" fill="none" xmlns="http://www.w3.org/2000/svg">
<g clip-path="url(#clip0_2106_14504)">
<path d="M331.48 272.541H403.74V216.801H331.48V272.541Z" fill="#E3E7EB"/>
<path d="M336.651 267.68H345.361V257.84H336.651V267.68Z" fill="white"/>
<path d="M381.71 216.95H373.5V228.84H381.71V216.95Z" fill="#F4F6F9"/>
<path d="M381.71 260.48H373.5V272.37H381.71V260.48Z" fill="#F4F6F9"/>
<path d="M349.521 272.92C349.391 272.92 349.291 260.66 349.291 245.54C349.291 230.42 349.391 218.16 349.521 218.16C349.651 218.16 349.751 230.42 349.751 245.54C349.751 260.66 349.651 272.92 349.521 272.92Z" fill="#E3E7EB"/>
<path d="M302.019 368.521H426.699V272.35H302.019V368.521Z" fill="#E3E7EB"/>
<path d="M310.929 360.13H325.949V343.15H310.929V360.13Z" fill="white"/>
<path d="M388.66 272.601H374.5V293.121H388.66V272.601Z" fill="#F4F6F9"/>
<path d="M388.66 347.721H374.5V368.241H388.66V347.721Z" fill="#F4F6F9"/>
<path d="M333.13 369.19C332.91 369.19 332.73 348.04 332.73 321.95C332.73 295.86 332.91 274.71 333.13 274.71C333.35 274.71 333.53 295.86 333.53 321.95C333.53 348.04 333.35 369.19 333.13 369.19Z" fill="#E3E7EB"/>
<path d="M422.729 72.3403L429.409 85.8703L444.349 88.0403L433.539 98.5703L436.089 113.45L422.729 106.43L409.379 113.45L411.929 98.5703L401.119 88.0403L416.059 85.8703L422.729 72.3403Z" fill="#E3E7EB"/>
<path d="M25.0204 247.09L29.2304 255.62L38.6504 256.99L31.8404 263.63L33.4404 273L25.0204 268.58L16.6104 273L18.2104 263.63L11.4004 256.99L20.8204 255.62L25.0204 247.09Z" fill="#E3E7EB"/>
<path d="M30.25 172.791L39.59 191.731L60.5 194.761L45.37 209.501L48.94 230.321L30.25 220.491L11.55 230.321L15.12 209.501L0 194.761L20.9 191.731L30.25 172.791Z" fill="#E3E7EB"/>
<path d="M416.79 133.45L420.82 141.61L429.82 142.92L423.3 149.28L424.84 158.25L416.79 154.01L408.73 158.25L410.27 149.28L403.75 142.92L412.76 141.61L416.79 133.45Z" fill="#E3E7EB"/>
<path d="M284.559 1.19043L288.589 9.36043L297.599 10.6704L291.079 17.0204L292.619 25.9904L284.559 21.7604L276.509 25.9904L278.049 17.0204L271.529 10.6704L280.539 9.36043L284.559 1.19043Z" fill="#E3E7EB"/>
<path d="M376.741 88.5303L379.381 93.8803L385.271 94.7303L381.011 98.8903L382.011 104.76L376.741 101.99L371.471 104.76L372.471 98.8903L368.211 94.7303L374.101 93.8803L376.741 88.5303Z" fill="#E3E7EB"/>
<path d="M133.44 358.23L138.57 368.64L150.06 370.31L141.75 378.41L143.71 389.85L133.44 384.45L123.17 389.85L125.13 378.41L116.82 370.31L128.3 368.64L133.44 358.23Z" fill="#E3E7EB"/>
<path d="M147.001 347.891L149.121 352.191L153.861 352.881L150.431 356.221L151.241 360.951L147.001 358.721L142.751 360.951L143.561 356.221L140.131 352.881L144.871 352.191L147.001 347.891Z" fill="#E3E7EB"/>
<path d="M336.649 308.041L341.169 317.191L351.259 318.661L343.959 325.781L345.679 335.841L336.649 331.091L327.619 335.841L329.339 325.781L322.039 318.661L332.139 317.191L336.649 308.041Z" fill="#D29D7E"/>
<path d="M358.189 299.94L360.319 304.25L365.079 304.94L361.639 308.29L362.449 313.03L358.189 310.8L353.939 313.03L354.749 308.29L351.309 304.94L356.069 304.25L358.189 299.94Z" fill="#D29D7E"/>
<path d="M329.96 61.7804L333.49 50.7204C330.74 45.2104 329.44 38.8904 330.03 32.3104C331.74 13.3804 348.5 -0.579606 367.45 1.14039C386.41 2.85039 400.39 19.5904 398.67 38.5204C396.96 57.4504 380.2 71.4104 361.25 69.6904C353.33 68.9704 346.82 66.1104 341.41 61.0904L329.95 61.7804H329.96Z" fill="white"/>
<path d="M344.82 34.1202L350.49 29.2102L360.05 39.0102L381.46 21.1802L386 26.8202L358.56 49.1602L344.82 34.1202Z" fill="#D29D7E"/>
<path d="M270.631 307.62L78.8705 350.36C74.2205 351.4 69.6005 348.46 68.5605 343.81L6.32052 64.5605C5.28052 59.9105 8.22052 55.2905 12.8705 54.2505L204.641 11.5105C209.291 10.4705 213.911 13.4105 214.951 18.0605L277.181 297.31C278.221 301.96 275.291 306.58 270.631 307.62Z" fill="#E3E7EB"/>
<g opacity="0.3">
<path d="M88.5902 340.47L263.31 300.53L257.78 266.28L247.88 247.09L80.7402 312.74L88.5902 340.47Z" fill="#09101D"/>
</g>
<g opacity="0.3">
<path d="M161.531 21.7603L168.141 32.6703L169.431 38.4503L164.941 39.4503L161.531 21.7603Z" fill="#09101D"/>
</g>
<path d="M16.2812 66.1806L76.9013 338.181L266.911 295.831L256.071 247.191L206.291 23.8306L16.2812 66.1806Z" fill="white"/>
<path d="M69.7957 33.8371L153.591 15.168C156.998 14.409 160.385 16.5537 161.146 19.9699L165.983 41.6777L69.8398 63.0977L65.0035 41.3899C64.2445 37.9835 66.3892 34.596 69.8055 33.8349L69.7957 33.8371Z" fill="#09101D"/>
<path d="M121.581 11.2803L97.1113 16.7303L104.651 37.0603L123.081 32.9603L121.581 11.2803Z" fill="#09101D"/>
<path d="M106.97 119.64C107 119.75 94.0197 122.74 77.9997 126.31C61.9697 129.88 48.9597 132.69 48.9297 132.57C48.8997 132.46 61.8697 129.47 77.8997 125.9C93.9197 122.33 106.94 119.52 106.96 119.64H106.97Z" fill="#09101D" stroke="#09101D" stroke-width="0.75" stroke-linecap="round" stroke-linejoin="round"/>
<path d="M203.68 108.75C203.71 108.86 169.81 116.51 127.98 125.84C86.1297 135.17 52.1997 142.63 52.1797 142.52C52.1497 142.41 86.0497 134.76 127.89 125.43C169.72 116.11 203.66 108.64 203.68 108.75Z" fill="#09101D" stroke="#09101D" stroke-width="0.75" stroke-linecap="round" stroke-linejoin="round"/>
<path d="M205.76 118.09C205.79 118.2 171.89 125.85 130.06 135.18C88.2098 144.51 54.2798 151.97 54.2598 151.86C54.2298 151.75 88.1298 144.1 129.97 134.77C171.8 125.45 205.74 117.98 205.76 118.09Z" fill="#09101D" stroke="#09101D" stroke-width="0.75" stroke-linecap="round" stroke-linejoin="round"/>
<path d="M207.85 127.44C207.88 127.55 173.98 135.2 132.15 144.53C90.2996 153.86 56.3696 161.32 56.3496 161.21C56.3196 161.1 90.2196 153.45 132.06 144.12C173.89 134.8 207.83 127.33 207.85 127.44Z" fill="#09101D" stroke="#09101D" stroke-width="0.75" stroke-linecap="round" stroke-linejoin="round"/>
<path d="M209.93 136.79C209.96 136.9 176.06 144.55 134.23 153.88C92.3797 163.21 58.4497 170.67 58.4297 170.56C58.3997 170.45 92.2997 162.8 134.14 153.47C175.97 144.15 209.91 136.68 209.93 136.79Z" fill="#09101D" stroke="#09101D" stroke-width="0.75" stroke-linecap="round" stroke-linejoin="round"/>
<path d="M212.01 146.14C212.04 146.25 178.14 153.9 136.31 163.23C94.4598 172.56 60.5298 180.02 60.5098 179.91C60.4798 179.8 94.3798 172.15 136.22 162.82C178.05 153.5 211.99 146.03 212.01 146.14Z" fill="#09101D" stroke="#09101D" stroke-width="0.75" stroke-linecap="round" stroke-linejoin="round"/>
<path d="M89.8905 211.94C89.8905 211.94 89.8505 211.83 89.8005 211.62C89.7405 211.39 89.6705 211.09 89.5805 210.73C89.3905 209.92 89.1205 208.8 88.7905 207.39C88.1205 204.5 87.1805 200.44 86.0605 195.58L86.2805 195.72C81.5105 196.79 75.8805 198.06 69.8905 199.4C69.8505 199.45 70.1905 198.93 70.0505 199.15V199.16V199.18L70.0605 199.22L70.0805 199.29L70.1105 199.43L70.1705 199.71L70.2905 200.27C70.3705 200.64 70.4605 201.01 70.5405 201.38C70.7005 202.12 70.8705 202.85 71.0305 203.57C71.3505 205.02 71.6605 206.43 71.9705 207.81C72.5805 210.56 73.1505 213.16 73.6705 215.55L73.4505 215.41C78.3305 214.36 82.4005 213.49 85.3005 212.86C86.7205 212.56 87.8505 212.33 88.6605 212.16C89.0305 212.09 89.3205 212.03 89.5605 211.98C89.7705 211.94 89.8805 211.92 89.8905 211.93C89.8905 211.93 89.8005 211.96 89.6105 212.01C89.3905 212.07 89.1005 212.14 88.7505 212.22C87.9505 212.41 86.8405 212.67 85.4505 213C82.5305 213.67 78.4305 214.62 73.5205 215.75L73.3405 215.79L73.3005 215.61C72.7605 213.22 72.1805 210.63 71.5605 207.88C71.2505 206.5 70.9305 205.09 70.6105 203.64C70.4505 202.92 70.2805 202.19 70.1205 201.45C70.0405 201.08 69.9505 200.71 69.8705 200.34L69.7505 199.78L69.6905 199.5L69.6605 199.36L69.6405 199.29V199.25L69.6305 199.23V199.22C69.4905 199.44 69.8205 198.91 69.7905 198.97C75.7905 197.64 81.4205 196.4 86.2005 195.34L86.3805 195.3L86.4205 195.48C87.4805 200.4 88.3605 204.52 88.9905 207.45C89.2805 208.85 89.5105 209.97 89.6805 210.77C89.7505 211.12 89.8105 211.41 89.8505 211.64C89.8905 211.83 89.9005 211.93 89.8905 211.93V211.94Z" fill="#09101D"/>
<path d="M89.8905 211.93C89.8805 211.92 89.7705 211.94 89.5605 211.98C89.3205 212.03 89.0305 212.09 88.6605 212.16C87.8505 212.33 86.7205 212.56 85.3005 212.86C82.4005 213.49 78.3305 214.36 73.4505 215.41L73.6705 215.55C73.1505 213.16 72.5805 210.56 71.9705 207.81C71.6605 206.43 71.3505 205.02 71.0305 203.57C70.8705 202.85 70.7005 202.12 70.5405 201.38C70.4605 201.01 70.3705 200.64 70.2905 200.27L70.1705 199.71L70.1105 199.43L70.0805 199.29L70.0605 199.22L70.0505 199.18V199.16V199.15C70.1905 198.93 69.8505 199.45 69.8905 199.4C75.8805 198.06 81.5105 196.79 86.2805 195.72L86.0605 195.58C87.1805 200.44 88.1205 204.5 88.7905 207.39C89.1205 208.8 89.3905 209.92 89.5805 210.73C89.6705 211.09 89.7405 211.39 89.8005 211.62C89.8505 211.83 89.8905 211.94 89.8905 211.94V211.93ZM89.8905 211.93C89.8905 211.93 89.8005 211.96 89.6105 212.01C89.3905 212.07 89.1005 212.14 88.7505 212.22C87.9505 212.41 86.8405 212.67 85.4505 213C82.5305 213.67 78.4305 214.62 73.5205 215.75L73.3405 215.79L73.3005 215.61C72.7605 213.22 72.1805 210.63 71.5605 207.88C71.2505 206.5 70.9305 205.09 70.6105 203.64C70.4505 202.92 70.2805 202.19 70.1205 201.45C70.0405 201.08 69.9505 200.71 69.8705 200.34L69.7505 199.78L69.6905 199.5L69.6605 199.36L69.6405 199.29V199.25L69.6305 199.23V199.22C69.4905 199.44 69.8205 198.91 69.7905 198.97C75.7905 197.64 81.4205 196.4 86.2005 195.34L86.3805 195.3L86.4205 195.48C87.4805 200.4 88.3605 204.52 88.9905 207.45C89.2805 208.85 89.5105 209.97 89.6805 210.77C89.7505 211.12 89.8105 211.41 89.8505 211.64C89.8905 211.83 89.9005 211.93 89.8905 211.93Z" stroke="#09101D" stroke-width="0.75" stroke-linecap="round" stroke-linejoin="round"/>
<path d="M211.786 171.514L97.3711 197.005L99.4979 206.551L213.913 181.06L211.786 171.514Z" fill="#E3E7EB"/>
<path d="M96.2303 240.39C96.2303 240.39 96.1903 240.28 96.1403 240.07C96.0803 239.84 96.0103 239.54 95.9203 239.18C95.7303 238.37 95.4603 237.25 95.1303 235.84C94.4603 232.95 93.5203 228.89 92.4003 224.03L92.6203 224.17C87.8503 225.24 82.2203 226.51 76.2303 227.85C76.1903 227.9 76.5303 227.38 76.3903 227.6V227.61V227.63L76.4003 227.67L76.4203 227.74L76.4503 227.88L76.5103 228.16L76.6303 228.72C76.7103 229.09 76.8003 229.46 76.8803 229.83C77.0403 230.57 77.2103 231.3 77.3703 232.02C77.6903 233.47 78.0003 234.88 78.3103 236.26C78.9203 239.01 79.4903 241.61 80.0103 244L79.7903 243.86C84.6703 242.81 88.7403 241.94 91.6403 241.31C93.0603 241.01 94.1903 240.78 95.0003 240.61C95.3703 240.54 95.6603 240.48 95.9003 240.43C96.1103 240.39 96.2203 240.37 96.2303 240.38C96.2303 240.38 96.1403 240.41 95.9503 240.46C95.7303 240.52 95.4403 240.59 95.0903 240.67C94.2903 240.86 93.1803 241.12 91.7903 241.45C88.8703 242.12 84.7703 243.07 79.8603 244.2L79.6803 244.24L79.6403 244.06C79.1003 241.67 78.5203 239.08 77.9003 236.33C77.5903 234.95 77.2703 233.54 76.9503 232.09C76.7903 231.37 76.6203 230.64 76.4603 229.9C76.3803 229.53 76.2903 229.16 76.2103 228.79L76.0903 228.23L76.0303 227.95L76.0003 227.81L75.9803 227.74V227.7L75.9703 227.68V227.67C75.8303 227.89 76.1603 227.36 76.1303 227.42C82.1303 226.09 87.7603 224.85 92.5403 223.79L92.7203 223.75L92.7603 223.93C93.8203 228.85 94.7003 232.97 95.3303 235.9C95.6203 237.3 95.8503 238.42 96.0203 239.22C96.0903 239.57 96.1503 239.86 96.1903 240.09C96.2303 240.28 96.2403 240.38 96.2303 240.38V240.39Z" fill="#09101D"/>
<path d="M96.2303 240.38C96.2203 240.37 96.1103 240.39 95.9003 240.43C95.6603 240.48 95.3703 240.54 95.0003 240.61C94.1903 240.78 93.0603 241.01 91.6403 241.31C88.7403 241.94 84.6703 242.81 79.7903 243.86L80.0103 244C79.4903 241.61 78.9203 239.01 78.3103 236.26C78.0003 234.88 77.6903 233.47 77.3703 232.02C77.2103 231.3 77.0403 230.57 76.8803 229.83C76.8003 229.46 76.7103 229.09 76.6303 228.72L76.5103 228.16L76.4503 227.88L76.4203 227.74L76.4003 227.67L76.3903 227.63V227.61V227.6C76.5303 227.38 76.1903 227.9 76.2303 227.85C82.2203 226.51 87.8503 225.24 92.6203 224.17L92.4003 224.03C93.5203 228.89 94.4603 232.95 95.1303 235.84C95.4603 237.25 95.7303 238.37 95.9203 239.18C96.0103 239.54 96.0803 239.84 96.1403 240.07C96.1903 240.28 96.2303 240.39 96.2303 240.39V240.38ZM96.2303 240.38C96.2303 240.38 96.1403 240.41 95.9503 240.46C95.7303 240.52 95.4403 240.59 95.0903 240.67C94.2903 240.86 93.1803 241.12 91.7903 241.45C88.8703 242.12 84.7703 243.07 79.8603 244.2L79.6803 244.24L79.6403 244.06C79.1003 241.67 78.5203 239.08 77.9003 236.33C77.5903 234.95 77.2703 233.54 76.9503 232.09C76.7903 231.37 76.6203 230.64 76.4603 229.9C76.3803 229.53 76.2903 229.16 76.2103 228.79L76.0903 228.23L76.0303 227.95L76.0003 227.81L75.9803 227.74V227.7L75.9703 227.68V227.67C75.8303 227.89 76.1603 227.36 76.1303 227.42C82.1303 226.09 87.7603 224.85 92.5403 223.79L92.7203 223.75L92.7603 223.93C93.8203 228.85 94.7003 232.97 95.3303 235.9C95.6203 237.3 95.8503 238.42 96.0203 239.22C96.0903 239.57 96.1503 239.86 96.1903 240.09C96.2303 240.28 96.2403 240.38 96.2303 240.38Z" stroke="#09101D" stroke-width="0.75" stroke-linecap="round" stroke-linejoin="round"/>
<path d="M218.122 199.965L103.707 225.456L105.834 235.002L220.249 209.511L218.122 199.965Z" fill="#E3E7EB"/>
<path d="M102.57 268.84C102.57 268.84 102.53 268.73 102.48 268.52C102.42 268.29 102.35 267.99 102.26 267.63C102.07 266.82 101.8 265.7 101.47 264.29C100.8 261.4 99.8604 257.34 98.7404 252.48L98.9604 252.62C94.1904 253.69 88.5604 254.96 82.5704 256.3C82.5304 256.35 82.8704 255.83 82.7304 256.05V256.06V256.08L82.7404 256.12L82.7604 256.19L82.7904 256.33L82.8504 256.61L82.9704 257.17C83.0504 257.54 83.1404 257.91 83.2204 258.28C83.3804 259.02 83.5504 259.75 83.7104 260.47C84.0304 261.92 84.3404 263.33 84.6504 264.71C85.2604 267.46 85.8304 270.06 86.3504 272.45L86.1304 272.31C91.0104 271.26 95.0804 270.39 97.9804 269.76C99.4004 269.46 100.53 269.23 101.34 269.06C101.71 268.99 102 268.93 102.24 268.88C102.45 268.84 102.56 268.82 102.56 268.83C102.56 268.83 102.47 268.86 102.28 268.91C102.06 268.97 101.77 269.04 101.42 269.12C100.62 269.31 99.5104 269.57 98.1204 269.9C95.2004 270.57 91.1004 271.52 86.1904 272.65L86.0104 272.69L85.9704 272.51C85.4304 270.12 84.8504 267.53 84.2304 264.78C83.9204 263.4 83.6004 261.99 83.2804 260.54C83.1204 259.82 82.9604 259.09 82.7904 258.35C82.7104 257.98 82.6204 257.61 82.5404 257.24L82.4204 256.68L82.3604 256.4L82.3304 256.26L82.3104 256.19V256.15L82.3004 256.13V256.12C82.1604 256.34 82.4904 255.81 82.4604 255.87C88.4604 254.54 94.0904 253.3 98.8704 252.24L99.0504 252.2L99.0904 252.38C100.15 257.3 101.03 261.42 101.66 264.35C101.95 265.75 102.18 266.87 102.35 267.67C102.42 268.02 102.48 268.31 102.52 268.54C102.56 268.73 102.57 268.83 102.56 268.83L102.57 268.84Z" fill="#09101D"/>
<path d="M102.56 268.83C102.56 268.82 102.45 268.84 102.24 268.88C102 268.93 101.71 268.99 101.34 269.06C100.53 269.23 99.4004 269.46 97.9804 269.76C95.0804 270.39 91.0104 271.26 86.1304 272.31L86.3504 272.45C85.8304 270.06 85.2604 267.46 84.6504 264.71C84.3404 263.33 84.0304 261.92 83.7104 260.47C83.5504 259.75 83.3804 259.02 83.2204 258.28C83.1404 257.91 83.0504 257.54 82.9704 257.17L82.8504 256.61L82.7904 256.33L82.7604 256.19L82.7404 256.12L82.7304 256.08V256.06V256.05C82.8704 255.83 82.5304 256.35 82.5704 256.3C88.5604 254.96 94.1904 253.69 98.9604 252.62L98.7404 252.48C99.8604 257.34 100.8 261.4 101.47 264.29C101.8 265.7 102.07 266.82 102.26 267.63C102.35 267.99 102.42 268.29 102.48 268.52C102.53 268.73 102.57 268.84 102.57 268.84L102.56 268.83ZM102.56 268.83C102.56 268.83 102.47 268.86 102.28 268.91C102.06 268.97 101.77 269.04 101.42 269.12C100.62 269.31 99.5104 269.57 98.1204 269.9C95.2004 270.57 91.1004 271.52 86.1904 272.65L86.0104 272.69L85.9704 272.51C85.4304 270.12 84.8504 267.53 84.2304 264.78C83.9204 263.4 83.6004 261.99 83.2804 260.54C83.1204 259.82 82.9604 259.09 82.7904 258.35C82.7104 257.98 82.6204 257.61 82.5404 257.24L82.4204 256.68L82.3604 256.4L82.3304 256.26L82.3104 256.19V256.15L82.3004 256.13V256.12C82.1604 256.34 82.4904 255.81 82.4604 255.87C88.4604 254.54 94.0904 253.3 98.8704 252.24L99.0504 252.2L99.0904 252.38C100.15 257.3 101.03 261.42 101.66 264.35C101.95 265.75 102.18 266.87 102.35 267.67C102.42 268.02 102.48 268.31 102.52 268.54C102.56 268.73 102.57 268.83 102.56 268.83Z" stroke="#09101D" stroke-width="0.75" stroke-linecap="round" stroke-linejoin="round"/>
<path d="M224.468 228.415L110.053 253.906L112.18 263.452L226.594 237.961L224.468 228.415Z" fill="#E3E7EB"/>
<path d="M74.1309 206.06L75.8509 203.36L80.9609 206.2L87.5309 196.28L90.0809 198.03L81.5909 210.53L74.1309 206.06Z" fill="#D29D7E"/>
<path d="M80.2598 233.56L81.9798 230.86L87.0898 233.7L93.6598 223.78L96.2098 225.53L87.7198 238.03L80.2598 233.56Z" fill="#D29D7E"/>
<path d="M86.541 261.76L88.261 259.05L93.371 261.89L99.941 251.97L102.491 253.73L94.001 266.23L86.541 261.76Z" fill="#D29D7E"/>
<path d="M160.46 291.99C160.49 292.1 156.93 292.99 152.52 293.97C148.11 294.95 144.52 295.66 144.49 295.54C144.46 295.43 148.02 294.54 152.43 293.56C156.84 292.58 160.43 291.87 160.46 291.99Z" fill="#09101D"/>
<path d="M231.801 269.53C231.831 269.64 223.131 271.68 212.391 274.07C201.641 276.47 192.911 278.32 192.891 278.2C192.861 278.09 201.551 276.05 212.301 273.66C223.041 271.27 231.781 269.42 231.801 269.53Z" fill="#09101D"/>
<path d="M222.511 295.86C222.511 295.86 222.601 295.59 222.701 295.06C222.821 294.54 222.821 293.73 222.581 292.75C222.331 291.76 221.811 290.63 221.201 289.31C220.611 288 219.841 286.44 219.831 284.54C219.861 282.68 220.681 280.61 222.361 279.16C224.021 277.68 226.641 277.16 229.011 277.92C230.191 278.3 231.331 278.97 232.171 280C232.571 280.52 232.901 281.15 232.921 281.87C232.981 282.6 232.421 283.33 231.751 283.56C231.081 283.81 230.441 283.89 229.781 284.05C229.121 284.19 228.461 284.32 227.791 284.46C226.451 284.72 225.091 284.97 223.701 285.15C220.921 285.52 218.131 285.57 215.521 285.2C214.241 285.06 212.891 285.04 211.931 285.79C210.971 286.52 210.481 287.71 209.771 288.71C209.421 289.21 208.971 289.7 208.381 289.96C207.801 290.23 207.121 290.22 206.551 290.04C205.401 289.65 204.551 288.88 203.631 288.36C203.181 288.09 202.711 287.88 202.221 287.83C201.741 287.78 201.261 287.9 200.881 288.17C200.111 288.72 199.701 289.63 199.191 290.39C198.181 292.01 196.441 292.77 194.971 292.83C193.461 292.9 192.241 292.26 191.471 291.59C190.681 290.9 190.291 290.17 190.091 289.67C189.891 289.16 189.861 288.88 189.861 288.88C189.881 288.88 189.941 289.15 190.161 289.64C190.391 290.12 190.791 290.82 191.571 291.47C192.341 292.11 193.521 292.69 194.951 292.6C196.361 292.53 197.991 291.78 198.941 290.24C199.441 289.5 199.821 288.56 200.701 287.92C201.131 287.61 201.701 287.46 202.261 287.51C202.821 287.56 203.331 287.8 203.811 288.08C204.761 288.62 205.621 289.37 206.661 289.71C207.181 289.87 207.741 289.87 208.231 289.64C208.731 289.42 209.131 289 209.461 288.51C210.151 287.56 210.621 286.33 211.701 285.49C212.241 285.07 212.911 284.86 213.571 284.79C214.241 284.72 214.911 284.76 215.571 284.82C218.181 285.19 220.891 285.13 223.661 284.77C225.041 284.59 226.391 284.35 227.731 284.09C228.401 283.95 229.061 283.82 229.711 283.68C230.361 283.53 231.041 283.44 231.611 283.22C232.181 283.01 232.571 282.51 232.531 281.92C232.521 281.34 232.241 280.76 231.871 280.29C231.101 279.35 230.021 278.7 228.901 278.33C226.651 277.6 224.181 278.08 222.601 279.47C220.991 280.84 220.181 282.81 220.141 284.59C220.141 286.39 220.851 287.94 221.431 289.26C222.021 290.58 222.531 291.75 222.761 292.76C222.981 293.77 222.951 294.6 222.801 295.12C222.671 295.65 222.531 295.9 222.531 295.9L222.511 295.86Z" fill="#09101D"/>
<path d="M243.18 283.06C243.18 283.06 243 283.13 242.66 283.22C242.27 283.31 241.77 283.43 241.15 283.58C239.78 283.9 237.89 284.34 235.57 284.87C230.86 285.96 224.36 287.5 217.22 289.31C210.07 291.12 203.62 292.87 198.96 294.15C196.67 294.78 194.79 295.3 193.44 295.67C192.82 295.83 192.32 295.97 191.94 296.07C191.59 296.16 191.41 296.2 191.41 296.18C191.41 296.17 191.58 296.1 191.92 295.99C192.3 295.87 192.79 295.71 193.4 295.51C194.69 295.1 196.56 294.54 198.88 293.86C203.52 292.5 209.96 290.71 217.11 288.9C224.26 287.09 230.77 285.59 235.5 284.57C237.86 284.06 239.78 283.66 241.11 283.41C241.74 283.29 242.25 283.2 242.64 283.12C242.99 283.06 243.18 283.03 243.18 283.05V283.06Z" fill="#09101D"/>
<path d="M161.164 63.6414L83.498 80.9448L86.7491 95.5371L164.415 78.2336L161.164 63.6414Z" fill="#E3E7EB"/>
<path d="M234.631 300.43L259.731 432.99L282.661 390.63L326.121 416.13L279.981 287.05L234.631 300.43Z" fill="#D29D7E"/>
<path d="M243.071 345.01C247.711 345.97 253.121 344.33 256.411 340.92C258.701 338.55 260.221 335.34 263.101 333.76C265.691 332.34 268.881 332.54 271.721 333.33C274.561 334.12 277.251 335.43 280.101 336.18C285.701 337.63 291.881 336.72 296.821 333.7L289.581 313.6L255.981 309.4L239.961 328.65L243.061 345.02L243.071 345.01Z" fill="#BC7E58"/>
<path d="M238.31 307.33L213.21 439.89L190.28 397.52L146.82 423.03L192.96 293.95L238.31 307.33Z" fill="#D29D7E"/>
<path d="M179.16 332.55C179.16 332.55 186.3 338.42 194.81 335.72C203.32 333.01 208.61 332.44 213.22 335.72C217.83 339 230.3 349.68 230.3 349.68L233.19 334.39L216.44 311.39L198.95 314.92L186.49 316.16L181.86 324.92L179.15 332.55H179.16Z" fill="#BC7E58"/>
<path d="M385.419 187.66C385.419 197.17 373.259 205.36 371.479 214.35C369.649 223.61 377.709 235.82 374.179 244.34C370.579 253.01 356.209 255.93 351.059 263.63C345.859 271.4 348.629 285.78 342.049 292.36C335.469 298.94 321.079 296.17 313.319 301.37C305.609 306.53 302.699 320.9 294.029 324.49C285.509 328.02 273.299 319.96 264.039 321.79C255.049 323.57 246.859 335.73 237.349 335.73C227.839 335.73 219.649 323.57 210.659 321.79C201.399 319.96 189.189 328.02 180.669 324.49C171.999 320.89 169.079 306.52 161.379 301.37C153.609 296.17 139.229 298.94 132.649 292.36C126.069 285.78 128.839 271.39 123.639 263.63C118.479 255.92 104.109 253.01 100.519 244.34C96.9893 235.82 105.049 223.61 103.219 214.35C101.439 205.36 89.2793 197.17 89.2793 187.66C89.2793 178.15 101.439 169.96 103.219 160.97C105.049 151.71 96.9893 139.5 100.519 130.98C104.119 122.31 118.489 119.39 123.639 111.69C128.839 103.92 126.069 89.5398 132.649 82.9598C139.229 76.3798 153.619 79.1498 161.379 73.9498C169.089 68.7898 171.999 54.4198 180.669 50.8298C189.189 47.2998 201.399 55.3598 210.659 53.5298C219.649 51.7498 227.839 39.5898 237.349 39.5898C246.859 39.5898 255.049 51.7498 264.039 53.5298C273.299 55.3598 285.509 47.2998 294.029 50.8298C302.699 54.4298 305.619 68.7998 313.319 73.9498C321.089 79.1498 335.469 76.3798 342.049 82.9598C348.629 89.5398 345.859 103.93 351.059 111.69C356.219 119.4 370.589 122.31 374.179 130.98C377.709 139.5 369.649 151.71 371.479 160.97C373.259 169.96 385.419 178.15 385.419 187.66Z" fill="#D29D7E"/>
<path d="M132.621 82.9495L176.121 121.039L186.931 112.389L161.691 73.7095C161.691 73.7095 159.761 75.1295 154.731 76.5695C149.861 77.9595 135.521 78.3295 132.621 82.9595V82.9495Z" fill="#BC7E58"/>
<path d="M181.041 50.7298L202.281 103.9L215.851 99.6498L211.331 53.5298C211.331 53.5298 208.991 54.0798 203.811 53.4198C198.791 52.7798 186.591 48.0098 181.041 50.7298Z" fill="#BC7E58"/>
<path d="M237.69 39.5896L239.11 97.3296L251.83 97.9396L264.71 53.6196C264.46 53.5996 261.14 53.0196 257.22 50.5196C252.81 47.6996 243.84 39.1296 237.68 39.5896H237.69Z" fill="#BC7E58"/>
<path d="M293.171 50.4997L272.061 103.73L283.551 109.22L312.601 73.3597C312.381 73.2397 309.631 70.9497 307.081 66.8697C304.311 62.4297 299.591 52.2697 293.161 50.4897L293.171 50.4997Z" fill="#BC7E58"/>
<path d="M342.74 83.7197L303.42 124.7L312.18 136.51L350.6 110.87C350.6 110.87 348.99 108.31 348.07 103.39C347.15 98.4097 347.01 89.3397 342.74 83.7297V83.7197Z" fill="#BC7E58"/>
<path d="M373.78 129.98L320.83 151.77L325.22 165.3L371.29 160.3C371.29 160.3 371 158.88 371.61 153.68C372.2 148.65 377.48 137.41 373.78 129.97V129.98Z" fill="#BC7E58"/>
<path d="M385.501 187.659L327.781 189.679L327.301 202.409L371.341 215.289C371.361 215.039 371.751 212.559 373.091 210.029C376.331 203.899 385.511 195.259 385.511 187.649L385.501 187.659Z" fill="#BC7E58"/>
<path d="M374.87 242.25L321.72 221.53L316.34 233.08L352.5 261.76C352.61 261.54 354.72 259.58 358.78 257C363.19 254.19 373.65 249.64 374.87 242.25Z" fill="#BC7E58"/>
<path d="M296.691 241.42L283.541 252.46C284.541 253.5 302.071 283.3 312.871 301.72C313.021 301.61 313.161 301.48 313.311 301.38C320.431 296.62 333.081 298.53 340.221 293.81L296.691 241.41V241.42Z" fill="#BC7E58"/>
<path d="M272.521 262.31L252.881 269.01L262.181 322.33C262.791 322.12 263.411 321.94 264.031 321.82C273.291 319.99 285.501 328.05 294.021 324.52C295.191 324.03 296.251 323.34 297.241 322.51L272.521 262.32V262.31Z" fill="#BC7E58"/>
<path d="M236.65 335.72L239.79 266.06L222.81 261.76L210.17 321.74C210.33 321.77 210.48 321.79 210.64 321.82C219.41 323.56 227.43 335.17 236.65 335.73V335.72Z" fill="#BC7E58"/>
<path d="M193.949 254.229C193.949 254.229 171.509 284.29 159.779 300.48C160.329 300.75 160.859 301.05 161.359 301.39C169.069 306.55 171.979 320.92 180.649 324.51C181.049 324.67 181.459 324.81 181.869 324.92L213.219 265.579L193.959 254.229H193.949Z" fill="#BC7E58"/>
<path d="M170.921 230.03L123.061 262.93C123.241 263.17 123.441 263.4 123.611 263.64C128.811 271.41 126.041 285.79 132.621 292.37C133.231 292.98 133.921 293.48 134.641 293.94C151.551 274.88 181.911 240.66 183.011 239.47L170.921 230.02V230.03Z" fill="#BC7E58"/>
<path d="M159.951 206.55L103.361 215.69C104.261 224.77 97.1108 236.23 100.471 244.35C100.681 244.85 100.931 245.32 101.201 245.78C121.001 235.92 162.381 215.41 164.101 215.3L159.941 206.55H159.951Z" fill="#BC7E58"/>
<path d="M156.86 175.03L103.37 159.59C103.33 160.06 103.27 160.52 103.18 160.97C101.4 169.96 89.2402 178.15 89.2402 187.66C89.2402 188.3 89.3002 188.93 89.4002 189.56H154.69L156.86 175.03Z" fill="#BC7E58"/>
<path d="M100.701 130.55C120.691 141.26 159.781 162.93 159.781 162.93L169.401 144.66L124.211 110.64C124.021 110.99 123.831 111.35 123.611 111.68C118.541 119.26 104.591 122.21 100.701 130.55Z" fill="#BC7E58"/>
<path d="M237.331 278.44C287.467 278.44 328.111 237.796 328.111 187.66C328.111 137.523 287.467 96.8799 237.331 96.8799C187.194 96.8799 146.551 137.523 146.551 187.66C146.551 237.796 187.194 278.44 237.331 278.44Z" fill="white"/>
<path d="M181.441 156.21C180.191 157.46 173.301 169.98 172.681 180.3C172.051 190.63 173.541 248.62 173.541 248.62L173.811 252.46C190.151 271.57 249.551 300.01 303.051 252.36L306.051 216.69L297.221 141.18L266.551 133.67L259.361 122.01L211.431 133.23L207.161 143.33L181.441 156.19V156.21Z" fill="#414751"/>
<path d="M256.03 91.6595C258.14 83.8195 260.22 75.9095 260.95 67.8195C261.68 59.7295 261 51.3695 257.79 43.9095C257.3 42.7795 253.25 35.2295 252.03 35.4195C251.16 35.5495 253.78 42.6495 253.38 43.4295C249.53 50.8995 248.83 59.6695 249.94 67.9995C251.04 76.3295 253.17 83.7595 256.04 91.6595" fill="#09101D"/>
<path d="M255.241 60.6699C254.851 40.2999 242.681 23.5499 222.321 24.4999L220.441 24.6999C201.571 26.6899 187.381 42.8399 187.841 61.8099C188.271 79.4599 188.981 98.9599 190.081 108.34C192.371 127.76 212.131 128.73 212.131 128.73C212.171 128.73 213.041 141.5 213.041 141.5L221.391 150.57L260.101 126.59L255.221 60.6699H255.241Z" fill="#FFBF9D"/>
<path d="M212.151 128.87C212.151 128.87 224.481 128.3 236.671 118.72C236.671 118.72 232.591 136.33 213.001 136.62L212.141 128.87H212.151Z" fill="#FF9A6C"/>
<path d="M199.031 77.6397C199.131 79.1097 200.461 80.2397 202.001 80.1597C203.541 80.0797 204.701 78.8297 204.601 77.3497C204.501 75.8797 203.171 74.7497 201.631 74.8297C200.091 74.9097 198.931 76.1697 199.031 77.6397Z" fill="#09101D"/>
<path d="M192.851 69.4295C193.231 69.7595 195.171 67.9795 198.161 67.6695C201.141 67.3195 203.501 68.6295 203.781 68.2295C203.921 68.0495 203.501 67.4295 202.471 66.8395C201.461 66.2495 199.781 65.7395 197.921 65.9495C196.061 66.1595 194.571 67.0095 193.741 67.7995C192.901 68.5995 192.651 69.2895 192.841 69.4295H192.851Z" fill="#09101D"/>
<path d="M225.42 75.3999C225.52 76.8699 226.85 77.9999 228.39 77.9199C229.93 77.8399 231.09 76.5899 230.99 75.1099C230.89 73.6399 229.56 72.5099 228.02 72.5899C226.48 72.6699 225.32 73.9299 225.42 75.3999Z" fill="#09101D"/>
<path d="M222.252 67.5599C222.632 67.8899 224.572 66.1099 227.562 65.7999C230.542 65.4499 232.892 66.7599 233.182 66.3599C233.322 66.1799 232.912 65.5599 231.872 64.9699C230.862 64.3799 229.182 63.8699 227.322 64.0799C225.462 64.2899 223.972 65.1399 223.142 65.9299C222.302 66.7299 222.052 67.4199 222.242 67.5599H222.252Z" fill="#09101D"/>
<path d="M213.951 91.64C213.951 91.47 212.061 91.34 209.011 91.28C208.241 91.28 207.501 91.21 207.321 90.7C207.081 90.17 207.321 89.31 207.591 88.38C208.111 86.46 208.661 84.44 209.231 82.33C211.491 73.73 213.041 66.69 212.701 66.6C212.351 66.51 210.241 73.41 207.981 82.01C207.441 84.13 206.921 86.15 206.441 88.08C206.241 88.98 205.851 90.01 206.361 91.12C206.631 91.67 207.231 92.02 207.731 92.1C208.231 92.2 208.661 92.16 209.041 92.14C212.091 91.98 213.971 91.8 213.961 91.63L213.951 91.64Z" fill="#09101D"/>
<path d="M222.962 92.7798C222.472 92.7998 222.812 96.0498 220.272 98.6398C217.742 101.24 214.252 101.24 214.272 101.7C214.252 101.91 215.112 102.25 216.572 102.14C218.012 102.04 220.052 101.36 221.602 99.7698C223.142 98.1798 223.672 96.2198 223.642 94.8798C223.622 93.5098 223.172 92.7498 222.952 92.7898L222.962 92.7798Z" fill="#09101D"/>
<path d="M221.132 55.4195C221.512 56.1995 224.452 55.4995 228.002 55.5495C231.552 55.5295 234.492 56.2595 234.872 55.4795C235.042 55.1095 234.472 54.3995 233.242 53.7295C232.022 53.0595 230.142 52.5095 228.012 52.4995C225.882 52.4995 223.992 53.0295 222.772 53.6795C221.542 54.3295 220.962 55.0395 221.122 55.4095L221.132 55.4195Z" fill="#09101D"/>
<path d="M193.041 59.3697C193.641 59.9897 195.621 59.0697 198.091 58.7797C200.551 58.3997 202.711 58.7497 203.121 57.9897C203.291 57.6197 202.891 56.9797 201.911 56.4297C200.941 55.8897 199.381 55.5197 197.681 55.7497C195.981 55.9797 194.581 56.7497 193.791 57.5397C192.991 58.3297 192.781 59.0597 193.041 59.3597V59.3697Z" fill="#09101D"/>
<path d="M255.172 75.23C255.492 75.05 268.112 69.87 269.092 83.21C270.072 96.55 256.482 94.78 256.422 94.39C256.372 94.01 255.172 75.23 255.172 75.23Z" fill="#FFBF9D"/>
<path d="M260.122 89.0397C260.182 88.9897 260.362 89.1897 260.772 89.3397C261.172 89.4897 261.832 89.5597 262.512 89.2497C263.882 88.6297 264.902 86.3097 264.792 83.8997C264.732 82.6797 264.402 81.5497 263.902 80.6197C263.422 79.6697 262.742 79.0397 262.022 78.9597C261.302 78.8497 260.832 79.3097 260.702 79.6997C260.552 80.0897 260.652 80.3497 260.582 80.3697C260.552 80.4097 260.282 80.1697 260.342 79.6097C260.382 79.3397 260.512 79.0097 260.802 78.7397C261.102 78.4597 261.562 78.2897 262.062 78.3097C263.092 78.3097 264.092 79.1797 264.642 80.1997C265.252 81.2197 265.662 82.4897 265.722 83.8597C265.832 86.5497 264.642 89.1697 262.752 89.8697C261.832 90.1797 261.032 89.9597 260.602 89.6697C260.162 89.3697 260.072 89.0797 260.122 89.0497V89.0397Z" fill="#FF9A6C"/>
<path d="M195.061 39.1398C192.821 38.0898 198.851 30.6798 204.011 27.9298C211.801 23.7698 223.901 20.7498 231.431 22.3698C240.501 24.3198 248.181 28.2798 253.171 36.0898C258.161 43.9098 260.451 53.2397 260.791 62.5098C260.891 65.3398 260.791 68.2998 259.441 70.7798C257.771 73.8498 254.311 75.9398 254.731 79.9998C254.881 81.4798 254.561 83.0098 253.611 84.1598C251.341 86.9098 248.191 84.6698 246.661 82.3097C243.391 77.2697 242.661 71.0498 242.021 65.0798C241.561 60.8398 241.111 56.4998 242.051 52.3298C242.561 50.0598 243.471 47.8898 243.861 45.5998C244.241 43.3097 244.011 40.7498 242.491 38.9998C242.241 38.7098 241.841 38.3598 241.341 37.9698C237.351 34.8998 231.991 34.2498 227.361 36.2298C220.021 39.3698 207.441 44.1698 203.921 41.8298C198.861 38.4698 197.551 36.1498 197.551 36.1498L195.081 39.1198L195.061 39.1398Z" fill="#09101D"/>
<path d="M181.441 156.21C180.671 157.28 169.741 160.91 165.591 167.82C161.441 174.73 157.341 205.75 157.341 205.75L154.791 225.49C159.031 234.54 165.921 245.78 174.281 252.97L181.441 156.22V156.21Z" fill="#414751"/>
<g opacity="0.3">
<path d="M263.561 186.16C264.021 190.32 264.491 194.53 265.921 198.47C267.351 202.4 269.861 206.1 273.531 208.13C275.061 208.98 276.801 209.54 278.081 210.73C279.461 212.01 280.151 213.87 281.401 215.28C282.851 216.92 284.951 217.83 287.011 218.57C293.121 220.74 299.151 221.77 305.631 221.54C305.831 219.4 305.841 211.54 306.041 209.4L263.561 186.17V186.16Z" fill="#09101D"/>
</g>
<path d="M297.211 141.19C297.211 141.19 310.991 145.27 315.031 151.14C319.071 157.01 326.221 179.77 327.691 183.99C329.161 188.21 327.871 198 325.121 205.03C322.371 212.06 317.591 218.12 309.341 219.04C301.091 219.96 288.051 215.19 285.121 212.07C282.191 208.95 280.961 201.95 280.961 201.95C284.621 201.31 288.241 200.4 291.781 199.24" fill="#414751"/>
<path d="M291.889 144.63C291.969 144.64 291.769 146.04 291.609 148.29C291.449 150.55 291.369 153.68 291.679 157.12C291.959 160.42 292.559 163.39 293.089 165.54L292.729 165.66C292.319 164.5 291.999 163.57 291.789 162.91C291.579 162.25 291.479 161.89 291.509 161.88C291.539 161.87 291.709 162.21 291.979 162.84C292.249 163.47 292.629 164.39 293.079 165.53L292.719 165.65C292.099 163.5 291.439 160.52 291.159 157.18C290.849 153.71 290.979 150.54 291.239 148.28C291.369 147.15 291.509 146.24 291.639 145.61C291.769 144.98 291.849 144.64 291.889 144.65V144.63Z" fill="#09101D" stroke="#09101D" stroke-width="0.5" stroke-linecap="round" stroke-linejoin="round"/>
<path d="M272.41 118.97C272.41 118.97 265.26 118.97 264.36 127.57C263.67 134.17 264.36 140.58 264.36 143.47C264.36 146.36 263.09 156.64 263.09 156.64C263.09 156.64 258.21 160.97 258.29 166.17C258.37 171.4 262.09 172.99 262.09 172.99C262.09 172.99 259.82 177.94 264.15 182.49C264.15 182.49 262.07 187.28 263.78 190.51C265.1 193.01 268.07 193.84 268.07 193.84C268.07 193.84 265.96 198.56 271.03 200.55C274.03 201.72 278.46 201.46 278.46 201.46L283.8 201.36L288.5 203.96C288.5 203.96 296.55 200.45 296.76 195.7L296.97 190.95C296.97 190.95 294.7 183.11 294.49 180.63C294.28 178.15 296.35 172.17 295.11 169.48C293.87 166.8 289.54 165.22 289.95 161.47C290.36 157.72 289.54 155.65 287.68 153.59C285.82 151.53 277.61 147.4 277.61 147.4C277.61 147.4 275.5 141.41 275.5 137.28C275.5 133.15 279.63 120.56 272.4 118.98L272.41 118.97Z" fill="#FFBF9D"/>
<path d="M277.231 148.95C277.271 149.01 276.511 149.5 275.251 150.23C273.991 150.97 272.241 151.95 270.291 153.01C268.341 154.07 266.551 155.01 265.251 155.66C263.951 156.31 263.121 156.69 263.091 156.62C263.061 156.55 263.821 156.07 265.071 155.33C266.331 154.59 268.081 153.61 270.031 152.55C271.981 151.49 273.761 150.56 275.071 149.9C276.371 149.25 277.201 148.87 277.231 148.94V148.95Z" fill="#FF9A6C"/>
<path d="M281.921 165.12C281.921 165.12 281.721 165.35 281.301 165.68C280.881 166.02 280.251 166.47 279.441 166.99C277.831 168.04 275.481 169.32 272.741 170.37C269.991 171.42 267.391 172.03 265.491 172.33C264.541 172.48 263.771 172.57 263.231 172.6C262.691 172.63 262.401 172.64 262.391 172.6C262.391 172.52 263.551 172.36 265.421 171.97C267.291 171.58 269.841 170.92 272.551 169.89C275.261 168.85 277.601 167.64 279.251 166.68C280.901 165.72 281.881 165.06 281.931 165.13L281.921 165.12Z" fill="#FF9A6C"/>
<path d="M288.06 159.98C288.19 160.02 287.92 160.94 287.07 161.71C286.23 162.48 285.29 162.66 285.26 162.53C285.21 162.39 285.98 162.02 286.72 161.32C287.48 160.64 287.92 159.91 288.06 159.98Z" fill="#FF9A6C"/>
<path d="M285.119 179.28C285.139 179.34 284.009 179.8 282.129 180.38C280.249 180.96 277.599 181.62 274.629 182.1C271.659 182.58 268.939 182.78 266.969 182.82C264.999 182.87 263.779 182.78 263.779 182.72C263.779 182.64 264.989 182.59 266.949 182.45C268.899 182.31 271.599 182.06 274.549 181.58C277.499 181.1 280.129 180.5 282.029 180.02C283.929 179.54 285.099 179.2 285.119 179.28Z" fill="#FF9A6C"/>
<path d="M291.649 178.09C291.579 178.05 291.889 177.5 292.199 176.56C292.509 175.62 292.769 174.26 292.589 172.77C292.409 171.28 291.839 170.01 291.319 169.18C290.799 168.34 290.369 167.88 290.429 167.82C290.469 167.77 290.999 168.14 291.629 168.97C292.249 169.79 292.929 171.12 293.119 172.71C293.309 174.3 292.969 175.75 292.559 176.69C292.149 177.64 291.719 178.13 291.669 178.09H291.649Z" fill="#FF9A6C"/>
<path d="M285.49 193.75C285.5 193.81 284.54 194.08 282.95 194.35C281.36 194.62 279.13 194.85 276.66 194.84C274.19 194.84 271.97 194.59 270.38 194.31C268.79 194.04 267.83 193.76 267.84 193.7C267.86 193.62 268.84 193.77 270.43 193.95C272.02 194.13 274.22 194.31 276.66 194.32C279.1 194.32 281.3 194.16 282.9 193.98C284.49 193.81 285.48 193.67 285.49 193.75Z" fill="#FF9A6C"/>
<path d="M272.791 137.39C272.821 137.45 272.471 137.71 271.801 137.95C271.141 138.19 270.141 138.36 269.061 138.23C267.981 138.1 267.051 137.7 266.461 137.31C265.871 136.92 265.591 136.58 265.631 136.53C265.721 136.4 267.081 137.49 269.121 137.71C271.161 137.97 272.731 137.24 272.791 137.38V137.39Z" fill="#FF9A6C"/>
<path d="M293.14 178.69C293.14 178.69 293.23 178.96 293.25 179.46C293.26 179.96 293.2 180.69 293 181.57C292.81 182.45 292.48 183.46 292.16 184.57C291.86 185.68 291.57 186.94 291.79 188.21C291.96 189.47 292.91 190.5 293.06 191.79C293.23 193.05 292.73 194.12 292.27 194.88C291.79 195.65 291.32 196.2 290.98 196.56C290.64 196.92 290.43 197.11 290.41 197.08C290.33 197.02 291.1 196.2 291.96 194.69C292.36 193.94 292.77 192.94 292.59 191.85C292.47 190.76 291.51 189.74 291.28 188.29C291.04 186.87 291.38 185.55 291.71 184.43C292.06 183.3 292.42 182.32 292.65 181.47C293.15 179.78 293.05 178.68 293.14 178.68V178.69Z" fill="#FF9A6C"/>
<path d="M220.371 151.69C220.371 151.69 219.941 151.41 219.211 150.82C218.421 150.17 217.401 149.32 216.181 148.31C215.541 147.77 214.841 147.18 214.101 146.56C213.731 146.25 213.351 145.92 212.921 145.71C212.491 145.5 212.011 145.44 211.581 145.66C210.721 146.11 210.141 147.22 209.401 148.14C208.691 149.1 207.951 150.09 207.201 151.11C205.991 152.73 204.831 154.28 203.761 155.72L203.111 156.58L203.321 155.52C204.021 151.9 205.001 148.88 205.811 146.8C206.211 145.76 206.571 144.94 206.831 144.39C207.091 143.84 207.251 143.55 207.271 143.56C207.301 143.57 207.191 143.88 206.981 144.45C206.771 145.02 206.461 145.85 206.101 146.9C205.381 149.01 204.471 152.02 203.811 155.61L203.371 155.42C204.441 153.98 205.591 152.42 206.791 150.8C207.551 149.79 208.291 148.8 209.001 147.84C209.361 147.36 209.711 146.89 210.061 146.43C210.421 145.97 210.821 145.5 211.381 145.23C211.951 144.94 212.641 145.04 213.131 145.3C213.631 145.56 214.021 145.91 214.391 146.23C215.111 146.87 215.791 147.47 216.421 148.03C217.601 149.09 218.581 149.98 219.341 150.66C220.021 151.29 220.391 151.65 220.371 151.68V151.69Z" fill="#09101D" stroke="#09101D" stroke-width="0.5" stroke-linecap="round" stroke-linejoin="round"/>
<path d="M262.6 143.23C262.6 143.23 262.48 143.36 262.21 143.58C261.89 143.83 261.5 144.13 261.03 144.5C259.93 145.33 258.44 146.45 256.62 147.82C252.81 150.62 247.64 154.43 241.91 158.65L241.69 158.81L241.54 158.58C241.42 158.4 241.3 158.2 241.18 158.01C238.47 153.73 235.94 149.74 233.8 146.35L234.07 146.44C230.54 147.84 227.76 149.38 225.87 150.53C224.92 151.1 224.2 151.58 223.7 151.9C223.2 152.22 222.94 152.39 222.92 152.37C222.91 152.35 223.15 152.15 223.62 151.79C224.09 151.43 224.8 150.92 225.73 150.31C227.59 149.1 230.35 147.49 233.9 146.03L234.07 145.96L234.17 146.12C236.33 149.49 238.88 153.47 241.62 157.73C241.74 157.93 241.87 158.12 241.98 158.3L241.61 158.23C247.38 154.06 252.58 150.3 256.42 147.53C258.28 146.22 259.8 145.14 260.92 144.35C261.42 144.01 261.83 143.73 262.16 143.51C262.45 143.32 262.6 143.23 262.61 143.24L262.6 143.23Z" fill="#09101D" stroke="#09101D" stroke-width="0.5" stroke-linecap="round" stroke-linejoin="round"/>
<path d="M172.85 183C172.85 183 172.89 183.24 172.9 183.71C172.91 184.22 172.93 184.9 172.96 185.73C172.99 187.55 173.04 190.08 173.1 193.17C173.22 199.45 173.47 208.13 173.8 217.72C174.13 227.31 174.32 236 174.34 242.28C174.35 245.42 174.34 247.97 174.31 249.73C174.29 250.57 174.28 251.24 174.27 251.75C174.25 252.21 174.24 252.46 174.22 252.46C174.2 252.46 174.18 252.22 174.17 251.75C174.16 251.24 174.14 250.56 174.11 249.73C174.08 247.91 174.03 245.39 173.97 242.29C173.85 236.01 173.6 227.33 173.27 217.74C172.94 208.15 172.75 199.47 172.73 193.18C172.72 190.04 172.73 187.49 172.76 185.73C172.78 184.89 172.79 184.22 172.8 183.71C172.82 183.25 172.83 183 172.85 183Z" fill="#09101D" stroke="#09101D" stroke-width="0.5" stroke-linecap="round" stroke-linejoin="round"/>
<path d="M220.701 273.33C220.701 273.33 220.671 273.23 220.651 273.04C220.631 272.82 220.591 272.54 220.551 272.19C220.471 271.41 220.371 270.31 220.231 268.92C219.951 266.08 219.631 261.96 219.311 256.87C218.981 251.78 218.721 245.71 218.541 238.96C218.391 232.21 218.361 224.79 218.521 217.01C218.701 209.22 219.061 201.81 219.501 195.07C219.971 188.34 220.501 182.28 221.041 177.21C221.581 172.14 222.081 168.04 222.481 165.21C222.681 163.83 222.831 162.74 222.941 161.96C222.991 161.61 223.041 161.34 223.071 161.12C223.101 160.93 223.121 160.83 223.131 160.83C223.131 160.83 223.131 160.93 223.121 161.12C223.101 161.34 223.071 161.62 223.041 161.97C222.951 162.75 222.831 163.85 222.671 165.23C222.331 168.06 221.891 172.17 221.401 177.24C220.901 182.31 220.411 188.37 219.971 195.1C219.561 201.83 219.211 209.24 219.031 217.02C218.871 224.8 218.891 232.21 219.011 238.95C219.161 245.69 219.381 251.76 219.661 256.85C219.931 261.94 220.201 266.06 220.411 268.91C220.501 270.3 220.581 271.4 220.631 272.19C220.651 272.54 220.661 272.82 220.671 273.04C220.671 273.23 220.671 273.33 220.671 273.33H220.701Z" fill="#09101D" stroke="#09101D" stroke-width="0.5" stroke-linecap="round" stroke-linejoin="round"/>
</g>
<defs>
<clipPath id="clip0_2106_14504">
<rect width="445" height="440" fill="white"/>
</clipPath>
</defs>
</svg>
