<svg width="286" height="252" viewBox="0 0 286 252" fill="none" xmlns="http://www.w3.org/2000/svg">
<g clip-path="url(#clip0_1962_13699)">
<path d="M190.103 104.825L185.324 101.015C185.268 100.543 185.203 100.061 185.119 99.5878C185.045 99.1151 184.952 98.6424 184.868 98.1696L188.215 93.0716C189.48 91.3383 188.829 89.4381 186.755 88.8542L180.954 86.9076C180.517 86.0549 180.043 85.2207 179.55 84.405L180.954 78.4542C181.549 76.3872 180.284 74.83 178.127 74.9875L171.926 75.1358C171.247 74.5148 170.559 73.9216 169.843 73.3469L169.109 67.1922C168.96 65.051 167.231 64.0129 165.269 64.8934L159.402 67.1829C158.603 66.8585 157.794 66.5526 156.976 66.2745L154.121 60.6482C153.247 58.6831 151.267 58.3031 149.724 59.8047L144.889 64.0499C144.099 64.0221 143.299 64.0129 142.499 64.0314L137.786 59.61C136.289 58.0621 134.299 58.3772 133.36 60.3145L130.199 66.0799C129.511 66.3024 128.823 66.5433 128.153 66.8029L122.082 64.2075C120.148 63.2621 118.382 64.2353 118.168 66.3765L117.154 73.0132C116.643 73.421 116.132 73.8289 115.639 74.2553L108.898 73.8752C106.76 73.6435 105.44 75.1636 105.96 77.2492L107.308 83.9508C106.992 84.4513 106.695 84.9611 106.397 85.4802L99.8239 87.4545C97.732 87.9736 97.0161 89.846 98.2248 91.6256L101.823 97.5208C101.702 98.0677 101.6 98.6238 101.497 99.18L95.9562 103.314C94.171 104.51 94.1339 106.521 95.8818 107.782L101.321 112.12C101.358 112.388 101.395 112.657 101.442 112.926C101.488 113.195 101.535 113.464 101.581 113.733L97.7692 119.544C96.5047 121.278 97.1555 123.178 99.2289 123.762L105.784 125.968C106.044 126.468 106.323 126.96 106.611 127.451L105.031 134.171C104.435 136.238 105.7 137.795 107.857 137.638L114.728 137.471C115.165 137.869 115.611 138.259 116.067 138.639L116.876 145.424C117.024 147.565 118.754 148.603 120.715 147.722L127 145.266C127.605 145.516 128.209 145.757 128.832 145.98L131.863 151.968C132.737 153.933 134.717 154.313 136.261 152.811L141.226 148.455C141.942 148.492 142.667 148.501 143.392 148.501L148.199 152.997C149.696 154.545 151.685 154.229 152.624 152.292L155.73 146.629C156.492 146.397 157.245 146.147 157.989 145.869L163.911 148.399C165.845 149.345 167.612 148.371 167.826 146.23L168.774 139.992C169.462 139.473 170.141 138.935 170.801 138.37L177.095 138.722C179.234 138.954 180.554 137.434 180.033 135.348L178.806 129.268C179.308 128.498 179.782 127.72 180.229 126.922L186.16 125.134C188.252 124.614 188.968 122.742 187.76 120.962L184.571 115.744C184.784 114.817 184.97 113.872 185.119 112.926L190.019 109.274C191.804 108.078 191.841 106.067 190.093 104.806L190.103 104.825ZM148.162 136.683C131.296 139.371 115.444 127.914 112.757 111.1C110.06 94.2859 121.552 78.482 138.418 75.8032C155.283 73.1152 171.126 84.5718 173.823 101.386C176.519 118.2 165.027 134.004 148.171 136.683H148.162Z" fill="#EBD5C7"/>
<path d="M90.3663 107.921C90.3849 107.439 90.3942 106.957 90.4035 106.475C90.4035 105.993 90.4035 105.511 90.3849 105.029L94.5129 100.542C96.047 99.0314 95.703 97.0571 93.7598 96.1394L88.358 93.2753C88.0605 92.3576 87.7351 91.4585 87.3818 90.5779L89.734 84.933C90.6545 82.9958 89.6597 81.2532 87.5119 81.0585L81.3756 80.2058C80.8084 79.4828 80.2227 78.7876 79.6091 78.1017L79.888 71.9099C80.0925 69.7687 78.5492 68.4711 76.4665 69.0272L70.3023 70.3342C69.5678 69.88 68.8147 69.4536 68.0523 69.0457L66.1556 63.0301C65.6164 60.9538 63.7197 60.2586 61.9531 61.4821L56.4955 64.8839C55.7145 64.7263 54.9335 64.5966 54.1432 64.4761L50.2104 59.3595C48.9831 57.5891 46.9749 57.5798 45.729 59.341L41.6753 64.5224C40.9594 64.6336 40.2435 64.7541 39.5369 64.9024L33.9677 61.3616C32.2105 60.1196 30.3138 60.7962 29.7559 62.8725L27.6826 69.2589C27.1062 69.5741 26.539 69.8985 25.9812 70.2415L19.3892 68.7769C17.3159 68.2023 15.7632 69.4907 15.9492 71.6318L16.1909 78.4632C15.8004 78.9081 15.4192 79.3623 15.0473 79.8258L8.24155 80.7156C6.09383 80.8917 5.0804 82.625 5.98226 84.5715L8.57626 90.9673C8.37171 91.4956 8.17646 92.0239 7.99051 92.5523L1.85417 95.7316C-0.107599 96.6307 -0.460903 98.605 1.05459 100.125L5.72193 105.279C5.72193 105.548 5.71263 105.816 5.70333 106.094C5.70333 106.363 5.70333 106.641 5.70333 106.91L0.998802 112.027C-0.535283 113.538 -0.191276 115.512 1.7519 116.43L7.86965 119.665C8.0463 120.202 8.24155 120.73 8.44609 121.259L5.79631 127.627C4.87586 129.564 5.87069 131.316 8.01841 131.501L14.8242 132.447C15.1961 132.91 15.568 133.374 15.9585 133.818L15.6516 140.65C15.4471 142.791 16.9905 144.089 19.0731 143.533L25.6743 142.133C26.2322 142.476 26.79 142.81 27.3665 143.134L29.384 149.539C29.9233 151.615 31.82 152.31 33.5865 151.087L39.1929 147.592C39.8995 147.741 40.6061 147.88 41.3313 147.991L45.3385 153.209C46.5658 154.98 48.5741 154.989 49.8199 153.228L53.7992 148.139C54.5895 148.037 55.3798 147.908 56.1515 147.759L61.5812 151.217C63.3385 152.459 65.2352 151.782 65.793 149.706L67.7455 143.709C68.5079 143.31 69.2703 142.884 70.0048 142.439L76.1597 143.801C78.233 144.376 79.7857 143.088 79.5998 140.946L79.3766 134.755C79.9903 134.078 80.5853 133.383 81.1618 132.669L87.3074 131.863C89.4551 131.687 90.4685 129.953 89.5667 128.007L87.2702 122.343C87.6328 121.463 87.9675 120.564 88.2743 119.655L93.7041 116.837C95.6658 115.948 96.0191 113.964 94.5036 112.444L90.4128 107.921H90.3663ZM78.949 106.428C78.8746 123.446 64.9655 137.192 47.8953 137.118C30.8158 137.044 17.037 123.177 17.1114 106.159C17.1857 89.132 31.0948 75.3951 48.165 75.4693C65.2352 75.5434 79.0233 89.41 78.9397 106.428H78.949Z" fill="#EBD5C7"/>
<path d="M280.897 107.921C280.916 107.439 280.925 106.957 280.935 106.475C280.935 105.993 280.935 105.511 280.916 105.029L285.044 100.542C286.578 99.0314 286.234 97.0571 284.291 96.1394L278.889 93.2753C278.592 92.3576 278.266 91.4585 277.913 90.5779L280.265 84.933C281.186 82.9958 280.191 81.2532 278.043 81.0585L271.907 80.2058C271.34 79.4828 270.754 78.7876 270.14 78.1017L270.419 71.9099C270.624 69.7687 269.08 68.4711 266.998 69.0272L260.834 70.3342C260.099 69.88 259.346 69.4536 258.584 69.0457L256.687 63.0301C256.148 60.9538 254.251 60.2586 252.484 61.4821L247.027 64.8839C246.246 64.7263 245.465 64.5966 244.674 64.4761L240.742 59.3595C239.514 57.5891 237.506 57.5798 236.26 59.341L232.207 64.5224C231.491 64.6336 230.775 64.7541 230.068 64.9024L224.499 61.3616C222.742 60.1196 220.845 60.7962 220.287 62.8725L218.214 69.2589C217.637 69.5741 217.07 69.8985 216.512 70.2415L209.92 68.7769C207.847 68.2023 206.294 69.4907 206.48 71.6318L206.722 78.4632C206.332 78.9081 205.95 79.3623 205.579 79.8258L198.773 80.7156C196.625 80.8917 195.612 82.625 196.514 84.5715L199.108 90.9673C198.903 91.4956 198.708 92.0239 198.522 92.5523L192.385 95.7316C190.424 96.6307 190.07 98.605 191.586 100.125L196.253 105.279C196.253 105.548 196.244 105.816 196.235 106.094C196.235 106.363 196.235 106.641 196.235 106.91L191.53 112.027C189.996 113.538 190.34 115.512 192.283 116.43L198.401 119.665C198.578 120.202 198.773 120.73 198.977 121.259L196.328 127.627C195.407 129.564 196.402 131.316 198.55 131.501L205.355 132.447C205.727 132.91 206.099 133.374 206.49 133.818L206.183 140.65C205.978 142.791 207.522 144.089 209.604 143.533L216.206 142.133C216.763 142.476 217.321 142.81 217.898 143.134L219.915 149.539C220.455 151.615 222.351 152.31 224.118 151.087L229.724 147.592C230.431 147.741 231.137 147.88 231.863 147.991L235.87 153.209C237.097 154.98 239.105 154.989 240.351 153.228L244.33 148.139C245.121 148.037 245.911 147.908 246.683 147.759L252.112 151.217C253.87 152.459 255.766 151.782 256.324 149.706L258.277 143.709C259.039 143.31 259.802 142.884 260.536 142.439L266.691 143.801C268.764 144.376 270.317 143.088 270.131 140.946L269.908 134.755C270.521 134.078 271.117 133.383 271.693 132.669L277.839 131.863C279.986 131.687 281 129.953 280.098 128.007L277.801 122.343C278.164 121.463 278.499 120.564 278.806 119.655L284.235 116.837C286.197 115.948 286.55 113.964 285.035 112.444L280.944 107.921H280.897ZM269.48 106.428C269.406 123.446 255.497 137.192 238.427 137.118C221.347 137.044 207.568 123.177 207.643 106.159C207.717 89.132 221.626 75.3951 238.696 75.4693C255.766 75.5434 269.555 89.41 269.471 106.428H269.48Z" fill="#EBD5C7"/>
<path d="M110.511 59.582C110.511 59.4245 110.52 59.2669 110.52 59.1093C110.52 58.9517 110.52 58.7942 110.52 58.6366L111.878 57.1628C112.38 56.6715 112.268 56.0134 111.627 55.7168L109.851 54.7713C109.758 54.4747 109.646 54.1781 109.526 53.8815L110.297 52.0277C110.604 51.3881 110.269 50.8134 109.563 50.7485L107.545 50.4705C107.359 50.2295 107.164 50.007 106.959 49.7753L107.052 47.7361C107.117 47.0316 106.615 46.6052 105.927 46.7906L103.901 47.2263C103.659 47.078 103.408 46.9389 103.157 46.7999L102.534 44.8163C102.357 44.1304 101.734 43.8986 101.149 44.3065L99.3541 45.4281C99.1031 45.3724 98.8427 45.3354 98.5824 45.2983L97.2901 43.6113C96.8903 43.0274 96.2208 43.0274 95.821 43.6113L94.4822 45.3168C94.2498 45.3539 94.008 45.391 93.7756 45.4466L91.944 44.2787C91.3676 43.8708 90.7446 44.0933 90.5587 44.7699L89.88 46.874C89.694 46.976 89.5081 47.0872 89.3221 47.1985L87.1558 46.7165C86.4678 46.5311 85.9657 46.9482 86.0215 47.6527L86.1052 49.8958C85.975 50.0441 85.8541 50.1924 85.724 50.3407L83.4833 50.6373C82.7767 50.6929 82.442 51.2676 82.7395 51.9072L83.5949 54.0113C83.5298 54.1874 83.4647 54.3542 83.3996 54.5304L81.3821 55.5778C80.7405 55.8744 80.6197 56.5232 81.1217 57.0237L82.6558 58.72C82.6558 58.8127 82.6558 58.8961 82.6558 58.9888C82.6558 59.0815 82.6558 59.1649 82.6558 59.2576L81.1031 60.9446C80.6011 61.4451 80.7126 62.094 81.3542 62.3906L83.3624 63.4565C83.4182 63.6326 83.4833 63.8088 83.5484 63.9849L82.6744 66.0797C82.3676 66.7193 82.7023 67.2939 83.4089 67.3588L85.6496 67.674C85.7705 67.8223 85.8913 67.9799 86.0215 68.1282L85.9192 70.3713C85.8541 71.0758 86.3562 71.5021 87.0442 71.3168L89.2198 70.8533C89.4058 70.9645 89.5917 71.0758 89.7777 71.1777L90.4378 73.2818C90.6145 73.9677 91.2374 74.1902 91.8231 73.7916L93.664 72.6422C93.8965 72.6886 94.1289 72.7349 94.3706 72.772L95.6909 74.4868C96.0907 75.0708 96.7601 75.0708 97.1599 74.4868L98.4708 72.8091C98.7312 72.772 98.9915 72.7349 99.2425 72.6793L101.028 73.8194C101.604 74.2273 102.227 74.0048 102.413 73.3189L103.054 71.3446C103.306 71.2148 103.557 71.0758 103.798 70.9275L105.825 71.3724C106.513 71.5578 107.015 71.1406 106.959 70.4362L106.885 68.397C107.09 68.1745 107.285 67.9428 107.471 67.7111L109.498 67.4423C110.204 67.3866 110.539 66.812 110.241 66.1724L109.488 64.3093C109.609 64.0219 109.721 63.7253 109.814 63.4287L111.599 62.5018C112.24 62.2052 112.361 61.5564 111.859 61.0558L110.511 59.5635V59.582Z" fill="#EBD5C7"/>
<path d="M203.55 154.072C203.55 153.914 203.559 153.757 203.559 153.599C203.559 153.441 203.559 153.284 203.559 153.126L204.917 151.653C205.419 151.161 205.307 150.503 204.666 150.207L202.89 149.261C202.797 148.964 202.685 148.668 202.565 148.371L203.336 146.517C203.643 145.878 203.308 145.303 202.602 145.238L200.584 144.96C200.398 144.719 200.203 144.497 199.999 144.265L200.091 142.226C200.157 141.521 199.654 141.095 198.966 141.28L196.94 141.716C196.698 141.568 196.447 141.429 196.196 141.29L195.573 139.306C195.396 138.62 194.773 138.388 194.188 138.796L192.393 139.918C192.142 139.862 191.882 139.825 191.621 139.788L190.329 138.101C189.929 137.517 189.26 137.517 188.86 138.101L187.521 139.807C187.289 139.844 187.047 139.881 186.815 139.936L184.983 138.768C184.407 138.361 183.784 138.583 183.598 139.26L182.919 141.364C182.733 141.466 182.547 141.577 182.361 141.688L180.195 141.206C179.507 141.021 179.005 141.438 179.061 142.142L179.144 144.386C179.014 144.534 178.893 144.682 178.763 144.83L176.522 145.127C175.816 145.183 175.481 145.757 175.779 146.397L176.634 148.501C176.569 148.677 176.504 148.844 176.439 149.02L174.421 150.067C173.78 150.364 173.659 151.013 174.161 151.513L175.695 153.21C175.695 153.302 175.695 153.386 175.695 153.479C175.695 153.571 175.695 153.655 175.695 153.747L174.142 155.434C173.64 155.935 173.752 156.584 174.393 156.88L176.401 157.946C176.457 158.122 176.522 158.298 176.587 158.475L175.713 160.569C175.407 161.209 175.741 161.784 176.448 161.849L178.689 162.164C178.81 162.312 178.93 162.47 179.061 162.618L178.958 164.861C178.893 165.566 179.395 165.992 180.083 165.807L182.259 165.343C182.445 165.454 182.631 165.565 182.817 165.667L183.486 167.772C183.663 168.457 184.286 168.68 184.871 168.281L186.712 167.132C186.945 167.178 187.177 167.225 187.419 167.262L188.739 168.977C189.139 169.561 189.808 169.561 190.208 168.977L191.519 167.299C191.78 167.262 192.04 167.225 192.291 167.169L194.076 168.309C194.652 168.717 195.275 168.495 195.461 167.809L196.103 165.834C196.354 165.705 196.605 165.566 196.847 165.417L198.874 165.862C199.562 166.047 200.064 165.63 200.008 164.926L199.933 162.887C200.138 162.664 200.333 162.433 200.519 162.201L202.546 161.932C203.253 161.876 203.587 161.302 203.29 160.662L202.537 158.799C202.658 158.512 202.769 158.215 202.871 157.918L204.657 156.992C205.298 156.695 205.419 156.046 204.917 155.546L203.569 154.053L203.55 154.072Z" fill="white"/>
<path d="M120.35 169.838C120.359 169.551 120.368 169.273 120.368 168.986C120.368 168.698 120.368 168.411 120.359 168.133L122.813 165.463C123.725 164.564 123.52 163.396 122.367 162.849L119.159 161.153C118.983 160.606 118.788 160.078 118.574 159.55L119.968 156.204C120.517 155.054 119.922 154.016 118.648 153.905L115.003 153.395C114.669 152.969 114.315 152.551 113.953 152.144L114.12 148.464C114.241 147.194 113.33 146.425 112.093 146.749L108.43 147.528C107.993 147.259 107.547 146.999 107.091 146.758L105.966 143.19C105.641 141.957 104.525 141.54 103.475 142.272L100.23 144.293C99.7649 144.2 99.3 144.117 98.8352 144.052L96.5015 141.011C95.7763 139.964 94.5769 139.955 93.8424 141.002L91.4344 144.079C91.0067 144.144 90.5883 144.219 90.1606 144.302L86.8507 142.198C85.8094 141.456 84.6844 141.864 84.3497 143.097L83.1131 146.888C82.7691 147.073 82.4344 147.268 82.109 147.472L78.1947 146.601C76.9582 146.258 76.0377 147.027 76.1493 148.297L76.298 152.348C76.0656 152.616 75.8425 152.885 75.6193 153.154L71.5749 153.682C70.3012 153.784 69.6968 154.813 70.2361 155.972L71.7795 159.772C71.6586 160.087 71.5377 160.402 71.4355 160.718L67.7909 162.608C66.6287 163.137 66.4148 164.314 67.3167 165.213L70.0873 168.272C70.0873 168.43 70.0873 168.596 70.0873 168.754C70.0873 168.921 70.0873 169.078 70.0873 169.236L67.2888 172.276C66.3776 173.175 66.5822 174.343 67.7351 174.89L71.3611 176.809C71.4634 177.124 71.5842 177.439 71.7051 177.754L70.1338 181.536C69.5853 182.685 70.1803 183.724 71.4541 183.835L75.4892 184.4C75.7123 184.678 75.9354 184.947 76.1586 185.216L75.9819 189.267C75.8611 190.536 76.7722 191.306 78.0088 190.981L81.9323 190.147C82.2577 190.351 82.5924 190.546 82.9365 190.74L84.1358 194.541C84.4612 195.773 85.5769 196.191 86.6276 195.458L89.9561 193.382C90.3744 193.475 90.8021 193.549 91.2205 193.623L93.6007 196.719C94.3259 197.766 95.5253 197.776 96.2598 196.728L98.6213 193.706C99.0955 193.642 99.5604 193.567 100.016 193.475L103.242 195.523C104.283 196.265 105.408 195.857 105.743 194.624L106.905 191.065C107.361 190.824 107.807 190.573 108.244 190.314L111.898 191.12C113.135 191.463 114.055 190.694 113.944 189.424L113.813 185.744C114.176 185.346 114.529 184.929 114.873 184.502L118.527 184.029C119.801 183.927 120.405 182.899 119.866 181.74L118.499 178.375C118.713 177.856 118.918 177.319 119.094 176.781L122.321 175.113C123.483 174.584 123.697 173.407 122.795 172.508L120.368 169.82L120.35 169.838ZM109.611 168.93C109.574 176.855 103.103 183.251 95.1534 183.214C87.204 183.177 80.7887 176.725 80.8259 168.8C80.8631 160.875 87.3342 154.479 95.2835 154.517C103.233 154.554 109.648 161.005 109.611 168.93Z" fill="white"/>
<path d="M216.278 45.771C216.287 45.4837 216.296 45.2056 216.296 44.9183C216.296 44.6309 216.296 44.3436 216.287 44.0655L218.742 41.396C219.653 40.4969 219.448 39.329 218.295 38.7821L215.088 37.0858C214.911 36.539 214.716 36.0106 214.511 35.4823L215.906 32.1361C216.454 30.9868 215.859 29.9486 214.586 29.8374L210.941 29.3276C210.606 28.9012 210.253 28.4841 209.89 28.0763L210.058 24.3964C210.179 23.1265 209.267 22.3572 208.031 22.6816L204.368 23.4602C203.931 23.1914 203.484 22.9319 203.029 22.6909L201.904 19.1223C201.578 17.8895 200.463 17.4724 199.412 18.2046L196.167 20.2253C195.702 20.1326 195.238 20.0492 194.773 19.9843L192.439 16.944C191.714 15.8966 190.514 15.8873 189.78 16.9347L187.372 20.0121C186.944 20.077 186.526 20.1511 186.098 20.2346L182.788 18.1305C181.747 17.3889 180.622 17.7968 180.287 19.0296L179.051 22.8207C178.707 23.006 178.372 23.2007 178.046 23.4046L174.132 22.5333C172.896 22.1903 171.975 22.9597 172.087 24.2296L172.236 28.2802C172.003 28.549 171.78 28.8178 171.557 29.0866L167.512 29.6149C166.239 29.7169 165.634 30.7458 166.174 31.9044L167.717 35.7047C167.596 36.0199 167.475 36.3351 167.373 36.6502L163.728 38.5411C162.566 39.0694 162.352 40.2466 163.254 41.1457L166.025 44.2045C166.025 44.3621 166.025 44.529 166.025 44.6865C166.025 44.8534 166.025 45.011 166.025 45.1685L163.226 48.2088C162.315 49.1079 162.52 50.2758 163.673 50.8227L167.299 52.7414C167.401 53.0566 167.522 53.3717 167.643 53.6869L166.071 57.4687C165.523 58.6181 166.118 59.6562 167.392 59.7674L171.427 60.3328C171.65 60.6109 171.873 60.8797 172.096 61.1485L171.919 65.1991C171.799 66.469 172.71 67.2384 173.946 66.9139L177.87 66.0797C178.195 66.2836 178.53 66.4783 178.874 66.6729L180.073 70.4733C180.399 71.7061 181.514 72.1232 182.565 71.3909L185.894 69.3146C186.312 69.4073 186.73 69.4815 187.158 69.5556L189.538 72.6515C190.263 73.6989 191.463 73.7082 192.197 72.6608L194.559 69.6391C195.033 69.5742 195.498 69.5 195.953 69.4073L199.18 71.4558C200.221 72.1973 201.346 71.7895 201.681 70.5567L202.843 66.9974C203.298 66.7564 203.745 66.5061 204.182 66.2466L207.836 67.053C209.072 67.3959 209.993 66.6266 209.881 65.3567L209.751 61.6769C210.114 61.2783 210.467 60.8612 210.811 60.4348L214.465 59.9621C215.738 59.8601 216.343 58.8312 215.804 57.6726L214.437 54.3079C214.651 53.7888 214.855 53.2512 215.032 52.7136L218.258 51.0452C219.42 50.5168 219.634 49.3396 218.732 48.4405L216.306 45.7525L216.278 45.771ZM205.539 44.8627C205.502 52.7878 199.031 59.1835 191.082 59.1464C183.132 59.1093 176.717 52.658 176.754 44.7329C176.791 36.8078 183.262 30.4121 191.212 30.4491C199.161 30.4862 205.576 36.9375 205.539 44.8627Z" fill="#EBD5C7"/>
<path d="M225.493 152.348V126.116C225.493 120.758 221.142 116.42 215.768 116.42H67.7799C62.4059 116.42 58.0547 120.758 58.0547 126.116V152.348H225.493Z" fill="#D29D7E"/>
<path d="M58.0469 242.295C58.0469 247.653 62.3981 251.991 67.772 251.991H215.76C221.134 251.991 225.485 247.653 225.485 242.295V152.338H58.0469V242.295Z" fill="white"/>
<path d="M87.1858 162.266H71.0547V178.348H87.1858V162.266Z" fill="#F8F1EC"/>
<path d="M108.092 162.266H91.9609V178.348H108.092V162.266Z" fill="#F8F1EC"/>
<path d="M129.006 162.266H112.875V178.348H129.006V162.266Z" fill="#F8F1EC"/>
<path d="M149.92 162.266H133.789V178.348H149.92V162.266Z" fill="#F8F1EC"/>
<path d="M170.834 162.266H154.703V178.348H170.834V162.266Z" fill="#F8F1EC"/>
<path d="M191.741 162.266H175.609V178.348H191.741V162.266Z" fill="#F8F1EC"/>
<path d="M212.655 162.266H196.523V178.348H212.655V162.266Z" fill="#D29D7E"/>
<path d="M87.1858 182.769H71.0547V198.851H87.1858V182.769Z" fill="#F8F1EC"/>
<path d="M108.092 182.769H91.9609V198.851H108.092V182.769Z" fill="#F8F1EC"/>
<path d="M129.006 182.769H112.875V198.851H129.006V182.769Z" fill="#F8F1EC"/>
<path d="M149.92 182.769H133.789V198.851H149.92V182.769Z" fill="#F8F1EC"/>
<path d="M170.834 182.769H154.703V198.851H170.834V182.769Z" fill="#F8F1EC"/>
<path d="M191.741 182.769H175.609V198.851H191.741V182.769Z" fill="#F8F1EC"/>
<path d="M212.655 182.769H196.523V198.851H212.655V182.769Z" fill="#D29D7E"/>
<path d="M87.1858 203.272H71.0547V219.354H87.1858V203.272Z" fill="#F8F1EC"/>
<path d="M108.092 203.272H91.9609V219.354H108.092V203.272Z" fill="#F8F1EC"/>
<path d="M129.006 203.272H112.875V219.354H129.006V203.272Z" fill="#F8F1EC"/>
<path d="M149.92 203.272H133.789V219.354H149.92V203.272Z" fill="#F8F1EC"/>
<path d="M170.834 203.272H154.703V219.354H170.834V203.272Z" fill="#F8F1EC"/>
<path d="M191.741 203.272H175.609V219.354H191.741V203.272Z" fill="#F8F1EC"/>
<path d="M212.655 203.272H196.523V219.354H212.655V203.272Z" fill="#D29D7E"/>
<path d="M87.1858 223.775H71.0547V239.857H87.1858V223.775Z" fill="#F8F1EC"/>
<path d="M108.092 223.775H91.9609V239.857H108.092V223.775Z" fill="#F8F1EC"/>
<path d="M129.006 223.775H112.875V239.857H129.006V223.775Z" fill="#F8F1EC"/>
<path d="M149.92 223.775H133.789V239.857H149.92V223.775Z" fill="#F8F1EC"/>
<path d="M170.834 223.775H154.703V239.857H170.834V223.775Z" fill="#F8F1EC"/>
<path d="M191.741 223.775H175.609V239.857H191.741V223.775Z" fill="#F8F1EC"/>
<path d="M212.655 223.775H196.523V239.857H212.655V223.775Z" fill="#D29D7E"/>
<path d="M108.363 194.847L102.013 197.97C101.343 198.304 100.934 199.064 101.139 199.778C101.306 200.343 101.845 200.872 103.259 200.89C106.401 200.946 120.301 198.786 120.301 198.786V200.241L126.753 199.518C126.753 199.518 127.2 192.168 125.238 191.093L108.372 194.847H108.363Z" fill="#09101D"/>
<path d="M118.612 188.377L108.375 194.847C108.375 194.847 109.472 197.655 114.316 195.783C119.169 193.911 125.241 191.093 125.241 191.093L124.357 186.699L118.612 188.386V188.377Z" fill="#E79B89"/>
<path d="M125.239 191.093L126.782 163.832L116.555 165.686L117.475 191.009L125.239 191.093Z" fill="#E79B89"/>
<path d="M171.865 198.999L165.441 201.965C164.762 202.28 164.334 203.031 164.52 203.754C164.669 204.329 165.199 204.866 166.612 204.922C169.745 205.061 183.701 203.244 183.701 203.244L183.664 204.7L190.125 204.134C190.125 204.134 190.758 196.793 188.824 195.671L171.865 198.999Z" fill="#09101D"/>
<path d="M182.27 192.789L171.875 198.999C171.875 198.999 172.898 201.835 177.797 200.083C182.688 198.332 188.834 195.671 188.834 195.671L188.062 191.25L182.279 192.789H182.27Z" fill="#E79B89"/>
<path d="M188.824 195.672L191.055 168.458L180.781 170.061L181.069 195.394L188.824 195.672Z" fill="#E79B89"/>
<path d="M213.675 30.9403C213.675 30.9403 216.772 31.0979 221.764 32.3585C226.766 33.6098 227.408 36.3164 225.474 37.1135C225.474 37.1135 228.709 37.6419 233.061 39.8572C237.412 42.0632 236.426 45.8172 232.698 46.1509C232.698 46.1509 234.744 46.9944 236.891 49.1449C239.039 51.2953 239.337 54.6785 234.4 54.9844C234.4 54.9844 235.924 57.7281 234.827 60.722C233.721 63.716 227.082 62.65 224.191 59.2668C224.191 59.2668 213.917 64.1794 209.65 50.5352C209.65 50.5352 203.039 51.2953 203.578 41.5256C203.578 41.5256 200.622 42.0169 200.547 37.9014C200.473 33.7859 208.413 28.5674 208.413 28.5674L213.657 30.9403H213.675Z" fill="#09101D"/>
<path d="M181.28 120.156H130.832L132.728 177.282H107.653L104.864 121.491C104.241 109.061 114.18 98.6422 126.666 98.6422H177.356C178.453 96.5751 179.541 94.4989 180.638 92.4318C193.181 91.2176 205.714 90.0126 218.256 88.7983L203.454 120.23L181.289 120.156H181.28Z" fill="#09101D"/>
<path d="M218.535 92.4225C219.623 94.3783 220.999 97.4093 221.603 101.33C221.994 103.87 221.947 106.104 221.77 107.846C221.77 108.922 221.659 114.057 217.559 118.348C214.946 121.092 211.32 122.862 207.248 123.066L198.694 123.502L196.36 179.172H170.625V115.28C170.625 109.024 175.134 103.666 181.317 102.572L191.702 99.5134V92.0518C200.647 92.1815 209.591 92.302 218.535 92.4318V92.4225Z" fill="#09101D"/>
<path d="M170.641 120.295C170.557 120.295 170.492 120.23 170.492 120.146V116.43C170.492 110.089 175.039 104.686 181.305 103.582L191.69 101.682C191.765 101.673 191.849 101.719 191.858 101.803C191.876 101.877 191.821 101.96 191.737 101.97L181.352 103.87C175.225 104.945 170.78 110.228 170.78 116.43V120.146C170.78 120.23 170.715 120.295 170.632 120.295H170.641Z" fill="#09101D"/>
<path d="M190.171 174.807C190.087 174.807 190.031 174.733 190.031 174.649L192.886 118.756C193.109 114.316 196.781 110.841 201.235 110.841H206.432C208.887 110.841 210.876 108.848 210.876 106.41V101.831C210.876 101.748 210.941 101.683 211.025 101.683C211.109 101.683 211.174 101.748 211.174 101.831V106.41C211.174 109.015 209.045 111.137 206.432 111.137H201.235C196.93 111.137 193.388 114.493 193.174 118.775L190.319 174.668C190.319 174.742 190.254 174.807 190.171 174.807Z" fill="#09101D"/>
<path d="M172.143 66.6265L169.317 79.4735L152.367 79.8072L154.273 88.2236L181.329 87.3708L181.71 69.6111L172.143 66.6265Z" fill="#E79B89"/>
<path d="M195.472 31.4038C195.472 31.4038 186.073 33.1186 180.085 37.3546C174.088 41.5906 170.602 66.1353 170.602 66.1353L181.721 69.6112L180.634 92.4225H218.549L219.525 35.5008C219.525 35.5008 212.338 31.6448 208.387 31.6448C202.501 31.6448 195.472 31.4038 195.472 31.4038Z" fill="#D29D7E"/>
<path d="M203.981 66.8213L199.249 79.0844L163.918 78.1574L163.305 85.6469L198.486 90.6244C203.591 91.3474 208.574 88.6223 210.703 83.9414L216.338 71.5949L203.981 66.8306V66.8213Z" fill="#E79B89"/>
<path d="M219.511 35.5103C219.511 35.5103 232.258 45.7248 219.185 72.8741L203.547 66.8492C203.547 66.8492 206.345 54.7066 210.325 47.5416C214.304 40.3765 219.501 35.5103 219.501 35.5103H219.511Z" fill="#D29D7E"/>
<path d="M181.711 69.6111L182.362 55.6055" stroke="#09101D" stroke-width="0.36" stroke-linecap="round" stroke-linejoin="round"/>
<path d="M203.916 66.9789L203.562 66.8491L207.598 53.585" stroke="#09101D" stroke-width="0.36" stroke-linecap="round" stroke-linejoin="round"/>
<path d="M216.258 71.7432L218.87 72.7535" stroke="#09101D" stroke-width="0.36" stroke-linecap="round" stroke-linejoin="round"/>
<path d="M215.19 28.0854C216.074 29.2163 220.509 30.3842 214.065 33.1464C210.263 34.7778 207.13 32.72 207.92 30.4862C208.71 28.2523 215.19 28.0854 215.19 28.0854Z" fill="#D29D7E"/>
<path d="M209.994 7.35976C209.994 7.35976 216.112 8.88917 214.513 14.8307C214.513 14.8307 217.572 15.9244 218.353 18.2881C219.134 20.6517 218.139 22.0884 215.471 22.6168C215.471 22.6168 221.579 23.2193 220.575 27.5757C219.571 31.9322 213.063 29.6613 213.063 29.6613C213.063 29.6613 214.169 31.2278 212.514 31.9044C210.859 32.5718 208.879 30.7458 208.879 30.7458C208.879 30.7458 208.879 31.8766 207.559 32.3679C206.238 32.8592 202.594 28.2431 202.463 26.4913C202.463 26.4913 199.005 29.6891 196.894 27.2421C196.894 27.2421 192.943 28.8734 192.013 25.2955C192.013 25.2955 188.006 24.7579 188.601 20.2253C188.601 20.2253 184.324 19.0759 184.11 14.636C183.896 10.1961 187.699 10.1961 187.699 10.1961C187.699 10.1961 185.523 8.32375 187.336 5.21859C189.149 2.11343 194.756 1.98366 197.489 2.71592C197.489 2.71592 198.224 1.12163 200.325 1.1309C202.426 1.14017 204.751 2.41931 204.425 4.46779C204.425 4.46779 207.084 3.07742 209.176 4.11556C211.268 5.16297 209.994 7.34122 209.994 7.34122V7.35976Z" fill="#09101D"/>
<path d="M196.622 33.3692C200.89 36.5299 207.138 33.1374 207.184 31.4227C205.483 27.474 205.297 22.376 205.297 22.376L195.758 26.8159C195.804 27.1032 195.86 27.3906 195.916 27.6779C196.158 29.0034 196.39 30.3567 196.492 31.812C196.539 32.4979 196.52 32.7203 196.622 33.3692Z" fill="#E79B89"/>
<path d="M196.492 31.8026C201.568 30.1713 204.432 24.5264 204.432 24.5264L195.906 27.6686C196.148 28.9941 196.38 30.3474 196.483 31.8026H196.492Z" fill="#09101D"/>
<path d="M192.915 19.7156C192.915 19.7156 191.93 17.3612 190.005 18.0842C188.08 18.8072 188.583 25.3698 192.32 24.8414L192.915 19.7156Z" fill="#BE7346"/>
<path d="M205.506 23.1452C204.688 25.8518 198.096 29.4297 195.186 28.3452C193.42 27.6871 191.792 26.2226 190.686 22.7837C190.686 22.7652 190.677 22.7466 190.667 22.7281C190.602 22.5242 190.537 22.3295 190.482 22.1256C190.379 21.7641 190.286 21.4212 190.203 21.0782C190.184 20.9948 190.165 20.9206 190.147 20.8465C190.1 20.6333 190.063 20.4386 190.026 20.2347C189.979 19.9937 189.952 19.762 189.924 19.5488C189.552 16.0451 189.068 12.1242 192.118 9.68643C195.167 7.25791 200.132 6.29392 203.247 9.22297C203.247 9.22297 205.59 11.8091 205.869 16.8793C206.157 21.9588 206.092 21.1802 205.497 23.1359L205.506 23.1452Z" fill="#E79B89"/>
<path d="M198.5 22.413C198.444 22.4222 198.388 22.4593 198.36 22.5149C197.635 23.7941 195.794 23.9053 195.775 23.9053C195.655 23.9053 195.562 24.0165 195.571 24.1277C195.571 24.2482 195.683 24.3409 195.794 24.3317C195.878 24.3317 197.886 24.2019 198.732 22.7188C198.788 22.6169 198.751 22.4871 198.648 22.4222C198.602 22.3944 198.546 22.3851 198.49 22.4037L198.5 22.413Z" fill="#09101D"/>
<path d="M195.414 21.5417C195.535 21.5417 195.665 21.5325 195.795 21.5046C195.925 21.4768 196.009 21.3563 195.981 21.2266C195.953 21.0968 195.832 21.0134 195.702 21.0412C195.2 21.1431 194.8 20.9392 194.596 20.8002C195.237 19.725 195.386 17.1852 195.395 17.074C195.395 16.9442 195.302 16.833 195.172 16.8237C195.042 16.8237 194.931 16.9164 194.921 17.0462C194.875 17.8341 194.633 20.0309 194.094 20.6982C194.019 20.7909 194.019 20.93 194.103 21.0134C194.131 21.0412 194.633 21.5417 195.405 21.551L195.414 21.5417Z" fill="#09101D"/>
<path d="M190.661 22.7374C190.596 22.5335 190.531 22.3388 190.475 22.1349C190.373 21.7734 190.28 21.4304 190.196 21.0875C190.178 21.004 190.159 20.9299 190.141 20.8557C190.196 20.8557 190.261 20.8372 190.317 20.8372C191.638 20.6889 192.753 20.9948 192.818 21.5231C192.874 22.0329 191.916 22.5705 190.661 22.7374Z" fill="#BE7346"/>
<path d="M203.086 20.151C203.151 20.6794 202.128 21.2355 200.808 21.3838C199.488 21.5321 198.372 21.2263 198.307 20.6979C198.251 20.1696 199.265 19.6134 200.585 19.4651C201.905 19.3168 203.021 19.6227 203.086 20.151Z" fill="#BE7346"/>
<path d="M196.836 14.0149C196.836 14.0149 198.138 13.366 199.365 14.1724C200.053 14.6174 199.691 15.3311 198.807 15.0252C198.194 14.812 197.859 14.7286 197.162 14.8213C196.474 14.914 196.492 14.1354 196.827 14.0241L196.836 14.0149Z" fill="#09101D"/>
<path d="M191.918 14.3949C191.918 14.3949 190.467 14.3022 189.649 15.5164C189.194 16.1931 189.807 16.7122 190.495 16.0819C190.979 15.6462 191.258 15.4423 191.927 15.2569C192.596 15.0715 192.271 14.3671 191.927 14.3856L191.918 14.3949Z" fill="#09101D"/>
<path d="M204.547 16.3695C204.547 16.3695 205.532 14.2283 207.689 14.9328C209.846 15.6465 209.595 22.895 205.449 22.4778L204.547 16.3695Z" fill="#E79B89"/>
<path d="M205.714 19.6414C205.695 19.7433 205.77 19.8453 205.872 19.8638C205.89 19.8638 205.9 19.8638 205.918 19.8638C206.011 19.8638 206.086 19.7897 206.095 19.697C206.095 19.6877 206.216 18.9925 206.644 18.3252C207.081 18.6403 207.425 18.9462 207.434 18.9462C207.471 18.9833 207.527 18.9925 207.573 18.9925C207.62 18.9925 207.676 18.9647 207.713 18.9277C207.787 18.8442 207.769 18.7237 207.694 18.6496C207.676 18.6403 207.332 18.3344 206.885 18.01C207.164 17.6763 207.545 17.389 208.038 17.2407C208.14 17.2129 208.196 17.1016 208.168 16.9997C208.14 16.8977 208.029 16.8328 207.927 16.8699C206.086 17.4075 205.723 19.5394 205.714 19.6321V19.6414Z" fill="#09101D"/>
<path d="M198.159 18.0654C198.215 18.5381 198.047 18.946 197.778 18.983C197.508 19.0201 197.238 18.6586 197.183 18.1859C197.127 17.7132 197.294 17.3053 197.564 17.2682C197.833 17.2312 198.103 17.5927 198.159 18.0654Z" fill="#09101D"/>
<path d="M192.862 18.8442C192.918 19.3169 192.75 19.7248 192.481 19.7618C192.211 19.7989 191.941 19.4374 191.886 18.9647C191.83 18.492 191.997 18.0841 192.267 18.047C192.537 18.01 192.806 18.3715 192.862 18.8442Z" fill="#09101D"/>
<path d="M189.938 7.46184C189.938 7.46184 193.48 13.5887 201.857 11.6978C201.857 11.6978 201.95 16.0636 205.502 18.4365C205.502 18.4365 207.649 15.4796 206.124 11.5217C204.6 7.5638 200.155 1.89109 189.938 7.47111V7.46184Z" fill="#09101D"/>
<path d="M225.54 147.101L138.599 178.125C137.818 175.938 138.488 173.704 140.106 173.129L221.189 144.2C222.807 143.625 224.75 144.923 225.54 147.111V147.101Z" fill="#BE7346"/>
<path d="M102.391 35.3616L113.892 67.3957C119.331 82.5415 134.672 91.3101 150.05 89.0484C150.226 89.0206 150.394 89.0206 150.561 89.0484C151.37 88.9742 152.123 89.4655 152.402 90.2348C152.681 91.0042 152.402 91.8569 151.732 92.3111C151.621 92.4316 151.491 92.5428 151.333 92.6355C138.009 100.616 131.733 117.097 137.173 132.243L148.674 164.277L211.339 141.92L199.838 109.885C194.399 94.7396 179.058 85.971 163.68 88.2327C163.503 88.2605 163.336 88.2605 163.168 88.2327C162.359 88.3069 161.606 87.8156 161.327 87.0463C161.048 86.2769 161.327 85.4241 161.997 84.97C162.108 84.8495 162.239 84.7382 162.397 84.6455C175.72 76.6648 181.996 60.1843 176.557 45.0385L165.056 13.0044L102.391 35.3616Z" fill="white"/>
<path d="M150.658 163.563L139.157 131.529C134.164 117.625 139.743 102.025 152.424 94.4339C152.675 94.2856 152.908 94.1002 153.122 93.8963C154.442 92.8767 154.963 91.1063 154.386 89.5212C153.81 87.9362 152.294 86.8981 150.621 86.9352C150.323 86.9073 150.026 86.9166 149.737 86.963C135.112 89.1134 120.869 80.5858 115.876 66.6821L104.375 34.648L163.079 13.6997L174.58 45.7338C179.573 59.6375 173.995 75.2375 161.313 82.8289C161.062 82.9772 160.829 83.1626 160.616 83.3665C159.295 84.3861 158.775 86.1565 159.351 87.7416C159.927 89.3266 161.443 90.3647 163.117 90.3277C163.414 90.3555 163.712 90.3462 164 90.2999C178.625 88.1494 192.868 96.677 197.861 110.581L209.362 142.615L150.658 163.563Z" fill="#F8F1EC"/>
<path d="M172.738 0L85.7969 31.0238C86.5779 33.2113 88.5303 34.509 90.1481 33.9343L171.231 4.99606C172.849 4.42138 173.519 2.17825 172.738 0Z" fill="#BE7346"/>
<path d="M149.431 84.8869C149.84 84.822 150.267 84.8127 150.686 84.8312C153.233 84.8127 155.511 86.3977 156.376 88.8077C157.241 91.2084 163.47 108.579 163.47 108.579L164.465 108.227C164.465 108.227 158.226 90.8562 157.371 88.4555C156.515 86.0548 157.259 83.3853 159.24 81.7817C159.546 81.4944 159.881 81.2441 160.244 81.0309C172.061 73.9493 177.267 59.406 172.609 46.4385C157.873 60.231 138.041 67.3033 117.875 65.9685C122.533 78.9361 135.81 86.889 149.449 84.8869H149.431Z" fill="#D29D7E"/>
<path d="M192.911 121.769C192.781 121.75 192.651 121.741 192.521 121.722L174.103 119.943C170.17 119.562 166.274 120.953 163.476 123.734L150.375 136.757C150.282 136.849 150.189 136.942 150.096 137.035C147.075 140.233 146.191 144.886 147.67 149.02L152.635 162.84L160.37 160.078L199.633 146.063L207.369 143.301L202.404 129.48C200.917 125.346 197.272 122.306 192.902 121.75L192.911 121.769Z" fill="#D29D7E"/>
<path d="M90.2891 33.8774L171.376 4.94855L172.103 6.97325C173.112 9.78339 171.639 12.8882 168.82 13.8938L97.9575 39.1749C95.1388 40.1806 92.0245 38.7123 91.0158 35.9021L90.2891 33.8774Z" fill="#BE7346"/>
<path d="M142.659 164.193L213.522 138.912C216.34 137.906 219.455 139.375 220.463 142.185L221.19 144.21L140.103 173.138L139.376 171.114C138.368 168.304 139.84 165.199 142.659 164.193Z" fill="#BE7346"/>
<path d="M176.092 83.033C175.868 81.9393 175.543 80.827 174.874 79.9186C173.916 78.6209 172.252 78.315 170.783 77.9072C168.979 77.4067 167.129 77.0174 165.251 76.9247C164.219 76.8783 163.187 76.8691 162.164 76.7856C161.448 76.7207 160.267 76.2944 159.654 76.8783C158.808 77.694 160.081 78.797 160.751 79.1307C161.699 79.5942 162.805 79.8444 163.81 80.2338C163.242 80.6787 162.601 81.0309 161.931 81.309C160.472 81.9115 158.863 82.3379 157.292 82.412C156.576 82.4491 155.851 82.4027 155.135 82.412C154.568 82.412 153.898 82.4954 153.638 83.1072C153.378 83.7097 153.917 84.2751 154.41 84.5068C154.772 84.6737 155.144 84.7756 155.525 84.8405C155.154 84.9332 154.8 85.0815 154.624 85.4245C154.289 86.0826 155.247 86.546 155.739 86.6202C156.139 86.6758 156.539 86.7221 156.939 86.75C156.771 86.8334 156.632 86.9631 156.548 87.1393C156.26 87.7325 157.115 88.1496 157.562 88.2052C158.473 88.3257 159.393 88.3628 160.304 88.335C160.286 88.3721 160.277 88.4091 160.258 88.4462C160.063 89.0765 160.974 89.3546 161.42 89.3453C165.585 89.2712 169.593 87.4544 172.977 85.0722C173.2 85.0444 173.423 85.0166 173.646 84.9703C174.269 84.8591 175.515 84.7664 175.98 84.1639C176.064 84.0619 176.119 83.9414 176.147 83.8024C176.194 83.5521 176.147 83.3018 176.092 83.0608V83.033Z" fill="#E79B89"/>
</g>
<defs>
<clipPath id="clip0_1962_13699">
<rect width="286" height="252" fill="white"/>
</clipPath>
</defs>
</svg>
