<svg width="159" height="96" viewBox="0 0 159 96" fill="none" xmlns="http://www.w3.org/2000/svg">
<g clip-path="url(#clip0_2106_17838)">
<path d="M62.0156 23.3788L92.6279 0.691054C93.8796 -0.23756 95.5909 -0.229645 96.8373 0.706882L126.985 23.3788H62.0156Z" fill="#D29D7E"/>
<path d="M125.866 23.0835H63.1338C61.9553 23.0835 61 24.0378 61 25.2151V64.8685C61 66.0457 61.9553 67.0001 63.1338 67.0001H125.866C127.045 67.0001 128 66.0457 128 64.8685V25.2151C128 24.0378 127.045 23.0835 125.866 23.0835Z" fill="#D29D7E"/>
<path d="M124.973 25.9878L117.933 31.4328L117.84 31.5041L112.128 35.9203L108.003 39.1097L99.4127 45.7525L97.7596 47.032L96.8406 46.4727C95.404 45.5942 93.595 45.6021 92.1637 46.4885L91.25 47.0557L89.8028 45.9424L80.9165 39.1097L76.7678 35.9203L71.0266 31.5041L69.9756 30.6968L63.8516 25.9878H124.973Z" fill="white"/>
<path d="M125.636 64.0451L97.7596 47.032L96.8406 46.4727C95.404 45.5942 93.595 45.6021 92.1637 46.4885L91.25 47.0557L63.8516 64.0451L89.8028 45.9424L92.0845 44.3517C93.661 43.1777 95.8239 43.1777 97.4031 44.3517L99.4127 45.7525L125.636 64.0451Z" fill="#BE7346"/>
<path d="M124.973 6.10742H63.8516V25.9908H124.973V6.10742Z" fill="white"/>
<path d="M117.934 13.1089H69.9766V16.2984H117.934V13.1089Z" fill="#F8F1EC"/>
<path d="M117.934 20.7119H69.9766V23.9014H117.934V20.7119Z" fill="#F8F1EC"/>
<path d="M117.934 28.3174V31.433L117.841 31.5042H71.0276L69.9766 30.697V28.3174H117.934Z" fill="#F8F1EC"/>
<path d="M112.134 35.9204L108.009 39.1099H80.9222L76.7734 35.9204H112.134Z" fill="#F8F1EC"/>
</g>
<g clip-path="url(#clip1_2106_17838)">
<path d="M37.8359 67.7965C37.8359 67.7965 47.0601 65.4214 48.3549 65.976C49.6497 66.5343 51.7078 75.1316 51.0836 75.3449C50.4594 75.5583 47.4845 72.5965 47.4845 72.5965C47.4845 72.5965 46.7533 74.0614 45.5976 73.5743C44.4455 73.0872 43.1935 71.0534 43.1935 71.0534C43.1935 71.0534 42.8689 72.0489 41.6811 71.6294C40.4933 71.2098 38.9274 68.9307 38.9274 68.9307L37.8359 67.7965Z" fill="white"/>
<path d="M14.7326 55.4729C14.7326 55.4729 9.89228 47.2915 8.58321 46.7724C7.27414 46.2569 -0.284224 50.8827 0.00826622 51.4729C0.300756 52.0631 4.50262 52.0667 4.50262 52.0667C4.50262 52.0667 3.98185 53.6169 5.14467 54.0862C6.3075 54.5555 8.63315 53.9973 8.63315 53.9973C8.63315 53.9973 8.15518 54.9324 9.29304 55.4693C10.4309 56.0062 13.156 55.5013 13.156 55.5013L14.7326 55.4693V55.4729Z" fill="#F8F1EC"/>
<path d="M42.887 61.0373L35.0861 76.6142C34.8542 77.0765 34.2906 77.2649 33.8269 77.0338L9.12936 64.7493C8.66566 64.5182 8.47661 63.9565 8.70846 63.4942L16.5094 47.9173C16.5629 47.8142 16.6342 47.7218 16.7163 47.6471C16.9909 47.3911 17.4083 47.32 17.7685 47.4978L42.4661 59.7858C42.8263 59.9636 43.019 60.3405 42.9797 60.7138C42.969 60.824 42.9405 60.9378 42.887 61.0409V61.0373Z" fill="#D29D7E"/>
<path d="M10 63.7288L24.5995 62.3777C25.3379 62.3102 26.0513 62.6622 26.4436 63.2879L34.323 75.8319L27.0821 62.5661C26.6898 61.7981 25.8408 61.375 24.9883 61.5244L10 63.7324V63.7288Z" fill="#BE7346"/>
<path d="M42.9353 60.8027L25.0649 63.7325L16.6719 47.7361C16.9751 47.4267 17.4102 47.3165 17.7705 47.4943L42.4681 59.7823C42.8283 59.9601 42.9995 60.3761 42.9353 60.8027Z" fill="#D29D7E"/>
<path d="M17.1875 48.728L24.489 62.5769C24.8493 63.2631 25.5591 63.6222 26.326 63.5014L41.7067 61.0658L26.0585 64.5858C25.1668 64.8134 24.3178 64.3902 23.9647 63.544L17.1875 48.728Z" fill="#BE7346"/>
</g>
<g clip-path="url(#clip2_2106_17838)">
<path d="M146.172 82.018C146.172 82.018 150.41 75.5322 151.501 75.1541C152.591 74.776 158.65 78.7679 158.389 79.2384C158.131 79.7089 154.681 79.5761 154.681 79.5761C154.681 79.5761 155.059 80.8519 154.089 81.1953C153.122 81.5388 151.225 81.0135 151.225 81.0135C151.225 81.0135 151.589 81.7871 150.636 82.1883C149.683 82.5895 147.465 82.093 147.465 82.093L146.172 82.018Z" fill="#F8F1EC"/>
<path d="M125.336 87.3666C125.336 87.3666 117.838 85.147 116.759 85.5568C115.68 85.9667 113.708 92.8767 114.215 93.0701C114.722 93.2635 117.257 90.9544 117.257 90.9544C117.257 90.9544 117.811 92.1638 118.776 91.8059C119.74 91.448 120.833 89.8374 120.833 89.8374C120.833 89.8374 121.068 90.6571 122.056 90.354C123.043 90.051 124.403 88.2527 124.403 88.2527L125.336 87.3666Z" fill="white"/>
<path d="M145.437 75.2149L149.45 88.7838C149.57 89.1879 149.335 89.6094 148.925 89.7277L127.146 95.971C126.736 96.0893 126.308 95.8555 126.191 95.4543L122.178 81.8854C122.152 81.793 122.143 81.7006 122.152 81.6112C122.175 81.3081 122.386 81.0339 122.703 80.9444L144.481 74.6982C144.798 74.6088 145.126 74.7271 145.311 74.9696C145.367 75.0417 145.411 75.1254 145.437 75.2149Z" fill="#D29D7E"/>
<path d="M127.097 94.8887L135.149 86.0621C135.556 85.6147 136.183 85.4329 136.77 85.5916L148.544 88.7407L136.749 84.8123C136.084 84.5698 135.333 84.7834 134.902 85.3405L127.094 94.8916L127.097 94.8887Z" fill="#BE7346"/>
<path d="M145.331 75.0474L136.189 86.6103L122.172 81.6861C122.181 81.3368 122.383 81.0309 122.699 80.9385L144.478 74.6981C144.795 74.6086 145.132 74.7587 145.331 75.0502V75.0474Z" fill="#D29D7E"/>
<path d="M123.047 81.9922L135.205 86.2352C135.806 86.4488 136.437 86.2699 136.832 85.7763L144.746 75.876L137.275 86.5701C136.864 87.1964 136.114 87.41 135.428 87.0983L123.047 81.9922Z" fill="#BE7346"/>
</g>
<defs>
<clipPath id="clip0_2106_17838">
<rect width="67" height="67" fill="white" transform="translate(61)"/>
</clipPath>
<clipPath id="clip1_2106_17838">
<rect width="51.2" height="30.4" fill="white" transform="translate(0 46.7334)"/>
</clipPath>
<clipPath id="clip2_2106_17838">
<rect width="44.2667" height="21.3333" fill="white" transform="translate(114.133 74.6665)"/>
</clipPath>
</defs>
</svg>
