<svg width="234" height="216" viewBox="0 0 234 216" fill="none" xmlns="http://www.w3.org/2000/svg">
<g clip-path="url(#clip0_1962_12831)">
<path opacity="0.45" d="M216.354 92.1229H218.96C227.23 92.1229 234 85.2121 234 76.7691C234 68.3261 227.23 61.4153 218.96 61.4153H178.467C170.197 61.4153 163.427 54.5044 163.427 46.0614C163.427 41.8373 165.121 38.0015 167.845 35.2177C170.569 32.434 174.329 30.7076 178.467 30.7076H188.302C196.572 30.7076 203.342 23.7968 203.342 15.3538C203.342 6.91083 196.572 0 188.302 0H45.6984C37.4283 0 30.658 6.91083 30.658 15.3538C30.658 23.7968 37.4283 30.7076 45.6984 30.7076H64.2076C72.4776 30.7076 79.248 37.6185 79.248 46.0614C79.248 50.2856 77.554 54.1214 74.8297 56.9051C72.1054 59.6889 68.3453 61.4153 64.2076 61.4153H15.0404C6.77033 61.4153 0 68.3261 0 76.7691C0 85.2121 6.77033 92.1229 15.0404 92.1229H19.955C28.225 92.1229 34.9953 99.0337 34.9953 107.477C34.9953 111.701 33.3014 115.537 30.5771 118.32C27.8528 121.104 24.0927 122.831 19.955 122.831H19.3777C11.1077 122.831 4.33733 129.741 4.33733 138.184C4.33733 146.627 11.1077 153.538 19.3777 153.538H80.1165C88.3866 153.538 95.1569 160.449 95.1569 168.892C95.1569 173.116 93.463 176.952 90.7387 179.736C88.0143 182.519 84.2542 184.246 80.1165 184.246H70.282C62.0119 184.246 55.2416 191.157 55.2416 199.6C55.2416 208.043 62.0119 214.953 70.282 214.953H212.88C221.15 214.953 227.92 208.043 227.92 199.6C227.92 191.157 221.15 184.246 212.88 184.246H194.371C186.101 184.246 179.33 177.335 179.33 168.892C179.33 164.668 181.024 160.832 183.748 158.048C186.473 155.264 190.233 153.538 194.371 153.538H218.668C226.938 153.538 233.709 146.627 233.709 138.184C233.709 129.741 226.938 122.831 218.668 122.831H216.354C208.084 122.831 201.314 115.92 201.314 107.477C201.314 103.253 203.008 99.4167 205.732 96.633C208.456 93.8492 212.216 92.1229 216.354 92.1229Z" fill="#EBD5C7"/>
<path d="M177.856 62.1146L169.867 58.6523L144.081 118.157L152.07 121.619L177.856 62.1146Z" fill="white"/>
<path d="M180.206 49.6388L177.37 48.4096C174.089 46.988 170.277 48.4949 168.856 51.7755L164.527 61.7647C163.105 65.0453 164.612 68.8573 167.893 70.279L170.729 71.5081C174.009 72.9298 177.821 71.4229 179.243 68.1423L183.572 58.1531C184.993 54.8725 183.486 51.0605 180.206 49.6388Z" fill="#FE6E27"/>
<path d="M146.269 28.6963L215.85 58.8507C218.231 59.8825 219.327 62.6568 218.296 65.0377L214.336 74.1755L136.123 40.2799L140.083 31.1421C141.114 28.7612 143.889 27.6644 146.269 28.6963Z" fill="#FFB25C"/>
<path d="M211.851 71.8509L139.523 40.5059L136.791 46.8122L209.118 78.1572L211.851 71.8509Z" fill="#ED5D1D"/>
<path d="M144.677 30.7493L215.446 61.4186C215.99 61.6546 216.243 62.2932 216.007 62.8377L215.955 62.9565C215.719 63.501 215.081 63.7534 214.536 63.5174L143.768 32.8482C143.223 32.6122 142.971 31.9736 143.207 31.4291L143.258 31.3103C143.494 30.7658 144.133 30.5134 144.677 30.7493Z" fill="#FFB25C"/>
<path d="M95.6838 47.5288L101.974 68.9411L112.251 103.905L113.573 108.41L100.118 112.364L78.2482 118.79L76.9265 114.285L66.655 79.3208L60.3594 57.9085L89.426 49.3685L95.6838 47.5288Z" fill="#D29D7E"/>
<path d="M68.9308 55.3971L60.3594 57.915L78.2427 118.797L86.8142 116.279L68.9308 55.3971Z" fill="#D29D7E"/>
<path d="M98.8427 47.8364L103.908 65.073C104.378 66.6753 103.52 68.3585 101.982 68.9411C101.907 68.9681 101.831 68.9951 101.756 69.0166L94.3867 71.18L66.89 79.2615C66.8091 79.2831 66.7335 79.3047 66.658 79.3208C65.0504 79.6607 63.4158 78.7058 62.9465 77.1089L57.8809 59.8723C56.3002 54.4936 59.4076 48.7966 64.7861 47.2159L86.1868 40.9255C86.4026 40.8662 86.613 40.8068 86.8234 40.7583C92.0077 39.593 97.3214 42.6681 98.8373 47.831L98.8427 47.8364Z" fill="#D29D7E"/>
<path d="M115.963 106.117L120.813 122.626C122.507 128.404 119.173 134.521 113.39 136.221L96.7145 141.119L93.4399 142.08C87.6622 143.779 81.5447 140.44 79.8453 134.656L74.9955 118.148C74.5262 116.546 75.3839 114.862 76.9214 114.28C76.9969 114.253 77.0725 114.226 77.148 114.204L99.8542 107.531L112.008 103.959C112.089 103.938 112.165 103.916 112.24 103.9C113.848 103.56 115.483 104.515 115.952 106.112L115.963 106.117Z" fill="#D29D7E"/>
<path d="M81.6192 34.7315L65.2734 39.5332L69.7998 54.9427L86.1456 50.141L81.6192 34.7315Z" fill="#D29D7E"/>
<path d="M84.2229 37.9746L74.3183 40.9742L64.8937 43.828L64.3489 42.01C64.3003 41.8427 64.392 41.6647 64.5647 41.6162L64.7643 41.5568L75.0843 38.4332L83.1332 35.9947L83.2842 35.9461C83.4515 35.8922 83.6295 35.9893 83.6834 36.1511L84.2283 37.9692L84.2229 37.9746Z" fill="#ED5D1D"/>
<path d="M83.3186 36.615L74.9244 39.156L64.9497 42.1717L64.7662 41.5513L61.4971 30.5619C61.2165 29.6286 61.7452 28.6414 62.6785 28.3608L72.4429 25.4044L77.6649 23.8237C78.5982 23.5378 79.5855 24.0665 79.866 24.9998L83.1352 35.9892L83.3186 36.6096V36.615Z" fill="#FE6E27"/>
<path d="M63.1844 29.9375L63.1326 29.9527C62.8868 30.025 62.746 30.2828 62.8183 30.5286L65.593 39.9752C65.6653 40.221 65.9231 40.3618 66.1689 40.2896L66.2207 40.2744C66.4665 40.2021 66.6073 39.9443 66.5351 39.6984L63.7603 30.2519C63.6881 30.0061 63.4302 29.8653 63.1844 29.9375Z" fill="#ED5D1D"/>
<path d="M65.0102 29.394L65.062 29.3788C65.3052 29.3073 65.5649 29.4446 65.638 29.693L68.4176 39.1437C68.4891 39.387 68.3503 39.6415 68.1071 39.7131L68.0553 39.7283C67.8121 39.7998 67.5524 39.6625 67.4793 39.4141L64.7012 29.9685C64.6297 29.7253 64.767 29.4656 65.0154 29.3925L65.0102 29.394Z" fill="#ED5D1D"/>
<path d="M66.8904 28.8417L66.9422 28.8265C67.1854 28.755 67.4451 28.8923 67.5182 29.1407L70.2978 38.5914C70.3693 38.8347 70.232 39.0944 69.9836 39.1675L69.9318 39.1827C69.6886 39.2542 69.4289 39.1169 69.3558 38.8685L66.5762 29.4178C66.5047 29.1745 66.642 28.9148 66.8904 28.8417Z" fill="#ED5D1D"/>
<path d="M68.825 28.2808L68.7733 28.296C68.5274 28.3682 68.3867 28.6261 68.4589 28.8719L71.2337 38.3184C71.3059 38.5643 71.5637 38.705 71.8096 38.6328L71.8613 38.6176C72.1072 38.5454 72.2479 38.2875 72.1757 38.0417L69.4009 28.5952C69.3287 28.3493 69.0709 28.2086 68.825 28.2808Z" fill="#ED5D1D"/>
<path d="M70.6483 27.7462L70.7 27.731C70.9433 27.6595 71.2029 27.7969 71.2759 28.0454L74.0522 37.4971C74.1237 37.7404 73.9863 38 73.7378 38.073L73.6861 38.0882C73.4428 38.1597 73.1832 38.0223 73.1102 37.7738L70.3339 28.3221C70.2624 28.0788 70.3998 27.8192 70.6483 27.7462Z" fill="#ED5D1D"/>
<path d="M72.5311 27.1834L72.5829 27.1683C72.8262 27.0969 73.0858 27.2345 73.1586 27.4829L75.9285 36.9309C75.9998 37.1742 75.8623 37.4338 75.6138 37.5067L75.562 37.5218C75.3187 37.5932 75.0592 37.4556 74.9863 37.2072L72.2149 27.754C72.1436 27.5107 72.2827 27.2563 72.526 27.185L72.5311 27.1834Z" fill="#ED5D1D"/>
<path d="M74.4578 26.618L74.406 26.6332C74.1602 26.7055 74.0195 26.9634 74.0919 27.2093L76.8699 36.6548C76.9422 36.9006 77.2001 37.0413 77.4459 36.969L77.4977 36.9538C77.7435 36.8815 77.8842 36.6236 77.8119 36.3778L75.0338 26.9322C74.9615 26.6864 74.7036 26.5457 74.4578 26.618Z" fill="#ED5D1D"/>
<path d="M76.2889 26.0895L76.3406 26.0742C76.5839 26.0028 76.8436 26.1402 76.9165 26.3886L79.6928 35.8403C79.7643 36.0836 79.6269 36.3433 79.3785 36.4162L79.3267 36.4315C79.0834 36.5029 78.8238 36.3655 78.7508 36.1171L75.9745 26.6654C75.903 26.4221 76.0404 26.1624 76.2889 26.0895Z" fill="#ED5D1D"/>
<path d="M78.2156 25.523L78.1639 25.5382C77.918 25.6104 77.7773 25.8682 77.8495 26.1141L80.6243 35.5606C80.6965 35.8065 80.9544 35.9472 81.2002 35.875L81.2519 35.8598C81.4978 35.7876 81.6385 35.5297 81.5663 35.2839L78.7915 25.8374C78.7193 25.5915 78.4615 25.4508 78.2156 25.523Z" fill="#ED5D1D"/>
<path opacity="0.22" d="M84.2249 37.9745L74.3202 40.974C74.5684 40.3914 74.7626 39.7764 74.9191 39.156C74.9784 38.9132 75.0323 38.6704 75.0809 38.4276C75.1456 38.1093 75.1942 37.7964 75.2373 37.4889C75.3183 36.8847 75.3614 36.2967 75.3722 35.7464C75.3722 35.5144 75.3722 35.2824 75.3668 35.0451C75.2589 31.7973 73.9588 28.4094 72.4375 25.4098L77.6596 23.8291C78.5928 23.5432 79.5801 24.0719 79.8606 25.0052L83.1298 35.9946L83.2808 35.946C83.4481 35.8921 83.6261 35.9892 83.68 36.151L84.2249 37.9691V37.9745Z" fill="#FF8F43"/>
<path d="M61.3939 53.4038C62.1653 49.8917 66.5566 47.6043 69.5722 50.1129C73.2514 53.1772 75.2906 60.1312 76.2293 64.609C76.6393 66.5727 76.8874 68.6227 76.3857 70.5649C75.2474 74.9348 70.4731 76.564 67.3496 73.2947C64.8087 70.6296 63.5733 66.6536 62.5483 63.1955C61.7823 60.6168 60.7142 56.5274 61.3993 53.4038H61.3939Z" fill="#D29D7E"/>
<path d="M135.39 27.4709L120.798 33.88L117.399 24.7141C116.892 23.3438 117.539 21.8117 118.877 21.2236L124.358 18.8175L127.374 17.4958C128.717 16.9077 130.276 17.4688 130.945 18.769L134.899 26.5106L135.39 27.4763V27.4709Z" fill="white"/>
<path d="M119.69 23.495L122.274 29.8285C122.511 30.4058 123.175 30.6701 123.741 30.422L131.801 26.8722C132.378 26.6186 132.627 25.9334 132.346 25.367L130.447 21.5474C130.215 21.0835 129.692 20.8407 129.185 20.9702L124.254 22.2272L123.682 21.4665C123.369 21.0511 122.814 20.9108 122.344 21.1266L120.256 22.0761C119.717 22.3189 119.469 22.9501 119.69 23.5004V23.495Z" fill="#F8F1EC"/>
<path opacity="0.37" d="M134.901 26.5106C134.059 26.7318 133.19 26.8775 132.802 26.9854C131.675 27.2875 130.083 28.1992 128.923 28.0212C128.368 25.7014 127.882 23.0309 126.474 21.0402C125.929 20.2633 125.152 19.4163 124.359 18.8175L127.375 17.4958C128.718 16.9077 130.277 17.4688 130.946 18.769L134.901 26.5106Z" fill="#F8F1EC"/>
<path d="M122.193 29.0008L130.857 25.1973C133.317 24.1174 136.189 25.2371 137.269 27.6972L138.058 29.4953L120.487 37.2085L119.698 35.4104C118.618 32.9503 119.738 30.0785 122.198 28.9986L122.193 29.0008Z" fill="#FE6E27"/>
<path d="M120.72 36.3977L137.303 29.1182C137.742 28.9252 138.254 29.1247 138.447 29.5644L138.753 30.2609L120.585 38.2365L120.279 37.54C120.086 37.1003 120.285 36.5885 120.725 36.3955L120.72 36.3977Z" fill="#ED5D1D"/>
<path d="M147.791 48.5485L138.782 112.219C137.385 122.081 136.398 129.078 136.398 129.078C135.896 132.633 132.605 135.109 129.045 134.608L104.564 131.144C103.965 131.058 103.399 130.896 102.87 130.664C100.259 129.526 98.6134 126.753 99.0342 123.791L109.683 48.5323C110.234 44.6588 112.742 41.3463 116.319 39.7656L137.622 30.3516C139.003 29.7419 140.347 29.661 141.582 29.9631C144.058 30.562 146.124 32.6876 147.236 35.1692C149.119 39.361 148.401 44.1678 147.781 48.5539L147.791 48.5485Z" fill="#BE7346"/>
<path d="M116.873 50.0115L117.285 50.0698C119.149 50.3338 120.451 52.0656 120.187 53.9298L119.359 59.7735C119.095 61.6377 117.364 62.9399 115.5 62.6759L115.088 62.6177C113.224 62.3537 111.922 60.6218 112.186 58.7576L113.013 52.9139C113.277 51.0497 115.009 49.7475 116.873 50.0115Z" fill="#BE7346"/>
<path d="M128.123 51.6008L128.535 51.659C130.399 51.9226 131.701 53.6542 131.438 55.5185L130.611 61.3623C130.348 63.2266 128.616 64.5291 126.752 64.2654L126.34 64.2072C124.476 63.9436 123.174 62.212 123.438 60.3477L124.264 54.5039C124.528 52.6396 126.259 51.3371 128.123 51.6008Z" fill="#BE7346"/>
<path d="M139.373 53.199L139.785 53.2573C141.649 53.5213 142.951 55.2531 142.687 57.1173L141.859 62.961C141.595 64.8252 139.864 66.1274 138 65.8634L137.588 65.8052C135.724 65.5412 134.422 63.8093 134.686 61.9451L135.513 56.1014C135.777 54.2372 137.509 52.935 139.373 53.199Z" fill="#BE7346"/>
<path d="M106.879 68.3681L101.695 105.018L139.054 110.301L144.237 73.6519L106.879 68.3681Z" fill="#BE7346"/>
<path d="M43.4876 188.152H43.0237C40.9251 188.195 39.1988 186.522 39.1611 184.429L37.3053 76.4832C37.2676 74.3846 38.9399 72.6582 41.0384 72.6204H41.5024C43.6009 72.5773 45.3272 74.2497 45.365 76.3429L47.2208 184.289C47.2585 186.388 45.5862 188.114 43.4876 188.152Z" fill="#D29D7E"/>
<path d="M70.917 207.401L15.875 208.345C15.9451 207.433 16.0476 206.537 16.1879 205.653C18.4267 191.211 29.4534 180.156 42.9186 179.93C46.4305 179.871 49.8022 180.55 52.9203 181.85C61.7406 185.519 68.4948 194.113 70.5178 204.725C70.685 205.604 70.8199 206.5 70.9224 207.406L70.917 207.401Z" fill="#FE6E27"/>
<path d="M74.0414 207.886C74.0576 208.776 73.7124 209.591 73.1351 210.184C72.5579 210.778 71.7595 211.15 70.8694 211.166L16.0539 212.11C14.2737 212.143 12.8063 210.724 12.774 208.943C12.7578 208.053 13.1084 207.239 13.6803 206.645C14.2521 206.052 15.0505 205.68 15.9407 205.663L70.7561 204.719C72.5363 204.687 74.0037 206.106 74.0361 207.886H74.0414Z" fill="#ED5D1D"/>
<path opacity="0.26" d="M74.0433 207.886C74.0595 208.776 73.7142 209.591 73.137 210.184C72.5598 210.778 71.7613 211.15 70.8712 211.166L48.5156 211.549C49.0335 210.303 49.519 209.03 49.9668 207.762C50.2905 206.861 50.5926 205.955 50.8785 205.059C51.5043 203.106 52.0438 201.186 52.5023 199.368C53.9589 193.579 54.0128 187.607 52.9231 181.851C61.7434 185.519 68.4976 194.113 70.5206 204.725H70.7633C72.5436 204.692 74.0109 206.106 74.0433 207.892V207.886Z" fill="#FF8F43"/>
<path d="M26.1986 191.087C29.2035 187.823 34.2097 183.48 39.0649 182.978C47.4429 182.115 45.5763 192.905 41.9241 196.595C39.2591 199.287 35.4613 200.868 31.5879 201.634C28.4914 202.243 23.8411 202.281 22.8485 198.861C22.5248 197.749 22.7244 196.552 23.1344 195.462C23.566 194.318 24.6827 192.743 26.1986 191.092V191.087Z" fill="#FF8F43"/>
<path d="M77.7578 193.271H156.482V198.068C156.482 201.806 153.451 204.838 149.712 204.838H84.5281C80.7896 204.838 77.7578 201.806 77.7578 198.068V193.271Z" fill="#FFB25C"/>
<path d="M171.935 94.1192L171.552 99.6273L171.476 100.728L165.256 190.11C164.83 196.233 159.738 200.986 153.604 200.986H80.6569C74.5177 200.986 69.4305 196.239 68.9989 190.11L68.5026 182.989L67.8714 173.931L67.3266 166.108L66.2854 151.121L65.5086 139.954L62.7789 100.722L62.7033 99.6219L62.3635 94.7018L62.3203 94.1138H171.935V94.1192Z" fill="#FFB25C"/>
<path d="M171.938 94.1191L171.555 99.6273L171.479 100.728L165.259 190.11C164.833 196.233 159.74 200.986 153.606 200.986H102.805C153.315 180.432 155.797 126.834 152.064 94.1191H171.943H171.938Z" fill="#FFB25C"/>
<path d="M88.3765 111.971C100.871 102.017 120.47 98.2465 130.46 113.206C145.312 135.439 126.593 167.986 107.652 180.944C92.1151 191.572 72.5323 182.218 70.682 163.114C69.2416 148.246 72.7158 130.961 81.6979 118.812C83.5267 116.341 85.7979 114.026 88.3765 111.971Z" fill="#FFB25C"/>
<path d="M171.933 94.1191L171.469 100.728H62.7711L62.3125 94.1191H171.933Z" fill="#FFB25C"/>
<path d="M171.933 94.1191L171.55 99.6273H62.6955L62.3125 94.1191H171.933Z" fill="#FFB25C"/>
<path d="M177.024 92.312V95.5921C177.024 95.6946 176.943 95.7701 176.841 95.7701H57.3968C57.2997 95.7701 57.2188 95.6892 57.2188 95.5921V92.312C57.2188 90.4184 58.7562 88.8862 60.6444 88.8862H173.598C175.492 88.8862 177.024 90.4184 177.024 92.312Z" fill="#FF8F43"/>
<path d="M123.656 88.8862V99.6382C123.656 100.032 123.565 100.399 123.403 100.728C123.128 101.284 122.658 101.721 122.076 101.942C121.8 102.05 121.504 102.104 121.191 102.104H111.95C110.979 102.104 110.143 101.543 109.738 100.728C109.576 100.399 109.484 100.027 109.484 99.6382V88.8862H123.656Z" fill="#FF8F43"/>
<path d="M116.392 100.118C119.115 100.118 121.322 97.9105 121.322 95.1873C121.322 92.464 119.115 90.2563 116.392 90.2563C113.669 90.2563 111.461 92.464 111.461 95.1873C111.461 97.9105 113.669 100.118 116.392 100.118Z" fill="white"/>
<path d="M119.547 94.1191C119.434 93.8008 119.267 93.4933 119.051 93.2074C117.94 91.7615 115.863 91.4864 114.417 92.5977C114.385 92.6247 113.689 93.1588 112.475 94.1191C108.003 97.6635 96.5065 106.991 85.2856 117.846C76.8483 126.008 70.1966 133.448 65.5087 139.959C65.5087 139.959 65.5033 139.97 65.4979 139.97C59.2077 148.704 56.424 155.75 56.9743 161.506C57.2872 164.77 58.8948 169.275 64.7696 172.237L67.8715 173.931L67.3267 166.108C64.2463 164.409 63.696 162.321 63.5558 160.87C63.3724 158.976 63.8039 155.885 66.2855 151.121C69.5331 144.869 76.3088 135.73 89.8441 122.631C103.843 109.084 118.301 97.9494 118.447 97.8362C119.607 96.9406 120.011 95.4246 119.553 94.1137L119.547 94.1191Z" fill="#FF8F43"/>
<path d="M184.089 116.343L188.695 116.289L188.664 113.603L184.057 113.656L184.089 116.343Z" fill="white"/>
<path d="M161.08 184.953C161.56 170.651 168.169 138.956 170.192 129.547C170.424 128.474 171.233 127.605 172.318 127.152L172.296 125.21L183.814 124.789L183.841 126.888C184.957 127.244 185.739 128.177 186.009 129.569C186.306 131.101 185.761 132.002 185.135 133.227C185.06 133.372 184.995 133.518 184.946 133.674C184.488 135.056 184.795 136.512 185.497 137.753C185.513 137.78 185.524 137.801 185.534 137.828C185.977 138.67 185.977 139.636 185.567 140.499C185.378 140.887 185.243 141.281 185.157 141.675C184.747 143.401 185.168 145.079 185.659 146.277C185.702 146.396 185.756 146.509 185.799 146.617C186.166 147.437 186.176 148.354 185.761 149.163C183.182 154.186 188.847 157.822 192.003 160.482C193.637 161.863 195.277 163.238 196.912 164.619C198.228 165.725 199.151 167.139 199.539 168.693C203.779 185.767 201.497 203.295 200.019 211.253C199.55 213.788 197.031 215.677 194.058 215.709L169.124 216C166.583 216.033 164.285 214.711 163.379 212.666C159.759 204.515 161.091 184.953 161.091 184.953H161.08Z" fill="#D29D7E"/>
<path d="M172.701 125.69L183.404 125.566C184.046 125.561 184.548 125.016 184.516 124.379L184.1 117.107L171.811 117.253L171.563 124.53C171.542 125.172 172.059 125.701 172.701 125.69Z" fill="#FE6E27"/>
<path d="M182.516 124.811L182.451 124.812C182.165 124.815 181.925 124.586 181.922 124.295L181.874 119.963C181.871 119.677 182.101 119.437 182.392 119.434L182.457 119.433C182.743 119.43 182.982 119.659 182.986 119.951L183.033 124.282C183.036 124.568 182.807 124.808 182.516 124.811Z" fill="#ED5D1D"/>
<path d="M179.482 124.857L179.547 124.856C179.836 124.852 180.068 124.615 180.064 124.326L180.013 119.995C180.009 119.706 179.772 119.474 179.483 119.478L179.419 119.478C179.13 119.482 178.898 119.719 178.901 120.008L178.953 124.34C178.956 124.629 179.193 124.86 179.482 124.857Z" fill="#ED5D1D"/>
<path d="M176.594 124.885L176.529 124.886C176.243 124.889 176.003 124.66 176 124.369L175.948 120.037C175.945 119.746 176.174 119.511 176.465 119.508L176.53 119.507C176.816 119.503 177.056 119.733 177.06 120.024L177.111 124.356C177.114 124.642 176.885 124.882 176.594 124.885Z" fill="#ED5D1D"/>
<path d="M173.568 124.921L173.633 124.92C173.922 124.917 174.153 124.68 174.15 124.391L174.099 120.059C174.095 119.77 173.858 119.539 173.569 119.542L173.504 119.543C173.215 119.546 172.984 119.783 172.987 120.072L173.039 124.404C173.042 124.693 173.279 124.924 173.568 124.921Z" fill="#ED5D1D"/>
<path d="M185.552 110.174C188.492 119.335 194.653 126.181 195.613 127.206C195.689 127.292 195.802 127.335 195.921 127.335L198.413 127.308C198.748 127.308 198.942 126.931 198.753 126.656C191.357 115.58 190.904 108.189 190.904 108.189L187.111 109.592L185.547 110.169L185.552 110.174Z" fill="#ED5D1D"/>
<path d="M159.583 117.393L169.887 117.274C169.887 117.592 170.027 117.878 170.232 118.083C170.443 118.288 170.734 118.418 171.052 118.412L184.496 118.256C185.132 118.25 185.64 117.727 185.634 117.091L185.607 114.593C185.607 114.593 185.364 110.369 192.28 110.288L192.475 110.271L196.693 109.921L197.664 109.84C198.295 109.834 198.813 109.322 198.824 108.685L198.894 103.943C198.905 103.274 198.36 102.729 197.691 102.746L196.612 102.675L192.383 102.417L172.752 102.632C171.489 102.648 170.265 103.058 169.256 103.819C166.812 105.659 162.103 110.417 158.558 115.424C157.97 116.249 158.58 117.393 159.589 117.382L159.583 117.393Z" fill="white"/>
<path d="M192.375 102.427L192.467 110.288L196.685 109.926L197.656 109.84C198.288 109.834 198.805 109.322 198.816 108.685L198.886 103.943C198.897 103.274 198.352 102.729 197.683 102.746L196.604 102.675L192.375 102.417V102.427Z" fill="#FE6E27"/>
<path d="M196.609 102.686L196.696 109.931L197.667 109.845C198.298 109.84 198.816 109.327 198.827 108.691L198.897 103.948C198.908 103.279 198.363 102.735 197.694 102.751L196.615 102.681L196.609 102.686Z" fill="#ED5D1D"/>
<path d="M177.016 135.627C177.021 136.258 177.291 136.836 177.712 137.246C178.133 137.656 178.715 137.909 179.346 137.904L185.523 137.834C185.523 137.834 185.502 137.785 185.485 137.758C184.784 136.517 184.477 135.061 184.935 133.68C184.989 133.523 185.049 133.378 185.124 133.232L179.292 133.302C178.025 133.318 177 134.365 177.016 135.633V135.627Z" fill="#EBD5C7"/>
<path d="M177.117 144.076C177.123 144.707 177.392 145.284 177.813 145.694C178.234 146.104 178.817 146.358 179.448 146.352L185.592 146.282C185.592 146.282 185.625 146.282 185.646 146.282C185.155 145.084 184.735 143.407 185.145 141.68L179.394 141.745C178.126 141.761 177.101 142.808 177.117 144.076Z" fill="#EBD5C7"/>
<path d="M193.692 170.187C196.027 173.888 195.617 180.06 195.763 184.322C195.984 190.72 195.553 197.124 194.932 203.484C194.614 206.635 194.048 209.3 190.994 210.746C186.7 212.785 181.176 212.375 176.59 211.83C174.983 211.641 173.359 211.393 171.875 210.74C167.554 208.847 166.508 203.592 166.378 199.352C166.2 193.46 166.729 187.807 167.544 181.975C168.105 177.972 168.315 172.264 171.26 169.205C173.138 167.258 175.851 167.133 178.376 166.988C181.715 166.799 185.103 166.432 188.432 166.95C190.654 167.295 192.516 168.31 193.692 170.171V170.187Z" fill="#EBD5C7"/>
<path d="M118.005 185.648H57.9141V215.698H118.005V185.648Z" fill="#FDCD00"/>
<path d="M118.005 185.648H57.9141V194.129H118.005V185.648Z" fill="#BE7346"/>
<path d="M63.2486 197.863C63.2486 197.863 63.2486 197.836 63.2432 197.825C63.1731 197.447 62.8117 197.134 62.4556 197.037C62.0672 196.929 61.6464 197.043 61.3605 197.329C61.0746 197.615 60.9667 198.035 61.0692 198.424C61.1663 198.774 61.4792 199.141 61.8568 199.211C61.8676 199.211 61.8838 199.211 61.8946 199.217C62.2884 199.292 62.6714 199.228 62.9627 198.936C63.2594 198.64 63.3188 198.262 63.2432 197.868L63.2486 197.863Z" fill="#FDCD00"/>
<path d="M68.5508 201.488C68.1732 201.143 67.7146 200.927 67.1967 200.927C66.7058 200.927 66.1879 201.143 65.8427 201.488C65.6539 201.66 65.5244 201.865 65.4489 202.103C65.3302 202.329 65.2762 202.578 65.2816 202.842C65.3032 203.338 65.465 203.851 65.8427 204.196C66.2203 204.541 66.6788 204.757 67.1967 204.757C67.6876 204.757 68.2055 204.541 68.5508 204.196C68.7396 204.023 68.8691 203.818 68.9446 203.581C69.0633 203.354 69.1172 203.106 69.1118 202.842C69.0903 202.346 68.9284 201.833 68.5508 201.488Z" fill="#FDCD00"/>
<path d="M70.5064 197.577C70.0694 197.577 69.6433 197.965 69.6648 198.418C69.6864 198.871 70.0317 199.26 70.5064 199.26C70.9434 199.26 71.3696 198.871 71.348 198.418C71.3264 197.965 70.9812 197.577 70.5064 197.577Z" fill="#FDCD00"/>
<path d="M76.2053 201.763C75.8223 201.38 75.1911 201.175 74.6678 201.358C74.5006 201.417 74.3333 201.482 74.1769 201.574C73.2598 202.092 73.1195 203.397 73.8478 204.126C74.5761 204.854 75.8816 204.714 76.3995 203.797C76.4858 203.64 76.5559 203.478 76.6153 203.306C76.7933 202.782 76.5883 202.146 76.2107 201.768L76.2053 201.763Z" fill="#FDCD00"/>
<path d="M80.1042 196.773C79.8291 196.519 79.4946 196.363 79.117 196.363C78.7609 196.363 78.3833 196.519 78.1297 196.773C77.887 197.016 77.7036 197.415 77.7197 197.76C77.7359 198.122 77.8546 198.494 78.1297 198.747C78.4049 199.001 78.7393 199.157 79.117 199.157C79.473 199.157 79.8506 199.001 80.1042 198.747C80.347 198.505 80.5304 198.105 80.5142 197.76C80.498 197.399 80.3793 197.026 80.1042 196.773Z" fill="#FDCD00"/>
<path d="M85.8964 197.814C84.2456 197.814 84.2402 200.382 85.8964 200.382C87.5525 200.382 87.5525 197.814 85.8964 197.814Z" fill="#FDCD00"/>
<path d="M82.9889 208.933C81.3058 208.933 81.3058 211.544 82.9889 211.544C84.6721 211.544 84.6721 208.933 82.9889 208.933Z" fill="#FDCD00"/>
<path d="M73.6033 208.728C73.3875 208.528 73.1178 208.404 72.8157 208.404C72.5297 208.404 72.233 208.528 72.028 208.728C71.8338 208.922 71.6882 209.24 71.7044 209.515C71.7151 209.801 71.8122 210.103 72.028 210.303C72.2438 210.502 72.5136 210.627 72.8157 210.627C73.1016 210.627 73.3983 210.502 73.6033 210.303C73.7975 210.109 73.9431 209.79 73.927 209.515C73.9162 209.229 73.8191 208.927 73.6033 208.728Z" fill="#FDCD00"/>
<path d="M63.7257 211.285C62.1019 211.285 62.1019 213.804 63.7257 213.804C65.3495 213.804 65.3495 211.285 63.7257 211.285Z" fill="#FDCD00"/>
<path d="M93.0939 205.955C92.7001 205.593 92.2146 205.367 91.6697 205.367C91.1518 205.367 90.6124 205.593 90.2455 205.955C90.0513 206.138 89.911 206.354 89.8301 206.602C89.706 206.839 89.6467 207.098 89.6575 207.379C89.6791 207.897 89.8517 208.436 90.2455 208.803C90.6393 209.165 91.1249 209.391 91.6697 209.391C92.1876 209.391 92.7271 209.165 93.0939 208.803C93.2881 208.62 93.4284 208.404 93.5093 208.156C93.6334 207.918 93.6927 207.66 93.6819 207.379C93.6604 206.861 93.4877 206.322 93.0939 205.955Z" fill="#FDCD00"/>
<path d="M98.0585 199.459C98.0585 199.292 98.0153 199.141 97.9344 198.995C97.8589 198.769 97.7348 198.569 97.5568 198.402C97.5568 198.402 97.5514 198.396 97.546 198.391C97.4219 198.294 97.2979 198.197 97.1684 198.1C96.9526 197.965 96.726 197.889 96.4779 197.879C96.3106 197.835 96.1488 197.835 95.9816 197.879C95.8143 197.879 95.6579 197.922 95.5122 198.008C95.2802 198.084 95.0806 198.213 94.9134 198.391L94.6221 198.769C94.5574 198.914 94.498 199.065 94.4333 199.211C94.3577 199.459 94.347 199.707 94.4009 199.95C94.4009 200.117 94.4441 200.274 94.5304 200.42C94.5735 200.576 94.6545 200.716 94.7677 200.83C94.8972 201.035 95.0752 201.191 95.291 201.31C95.4367 201.374 95.5877 201.434 95.7334 201.499C95.9006 201.52 96.0625 201.542 96.2297 201.563C96.3969 201.542 96.5588 201.52 96.726 201.499C96.9688 201.439 97.1792 201.331 97.3572 201.164C97.5568 201.035 97.7186 200.857 97.8373 200.641C97.8373 200.641 97.8373 200.63 97.8481 200.625L98.0315 200.188C98.1071 199.945 98.1178 199.697 98.0639 199.454L98.0585 199.459Z" fill="#FDCD00"/>
<path d="M103.656 204.935C103.273 204.584 102.803 204.363 102.275 204.363C101.773 204.363 101.25 204.579 100.893 204.935C100.705 205.113 100.57 205.324 100.489 205.566C100.365 205.798 100.311 206.052 100.322 206.322C100.343 206.829 100.51 207.352 100.893 207.703C101.277 208.053 101.746 208.275 102.275 208.275C102.776 208.275 103.3 208.059 103.656 207.703C103.844 207.525 103.979 207.314 104.06 207.072C104.184 206.84 104.238 206.586 104.227 206.316C104.206 205.809 104.039 205.286 103.656 204.935Z" fill="#FDCD00"/>
<path d="M100.09 209.564C99.7128 209.219 99.2542 209.003 98.731 209.003C98.24 209.003 97.7222 209.219 97.3715 209.564C97.1827 209.737 97.0532 209.942 96.9723 210.179C96.8536 210.406 96.7997 210.654 96.8051 210.918C96.8266 211.414 96.9885 211.927 97.3661 212.278C97.7437 212.623 98.2023 212.839 98.7256 212.839C99.2165 212.839 99.7344 212.623 100.085 212.278C100.274 212.105 100.403 211.9 100.484 211.663C100.603 211.436 100.657 211.188 100.651 210.924C100.63 210.427 100.468 209.915 100.09 209.564Z" fill="#FDCD00"/>
<path d="M111.942 211.36C111.834 211.08 111.737 210.816 111.51 210.605C111.311 210.422 111.057 210.244 110.793 210.179C110.512 210.114 110.199 210.098 109.924 210.184C109.795 210.238 109.665 210.292 109.536 210.346C109.412 210.438 109.293 210.53 109.174 210.627C108.969 210.832 108.829 211.075 108.748 211.36C108.667 211.652 108.667 211.949 108.748 212.24C108.899 212.796 109.347 213.243 109.908 213.4C110.48 213.556 111.1 213.389 111.521 212.974C111.726 212.769 111.866 212.52 111.947 212.24C112.028 211.949 112.028 211.652 111.947 211.36H111.942Z" fill="#FDCD00"/>
<path d="M114.22 202.826C114.118 202.453 113.929 202.13 113.659 201.86C113.228 201.466 112.704 201.218 112.111 201.218C111.809 201.207 111.528 201.272 111.264 201.407C110.994 201.493 110.757 201.644 110.557 201.86C110.341 202.06 110.19 202.292 110.104 202.567C109.969 202.826 109.904 203.112 109.915 203.414C109.942 203.608 109.969 203.802 109.996 203.996C110.099 204.369 110.287 204.692 110.563 204.962C110.989 205.356 111.517 205.604 112.111 205.604C112.413 205.615 112.693 205.55 112.958 205.415C113.228 205.329 113.465 205.178 113.665 204.962C113.88 204.762 114.031 204.53 114.118 204.255C114.253 203.996 114.317 203.71 114.306 203.408C114.28 203.214 114.253 203.02 114.226 202.826H114.22Z" fill="#FDCD00"/>
<path d="M105.083 198.499C103.329 198.499 103.324 201.223 105.083 201.223C106.841 201.223 106.841 198.499 105.083 198.499Z" fill="#FDCD00"/>
<path d="M114.427 196.088C114.19 195.866 113.893 195.726 113.559 195.726C113.246 195.726 112.911 195.861 112.69 196.088C112.48 196.298 112.318 196.649 112.329 196.956C112.345 197.274 112.447 197.603 112.69 197.825C112.927 198.046 113.224 198.186 113.559 198.186C113.872 198.186 114.206 198.051 114.427 197.825C114.638 197.614 114.799 197.264 114.789 196.956C114.772 196.638 114.67 196.309 114.427 196.088Z" fill="#FDCD00"/>
<path d="M87.9625 212.013C87.5148 212.013 87.0886 212.407 87.1102 212.866C87.1317 213.33 87.4824 213.718 87.9625 213.718C88.4103 213.718 88.8365 213.324 88.8149 212.866C88.7933 212.402 88.4426 212.013 87.9625 212.013Z" fill="#FDCD00"/>
<path d="M62.6256 206.295C62.3397 206.036 61.9944 205.869 61.6006 205.869C61.2283 205.869 60.8399 206.031 60.5756 206.295C60.322 206.548 60.1332 206.958 60.1494 207.32C60.1656 207.692 60.2897 208.081 60.5756 208.345C60.8615 208.604 61.2068 208.771 61.6006 208.771C61.9728 208.771 62.3612 208.609 62.6256 208.345C62.8791 208.091 63.0679 207.681 63.0517 207.32C63.0356 206.948 62.9115 206.559 62.6256 206.295Z" fill="#FDCD00"/>
<path opacity="0.11" d="M118.007 185.648V215.698H77.1641C82.3322 213.853 87.4463 211.808 91.9941 209.359C92.4041 209.143 92.8033 208.922 93.2025 208.695C93.5046 208.523 93.8013 208.35 94.098 208.172C100.388 204.444 104.111 199.686 106.252 194.129C107.277 191.475 107.941 188.643 108.345 185.648H118.007Z" fill="#D29D7E"/>
<path opacity="0.73" d="M89.6022 188.826C93.1923 188.826 96.1028 185.916 96.1028 182.326C96.1028 178.735 93.1923 175.825 89.6022 175.825C86.012 175.825 83.1016 178.735 83.1016 182.326C83.1016 185.916 86.012 188.826 89.6022 188.826Z" fill="white"/>
<path opacity="0.73" d="M77.7836 185.578C77.7836 187.699 76.0627 189.42 73.9426 189.42C71.8225 189.42 70.1016 187.699 70.1016 185.578C70.1016 183.458 71.8225 181.737 73.9426 181.737C76.0627 181.737 77.7836 183.458 77.7836 185.578Z" fill="white"/>
<path opacity="0.73" d="M106.143 166.076C106.143 168.196 104.422 169.917 102.302 169.917C100.182 169.917 98.4609 168.196 98.4609 166.076C98.4609 163.956 100.182 162.235 102.302 162.235C104.422 162.235 106.143 163.956 106.143 166.076Z" fill="white"/>
<path opacity="0.73" d="M85.7372 160.169C88.9877 160.169 91.6228 157.533 91.6228 154.283C91.6228 151.032 88.9877 148.397 85.7372 148.397C82.4866 148.397 79.8516 151.032 79.8516 154.283C79.8516 157.533 82.4866 160.169 85.7372 160.169Z" fill="white"/>
<path opacity="0.73" d="M75.7792 171.126C76.939 165.869 73.6172 160.666 68.3598 159.506C63.1024 158.347 57.9003 161.669 56.7406 166.926C55.5808 172.184 58.9026 177.386 64.16 178.546C69.4173 179.706 74.6195 176.384 75.7792 171.126Z" fill="white"/>
<path d="M39.075 133.34C36.6906 134.78 34.8078 137.337 33.8422 140.483C33.7397 140.812 33.2757 140.806 33.1786 140.483C32.213 137.337 30.3302 134.78 27.9512 133.34C27.7246 133.205 27.7246 132.881 27.9512 132.746C30.3302 131.306 32.213 128.749 33.1786 125.604C33.2811 125.28 33.7451 125.28 33.8422 125.604C34.8078 128.749 36.696 131.306 39.075 132.746C39.3016 132.881 39.3016 133.205 39.075 133.34Z" fill="white"/>
<path d="M30.4867 157.185C27.0125 159.284 24.2666 163.012 22.8586 167.592C22.7129 168.067 22.0332 168.067 21.8875 167.592C20.4795 163.012 17.7336 159.284 14.2702 157.185C13.9412 156.985 13.9412 156.516 14.2702 156.316C17.7336 154.218 20.4795 150.49 21.8875 145.91C22.0332 145.435 22.7129 145.435 22.8586 145.91C24.2666 150.49 27.0125 154.218 30.4867 156.316C30.8158 156.516 30.8158 156.985 30.4867 157.185Z" fill="white"/>
<path d="M215.526 32.5635C212.052 34.6621 209.306 38.3899 207.898 42.9702C207.752 43.4449 207.072 43.4449 206.927 42.9702C205.519 38.3899 202.773 34.6621 199.309 32.5635C198.98 32.3639 198.98 31.8945 199.309 31.6949C202.773 29.5963 205.519 25.8684 206.927 21.2882C207.072 20.8134 207.752 20.8134 207.898 21.2882C209.306 25.8684 212.052 29.5963 215.526 31.6949C215.855 31.8945 215.855 32.3639 215.526 32.5635Z" fill="white"/>
<path d="M228.435 54.4561C226.104 55.8642 224.265 58.362 223.32 61.4317C223.223 61.75 222.77 61.75 222.673 61.4317C221.729 58.362 219.889 55.8642 217.564 54.4561C217.343 54.3213 217.343 54.0083 217.564 53.8735C219.889 52.4654 221.729 49.9676 222.673 46.8979C222.77 46.5796 223.223 46.5796 223.32 46.8979C224.265 49.9676 226.104 52.4654 228.435 53.8735C228.656 54.0083 228.656 54.3213 228.435 54.4561Z" fill="white"/>
</g>
<defs>
<clipPath id="clip0_1962_12831">
<rect width="234" height="216" fill="white"/>
</clipPath>
</defs>
</svg>
