<svg width="293" height="212" viewBox="0 0 293 212" fill="none" xmlns="http://www.w3.org/2000/svg">
<rect width="293" height="212" fill="#EBD5C7"/>
<g clip-path="url(#clip0_1_11)">
<path d="M127.745 50.4769L180.289 11.1967C182.437 9.58893 185.374 9.60263 187.514 11.2241L239.259 50.4769H127.745Z" fill="#D29D7E"/>
<path d="M237.338 49.9654H129.662C127.64 49.9654 126 51.6177 126 53.6559V122.309C126 124.348 127.64 126 129.662 126H237.338C239.36 126 241 124.348 241 122.309V53.6559C241 51.6177 239.36 49.9654 237.338 49.9654Z" fill="#D29D7E"/>
<path d="M235.81 54.9941L223.726 64.4214L223.567 64.5447L213.763 72.1907L206.683 77.7127L191.938 89.2136L189.1 91.4288L187.523 90.4605C185.057 88.9396 181.952 88.9533 179.495 90.4879L177.927 91.4699L175.443 89.5425L160.19 77.7127L153.07 72.1907L143.215 64.5447L141.411 63.1471L130.9 54.9941H235.81Z" fill="white"/>
<path d="M236.948 120.884L189.1 91.4288L187.523 90.4605C185.057 88.9396 181.952 88.9533 179.495 90.4879L177.927 91.4699L130.9 120.884L175.443 89.5425L179.359 86.7883C182.065 84.7558 185.778 84.7558 188.488 86.7883L191.938 89.2136L236.948 120.884Z" fill="#BE7346"/>
<path d="M235.805 20.5737H130.895V54.9987H235.805V20.5737Z" fill="white"/>
<path d="M223.726 32.6958H141.411V38.2178H223.726V32.6958Z" fill="#F8F1EC"/>
<path d="M223.726 45.8592H141.411V51.3813H223.726V45.8592Z" fill="#F8F1EC"/>
<path d="M223.726 59.0272V64.4214L223.567 64.5447H143.215L141.411 63.1471V59.0272H223.726Z" fill="#F8F1EC"/>
<path d="M213.763 72.1907L206.683 77.7127H160.19L153.069 72.1907H213.763Z" fill="#F8F1EC"/>
</g>
<g clip-path="url(#clip1_1_11)">
<path d="M76.9399 131.493C76.9399 131.493 94.2352 127.04 96.6629 128.08C99.0907 129.127 102.95 145.247 101.779 145.647C100.609 146.047 95.0311 140.493 95.0311 140.493C95.0311 140.493 93.66 143.24 91.4931 142.327C89.3329 141.413 86.9854 137.6 86.9854 137.6C86.9854 137.6 86.3768 139.467 84.1496 138.68C81.9225 137.893 78.9865 133.62 78.9865 133.62L76.9399 131.493Z" fill="white"/>
<path d="M33.6214 108.387C33.6214 108.387 24.5458 93.0466 22.0913 92.0732C19.6368 91.1066 5.46482 99.7799 6.01324 100.887C6.56166 101.993 14.4402 102 14.4402 102C14.4402 102 13.4637 104.907 15.644 105.787C17.8243 106.667 22.1849 105.62 22.1849 105.62C22.1849 105.62 21.2887 107.373 23.4222 108.38C25.5557 109.387 30.6653 108.44 30.6653 108.44L33.6214 108.38V108.387Z" fill="#F8F1EC"/>
<path d="M86.4102 118.82L71.7835 148.027C71.3488 148.893 70.2921 149.247 69.4226 148.813L23.1147 125.78C22.2452 125.347 21.8908 124.293 22.3255 123.427L36.9522 94.22C37.0525 94.0267 37.1863 93.8533 37.3401 93.7133C37.8551 93.2333 38.6376 93.1 39.3131 93.4333L85.621 116.473C86.2965 116.807 86.6577 117.513 86.5841 118.213C86.564 118.42 86.5105 118.633 86.4102 118.827V118.82Z" fill="#D29D7E"/>
<path d="M24.7399 123.867L52.114 121.333C53.4984 121.207 54.836 121.867 55.5717 123.04L70.3456 146.56L56.7689 121.687C56.0332 120.247 54.4414 119.453 52.843 119.733L24.7399 123.873V123.867Z" fill="#BE7346"/>
<path d="M86.4972 118.38L52.9901 123.873L37.2532 93.88C37.8217 93.3 38.6376 93.0933 39.3131 93.4267L85.621 116.467C86.2965 116.8 86.6175 117.58 86.4972 118.38Z" fill="#D29D7E"/>
<path d="M38.2296 95.74L51.92 121.707C52.5955 122.993 53.9264 123.667 55.3644 123.44L84.2031 118.873L54.8627 125.473C53.1907 125.9 51.599 125.107 50.9369 123.52L38.2296 95.74Z" fill="#BE7346"/>
</g>
<g clip-path="url(#clip2_1_11)">
<path d="M255.076 175.784C255.076 175.784 263.024 163.624 265.068 162.915C267.113 162.206 278.473 169.69 277.984 170.573C277.5 171.455 271.031 171.206 271.031 171.206C271.031 171.206 271.74 173.598 269.921 174.242C268.107 174.886 264.551 173.901 264.551 173.901C264.551 173.901 265.233 175.351 263.447 176.104C261.661 176.856 257.5 175.925 257.5 175.925L255.076 175.784Z" fill="#F8F1EC"/>
<path d="M216.006 185.813C216.006 185.813 201.947 181.651 199.924 182.419C197.902 183.188 194.203 196.144 195.154 196.507C196.105 196.869 200.859 192.54 200.859 192.54C200.859 192.54 201.897 194.807 203.706 194.136C205.514 193.465 207.564 190.445 207.564 190.445C207.564 190.445 208.003 191.982 209.856 191.414C211.708 190.846 214.258 187.474 214.258 187.474L216.006 185.813Z" fill="white"/>
<path d="M253.697 163.028L261.221 188.47C261.446 189.228 261.006 190.018 260.237 190.24L219.402 201.946C218.633 202.168 217.83 201.729 217.61 200.977L210.086 175.535C210.037 175.362 210.02 175.189 210.037 175.021C210.081 174.453 210.477 173.939 211.07 173.771L251.905 162.06C252.499 161.892 253.114 162.114 253.461 162.568C253.565 162.704 253.647 162.861 253.697 163.028Z" fill="#D29D7E"/>
<path d="M219.309 199.916L234.406 183.367C235.17 182.528 236.346 182.187 237.445 182.484L259.523 188.389L237.407 181.023C236.159 180.569 234.752 180.969 233.944 182.014L219.303 199.922L219.309 199.916Z" fill="#BE7346"/>
<path d="M253.505 162.714L236.363 184.395L210.081 175.162C210.097 174.507 210.477 173.933 211.07 173.76L251.905 162.06C252.499 161.892 253.131 162.173 253.505 162.72V162.714Z" fill="#D29D7E"/>
<path d="M211.713 175.736L234.51 183.691C235.637 184.092 236.819 183.756 237.561 182.831L252.4 164.268L238.391 184.319C237.621 185.493 236.214 185.894 234.928 185.309L211.713 175.736Z" fill="#BE7346"/>
</g>
<defs>
<clipPath id="clip0_1_11">
<rect width="115" height="116" fill="white" transform="translate(126 10)"/>
</clipPath>
<clipPath id="clip1_1_11">
<rect width="96" height="57" fill="white" transform="translate(6 92)"/>
</clipPath>
<clipPath id="clip2_1_11">
<rect width="83" height="40" fill="white" transform="translate(195 162)"/>
</clipPath>
</defs>
</svg>
