<svg width="140" height="44" viewBox="0 0 140 44" fill="none" xmlns="http://www.w3.org/2000/svg">
<rect width="140" height="44" fill="#F4F6F9"/>
<g clip-path="url(#clip0_2275_10093)">
<path d="M98.7239 16.3681C98.1204 15.5727 97.2498 14.9633 96.1396 14.5598C95.5584 14.3548 94.8509 14.2194 94.0456 14.0982C93.6532 14.0393 93.1347 14.0218 92.6427 14.026H91.4149C90.9238 14.0218 90.4053 14.0384 90.0129 14.0982C89.2075 14.2194 88.5001 14.3556 87.9188 14.5598C86.8096 14.9633 85.9364 15.5727 85.3337 16.3681C84.7284 17.1676 84.4219 18.1813 84.4219 19.381V31.0003H88.1094V20.1034C88.1094 18.2743 88.8899 17.2731 91.4158 17.2731H92.6435C95.1703 17.2731 95.949 18.2743 95.949 20.1034V31.0003H99.6392V19.381C99.6392 18.1822 99.3318 17.1676 98.7248 16.3681H98.7239Z" fill="#88807E"/>
<path d="M80.9903 22.5129C80.9903 21.2858 80.9036 20.1293 80.7714 19.1098C80.391 16.942 79.529 15.6933 78.4876 14.976C77.1353 14.0735 75.2499 14.0254 73.8754 14.0254H72.7712C71.3958 14.0254 69.5104 14.0727 68.159 14.976C67.1175 15.6933 66.2547 16.942 65.8752 19.1098C65.743 20.1293 65.6562 21.285 65.6562 22.5129C65.6562 23.74 65.743 24.8966 65.8752 25.9153C66.2547 28.083 67.1175 29.3317 68.159 30.049C69.5112 30.9515 71.3967 30.9988 72.7712 30.9988H73.8754C75.2508 30.9988 77.1353 30.9515 78.4876 30.049C79.529 29.3317 80.3919 28.083 80.7714 25.9153C80.9036 24.8957 80.9903 23.74 80.9903 22.5129ZM77.2804 25.9493C77.1688 26.4458 76.9525 26.8501 76.6005 27.1556C76.0767 27.6106 75.2499 27.8481 74.0101 27.8481H72.6339C71.3941 27.8481 70.5681 27.6106 70.0436 27.1556C69.6915 26.8501 69.476 26.4458 69.3636 25.9493C69.3575 25.9202 69.3515 25.8904 69.3455 25.8605C69.1755 25.0136 69.0699 23.8272 69.0699 22.5121C69.0699 21.1978 69.1755 20.0106 69.3455 19.1637C69.3515 19.1339 69.3575 19.104 69.3636 19.0749C69.4752 18.5784 69.6907 18.1749 70.0436 17.8686C70.5681 17.4136 71.3941 17.1762 72.6339 17.1762H74.0101C75.2491 17.1762 76.0759 17.4136 76.6005 17.8686C76.9525 18.1749 77.1688 18.5784 77.2804 19.0749C77.2873 19.104 77.2933 19.1339 77.2985 19.1637C77.4685 20.0106 77.5741 21.197 77.5741 22.5121C77.5741 23.8272 77.4685 25.0128 77.2985 25.8605C77.2925 25.8904 77.2865 25.9202 77.2804 25.9493Z" fill="#88807E"/>
<path d="M30.0506 24.8791C30.6542 24.8567 31.2311 24.811 31.7746 24.7438C32.5825 24.6417 33.2874 24.4864 33.8686 24.2822C34.9788 23.8787 35.8494 23.2701 36.4547 22.4739C37.0591 21.6744 37.3673 20.6607 37.3673 19.461C37.3673 18.2613 37.0591 17.2484 36.4547 16.448C35.8502 15.6518 34.9788 15.0433 33.8686 14.6398C33.2865 14.4355 32.5825 14.2794 31.7746 14.1773C30.9684 14.0769 30.0884 14.0254 29.156 14.0254H24.8442C23.8259 14.0262 23 14.8116 23 15.7822V31.0005H26.6884V16.962H29.5415C30.2472 16.962 30.8499 16.9943 31.3333 17.0591C31.8038 17.1222 32.2022 17.2235 32.5095 17.3571C32.9809 17.5556 33.302 17.8171 33.4969 18.1575C33.6944 18.5045 33.7897 18.8939 33.7897 19.3464V19.5739C33.7897 20.0272 33.6944 20.4157 33.4969 20.7628C33.302 21.1032 32.9809 21.3647 32.5095 21.5631C32.203 21.6968 31.8046 21.7981 31.3333 21.8612C30.9701 21.9094 30.5383 21.9401 30.0463 21.9525C30.0283 21.9534 30.0094 21.9542 29.9922 21.9558" fill="#88807E"/>
<path d="M30.0776 21.9561C29.7144 22.0042 29.5152 22.0258 29.0233 22.0382C28.266 22.0748 28.0977 22.2906 27.8462 22.7199L27.216 23.7967C26.7232 24.6411 27.1507 24.9798 28.0222 24.9798H28.1329C29.0653 24.9798 29.729 24.9599 30.5344 24.8594" fill="#88807E"/>
<path d="M103.125 14.7877V23.9959C103.125 28.6403 105.067 30.8977 109.065 30.8977H118.003L116.167 27.3027H109.939C107.581 27.3027 107.177 26.2517 107.166 23.7435V23.5575H116.167V20.3379H107.166V17.7633H116.167V14.2314H103.683" fill="#88807E"/>
<path d="M51.7046 24.2813C52.8147 23.8779 53.6853 23.2693 54.2906 22.4731C54.895 21.6736 55.2033 20.6598 55.2033 19.461C55.2033 18.2621 54.895 17.2484 54.2906 16.448C53.6862 15.6518 52.8147 15.0433 51.7046 14.6398C51.1225 14.4355 50.4184 14.2794 49.6105 14.1773C48.8052 14.0769 47.9243 14.0254 46.9919 14.0254H42.6801C41.6619 14.0254 40.8359 14.8108 40.8359 15.7813V30.9997H44.5244V16.962H47.3774C48.0831 16.962 48.6867 16.9943 49.1692 17.0591C49.6397 17.1222 50.0381 17.2235 50.3446 17.3571C50.816 17.5556 51.1371 17.8171 51.332 18.1575C51.5294 18.5045 51.6247 18.8939 51.6247 19.3464V19.5739C51.6247 20.0272 51.5294 20.4157 51.332 20.7628C51.1371 21.1032 50.816 21.3647 50.3446 21.5631C50.0381 21.6976 49.6397 21.7981 49.1692 21.8612C48.806 21.9102 48.3742 21.9401 47.8822 21.9525C47.574 21.9583 46.882 21.9525 46.882 21.9525C46.0105 21.9525 45.5821 22.2913 46.0758 23.1356L52.9512 30.9988H56.6457L51.1147 24.459C51.3242 24.4042 51.5217 24.3444 51.7063 24.2797L51.7046 24.2813Z" fill="#88807E"/>
<path d="M58.618 14V18.0474C58.618 19.1267 59.523 20.001 60.6383 20.001H62.3151V14H58.6172H58.618Z" fill="#ED1B23"/>
<path d="M103.125 14.796C103.125 14.796 103.14 14.2314 103.717 14.2314L103.125 14.796Z" fill="#88807E"/>
</g>
<defs>
<clipPath id="clip0_2275_10093">
<rect width="95" height="17" fill="white" transform="translate(23 14)"/>
</clipPath>
</defs>
</svg>
