<svg width="140" height="44" viewBox="0 0 140 44" fill="none" xmlns="http://www.w3.org/2000/svg">
<rect width="140" height="44" fill="#F4F6F9"/>
<g clip-path="url(#clip0_2275_10091)">
<path d="M71.7279 18.8604L74.3211 26.4314L76.5401 18.8604H80.5255L76.4074 31.6158H72.3696L69.4827 23.3767L66.648 31.6158H62.5299L58.3594 18.8604H62.5842L64.8032 26.4063L67.4226 18.8604H71.7279Z" fill="black"/>
<path d="M93.2986 27.9447C92.6568 30.1517 90.5444 31.9996 87.1747 31.9996C83.5111 31.9996 80.25 29.4836 80.25 25.199C80.25 20.9143 83.4327 18.4756 86.8809 18.4756C90.9991 18.4756 93.538 20.9143 93.538 25.0194C93.538 25.5581 93.4837 26.149 93.4576 26.2262H84.2052C84.2857 27.6628 85.6497 28.69 87.227 28.69C88.6976 28.69 89.5265 28.0219 89.9007 27.0217L93.2966 27.9447H93.2986ZM89.6069 23.7102C89.5526 22.7351 88.8585 21.5554 86.9332 21.5554C85.2212 21.5554 84.3662 22.7622 84.2857 23.7102H89.6069Z" fill="black"/>
<path d="M94.9864 31.6162V13.0352H98.9698V20.0675C99.5311 19.2719 101.002 18.5537 102.82 18.5537C106.671 18.5537 108.997 21.3766 108.997 25.1998C108.997 29.023 106.375 31.8981 102.659 31.8981C100.895 31.8981 99.5311 31.1547 98.9155 30.1776V31.6142H94.9844L94.9864 31.6162ZM101.939 22.0679C100.362 22.0679 98.9175 23.0681 98.9175 25.2249C98.9175 27.3817 100.362 28.407 101.939 28.407C103.516 28.407 104.935 27.3547 104.935 25.2249C104.935 23.0951 103.518 22.0679 101.939 22.0679Z" fill="black"/>
<path d="M37.3047 31.4845V18.7309H41.1815V20.1945C41.8494 19.065 43.5614 18.3467 45.0059 18.3467C46.9051 18.3467 48.2691 19.0901 48.937 20.349C49.9791 18.9124 51.2626 18.3467 53.0552 18.3467C55.5679 18.3467 57.9761 19.7582 57.9761 23.2222V31.4864H54.045V24.095C54.045 22.8881 53.3771 21.9401 51.9326 21.9401C50.4881 21.9401 49.7136 22.9924 49.7136 24.122V31.4883H45.702V24.0969C45.702 22.8901 45.0341 21.942 43.5634 21.942C42.0928 21.942 41.3706 22.9943 41.3706 24.149V31.4883H37.3067L37.3047 31.4845Z" fill="black"/>
<path d="M35.2748 18.7305H31.2109V31.486H35.2748V18.7305Z" fill="black"/>
<path d="M35.6755 15.2437C35.6755 16.4833 34.6293 17.4874 33.3377 17.4874C32.0461 17.4874 31 16.4833 31 15.2437C31 14.0041 32.0461 13 33.3377 13C34.6293 13 35.6755 14.0041 35.6755 15.2437Z" fill="black"/>
</g>
<defs>
<clipPath id="clip0_2275_10091">
<rect width="78" height="19" fill="white" transform="translate(31 13)"/>
</clipPath>
</defs>
</svg>
