<svg width="140" height="44" viewBox="0 0 140 44" fill="none" xmlns="http://www.w3.org/2000/svg">
<rect width="140" height="44" fill="#F4F6F9"/>
<g clip-path="url(#clip0_2275_10284)">
<path d="M28.9566 24.7957H31.7405C31.1722 26.6477 29.5132 27.8743 26.9078 27.8743C23.4487 27.8743 21.2455 25.6055 21.2455 22.5962C21.2455 19.5869 23.5196 17.248 26.6708 17.248C28.6845 17.248 30.3661 18.1973 31.1246 19.4939L33.9203 17.9199C32.5217 15.6976 29.8445 14.1465 26.6941 14.1465C21.7429 14.1465 18 17.8971 18 22.5962C18 27.2953 21.6953 31.0002 26.8836 31.0002C31.6454 31.0002 35.0328 27.8979 35.0328 23.2217V21.9715H28.9558V24.7957H28.9566Z" fill="black"/>
<path d="M43.3507 17.917C39.3701 17.917 36.6562 20.7663 36.6562 24.4583C36.6562 28.1502 39.3443 31.0003 43.6041 31.0003C46.038 31.0003 47.9395 30.0343 49.1315 28.3491L46.4949 26.8627C45.9367 27.5811 44.9224 28.1015 43.6548 28.1015C41.9303 28.1015 40.5363 27.4074 40.0795 25.7725H49.6382C49.7146 25.3512 49.7653 24.9299 49.7653 24.459C49.7653 20.8166 47.1029 17.9178 43.3507 17.9178V17.917ZM40.0296 23.2934C40.41 21.7072 41.6021 20.7907 43.3515 20.7907C44.7205 20.7907 46.0895 21.5091 46.4956 23.2934H40.0296Z" fill="black"/>
<path d="M76.6241 18.2632V19.0723C75.6067 18.4354 74.3991 18.0605 73.101 18.0605C69.486 18.0605 66.5547 20.9244 66.5547 24.4578C66.5547 27.9913 69.4852 30.8551 73.101 30.8551C74.3991 30.8551 75.6067 30.481 76.6241 29.8441V30.6532H79.8953V18.2632H76.6241ZM73.101 27.8793C71.1676 27.8793 69.5998 26.3472 69.5998 24.4578C69.5998 22.5684 71.1676 21.0363 73.101 21.0363C75.0344 21.0363 76.6022 22.5677 76.6022 24.4578C76.6022 26.348 75.0344 27.8793 73.101 27.8793Z" fill="black"/>
<path d="M59.1363 18.0605C57.4118 18.0605 55.8682 18.8087 54.8181 19.9873V18.2632H51.5469V30.6525H54.8181V24.3474C54.8181 22.5189 56.3344 21.0363 58.2063 21.0363C60.0781 21.0363 61.5944 22.5189 61.5944 24.3474V30.6525H64.8656V23.6594C64.8656 20.567 62.3007 18.0605 59.1363 18.0605Z" fill="black"/>
<path d="M120.064 26.6513C118.699 26.5195 117.564 27.628 117.698 28.962C117.797 29.9486 118.614 30.747 119.625 30.8445C120.99 30.9756 122.123 29.8671 121.989 28.5338C121.89 27.5472 121.074 26.7488 120.064 26.6513Z" fill="#E9A9C3"/>
<path d="M97.953 19.0713C96.9348 18.4344 95.728 18.0596 94.4292 18.0596C90.8141 18.0596 87.8828 20.9234 87.8828 24.4569C87.8828 27.9903 90.8133 30.8541 94.4292 30.8541C95.728 30.8541 96.9348 30.4801 97.953 29.8432V30.6522H101.224V18.2622H97.953V19.0713ZM94.4292 27.8783C92.4957 27.8783 90.9279 26.3463 90.9279 24.4569C90.9279 22.5675 92.4957 21.0354 94.4292 21.0354C96.3626 21.0354 97.9304 22.5667 97.9304 24.4569C97.9304 26.347 96.3626 27.8783 94.4292 27.8783Z" fill="black"/>
<path d="M109.975 18.0599C108.676 18.0599 107.469 18.434 106.451 19.0717V14H103.18V30.6518H106.451V29.8427C107.469 30.4797 108.676 30.8537 109.975 30.8537C113.59 30.8537 116.521 27.9899 116.521 24.4564C116.521 20.923 113.591 18.0592 109.975 18.0592V18.0599ZM109.975 27.8787C108.041 27.8787 106.474 26.3466 106.474 24.4572C106.474 22.5678 108.041 21.0357 109.975 21.0357C111.908 21.0357 113.476 22.567 113.476 24.4572C113.476 26.3474 111.908 27.8787 109.975 27.8787Z" fill="black"/>
<path d="M83.1641 30.6526L86.4353 30.6518V14H83.1641V30.6526Z" fill="black"/>
</g>
<defs>
<clipPath id="clip0_2275_10284">
<rect width="104" height="17" fill="white" transform="translate(18 14)"/>
</clipPath>
</defs>
</svg>
