<svg width="140" height="44" viewBox="0 0 140 44" fill="none" xmlns="http://www.w3.org/2000/svg">
<rect width="140" height="44" fill="#F4F6F9"/>
<g clip-path="url(#clip0_2275_10230)">
<path d="M24.5779 9C23.3113 9 22.0881 9.47669 21.1952 10.3332L17.3995 13.927C16.4949 14.7836 15.2834 15.2602 14.0169 15.2602H11V21.5056H16.7584C18.0249 21.5056 19.2482 21.0289 20.1411 20.1724L23.9367 16.5786C24.8414 15.722 26.0529 15.2453 27.3194 15.2453H30.3402V9H24.5818H24.5779Z" fill="#FF633E"/>
<path d="M39.477 20.1686L43.2727 16.5749C44.1773 15.7183 45.3888 15.2416 46.6553 15.2416H49.6761V9H43.9177C42.6512 9 41.4279 9.47669 40.5351 10.3332L36.7394 13.927C35.8347 14.7836 34.6233 15.2602 33.3567 15.2602H30.3359V21.5056H36.0943C37.3609 21.5056 38.5841 21.0289 39.477 20.1724V20.1686Z" fill="#FF633E"/>
<path d="M24.5779 21.502C23.3113 21.502 22.0881 21.9786 21.1952 22.8352L17.3995 26.429C16.4949 27.2855 15.2834 27.7622 14.0169 27.7622H11V34.0075H16.7584C18.0249 34.0075 19.2482 33.5309 20.1411 32.6743L23.9367 29.0805C24.8414 28.224 26.0529 27.7473 27.3194 27.7473H30.3402V21.502H24.5818H24.5779Z" fill="#FF633E"/>
<path d="M36.0943 33.989C37.3609 33.989 38.5841 33.5123 39.477 32.6558L43.2727 29.062C44.1773 28.2054 45.3888 27.7287 46.6553 27.7287H49.6761V21.4834H43.9177C42.6512 21.4834 41.4279 21.9601 40.5351 22.8166L36.7394 26.4104C35.8347 27.267 34.6233 27.7436 33.3567 27.7436H30.3359V33.989H36.0943Z" fill="#FF633E"/>
<path d="M61.6576 14.2289L61.103 14.1432C60.5366 14.0575 60.0686 13.9831 60.0686 13.6293C60.0686 13.2978 60.3911 13.093 61.0362 13.093C61.7442 13.093 62.5466 13.35 63.05 13.5809L63.6164 12.3221C62.7904 11.9311 61.9762 11.7598 60.9693 11.7598C59.3055 11.7598 58.2986 12.4934 58.2986 13.7149C58.2986 14.7279 59.0341 15.3386 60.4816 15.536L60.9968 15.6105C61.7324 15.7073 62.0431 15.8675 62.0431 16.1617C62.0431 16.5155 61.6694 16.724 60.8828 16.724C59.9388 16.724 59.2701 16.4782 58.7273 16.1356L58.0547 17.3571C58.8807 17.8934 60.0056 18.0647 60.867 18.0647C62.7 18.0647 63.7698 17.2715 63.7698 16.0351C63.7698 15.0221 63.0068 14.4449 61.6419 14.24L61.6537 14.2289H61.6576Z" fill="#FF633E"/>
<path d="M72.9049 11.7598C72.0789 11.7598 71.2529 12.0167 70.7613 12.7876C70.3365 12.1396 69.6009 11.7598 68.6687 11.7598C67.945 11.7598 67.2606 11.9907 66.8083 12.6275V11.9199H65.1562V17.9083H66.8594V14.6348C66.8594 13.7298 67.4651 13.2792 68.2007 13.2792C68.9873 13.2792 69.4397 13.7447 69.4397 14.6236V17.912H71.1428V14.6385C71.1428 13.7335 71.7485 13.2829 72.4841 13.2829C73.2589 13.2829 73.7231 13.7484 73.7231 14.6273V17.9157H75.4144V14.1022C75.4144 12.7094 74.4075 11.7672 72.9246 11.7672H72.8971L72.9049 11.7598Z" fill="#FF633E"/>
<path d="M81.5029 12.5791C81.0899 12.0912 80.4841 11.7598 79.607 11.7598C77.8645 11.7598 76.5469 13.1153 76.5469 14.9141C76.5469 16.7128 77.8645 18.0684 79.607 18.0684C80.4723 18.0684 81.0781 17.737 81.5029 17.2491V17.9083H83.1667V11.9199H81.5029V12.5791ZM79.9295 16.5527C78.9344 16.5527 78.3011 15.8191 78.3011 14.9029C78.3011 13.9868 78.9344 13.2531 79.9295 13.2531C80.9247 13.2531 81.5579 13.9607 81.5579 14.9029C81.5579 15.8451 80.9011 16.5527 79.9295 16.5527Z" fill="#FF633E"/>
<path d="M92.5618 16.5529C91.6846 16.5529 90.9884 15.9049 90.9884 14.9031C90.9884 13.9013 91.6964 13.2533 92.5775 13.2533C93.1321 13.2533 93.5333 13.4619 93.9345 13.8529L95.1617 12.8884C94.5796 12.1659 93.6906 11.7637 92.6326 11.7637C90.6187 11.7637 89.2656 13.1081 89.2656 14.918C89.2656 16.7279 90.6226 18.0723 92.6326 18.0723C93.6906 18.0723 94.5678 17.6701 95.1774 16.9476L93.962 15.9719C93.6002 16.3369 93.136 16.5827 92.5814 16.5827L92.5696 16.5566L92.5618 16.5529Z" fill="#FF633E"/>
<path d="M99.8523 11.7591C99.1561 11.7591 98.4835 11.9677 98.0469 12.5673V9.01074H96.3438V17.9077H98.0469V14.6342C98.0469 13.7292 98.6526 13.2786 99.3882 13.2786C100.175 13.2786 100.627 13.7441 100.627 14.623V17.9114H102.33V14.0979C102.33 12.7051 101.312 11.7629 99.8641 11.7629H99.8523V11.7591Z" fill="#FF633E"/>
<path d="M87.2819 9H85.567V11.9197H84.3516V13.3498H85.567V17.9081H87.2819V13.3498H88.4816V11.9197H87.2819V9Z" fill="#FF633E"/>
<path d="M61.1868 26.548C60.3097 26.548 59.6135 25.9 59.6135 24.8982C59.6135 23.8964 60.3097 23.2484 61.1868 23.2484C61.7414 23.2484 62.1426 23.457 62.5281 23.848L63.7553 22.8835C63.1731 22.161 62.296 21.7588 61.2379 21.7588C59.2241 21.7588 57.8828 23.092 57.8828 24.8982C57.8828 26.7044 59.2241 28.0377 61.2379 28.0377C62.296 28.0377 63.1731 27.6354 63.7671 26.913L62.5556 25.9335C62.1937 26.2985 61.7296 26.5331 61.1868 26.5331V26.5443V26.548Z" fill="#FF633E"/>
<path d="M67.8984 21.7695C65.9357 21.7695 64.4922 23.1139 64.4922 24.909C64.4922 26.704 65.9396 28.0484 67.8984 28.0484C69.8572 28.0484 71.3047 26.704 71.3047 24.909C71.3047 23.1139 69.8572 21.7695 67.8984 21.7695ZM67.8984 26.5476C66.9426 26.5476 66.2347 25.8772 66.2347 24.8978C66.2347 23.9183 66.9426 23.248 67.8984 23.248C68.8542 23.248 69.578 23.9183 69.578 24.8978C69.578 25.8772 68.87 26.5476 67.8984 26.5476Z" fill="#FF633E"/>
<path d="M74.2574 22.5747V21.9267H72.6172V27.8891H74.3203V24.6379C74.3203 23.7441 74.8631 23.2935 75.6498 23.2935C75.9999 23.2935 76.3971 23.368 76.6843 23.4909L76.9439 21.9007C76.7118 21.815 76.4286 21.7666 76.0549 21.7666C75.2801 21.7666 74.6743 22.0124 74.2731 22.5859L74.2613 22.5747H74.2574Z" fill="#FF633E"/>
<path d="M81.6454 21.7695C80.7801 21.7695 80.1862 22.101 79.7614 22.5888V21.9297H78.1094V30.3611H79.8007V27.2812C80.2137 27.7467 80.8076 28.0521 81.6572 28.0521C83.3997 28.0521 84.7016 26.7077 84.7016 24.9127C84.7016 23.1177 83.384 21.7733 81.6415 21.7733L81.6454 21.7695ZM81.3347 26.5476C80.3671 26.5476 79.722 25.8512 79.722 24.8978C79.722 23.9444 80.3789 23.248 81.3347 23.248C82.2905 23.248 82.9631 23.9817 82.9631 24.8978C82.9631 25.8139 82.3416 26.5476 81.3347 26.5476Z" fill="#FF633E"/>
<path d="M89.125 21.7695C87.1623 21.7695 85.7188 23.1139 85.7188 24.909C85.7188 26.704 87.1662 28.0484 89.125 28.0484C91.0838 28.0484 92.547 26.704 92.547 24.909C92.547 23.1139 91.0878 21.7695 89.125 21.7695ZM89.125 26.5587C88.1692 26.5587 87.4455 25.8735 87.4455 24.909C87.4455 23.9444 88.1692 23.2592 89.125 23.2592C90.0808 23.2592 90.8045 23.9444 90.8045 24.909C90.8045 25.8735 90.0966 26.5587 89.125 26.5587Z" fill="#FF633E"/>
<path d="M95.3902 22.5747V21.9267H93.75V27.8891H95.4531V24.6379C95.4531 23.7441 95.9959 23.2935 96.7826 23.2935C97.1327 23.2935 97.5299 23.368 97.8171 23.4909L98.0767 21.9007C97.8446 21.815 97.5614 21.7666 97.1877 21.7666C96.4129 21.7666 95.8071 22.0124 95.4059 22.5859L95.3941 22.5747H95.3902Z" fill="#FF633E"/>
<path d="M103.499 22.5888C103.086 22.101 102.48 21.7695 101.615 21.7695C99.8722 21.7695 98.5703 23.1139 98.5703 24.909C98.5703 26.704 99.8722 28.0484 101.615 28.0484C102.48 28.0484 103.086 27.7169 103.499 27.2291V27.8883H105.151V21.9259H103.499V22.5851V22.5888ZM101.922 26.5476C100.926 26.5476 100.297 25.8139 100.297 24.8978C100.297 23.9817 100.93 23.248 101.922 23.248C102.913 23.248 103.55 23.9444 103.55 24.8978C103.55 25.8512 102.893 26.5476 101.922 26.5476Z" fill="#FF633E"/>
<path d="M112.664 18.9355C112.058 18.9355 111.578 19.3862 111.578 19.9746C111.578 20.563 112.042 21.0024 112.664 21.0024C113.285 21.0024 113.749 20.563 113.749 19.9746C113.749 19.3862 113.269 18.9355 112.664 18.9355Z" fill="#FF633E"/>
<path d="M113.523 21.9268H111.82V27.8891H113.523V21.9268Z" fill="#FF633E"/>
<path d="M118.289 21.7695C116.326 21.7695 114.883 23.1139 114.883 24.909C114.883 26.704 116.326 28.0484 118.289 28.0484C120.252 28.0484 121.695 26.704 121.695 24.909C121.695 23.1139 120.248 21.7695 118.289 21.7695ZM118.289 26.5476C117.333 26.5476 116.625 25.8772 116.625 24.8978C116.625 23.9183 117.333 23.248 118.289 23.248C119.245 23.248 119.969 23.9183 119.969 24.8978C119.969 25.8772 119.261 26.5476 118.289 26.5476Z" fill="#FF633E"/>
<path d="M126.563 21.7695C125.839 21.7695 125.155 22.0004 124.707 22.6372V21.9408H123.055V27.9032H124.758V24.6297C124.758 23.7247 125.364 23.2852 126.087 23.2852C126.862 23.2852 127.314 23.7508 127.314 24.6185V27.9069H129.006V24.1083C129.006 22.7266 127.987 21.7882 126.555 21.7882L126.567 21.777L126.563 21.7695Z" fill="#FF633E"/>
<path d="M109.254 19.0176H107.551V21.9261H106.336V23.3562H107.551V27.8884H109.254V23.3562H110.454V21.9261H109.254V19.0176Z" fill="#FF633E"/>
</g>
<defs>
<clipPath id="clip0_2275_10230">
<rect width="118" height="25" fill="white" transform="translate(11 9)"/>
</clipPath>
</defs>
</svg>
