<svg width="140" height="44" viewBox="0 0 140 44" fill="none" xmlns="http://www.w3.org/2000/svg">
<rect width="140" height="44" fill="#F4F6F9"/>
<g clip-path="url(#clip0_2275_10023)">
<path d="M31.2356 27.8645C29.5855 27.8645 28.2396 27.3451 27.2301 26.3255C24.9524 24.0234 24.9977 19.8809 25.0041 19.8425V16.136H31.242C31.7015 16.136 32.0832 15.7641 32.0832 15.3024C32.0832 14.8407 31.7079 14.4688 31.242 14.4688H24.1629C23.7423 14.4688 23.38 14.783 23.3282 15.1998C23.3282 15.1998 23.3282 15.2254 23.3282 15.2318V19.8104C23.3282 20.0092 23.2764 24.6903 26.033 27.4798C27.3725 28.8328 29.1196 29.519 31.242 29.519C31.7015 29.519 32.0832 29.1471 32.0832 28.6854C32.0832 28.2236 31.7079 27.8517 31.242 27.8517L31.2356 27.8645Z" fill="#1464F9"/>
<path d="M51.0785 27.865H45.3777V15.2964C45.3713 14.8411 44.9959 14.4756 44.5365 14.4756C44.0771 14.4756 43.7018 14.8475 43.6953 15.3028V28.7114C43.6953 29.1667 44.0771 29.5322 44.5365 29.5322H51.0785C51.5444 29.5322 51.9197 29.1603 51.9197 28.6986C51.9197 28.2369 51.5444 27.865 51.0785 27.865Z" fill="#1464F9"/>
<path d="M41.1567 14.4756C40.6972 14.4756 40.3219 14.8475 40.3155 15.3028C40.3155 15.3477 40.3155 19.8814 40.3155 19.9327C40.3155 20.234 40.2766 21.3178 39.979 22.5874C39.6037 24.1842 38.963 25.4474 38.0895 26.3324C37.3777 27.0506 36.4912 27.5187 35.4559 27.7367V15.3092C35.4559 14.8475 35.0805 14.4756 34.6146 14.4756C34.1487 14.4756 33.7734 14.8475 33.7734 15.3092V28.6986C33.7734 29.0898 34.0582 29.436 34.4464 29.513C34.4658 29.513 34.4788 29.513 34.5241 29.513C34.6211 29.513 34.7182 29.5002 34.8152 29.4938C34.9576 29.4809 35.0805 29.4681 35.1906 29.4553C36.8212 29.2501 38.1995 28.5896 39.2931 27.4866C39.6684 27.1083 40.0178 26.6658 40.3219 26.1849V28.6986C40.3219 29.1539 40.6972 29.5322 41.1631 29.5322C41.629 29.5322 42.0043 29.1603 42.0043 28.6986V15.3092C42.0043 14.8475 41.629 14.4756 41.1631 14.4756H41.1567Z" fill="#1464F9"/>
<path d="M126.382 14.4756C125.916 14.4756 125.541 14.8475 125.541 15.3092V17.8229C125.237 17.3356 124.894 16.8995 124.512 16.5212C123.418 15.4118 122.04 14.7513 120.409 14.5525C120.299 14.5397 120.176 14.5269 120.034 14.5141C119.937 14.5076 119.84 14.5012 119.762 14.4948C119.749 14.4948 119.736 14.4948 119.723 14.4948C119.71 14.4948 119.678 14.4948 119.659 14.4948C119.27 14.5718 118.992 14.9181 118.992 15.3092V28.6986C118.992 29.1539 119.367 29.5322 119.833 29.5322C120.299 29.5322 120.675 29.1603 120.675 28.6986V16.2711C121.71 16.4827 122.596 16.9572 123.308 17.6754C124.188 18.5604 124.822 19.8236 125.198 21.4204C125.495 22.6965 125.534 23.7738 125.534 24.0687V28.705C125.541 29.1603 125.916 29.5258 126.375 29.5258C126.835 29.5258 127.217 29.1539 127.217 28.6922V15.3092C127.217 14.8475 126.841 14.4756 126.375 14.4756H126.382Z" fill="#1464F9"/>
<path d="M67.6488 14.4756C67.1894 14.4756 66.8141 14.8475 66.8076 15.3028V19.9327C66.8076 20.234 66.7688 21.3178 66.4712 22.5874C66.0958 24.1842 65.4552 25.4474 64.5817 26.3324C63.8699 27.0506 62.9834 27.5187 61.948 27.7367V15.3092C61.948 14.8475 61.5727 14.4756 61.1068 14.4756C60.6409 14.4756 60.2656 14.8475 60.2656 15.3092V28.6986C60.2656 29.0898 60.5439 29.436 60.9321 29.513C60.9515 29.513 60.9645 29.5194 61.0098 29.513C61.1068 29.513 61.2039 29.5002 61.301 29.4938C61.4433 29.4809 61.5663 29.4681 61.6763 29.4553C63.3069 29.2501 64.6852 28.5896 65.7788 27.4866C66.1541 27.1083 66.5035 26.6658 66.8076 26.1849V28.6986C66.8076 29.1539 67.1829 29.5322 67.6488 29.5322C68.1147 29.5322 68.4901 29.1603 68.4901 28.6986V15.3092C68.4901 14.8475 68.1147 14.4756 67.6488 14.4756Z" fill="#1464F9"/>
<path d="M88.0494 27.8645C86.3993 27.8645 85.0534 27.3451 84.044 26.3255C82.711 24.9789 82.1739 22.991 81.9539 21.5674C81.9409 21.4969 81.9345 21.4264 81.9215 21.3558C81.9215 21.3366 81.9215 21.3173 81.9215 21.2981C81.8827 20.9839 81.8374 20.5414 81.8245 20.2464C81.8245 20.1887 81.8245 20.1374 81.8245 20.0861C81.8245 19.9451 81.8245 19.8617 81.8245 19.8425V16.136H88.0623C88.5282 16.136 88.9035 15.7641 88.9035 15.3024C88.9035 14.8407 88.5282 14.4688 88.0623 14.4688H80.9897C80.5368 14.4688 80.1679 14.8279 80.1485 15.2831V19.8168C80.1485 20.0156 80.0967 24.6968 82.8533 27.4862C84.1928 28.8393 85.9399 29.5254 88.0623 29.5254C88.5282 29.5254 88.9035 29.1535 88.9035 28.6918C88.9035 28.2301 88.5282 27.8581 88.0623 27.8581L88.0494 27.8645Z" fill="#1464F9"/>
<path d="M88.0533 19.9644C88.0533 19.9644 87.9886 19.9644 87.9821 19.9644H85.0314C84.902 19.9644 84.7726 20.0029 84.6561 20.0606C84.6496 20.0606 84.6302 20.0734 84.6237 20.0798L84.5396 20.1376C84.5396 20.1376 84.5202 20.1504 84.5137 20.1568C84.3196 20.3171 84.2031 20.548 84.2031 20.7981C84.2031 21.2341 84.5525 21.5996 84.9731 21.6253C84.9926 21.6253 85.0184 21.6317 85.0379 21.6317H88.0468C88.0468 21.6317 88.105 21.6317 88.1374 21.6189C88.558 21.574 88.8815 21.2149 88.8815 20.7916C88.8815 20.3299 88.5062 19.958 88.0403 19.958L88.0533 19.9644Z" fill="#1464F9"/>
<path d="M116.466 14.4756C116.007 14.4756 115.625 14.8475 115.625 15.3092V28.6986C115.625 29.1539 116 29.5322 116.466 29.5322C116.926 29.5322 117.307 29.1603 117.307 28.6986V15.3092C117.307 14.8539 116.932 14.4756 116.466 14.4756Z" fill="#1464F9"/>
<path d="M106.544 14.4756C106.085 14.4756 105.703 14.8475 105.703 15.3092V28.6986C105.703 29.1539 106.078 29.5322 106.544 29.5322C107.004 29.5322 107.386 29.1603 107.386 28.6986V15.3092C107.386 14.8539 107.01 14.4756 106.544 14.4756Z" fill="#1464F9"/>
<path d="M113.078 14.4756C112.619 14.4756 112.237 14.8475 112.237 15.3092V19.9711H110.056C109.927 19.9711 109.797 20.0096 109.681 20.0673C109.674 20.0673 109.655 20.0801 109.649 20.0866C109.623 20.1058 109.597 20.125 109.571 20.1379L109.545 20.1571C109.351 20.3174 109.234 20.5483 109.234 20.7984C109.234 21.2344 109.584 21.5999 110.004 21.6256C110.024 21.6256 110.05 21.632 110.069 21.632H112.237V28.6922C112.237 29.1475 112.612 29.5258 113.078 29.5258C113.537 29.5258 113.919 29.1539 113.919 28.6922V15.3092C113.919 14.8539 113.544 14.4756 113.078 14.4756Z" fill="#1464F9"/>
<path d="M129.763 14.4756C129.304 14.4756 128.922 14.8475 128.922 15.3092V28.6986C128.922 29.1539 129.297 29.5322 129.763 29.5322C130.223 29.5322 130.604 29.1603 130.604 28.6986V15.3092C130.604 14.8539 130.229 14.4756 129.763 14.4756Z" fill="#1464F9"/>
<path d="M139.636 28.0056C138.795 27.4285 136.796 25.6201 136.472 21.3045C136.459 21.1121 136.453 20.9646 136.446 20.8749V20.7723C136.427 20.3234 136.064 19.9707 135.612 19.9707H135.21C135.974 18.8742 136.388 17.489 136.433 15.8474C136.44 15.5973 136.446 15.437 136.446 15.3665V15.2575C136.446 15.2575 136.446 15.2254 136.446 15.2062C136.446 15.1869 136.446 15.1613 136.433 15.1421C136.433 15.1421 136.42 15.0843 136.42 15.0779C136.42 15.0779 136.394 14.9946 136.388 14.9882L136.272 14.7894C136.272 14.7894 136.226 14.7381 136.22 14.7317L136.136 14.6547C136.136 14.6547 136.077 14.6098 136.071 14.6098C136.058 14.6034 136.006 14.5713 136 14.5649C136 14.5649 135.935 14.5393 135.935 14.5329C135.922 14.5329 135.857 14.5072 135.851 14.5008C135.851 14.5008 135.786 14.4816 135.78 14.4816C135.76 14.4816 135.741 14.4752 135.728 14.4752H135.702C135.456 14.4431 135.204 14.5329 135.023 14.7124C134.861 14.8663 134.777 15.0779 134.777 15.296L134.757 15.9885C134.751 16.1617 134.731 16.3476 134.712 16.5208C134.712 16.5272 134.712 16.5528 134.712 16.5528C134.557 17.8738 134.071 18.919 133.288 19.6565C133.153 19.7847 133.004 19.9066 132.848 20.0156C132.823 20.0348 132.797 20.0541 132.764 20.0733L132.68 20.131C132.68 20.131 132.661 20.1438 132.654 20.1503C132.46 20.3106 132.344 20.5414 132.344 20.7915C132.344 21.2404 132.713 21.6123 133.172 21.6251H134.816C134.867 22.2087 134.984 23.0744 135.243 24.0363C135.877 26.4153 137.08 28.2621 138.718 29.3779C138.853 29.4677 139.015 29.519 139.183 29.519C139.649 29.519 140.025 29.147 140.025 28.6853C140.025 28.4096 139.889 28.1467 139.656 27.9928L139.636 28.0056Z" fill="#1464F9"/>
<path d="M57.727 14.4752H51.185C50.7191 14.4752 50.3502 14.8471 50.3438 15.3152C50.3438 15.7705 50.7255 16.136 51.185 16.136H53.618V28.6918C53.618 29.1471 53.9933 29.5254 54.4592 29.5254C54.9251 29.5254 55.3004 29.1535 55.3004 28.6918V16.136H57.7334C58.1993 16.136 58.5747 15.7641 58.5747 15.3024C58.5747 14.8407 58.1993 14.4688 57.7334 14.4688L57.727 14.4752Z" fill="#1464F9"/>
<path d="M103.157 14.4752H96.6146C96.1487 14.4752 95.7799 14.8471 95.7734 15.3152C95.7734 15.7705 96.1552 16.136 96.6146 16.136H99.0477V28.6918C99.0477 29.1471 99.423 29.5254 99.8889 29.5254C100.355 29.5254 100.73 29.1535 100.73 28.6918V16.136H103.163C103.629 16.136 104.004 15.7641 104.004 15.3024C104.004 14.8407 103.629 14.4688 103.163 14.4688L103.157 14.4752Z" fill="#1464F9"/>
<path d="M81.5956 28.006C80.7544 27.4289 78.7549 25.6206 78.4313 21.3049C78.4184 21.1126 78.4119 20.9651 78.4055 20.8753V20.7727C78.3861 20.3238 78.0237 19.9711 77.5707 19.9711H77.1695C77.9331 18.881 78.3472 17.4895 78.3925 15.8479C78.3925 15.7389 78.4055 15.4695 78.4055 15.2579C78.4055 15.2579 78.4055 15.2323 78.4055 15.2259C78.3602 14.8026 78.0043 14.4756 77.5707 14.4756H71.0287C70.5693 14.4756 70.2069 14.8347 70.1875 15.29V28.7243C70.1875 28.7243 70.1875 28.7756 70.1875 28.7884C70.2393 29.2052 70.5952 29.5258 71.0222 29.5258C71.4493 29.5258 71.8052 29.2116 71.857 28.7948C71.857 28.7884 71.857 28.7691 71.857 28.7627V16.1364H76.6907C76.5872 17.6562 76.0954 18.8425 75.2218 19.6633C75.0859 19.7916 74.9371 19.9134 74.7818 20.0224C74.7559 20.0417 74.7236 20.0609 74.6977 20.0801L74.6136 20.1314L74.5877 20.1507C74.3935 20.311 74.2771 20.5418 74.2771 20.7919C74.2771 21.2408 74.6459 21.6127 75.1053 21.6256H76.7489C76.8007 22.2091 76.9172 23.0748 77.176 24.0367C77.8101 26.4157 79.0137 28.2625 80.6508 29.3783C80.7867 29.4681 80.9485 29.5194 81.1167 29.5194C81.5826 29.5194 81.9579 29.1475 81.9579 28.6858C81.9579 28.41 81.8156 28.1471 81.5891 27.9932L81.5956 28.006Z" fill="#1464F9"/>
<path d="M1 13L4.44248 31L8.19557 27.2807L6.50668 18.4571L15.4105 20.1307L19.1636 16.4115L1 13Z" fill="black"/>
<path d="M16.6373 21.7343L8.21875 20.1504L9.81705 28.4931L18.2356 30.077L16.6373 21.7343Z" fill="#1464F9"/>
</g>
<defs>
<clipPath id="clip0_2275_10023">
<rect width="139" height="18" fill="white" transform="translate(1 13)"/>
</clipPath>
</defs>
</svg>
