<svg width="140" height="44" viewBox="0 0 140 44" fill="none" xmlns="http://www.w3.org/2000/svg">
<rect width="140" height="44" fill="#F4F6F9"/>
<g clip-path="url(#clip0_2275_10294)">
<path d="M80.6586 16.9959C85.4237 16.9959 89.2822 13.1914 89.2822 8.49406C89.2822 3.79671 85.4237 -0.0078125 80.6586 -0.0078125C73.5272 -0.0078125 71.9549 8.2608 68.2969 8.49406C71.9468 8.72732 73.5191 16.9959 80.6586 16.9959Z" fill="#E99214"/>
<path d="M63.1103 4.92285C61.1048 4.92285 59.4844 6.52349 59.4844 8.50216C59.4844 10.4808 61.1048 12.0815 63.1103 12.0815C66.1105 12.0815 66.7683 8.59868 68.3085 8.50216C66.7683 8.40564 66.1105 4.92285 63.1103 4.92285Z" fill="#15346D"/>
<path d="M41.3698 28.9889C39.9419 30.485 38.1851 31.225 36.1074 31.225C34.0297 31.225 32.4574 30.6297 31.198 29.4232C29.73 28.0156 29 25.9324 29 23.1574C29 20.3825 29.73 18.3314 31.198 16.9238C32.4574 15.7253 34.0939 15.1221 36.1074 15.1221C37.2385 15.1221 38.2092 15.291 39.0033 15.6208C39.8055 15.9505 40.5917 16.5216 41.3698 17.334C41.3698 17.334 40.0301 19.4092 37.7278 18.3475C37.2064 18.1062 36.685 17.9614 36.1154 17.9614C34.856 17.9614 33.8693 18.4279 33.1554 19.3529C32.5216 20.1411 32.2088 21.404 32.2088 23.1655C32.2088 24.927 32.5216 26.222 33.1554 27.0022C33.8693 27.9352 34.856 28.3937 36.1154 28.3937C36.7652 28.3937 37.3027 28.2891 37.7198 28.088C38.137 27.8869 38.6183 27.5009 39.1718 26.9217L41.3778 28.9808L41.3698 28.9889Z" fill="#15346D"/>
<path d="M57.2527 31.1123H54.0519V21.4764C54.0519 20.294 53.7551 19.4092 53.1615 18.8301C52.5679 18.2429 51.7898 17.9533 50.8111 17.9533C49.8324 17.9533 49.0382 18.251 48.4206 18.8381C47.7948 19.4333 47.482 20.3101 47.482 21.4764V31.1123H44.2812V15.3232H45.0995C47.482 15.3232 47.482 16.8997 47.482 16.8997C48.589 15.7173 50.0009 15.1221 51.7176 15.1221C52.5358 15.1221 53.2738 15.2427 53.9316 15.484C54.5894 15.7253 55.159 16.0792 55.6403 16.5618C56.2259 17.1249 56.643 17.7683 56.8837 18.4923C57.1243 19.2162 57.2447 20.0607 57.2447 21.0179V31.1123H57.2527Z" fill="#15346D"/>
<path d="M64.7398 15.3467H61.5391V31.1117H64.7398V15.3467Z" fill="#15346D"/>
<path d="M31.0135 42.4126H30.2594C29.4171 41.383 29 40.4419 29 39.5974C29 38.7528 29.4171 37.7796 30.2594 36.75H31.0135C30.2594 37.8117 29.8744 38.7609 29.8744 39.5974C29.8744 40.4339 30.2514 41.3589 31.0135 42.4126Z" fill="#15346D"/>
<path d="M36.7963 40.6672H34.3977V42.8068H33.5233V40.6672H31.1328V40.072H36.8043V40.6672H36.7963ZM36.3952 38.9781L36.1305 39.5251C35.2079 39.3803 34.486 39.0264 33.9645 38.4473C33.4511 39.0264 32.7292 39.3803 31.7986 39.5251L31.5339 38.9781C32.1115 38.8736 32.5848 38.6805 32.9377 38.391C33.2907 38.1014 33.4832 37.7797 33.5073 37.4097H31.8067V36.8145H36.1305V37.4097H34.4298C34.4539 37.7716 34.6384 38.1014 34.9994 38.391C35.3523 38.6805 35.8176 38.8736 36.4032 38.9781" fill="#15346D"/>
<path d="M38.9041 39.5974C38.9041 40.4419 38.487 41.383 37.6527 42.4206H36.8906C37.6527 41.3589 38.0297 40.4258 38.0297 39.5974C38.0297 38.7689 37.6527 37.8037 36.8906 36.75H37.6527C38.487 37.7796 38.9041 38.7287 38.9041 39.5974Z" fill="#15346D"/>
<path d="M45.5605 40.4418L45.0391 40.8038C44.662 40.4338 44.3813 40.0477 44.1968 39.6455C44.0042 40.0477 43.7235 40.4338 43.3545 40.8038C42.9774 40.4338 42.6967 40.0477 42.5122 39.6455C42.3196 40.0477 42.0389 40.4338 41.6699 40.8038L41.1484 40.4418C41.7661 39.8707 42.071 39.0181 42.071 37.884V36.7499H42.9453V37.884C42.9453 38.6401 43.0817 39.2755 43.3545 39.7742C43.6272 39.2675 43.7636 38.6401 43.7636 37.884V36.7499H44.638V37.884C44.638 39.0262 44.9428 39.8707 45.5605 40.4418ZM46.5873 42.8066H45.7129V36.6855H46.5873V42.8066Z" fill="#15346D"/>
<path d="M61.3601 38.7205C61.3601 39.2112 61.1836 39.6375 60.8226 39.9914C60.4616 40.3453 60.0365 40.5222 59.5471 40.5222C59.0578 40.5222 58.6246 40.3453 58.2716 39.9914C57.9187 39.6375 57.7422 39.2192 57.7422 38.7205C57.7422 38.2218 57.9187 37.7955 58.2716 37.4416C58.6246 37.0877 59.0498 36.9108 59.5471 36.9108C60.0445 36.9108 60.4696 37.0877 60.8226 37.4416C61.1756 37.7955 61.3601 38.2218 61.3601 38.7205ZM60.4696 38.7205C60.4696 38.3747 60.3814 38.0771 60.2049 37.8518C60.0284 37.6186 59.8118 37.506 59.5471 37.506C59.2824 37.506 59.0738 37.6266 58.8973 37.8599C58.7209 38.0931 58.6326 38.3827 58.6326 38.7286C58.6326 39.0744 58.7209 39.364 58.8973 39.5892C59.0738 39.8144 59.2904 39.9351 59.5471 39.9351C59.8038 39.9351 60.0284 39.8225 60.2049 39.5892C60.3814 39.356 60.4696 39.0664 60.4696 38.7286M63.7105 39.002H62.8361V42.8066H61.9617V36.6855H62.8361V38.4149H63.7105V39.0101V39.002Z" fill="#15346D"/>
<path d="M69.7976 38.7205C69.7976 39.2112 69.6211 39.6375 69.2601 39.9914C68.8991 40.3453 68.474 40.5222 67.9846 40.5222C67.4953 40.5222 67.0621 40.3453 66.7091 39.9914C66.3562 39.6375 66.1797 39.2192 66.1797 38.7205C66.1797 38.2218 66.3562 37.7955 66.7091 37.4416C67.0621 37.0877 67.4873 36.9108 67.9846 36.9108C68.482 36.9108 68.9071 37.0877 69.2601 37.4416C69.6131 37.7955 69.7976 38.2218 69.7976 38.7205ZM68.8991 38.7205C68.8991 38.3747 68.8109 38.0771 68.6344 37.8518C68.4579 37.6186 68.2413 37.506 67.9846 37.506C67.7279 37.506 67.5113 37.6266 67.3348 37.8599C67.1584 38.0931 67.0701 38.3827 67.0701 38.7286C67.0701 39.0744 67.1584 39.364 67.3348 39.5892C67.5113 39.8144 67.7279 39.9351 67.9846 39.9351C68.2413 39.9351 68.4659 39.8225 68.6344 39.5892C68.8109 39.356 68.8991 39.0664 68.8991 38.7286M71.3298 42.8066H70.4554V36.6855H71.3298V42.8066Z" fill="#15346D"/>
<path d="M77.4512 38.5436C77.3871 38.8894 77.2186 39.171 76.9378 39.4042C76.6651 39.6375 76.3522 39.7501 75.9993 39.7501C75.5982 39.7501 75.2532 39.6053 74.9644 39.3157C74.6756 39.0262 74.5312 38.6803 74.5312 38.2781C74.5312 37.876 74.6756 37.5301 74.9644 37.2325C75.2532 36.9349 75.5982 36.7901 75.9993 36.7901C76.3442 36.7901 76.649 36.9027 76.9218 37.1279C77.1945 37.3531 77.363 37.6266 77.4432 37.9564H77.8684V36.6936H78.6786V40.8842H77.8684V38.5516H77.4592L77.4512 38.5436ZM76.6169 38.2701C76.6169 38.0208 76.5608 37.8036 76.4405 37.6266C76.3201 37.4497 76.1757 37.3612 76.0073 37.3612C75.8388 37.3612 75.6944 37.4497 75.5741 37.6266C75.4538 37.8036 75.3976 38.0127 75.3976 38.2701C75.3976 38.5275 75.4538 38.7366 75.5741 38.9055C75.6944 39.0744 75.8388 39.1629 76.0073 39.1629C76.1757 39.1629 76.3282 39.0744 76.4405 38.9055C76.5608 38.7366 76.6169 38.5194 76.6169 38.2701ZM79.8979 42.8066H76.5207C76.3763 42.8066 76.2479 42.7503 76.1356 42.6537C76.0313 42.5492 75.9752 42.4205 75.9752 42.2757V40.6107H76.8496V42.147C76.8496 42.1953 76.8736 42.2114 76.9138 42.2114H79.8899V42.8066H79.8979ZM79.8257 40.8762H79.0155V36.6855H79.8257V40.8762Z" fill="#15346D"/>
<path d="M86.6071 40.4177L86.1498 40.8681C85.5482 40.5062 85.0669 40.0477 84.7059 39.4766C84.3449 40.0477 83.8556 40.5062 83.2619 40.8681L82.8047 40.4177C83.7834 39.7983 84.2727 38.9699 84.2727 37.9403V37.4095H83.1256V36.8142H86.2942V37.4095H85.1471V37.9403C85.1471 38.9699 85.6364 39.7983 86.6151 40.4177M88.051 42.8066H87.1766V36.6855H88.051V42.8066Z" fill="#15346D"/>
<path d="M94.7137 40.2734C94.7137 40.4021 94.6254 40.4986 94.4409 40.571C94.2805 40.6353 94.0719 40.6675 93.8313 40.6675H91.2642C91.1118 40.6675 90.9915 40.6112 90.8792 40.5066C90.7749 40.4021 90.7188 40.2814 90.7188 40.1286V36.8067H91.5931V39.9999C91.5931 40.0481 91.6172 40.0642 91.6653 40.0642H93.9596C94.1762 40.0642 94.3527 40.024 94.4971 39.9436C94.6334 39.8632 94.7056 39.7505 94.7056 39.5977V36.6699H95.58V42.7909H94.7056V40.2573L94.7137 40.2734Z" fill="#15346D"/>
<path d="M101.602 39.0025C101.529 39.4288 101.329 39.7908 100.984 40.0803C100.647 40.3699 100.254 40.5147 99.8127 40.5147C99.3154 40.5147 98.8902 40.3377 98.5373 39.9838C98.1843 39.6299 98.0078 39.2116 98.0078 38.7129C98.0078 38.2143 98.1843 37.788 98.5373 37.434C98.8902 37.0801 99.3234 36.9032 99.8127 36.9032C100.246 36.9032 100.639 37.048 100.976 37.3375C101.313 37.6271 101.521 37.981 101.602 38.3993H102.283V36.6699H103.158V42.7909H102.283V38.9864H101.602V39.0025ZM100.727 38.721C100.727 38.3751 100.639 38.0775 100.463 37.8523C100.286 37.619 100.069 37.5064 99.8127 37.5064C99.556 37.5064 99.3395 37.6271 99.163 37.8603C98.9865 38.0936 98.8982 38.3832 98.8982 38.729C98.8982 39.0749 98.9865 39.3645 99.163 39.5897C99.3395 39.8149 99.556 39.9355 99.8127 39.9355C100.069 39.9355 100.294 39.8149 100.463 39.5897C100.639 39.3564 100.727 39.0749 100.727 38.729" fill="#15346D"/>
<path d="M109.668 39.3401C109.668 39.4688 109.579 39.5653 109.395 39.6377C109.234 39.7021 109.026 39.7342 108.785 39.7342H106.218C106.066 39.7342 105.945 39.686 105.841 39.5814C105.729 39.4768 105.681 39.3562 105.681 39.2034V37.9325H107.911V37.4097C107.911 37.3695 107.887 37.3453 107.839 37.3453H105.641V36.7501H108.24C108.384 36.7501 108.512 36.7984 108.617 36.903C108.721 37.0075 108.777 37.1362 108.777 37.281V38.4955H106.547V39.0747C106.547 39.1229 106.571 39.139 106.619 39.139H108.914C109.13 39.139 109.307 39.0988 109.443 39.0184C109.579 38.9379 109.652 38.8253 109.652 38.6725V36.6777H110.526V40.072H109.652V39.3401H109.668ZM110.414 41.5923C110.414 41.9783 110.245 42.3081 109.908 42.5816C109.571 42.8631 109.17 42.9998 108.697 42.9998C108.224 42.9998 107.831 42.8631 107.494 42.5816C107.157 42.3001 106.988 41.9703 106.988 41.5842C106.988 41.1981 107.157 40.8683 107.494 40.5868C107.831 40.3053 108.232 40.1686 108.697 40.1686C109.162 40.1686 109.571 40.3134 109.908 40.5868C110.245 40.8683 110.414 41.1981 110.414 41.5842M109.515 41.5923C109.515 41.359 109.435 41.166 109.275 41.0051C109.114 40.8442 108.922 40.7638 108.689 40.7638C108.456 40.7638 108.272 40.8442 108.111 41.0051C107.951 41.166 107.871 41.359 107.871 41.5923C107.871 41.8255 107.951 42.0185 108.111 42.1794C108.272 42.3403 108.464 42.4207 108.689 42.4207C108.914 42.4207 109.114 42.3403 109.275 42.1794C109.435 42.0185 109.515 41.8255 109.515 41.5923Z" fill="#15346D"/>
<path d="M52.3967 38.5597C52.3326 38.8975 52.1561 39.187 51.8833 39.4203C51.6106 39.6536 51.2897 39.7662 50.9448 39.7662C50.5437 39.7662 50.1987 39.6214 49.9019 39.3318C49.6131 39.0423 49.4688 38.6884 49.4688 38.2862C49.4688 37.884 49.6131 37.5301 49.9019 37.2405C50.1907 36.9429 50.5437 36.7982 50.9448 36.7982C51.2897 36.7982 51.5946 36.9108 51.8673 37.1279C52.14 37.3531 52.3165 37.6266 52.3887 37.9564H52.8139V36.6936H53.6241V40.9003H52.8139V38.5677H52.4048L52.3967 38.5597ZM51.5544 38.2781C51.5544 38.0288 51.4983 37.8116 51.378 37.6347C51.2576 37.4577 51.1132 37.3692 50.9368 37.3692C50.7603 37.3692 50.6159 37.4577 50.4956 37.6347C50.3752 37.8116 50.3191 38.0288 50.3191 38.2781C50.3191 38.5275 50.3752 38.7447 50.4956 38.9216C50.6159 39.0986 50.7603 39.179 50.9368 39.179C51.1132 39.179 51.2496 39.0986 51.378 38.9216C51.4983 38.7447 51.5544 38.5355 51.5544 38.2781ZM54.8354 42.8307H51.4502C51.3058 42.8307 51.1774 42.7744 51.0651 42.6779C50.9608 42.5733 50.9047 42.4446 50.9047 42.2998V40.6268H51.7871V42.1631C51.7871 42.2033 51.8111 42.2274 51.8513 42.2274H54.8194V42.8307H54.8354ZM54.7712 40.8922H53.961V36.6855H54.7712V40.8922Z" fill="#15346D"/>
<path d="M73.6813 31.0232H70.625V25.8271H73.561V26.6637H71.6518V27.9908H73.4246V28.8193H71.6518V30.1947H73.6813V31.0232Z" fill="#15346D"/>
<path d="M77.9581 31.0238H76.9634V28.9486C76.9634 28.3132 76.7307 27.9914 76.2654 27.9914C76.0328 27.9914 75.8403 28.0799 75.6959 28.2569C75.5515 28.4258 75.4793 28.651 75.4793 28.9164V31.0318H74.4766V27.3238H75.4793V27.919H75.4873C75.7681 27.4606 76.1692 27.2354 76.7067 27.2354C77.5409 27.2354 77.9581 27.7421 77.9581 28.7636V31.0318V31.0238Z" fill="#15346D"/>
<path d="M82.4893 30.637C82.4893 31.3287 82.2967 31.8515 81.9117 32.2135C81.5266 32.5835 80.9651 32.7685 80.2431 32.7685C79.7458 32.7685 79.3447 32.688 79.0318 32.5352V31.6826C79.4249 31.9078 79.818 32.0204 80.2191 32.0204C80.6202 32.0204 80.941 31.9159 81.1576 31.6987C81.3822 31.4815 81.4945 31.1839 81.4945 30.7898V30.46H81.4785C81.2057 30.9024 80.8047 31.1196 80.2752 31.1196C79.8019 31.1196 79.4249 30.9507 79.1441 30.6209C78.8553 30.2911 78.7109 29.8407 78.7109 29.2776C78.7109 28.6583 78.8714 28.1596 79.1842 27.7816C79.4971 27.4116 79.9142 27.2266 80.4276 27.2266C80.8929 27.2266 81.2459 27.4116 81.4865 27.7735H81.5026V27.315H82.4973V30.637H82.4893ZM81.5026 28.9076C81.5026 28.6583 81.4223 28.4411 81.2619 28.2642C81.1015 28.0872 80.9009 27.9987 80.6522 27.9987C80.3715 27.9987 80.1388 28.1113 79.9704 28.3285C79.8019 28.5457 79.7137 28.8513 79.7137 29.2455C79.7137 29.5833 79.7939 29.8568 79.9543 30.0578C80.1148 30.2589 80.3233 30.3554 80.5881 30.3554C80.8528 30.3554 81.0774 30.2589 81.2459 30.0578C81.4143 29.8568 81.4945 29.5994 81.4945 29.2857V28.9157L81.5026 28.9076Z" fill="#15346D"/>
<path d="M83.4377 26.0924C83.4377 25.9396 83.4858 25.8189 83.5981 25.7143C83.7024 25.6178 83.8468 25.5615 84.0153 25.5615C84.1838 25.5615 84.3201 25.6178 84.4324 25.7143C84.5447 25.8109 84.6009 25.9396 84.6009 26.0924C84.6009 26.2452 84.5447 26.3739 84.4324 26.4704C84.3201 26.575 84.1757 26.6233 84.0073 26.6233C83.8388 26.6233 83.6944 26.5669 83.5901 26.4704C83.4858 26.3659 83.4297 26.2452 83.4297 26.0924M83.5179 27.315H84.5126V31.023H83.5179V27.315Z" fill="#15346D"/>
<path d="M89.0284 31.0238H88.0337V28.9486C88.0337 28.3132 87.801 27.9914 87.3358 27.9914C87.1031 27.9914 86.9106 28.0799 86.7662 28.2569C86.6218 28.4258 86.5496 28.651 86.5496 28.9164V31.0318H85.5469V27.3238H86.5496V27.919H86.5576C86.8384 27.4606 87.2395 27.2354 87.777 27.2354C88.6112 27.2354 89.0284 27.7421 89.0284 28.7636V31.0318V31.0238Z" fill="#15346D"/>
<path d="M93.2788 29.4473H90.7679C90.8081 30.0747 91.169 30.3964 91.8589 30.3964C92.2761 30.3964 92.6531 30.2918 92.974 30.0747V30.8227C92.629 31.0238 92.1798 31.1284 91.6343 31.1284C91.0487 31.1284 90.5995 30.9594 90.2706 30.6216C89.9417 30.2918 89.7812 29.8253 89.7812 29.2221C89.7812 28.6188 89.9577 28.1523 90.3107 27.7903C90.6556 27.4203 91.0968 27.2354 91.6263 27.2354C92.1557 27.2354 92.5568 27.3962 92.8536 27.7099C93.1505 28.0316 93.2949 28.466 93.2949 29.021V29.4553L93.2788 29.4473ZM92.3402 28.8038C92.3402 28.2166 92.0916 27.919 91.6022 27.919C91.3937 27.919 91.2172 27.9995 91.0567 28.1603C90.8963 28.3212 90.8 28.5303 90.7679 28.8038H92.3402Z" fill="#15346D"/>
<path d="M97.3179 29.4473H94.807C94.8471 30.0747 95.2081 30.3964 95.898 30.3964C96.3151 30.3964 96.6922 30.2918 97.013 30.0747V30.8227C96.6681 31.0238 96.2189 31.1284 95.6734 31.1284C95.0878 31.1284 94.6305 30.9594 94.3096 30.6216C93.9808 30.2918 93.8203 29.8253 93.8203 29.2221C93.8203 28.6188 93.9968 28.1523 94.3498 27.7903C94.7027 27.4203 95.1359 27.2354 95.6653 27.2354C96.1948 27.2354 96.5959 27.3962 96.8927 27.7099C97.1895 28.0316 97.3339 28.466 97.3339 29.021V29.4553L97.3179 29.4473ZM96.3713 28.8038C96.3713 28.2166 96.1226 27.919 95.6333 27.919C95.4327 27.919 95.2482 27.9995 95.0958 28.1603C94.9354 28.3212 94.8391 28.5303 94.799 28.8038H96.3713Z" fill="#15346D"/>
<path d="M100.381 28.224C100.252 28.1436 100.092 28.1114 99.8993 28.1114C99.6506 28.1114 99.4421 28.2079 99.2977 28.417C99.1452 28.6181 99.0731 28.8916 99.0731 29.2294V31.0311H98.0703V27.3231H99.0731V28.039H99.0811C99.2656 27.5162 99.5945 27.2588 100.076 27.2588C100.212 27.2588 100.316 27.2749 100.381 27.3071V28.224Z" fill="#15346D"/>
<path d="M100.883 26.0924C100.883 25.9396 100.939 25.8189 101.043 25.7143C101.156 25.6178 101.292 25.5615 101.461 25.5615C101.629 25.5615 101.765 25.6178 101.878 25.7143C101.99 25.8109 102.046 25.9396 102.046 26.0924C102.046 26.2452 101.99 26.3739 101.878 26.4704C101.765 26.575 101.621 26.6233 101.453 26.6233C101.284 26.6233 101.14 26.5669 101.035 26.4704C100.931 26.3659 100.875 26.2452 100.875 26.0924M100.963 27.315H101.958V31.023H100.963V27.315Z" fill="#15346D"/>
<path d="M106.473 31.0238H105.479V28.9486C105.479 28.3132 105.246 27.9914 104.781 27.9914C104.548 27.9914 104.356 28.0799 104.211 28.2569C104.067 28.4258 103.995 28.651 103.995 28.9164V31.0318H103V27.3238H103.995V27.919H104.003C104.275 27.4606 104.685 27.2354 105.222 27.2354C106.056 27.2354 106.473 27.7421 106.473 28.7636V31.0318V31.0238Z" fill="#15346D"/>
<path d="M110.997 30.637C110.997 31.3287 110.804 31.8515 110.419 32.2135C110.034 32.5835 109.481 32.7685 108.751 32.7685C108.253 32.7685 107.852 32.688 107.539 32.5352V31.6826C107.932 31.9078 108.326 32.0204 108.727 32.0204C109.128 32.0204 109.449 31.9159 109.673 31.6987C109.898 31.4815 110.01 31.1839 110.01 30.7898V30.46H109.994C109.721 30.9024 109.32 31.1196 108.791 31.1196C108.326 31.1196 107.949 30.9507 107.66 30.6209C107.371 30.2911 107.227 29.8407 107.227 29.2776C107.227 28.6583 107.379 28.1596 107.7 27.7816C108.013 27.4116 108.43 27.2266 108.943 27.2266C109.409 27.2266 109.761 27.4116 110.002 27.7735H110.018V27.315H111.013V30.637H110.997ZM110.018 28.9076C110.018 28.6583 109.938 28.4411 109.778 28.2642C109.617 28.0872 109.417 27.9987 109.168 27.9987C108.879 27.9987 108.654 28.1113 108.486 28.3285C108.318 28.5457 108.229 28.8513 108.229 29.2455C108.229 29.5833 108.31 29.8568 108.47 30.0578C108.63 30.2589 108.839 30.3554 109.104 30.3554C109.368 30.3554 109.593 30.2589 109.761 30.0578C109.93 29.8568 110.01 29.5994 110.01 29.2857V28.9157L110.018 28.9076Z" fill="#15346D"/>
</g>
<defs>
<clipPath id="clip0_2275_10294">
<rect width="82" height="43" fill="white" transform="translate(29)"/>
</clipPath>
</defs>
</svg>
