<svg version="1.2" xmlns="http://www.w3.org/2000/svg" viewBox="0 0 1719 540" width="140" height="44">
	<title>Appier logo_blue-ai</title>
	<style>
		.s0 { fill: #f4f6f9 } 
		.s1 { fill: #255ba9 } 
	</style>
	<path id="Shape 2" class="s0" d="m1719 0v540h-1719v-540z"/>
	<g id="_Artboards_">
	</g>
	<g id="圖層 1">
		<g id="&lt;Group&gt;">
			<path id="&lt;Compound Path&gt;" fill-rule="evenodd" class="s1" d="m793.6 237.1q5.4 18 5.4 43.8c0 12.4-1 24.6-3.2 37q-3.3 18.3-11.4 33c-5.4 9.6-12.6 17.6-21.8 23.6-9 6-20.4 9-34 9-9.6 0-17.4-1.4-23-4-5.6-2.6-9.8-5.8-12.6-9.4v93.4l-55.4 13.8v-106.4c-0.6 0.6-1.2 1.2-2 1.8-9.4 6.8-19.8 10.2-31.6 10.2-12.6 0-23.8-4.4-34-13-10-8.8-17-23.4-20.6-44-6 15.8-15.8 29.2-29.6 40.4-13.6 11-30.2 16.6-49.6 16.6-12 0-24.4-2.6-36.6-7.6-12.2-5.2-23.4-13.2-33-24-9.8-10.8-17.8-25-24-42.4-6.2-17.4-9.4-38.4-9.4-63 0-19 2.2-38.6 6.4-59 4.2-20.4 11-39 20-55.8 9-16.8 20.8-30.8 35.4-41.6 14.6-11 32-16.4 52.2-16.4q15.6 0 32.4 6.6c11.2 4.2 25.2 15.2 25.2 15.2v-24.2h60.6v211.6c0 4.8 0.2 10.4 0.6 16.6 0.4 6.2 1.6 12.2 3.4 17.8 1.8 5.6 4.6 10.4 8.4 14.2 3.8 4 9.4 5.8 16.6 5.8 2.6 0 6.4-1 9.4-2.6v-159.8h55.4v28.8c4.4-4.8 10-8.6 16.6-11.8 6.6-3.2 14.8-4.8 24.2-4.8 8.6 0 17 1.6 24.8 5 7.8 3.4 14.8 8.8 20.8 16 6 7.4 10.8 17 14 29.6zm-254.6 33.4v-138.4c-3-6.8-7.2-13-12.8-18.2-5.6-5.4-13.8-8-24.2-8-13 0-24 4.2-32.8 13-8.8 8.8-16.2 19.8-21.8 33.2-5.6 13.4-9.8 28.2-12.4 44.6-2.6 16.4-4 32-4 47 0 33 5 56.6 15.2 71.2 10.2 14.6 22.4 21.8 37 21.8 7.6 0 15-1.8 21.8-5.4 6.8-3.6 12.8-8.6 17.8-14.6 5-6 9-13 11.8-21q4.2-11.7 4.2-25.2zm206.4 4.4c0-14-1.2-25.2-3.6-33.4-2.4-8.2-5.2-14.2-8.6-18.2-3.4-3.8-6.6-6.4-9.8-7.4-3-1-5.6-1.6-7.4-1.6-4.6 0-9 1.6-13.4 4.8q-6.6 4.8-9.6 14.4v107.4c1.4 2.2 3.4 4 6.2 6 2.8 1.8 6.6 2.8 11.2 2.8 6.8 0 12.4-2.4 17-6.8 4.6-4.4 8.4-10.2 11-17.4 2.8-7.2 4.6-15.2 5.8-24 1.2-9 1.8-17.6 1.2-26.6z"/>
			<path id="&lt;Compound Path&gt;" fill-rule="evenodd" class="s1" d="m969.6 236.9q5.4 18 5.4 43.8c0 12.4-1 24.6-3.2 37q-3.3 18.3-11.4 33c-5.4 9.6-12.6 17.6-21.8 23.6-9 6-20.4 9-34 9-9.6 0-17.4-1.4-23-4-5.6-2.6-9.8-5.8-12.6-9.4v93.4l-55.4 13.8v-302.8h55.2v28.8c4.4-4.8 10-8.6 16.6-11.8 6.6-3.2 14.6-4.8 24.2-4.8 8.6 0 17 1.6 24.8 5 7.8 3.4 14.8 8.8 20.8 16 6.2 7.4 11 17 14.4 29.4zm-48.2 38c0-14-1.2-25.2-3.6-33.4-2.4-8.2-5.2-14.2-8.6-18.2-3.4-3.8-6.6-6.4-9.8-7.4-3.4-1-5.8-1.6-7.6-1.6-4.6 0-9 1.6-13.4 4.8q-6.6 4.8-9.6 14.4v107.4c1.4 2.2 3.4 4 6.2 6 2.8 1.8 6.6 2.8 11.2 2.8 6.8 0 12.4-2.4 17-6.8 4.6-4.4 8.2-10.2 11-17.4 2.6-7.2 4.6-15.2 5.8-24 1-9 1.6-17.6 1.4-26.6z"/>
			<path id="&lt;Compound Path&gt;" fill-rule="evenodd" class="s1" d="m1366.8 220.3c0 5.8-1.8 10.8-5.2 15.6-3.6 4.8-9.2 7.2-17.2 7.2-6 0-10.2-1.2-12.4-3.8-2.4-2.6-4.2-5.2-5.4-8.2-1.2-2.8-2.6-5.6-4-8.2-1.6-2.6-4-3.8-7.6-3.8-4 0-7.6 1.4-11.4 4.4-3.8 3-7.8 6.6-11.8 11v133.4l-55.4 31.6v-57.4c-4.6 6.6-9.8 12.8-15.8 18.4-7.4 6.8-15.8 12-25.6 16.2-9.8 4.2-21.2 6.2-34.2 6.2-11 0-21.2-1.6-30.4-5q-13.8-5.1-24-15.6c-2.8-2.8-5-5.8-7.2-9.2-4.6 7.4-9.6 13.4-15 17.6-6.4 5-13 8.2-19.6 9.8-6.8 1.6-12.6 2.4-17.8 2.4-19.8 0-33.6-5.4-41.6-16.4q-12-16.2-12-43.2v-135h55.4v130.8c0 10.8 1.4 18 4.4 21.4 3 3.4 8.2 5.2 15.6 5.2q11.1 0 18.6-9.6c1-1.2 1.6-2.4 2.4-3.6-3.2-10.6-4.8-23.2-4.8-37.6 0-11 1.2-22.8 3.6-35.6 2.4-12.6 6.6-24.4 12.8-35.2 6.2-10.8 14.4-19.8 25-27 10.6-7.2 23.8-10.8 40-10.8 12.2 0 21.8 2 28.4 5.8 6.6 3.8 11.6 8.2 14.8 13.4 3.2 5.2 5.2 10.2 5.8 15 0.6 4.8 1 8.4 1 10.4 0 11.6-2.2 21.8-6.4 30.4-4.4 8.8-10 16.2-17 22.2-7 6-15 10.6-24.2 13.8-9 3.2-18.2 5-27.8 5.6 0.2 17.2 3 29.6 8.6 36.8 5.4 7.4 15.2 11 29 11q11.4 0 20.4-3c6-2 11.2-4.8 15.8-8.2 4.6-3.6 8.8-7.6 12.6-12.4 3-3.6 5.8-7.6 8.6-11.6v-127h55.4v23.8c5.6-6.6 11.8-12.6 18.8-17.8 6.8-5.2 14.4-7.8 22.6-7.8q7.2 0 13.2 3c4 2 7.4 4.6 10.4 8 3 3.4 5.4 7 7 11 1.6 4 2.6 8 3.6 11.6zm-226 64.6c6.4-0.6 12.4-2.2 18-5.2 5.6-2.8 10.4-6.6 14.6-11.4 4-4.6 7.4-10 9.6-16.2 2.2-6.2 3.4-12.8 3.4-20 0-9-1.4-15.2-4.6-19-3-3.8-6.4-5.6-10-5.6-4.4 0-8.4 2.2-12 6.4-3.6 4.2-6.8 9.8-9.4 16.8q-4.2 10.5-6.6 24.6c-1.6 9.4-2.8 19.2-3 29.6z"/>
			<path id="&lt;Path&gt;" class="s1" d="m1019.6 165.5c9.6 0 17.8-3.4 24.6-10 6.8-6.6 10.2-14.8 10.2-24.4q0-14.4-10.2-24.6-10.2-10.2-24.6-10.2c-9.6 0-17.8 3.4-24.4 10.2-6.6 6.8-10 15-10 24.6 0 9.6 3.4 17.8 10 24.4 6.8 6.6 14.8 10 24.4 10z"/>
		</g>
	</g>
</svg>