<svg version="1.2" xmlns="http://www.w3.org/2000/svg" viewBox="0 0 140 44" width="140" height="44">
	<title>포티에_로고타입 (1)-ai (1)-svg</title>
	<style>
		.s0 { fill: #f4f6f9 } 
		.s1 { fill: #231f20 } 
	</style>
	<path id="Shape 1" class="s0" d="m0 0h140v44h-140z"/>
	<g id="레이어 1">
		<g id="&lt;Group&gt;">
			<g id="&lt;Group&gt;">
				<path id="&lt;Compound Path&gt;" fill-rule="evenodd" class="s1" d="m36.7 27.5h-1.7v-12.9h4.6c3.2 0 5.1 1.5 5.1 4 0 2.6-1.9 4.1-5.1 4.1h-2.9zm2.9-6.3c2.3 0 3.3-0.9 3.3-2.6 0-1.6-1-2.6-3.3-2.6h-2.9v5.2z"/>
				<path id="&lt;Compound Path&gt;" fill-rule="evenodd" class="s1" d="m52.3 27.8c-3.8 0-6.4-2.8-6.4-6.8 0-3.9 2.6-6.7 6.4-6.7 3.7 0 6.4 2.8 6.4 6.7 0 4-2.7 6.8-6.4 6.8zm0-11.9c-2.8 0-4.6 2-4.6 5.1 0 3.2 1.8 5.2 4.6 5.2 2.8 0 4.6-2 4.6-5.2 0-3.1-1.8-5.1-4.6-5.1z"/>
				<path id="&lt;Compound Path&gt;" fill-rule="evenodd" class="s1" d="m68.8 27.5c-0.3-0.3-0.5-1.3-0.6-2.8 0-1.5-0.7-2.4-2.5-2.4h-3.6v5.2h-1.8v-12.9h5.3c3.3 0 4.8 1.5 4.8 3.8 0 2-1.3 3-2.9 3.2 1.6 0.3 2.3 1.3 2.5 2.8 0.1 1.9 0.2 2.6 0.6 3.1zm-3.3-6.6c2.2 0 3.2-0.8 3.2-2.4 0-1.5-1-2.5-3.2-2.5h-3.4v4.9z"/>
				<path id="&lt;Compound Path&gt;" class="s1" d="m76.2 27.5v-11.4h-4.7v-1.5h11.3v1.5h-4.8v11.4z"/>
				<path id="&lt;Compound Path&gt;" class="s1" d="m86.1 14.6v12.9h-1.8v-12.9z"/>
				<path id="&lt;Compound Path&gt;" class="s1" d="m97.9 27.5h-9.2v-12.9h9.1v1.5h-7.3v4h5.8v1.5h-5.8v4.4h7.4z"/>
				<path id="&lt;Compound Path&gt;" fill-rule="evenodd" class="s1" d="m108.1 27.5c-0.3-0.3-0.4-1.3-0.5-2.8-0.1-1.5-0.8-2.4-2.6-2.4h-3.6v5.2h-1.7v-12.9h5.2c3.3 0 4.8 1.5 4.8 3.8 0 2-1.3 3-2.9 3.2 1.6 0.3 2.4 1.3 2.5 2.8 0.1 1.9 0.2 2.6 0.6 3.1zm-3.3-6.6c2.2 0 3.2-0.8 3.2-2.4 0-1.5-1-2.5-3.2-2.5h-3.4v4.9z"/>
			</g>
			<path id="&lt;Compound Path&gt;" class="s1" d="m35 10.2h74.9v1.5h-74.9z"/>
			<path id="&lt;Compound Path&gt;" class="s1" d="m35 30.4h74.9v1.5h-74.9z"/>
		</g>
	</g>
</svg>