<svg width="140" height="44" viewBox="0 0 140 44" fill="none" xmlns="http://www.w3.org/2000/svg">
<rect width="140" height="44" fill="#F4F6F9"/>
<g clip-path="url(#clip0_2275_10264)">
<path d="M58.7384 35.5205H56.2891V43.8676H58.7384V35.5205Z" fill="#585358"/>
<path d="M60.3516 43.8676H69.4127V41.7811H62.8009V40.7373H69.4127V38.6508H62.8009V37.6083H69.4127V35.5205H60.3516V43.8676Z" fill="#585358"/>
<path d="M101.335 37.6083V35.5205H92.2734V43.8676H101.335V41.7811H94.7228V40.7373H101.335V38.6508H94.7228V37.6083H101.335Z" fill="#585358"/>
<path d="M42.6572 38.542H38.5842C38.4041 38.542 38.2516 38.3578 38.2516 38.141V38.0534C38.2516 37.8352 38.4041 37.651 38.5842 37.651H44.486V35.5254H38.5842C37.2221 35.5254 36.1138 36.6594 36.1138 38.0521V38.1396C36.1138 39.5323 37.2221 40.6664 38.5842 40.6664H42.6572C42.8373 40.6664 42.9898 40.8506 42.9898 41.0675V41.2765C42.9898 41.4947 42.8373 41.6776 42.6572 41.6776H35.9219V43.8032H42.6572C44.0193 43.8032 45.1289 42.6692 45.1289 41.2765V41.0675C45.1289 39.6748 44.0193 38.5407 42.6572 38.5407V38.542Z" fill="#585358"/>
<path d="M45.875 39.146V40.1846C45.875 42.1809 47.5092 43.8049 49.5194 43.8049H54.7086V41.6792H49.5194C48.6885 41.6792 48.0141 41.009 48.0141 40.1846V39.146C48.0141 38.3216 48.6885 37.65 49.5194 37.65H54.7086V35.5244H49.5194C47.5105 35.5244 45.875 37.1484 45.875 39.1447V39.146Z" fill="#585358"/>
<path d="M81.7344 39.146V40.1846C81.7344 42.1809 83.3686 43.8049 85.3775 43.8049H90.568V41.6792H85.3775C84.5479 41.6792 83.8734 41.009 83.8734 40.1846V39.146C83.8734 38.3216 84.5479 37.65 85.3775 37.65H90.568V35.5244H85.3775C83.3686 35.5244 81.7344 37.1484 81.7344 39.1447V39.146Z" fill="#585358"/>
<path d="M72.9281 39.8263C72.9281 38.6244 73.9115 37.6471 75.1211 37.6471H76.2636C77.4731 37.6471 78.4565 38.6244 78.4565 39.8263V43.9992H80.5956V39.8263C80.5956 37.4525 78.6524 35.5215 76.2636 35.5215H75.1211C72.7322 35.5215 70.7891 37.4525 70.7891 39.8263V43.9992H72.9281V39.8263Z" fill="#585358"/>
<path d="M61.1667 20.0887C59.5575 18.1459 57.0438 17.383 54.7325 17.9029C53.515 18.1773 52.1267 18.0741 51.142 17.2432C50.0231 16.2999 49.5906 14.6603 49.8377 13.2584C50.0862 11.8461 51.0959 10.7892 52.3896 10.2117C53.2679 9.81847 54.2605 9.70351 55.1939 9.95957C56.5626 10.3345 58.0837 10.0759 59.2735 9.13258C61.1812 7.62098 61.5598 4.81206 60.1123 2.86019C58.5373 0.738476 55.5161 0.385728 53.494 2.03972C52.2319 3.07184 51.6678 4.63308 51.8585 6.13291C52.0531 7.67063 51.8966 8.65963 50.6857 9.64341C49.7339 10.4221 48.5007 10.7199 47.2753 10.5815C46.4011 10.4835 45.4834 10.7866 44.826 11.5234C44.028 12.4184 43.8965 13.7562 44.5078 14.7857C45.0101 15.6336 45.8528 16.1078 46.7284 16.1784C47.9577 16.2777 48.431 16.1405 49.2146 17.0864L49.9732 18.0022C51.0578 19.3113 50.8567 20.1213 50.1967 21.6852C49.2303 23.9754 49.6353 26.7399 51.5403 28.6827C53.7556 30.9416 57.3711 31.2512 59.9454 29.4064C63.01 27.2103 63.5306 22.9407 61.1681 20.0874L61.1667 20.0887ZM56.0498 27.2259C54.3801 27.2259 53.0273 25.8816 53.0273 24.2224C53.0273 22.5631 54.3801 21.2188 56.0498 21.2188C57.7195 21.2188 59.0724 22.5631 59.0724 24.2224C59.0724 25.8816 57.7195 27.2259 56.0498 27.2259Z" fill="url(#paint0_linear_2275_10264)"/>
<path d="M80.7514 22.7666H77.2188V30.6094H80.7514V22.7666Z" fill="url(#paint1_linear_2275_10264)"/>
<path d="M80.7672 18.5273H77.2188V21.5753H80.7672V18.5273Z" fill="url(#paint2_linear_2275_10264)"/>
<path d="M48.2185 23.6237V22.6648C48.2185 20.4098 46.3792 18.582 44.11 18.582H35.7891V30.6081H38.9799V27.7064H43.2856L44.8817 30.6081H48.4867L46.4765 26.9526C47.5269 26.2131 48.2185 25.0007 48.2185 23.625V23.6237ZM45.0276 23.6237C45.0276 24.1267 44.6161 24.5356 44.11 24.5356H38.9799V21.7528H44.11C44.6161 21.7528 45.0276 22.1618 45.0276 22.6648V23.6237Z" fill="url(#paint3_linear_2275_10264)"/>
<path d="M30.3209 18.6787H22V30.6081H25.1908V27.7064H30.3209C32.5901 27.7064 34.4294 25.8787 34.4294 23.6237V22.7614C34.4294 20.5065 32.5901 18.6787 30.3209 18.6787ZM31.2386 23.6237C31.2386 24.1267 30.8271 24.5356 30.3209 24.5356H25.1908V21.8482H30.3209C30.8271 21.8482 31.2386 22.2571 31.2386 22.7601V23.6224V23.6237Z" fill="url(#paint4_linear_2275_10264)"/>
<path d="M63.5078 21.6908H67.7978V30.6088H71.3304V21.6908H75.6204V18.5723H63.5078V21.6908Z" fill="url(#paint5_linear_2275_10264)"/>
<path d="M112.122 18.5723C110.32 18.5723 108.931 18.9969 107.959 19.8461C106.984 18.9969 105.596 18.5723 103.794 18.5723C99.8743 18.5723 97.9141 20.579 97.9141 24.5912V30.6101H101.343V24.5912C101.343 22.5858 102.159 21.5824 103.794 21.5824C105.428 21.5824 106.244 22.5858 106.244 24.5912V30.6101H109.674V24.5912C109.674 22.5858 110.489 21.5824 112.124 21.5824C113.758 21.5824 114.574 22.5858 114.574 24.5912V30.6101H118.004V24.5912C118.004 20.579 116.044 18.5723 112.124 18.5723H112.122Z" fill="url(#paint6_linear_2275_10264)"/>
<path d="M93.0892 24.4001C93.0892 26.1338 91.6706 27.5435 89.926 27.5435H88.8571C87.1138 27.5435 85.6952 26.1338 85.6952 24.4001V18.6699H82.3203V24.4001C82.3203 27.8231 85.122 30.6085 88.5679 30.6085H90.2166C93.6611 30.6085 96.4641 27.8231 96.4641 24.4001V18.6699H93.0892V24.4001Z" fill="url(#paint7_linear_2275_10264)"/>
</g>
<defs>
<linearGradient id="paint0_linear_2275_10264" x1="56.1248" y1="31.7359" x2="51.5145" y2="2.49193" gradientUnits="userSpaceOnUse">
<stop offset="0.15" stop-color="#F04B22"/>
<stop offset="0.77" stop-color="#F7902F"/>
</linearGradient>
<linearGradient id="paint1_linear_2275_10264" x1="32.944" y1="26.6873" x2="115.473" y2="26.6873" gradientUnits="userSpaceOnUse">
<stop offset="0.15" stop-color="#F04B22"/>
<stop offset="0.77" stop-color="#F7902F"/>
</linearGradient>
<linearGradient id="paint2_linear_2275_10264" x1="32.944" y1="20.0507" x2="115.473" y2="20.0507" gradientUnits="userSpaceOnUse">
<stop offset="0.15" stop-color="#F04B22"/>
<stop offset="0.77" stop-color="#F7902F"/>
</linearGradient>
<linearGradient id="paint3_linear_2275_10264" x1="37.8361" y1="24.6023" x2="116.399" y2="24.4713" gradientUnits="userSpaceOnUse">
<stop offset="0.15" stop-color="#F04B22"/>
<stop offset="0.77" stop-color="#F7902F"/>
</linearGradient>
<linearGradient id="paint4_linear_2275_10264" x1="38.0305" y1="24.6193" x2="116.593" y2="24.4883" gradientUnits="userSpaceOnUse">
<stop offset="0.15" stop-color="#F04B22"/>
<stop offset="0.77" stop-color="#F7902F"/>
</linearGradient>
<linearGradient id="paint5_linear_2275_10264" x1="37.8404" y1="24.6395" x2="116.403" y2="24.5086" gradientUnits="userSpaceOnUse">
<stop offset="0.15" stop-color="#F04B22"/>
<stop offset="0.77" stop-color="#F7902F"/>
</linearGradient>
<linearGradient id="paint6_linear_2275_10264" x1="37.4537" y1="24.7114" x2="116.017" y2="24.5804" gradientUnits="userSpaceOnUse">
<stop offset="0.15" stop-color="#F04B22"/>
<stop offset="0.77" stop-color="#F7902F"/>
</linearGradient>
<linearGradient id="paint7_linear_2275_10264" x1="37.2581" y1="24.7202" x2="115.818" y2="24.5892" gradientUnits="userSpaceOnUse">
<stop offset="0.15" stop-color="#F04B22"/>
<stop offset="0.77" stop-color="#F7902F"/>
</linearGradient>
<clipPath id="clip0_2275_10264">
<rect width="96" height="43" fill="white" transform="translate(22 1)"/>
</clipPath>
</defs>
</svg>
