<svg width="140" height="44" viewBox="0 0 140 44" fill="none" xmlns="http://www.w3.org/2000/svg">
<rect width="140" height="44" fill="#F4F6F9"/>
<g clip-path="url(#clip0_2275_10259)">
<path d="M122.91 24.3292L113.146 28.9289V35.9982H111.78L108.488 25.6173L113.863 23.1115H103.473L101.891 18.1036L121.421 9L122.997 13.9682L112.102 19.0719L121.409 19.5814L122.912 24.3274L122.91 24.3292Z" fill="#D34A21"/>
<path d="M17 16.9314H26.7406V20.0533H20.7781V23.1318H26.3044V26.1759H20.7781V30.5913H17V16.9314ZM36.553 26.1633C36.553 27.1985 36.2346 27.5688 35.0218 27.5688H34.3667C33.154 27.5688 32.8356 27.1985 32.8356 26.1633V16.9314H29.0593V26.3187C29.0593 29.52 30.9088 30.7883 33.9692 30.7883H35.4212C38.4834 30.7883 40.331 29.52 40.331 26.3187V16.9314H36.553V26.1633ZM56.1832 30.5931H59.9613V16.9314H56.1832V30.5931ZM73.6548 21.401V26.1235C73.6548 29.52 71.8053 30.7883 68.5462 30.7883H67.3132C64.0522 30.7883 62.2046 29.52 62.2046 26.1235V21.401C62.2046 18.0046 64.0541 16.7363 67.3132 16.7363H68.5462C71.8072 16.7363 73.6548 18.0046 73.6548 21.401ZM69.8767 21.2655C69.8767 20.2303 69.5583 19.86 68.3456 19.86H67.5101C66.2974 19.86 65.979 20.2303 65.979 21.2655V26.2609C65.979 27.2942 66.2974 27.6664 67.5101 27.6664H68.3456C69.5583 27.6664 69.8767 27.296 69.8767 26.2609V21.2655ZM79.7406 20.0551H84.7241L85.5595 16.9333H79.7406C79.4038 16.9333 79.091 16.9531 78.7928 16.9856C76.3563 17.2512 75.1693 18.5773 75.1693 20.6802V21.2258C75.1693 23.0414 75.8263 24.232 77.8138 24.8752L80.9552 25.8905C81.4116 26.0459 81.5717 26.203 81.5717 26.633V26.8083C81.5717 27.1786 81.3324 27.4713 80.7767 27.4713H76.003L75.1601 30.5931H80.7785C83.8002 30.5931 85.3516 29.1298 85.3516 26.7486V26.241C85.3516 24.9944 84.9191 24.0658 84.045 23.4136C83.6861 23.1462 83.2555 22.924 82.7476 22.7488L80.6423 22.0243L79.6265 21.6756C79.1499 21.5203 78.9511 21.3432 78.9511 20.8952V20.7199C78.9511 20.3496 79.1903 20.0569 79.7461 20.0569L79.7406 20.0551ZM51.2568 25.7243L54.4036 30.5949H50.1213L47.6112 26.3512H46.3966V30.5949H42.6111V16.9314H48.8074C52.0536 16.9314 53.8681 18.0949 53.8681 21.0487V22.2032C53.8681 24.0224 52.9719 25.1751 51.2586 25.7243H51.2568ZM50.0827 21.0487C50.0827 20.4038 49.7643 20.0316 48.7485 20.0316H46.3984V23.2203H48.7485C49.7643 23.2203 50.0827 22.8481 50.0827 22.2032V21.0487ZM91.6545 24.895L93.0403 19.963L93.942 23.1137H97.652L96.6233 19.86H93.0679L93.8905 16.9333H90.5007L86.1668 30.5949H90.0627L90.8099 27.9211H95.2817L96.0289 30.5949H100.004L98.1967 24.8969H91.6545V24.895Z" fill="#D34A21"/>
</g>
<defs>
<clipPath id="clip0_2275_10259">
<rect width="106" height="27" fill="white" transform="translate(17 9)"/>
</clipPath>
</defs>
</svg>
