<svg version="1.2" xmlns="http://www.w3.org/2000/svg" viewBox="0 0 140 44" width="140" height="44">
	<title>CREATIVE PARTNERS_LOGO_최종-ai</title>
	<style>
		.s0 { fill: #f4f6f9 } 
		.s1 { fill: #16489b } 
		.s2 { fill: #3f4140 } 
		.s3 { fill: #2c2d2d } 
		.s4 { fill: #231f20 } 
	</style>
	<path id="Shape 3" class="s0" d="m0 0h140v44h-140z"/>
	<g id="Layer 1">
		<g id="&lt;Group&gt;">
			<g id="&lt;Group&gt;">
				<g id="&lt;Group&gt;">
					<g id="&lt;Group&gt;">
						<g id="&lt;Group&gt;">
							<path id="&lt;Path&gt;" class="s1" d="m14.2 20h-5.9c-0.4 0-0.8-0.3-0.8-0.8v-8.3c0-0.4 0.4-0.7 0.8-0.7h8.3c0.4 0 0.8 0.3 0.8 0.7 0 0.5-0.4 0.8-0.8 0.8h-7.5v6.8h5.1c0.4 0 0.7 0.3 0.7 0.7 0 0.5-0.3 0.8-0.7 0.8z"/>
						</g>
						<g id="&lt;Group&gt;">
							<path id="&lt;Path&gt;" class="s2" d="m24.9 28.3h-8.3c-0.4 0-0.8-0.3-0.8-0.8v-13.1c0-0.4 0.4-0.8 0.8-0.8 0.4 0 0.8 0.4 0.8 0.8v12.4h6.7v-6.8h-5.1c-0.4 0-0.7-0.3-0.7-0.8 0-0.4 0.3-0.7 0.7-0.7h5.9c0.4 0 0.8 0.3 0.8 0.7v8.3c0 0.5-0.4 0.8-0.8 0.8z"/>
						</g>
					</g>
				</g>
				<g id="&lt;Group&gt;">
					<path id="&lt;Path&gt;" class="s1" d="m35.6 26.7l-0.5-0.4q-0.1-0.1-0.2 0-0.4 0.5-1 0.8-0.6 0.3-1.2 0.3-0.8 0-1.4-0.4-0.6-0.4-1-1-0.4-0.7-0.4-1.5 0-0.7 0.4-1.4 0.4-0.6 1-1 0.6-0.4 1.4-0.4 0.6 0 1.1 0.2 0.6 0.3 1 0.7v0.1c0.1 0.1 0.2 0.1 0.2 0l0.5-0.4q0-0.1 0-0.1 0-0.1 0-0.1v-0.1q-0.6-0.6-1.3-0.9-0.7-0.3-1.5-0.3-1 0-1.9 0.5-0.8 0.5-1.3 1.4-0.5 0.8-0.5 1.8 0 1.1 0.5 1.9 0.5 0.9 1.3 1.4 0.9 0.5 1.9 0.5 0.8 0 1.6-0.4 0.8-0.3 1.3-1v-0.1q0.1 0 0.1-0.1 0 0-0.1 0z"/>
					<path id="&lt;Path&gt;" class="s1" d="m39.6 25.2q0.2 0 0.3 0 0.3-0.1 0.7-0.2 0.5-0.3 0.9-0.8 0.4-0.5 0.4-1.2 0-0.4-0.2-0.8-0.2-0.4-0.5-0.7-0.4-0.3-0.8-0.4-0.5-0.2-1-0.2h-2.5c-0.1 0-0.1 0-0.1 0.1v7.1c0 0.1 0 0.1 0.1 0.1h0.6c0.1 0 0.2 0 0.2-0.1v-6.3h1.7q0.5 0 0.9 0.2 0.3 0.2 0.5 0.5 0.2 0.2 0.2 0.5 0 0.4-0.2 0.7-0.3 0.3-0.6 0.4-0.4 0.2-1.2 0.2h-1q-0.1 0-0.1 0.1 0 0.1 0 0.1l3 3.7q0.1 0 0.1 0h0.9q0.1 0 0.1 0 0-0.1 0-0.2z"/>
					<path id="&lt;Path&gt;" class="s1" d="m48.1 20.9h-4.6c-0.1 0-0.2 0-0.2 0.1v7.1c0 0.1 0.1 0.1 0.2 0.1h4.6c0.1 0 0.2 0 0.2-0.1v-0.7c0 0-0.1-0.1-0.2-0.1h-3.8v-2.3h2.9c0.1 0 0.2 0 0.2-0.1v-0.7c0 0-0.1-0.1-0.2-0.1h-2.9v-2.3h3.8c0.1 0 0.2-0.1 0.2-0.1v-0.7c0-0.1-0.1-0.1-0.2-0.1z"/>
					<path id="&lt;Compound Path&gt;" fill-rule="evenodd" class="s1" d="m56.1 28q0 0.1 0 0.2 0 0-0.1 0h-0.7q-0.1 0-0.1 0l-0.8-1.7h-3.4l-0.8 1.7q0 0-0.1 0h-0.7q-0.1 0-0.1 0 0-0.1 0-0.2l3.3-7q0-0.1 0.2-0.2 0 0 0 0 0.1 0.1 0.2 0.2zm-2.1-2.5l-1.2-2.9-1.4 2.9z"/>
					<path id="&lt;Path&gt;" class="s1" d="m62.1 20.9h-6.2c-0.1 0-0.1 0-0.1 0.1v0.7c0 0 0 0.1 0.1 0.1h2.6v6.3c0 0.1 0.1 0.1 0.2 0.1h0.6c0.1 0 0.1 0 0.1-0.1v-6.3h2.7c0 0 0.1-0.1 0.1-0.1v-0.7c0-0.1-0.1-0.1-0.1-0.1z"/>
					<path id="&lt;Path&gt;" class="s1" d="m63.4 20.9h0.9v7.3h-0.9z"/>
					<path id="&lt;Path&gt;" class="s1" d="m72.1 20.9h-0.7q-0.1 0-0.1 0.1l-2.5 5.4-2.4-5.4q0-0.1-0.1-0.1h-0.7q-0.1 0-0.1 0-0.1 0.1 0 0.2l3.1 7q0.1 0.2 0.2 0.2 0.2 0 0.3-0.2l3.1-7q0.1-0.1 0-0.2 0 0-0.1 0z"/>
					<path id="&lt;Path&gt;" class="s1" d="m78.1 21.8c0 0 0.1-0.1 0.1-0.1v-0.7c0-0.1-0.1-0.1-0.1-0.1h-4.7c-0.1 0-0.1 0-0.1 0.1v7.1c0 0.1 0 0.1 0.1 0.1h4.7c0 0 0.1 0 0.1-0.1v-0.7c0 0-0.1-0.1-0.1-0.1h-3.9v-2.3h3c0 0 0.1 0 0.1-0.1v-0.7c0 0-0.1-0.1-0.1-0.1h-3v-2.3z"/>
				</g>
				<g id="&lt;Group&gt;">
					<path id="&lt;Compound Path&gt;" fill-rule="evenodd" class="s3" d="m86.6 23.1q0 0.6-0.3 1.1-0.3 0.4-0.9 0.7-0.5 0.3-1.2 0.3h-1.8v2.8c0 0.1 0 0.2-0.1 0.2h-0.5c-0.1 0-0.1-0.1-0.1-0.2l-0.1-6.8q0-0.1 0.1-0.1 0-0.1 0.1-0.1h2.4q0.7 0 1.2 0.3 0.6 0.3 0.9 0.7 0.3 0.5 0.3 1.1zm-0.9-0.6q-0.3-0.4-0.6-0.5-0.4-0.2-0.9-0.2h-1.8v2.6h1.8q0.5 0 0.9-0.2 0.3-0.1 0.6-0.5 0.2-0.2 0.2-0.6 0-0.4-0.2-0.6z"/>
					<path id="&lt;Compound Path&gt;" fill-rule="evenodd" class="s3" d="m93.1 28q0.1 0.1 0 0.1 0 0.1-0.1 0.1h-0.5q-0.1 0-0.1-0.1l-0.8-1.7h-3.5l-0.7 1.7q-0.1 0.1-0.2 0.1h-0.5q-0.1 0-0.1-0.1-0.1 0 0-0.1l3.1-6.8q0.1-0.1 0.2-0.2 0 0 0 0 0.2 0.1 0.3 0.2zm-3.3-5.4l-1.4 3.1h2.8z"/>
					<path id="&lt;Path&gt;" class="s3" d="m97 25.2q0.2 0 0.4-0.1 0.3 0 0.7-0.2 0.5-0.2 0.9-0.7 0.3-0.5 0.3-1.1 0-0.4-0.1-0.8-0.2-0.4-0.5-0.7-0.4-0.3-0.8-0.4-0.5-0.2-1-0.2h-2.4c-0.1 0-0.1 0.1-0.1 0.2v6.8c0 0.1 0 0.2 0.1 0.2h0.5c0.1 0 0.1-0.1 0.1-0.2v-6.2h1.8q0.5 0 0.9 0.2 0.4 0.2 0.6 0.5 0.2 0.3 0.2 0.6 0 0.4-0.3 0.7-0.2 0.3-0.5 0.4-0.5 0.2-1.2 0.2h-0.9q-0.1 0-0.1 0.1 0 0.1 0 0.2l2.9 3.4q0 0.1 0.1 0.1h0.6q0.1 0 0.1-0.1 0.1-0.1 0-0.1z"/>
					<path id="&lt;Path&gt;" class="s3" d="m106.4 21h-5.9c-0.1 0-0.2 0.1-0.2 0.2v0.4c0 0.1 0.1 0.2 0.2 0.2h2.5v6.2c0 0.1 0.1 0.2 0.2 0.2h0.5c0.1 0 0.1-0.1 0.1-0.2v-6.2h2.6c0.1 0 0.1-0.1 0.1-0.2v-0.4c0-0.1 0-0.2-0.1-0.2z"/>
					<path id="&lt;Path&gt;" class="s3" d="m113.2 21h-0.5c-0.1 0-0.1 0.1-0.1 0.2v5.2l-4.5-5.4q-0.1-0.1-0.2-0.1-0.1 0.1-0.1 0.2v6.9c0 0.1 0.1 0.2 0.1 0.2h0.5c0.1 0 0.2-0.1 0.2-0.2v-5.2l4.5 5.5q0 0 0.1 0 0 0 0 0 0.1 0 0.1-0.1v-7c0-0.1 0-0.2-0.1-0.2z"/>
					<path id="&lt;Path&gt;" class="s3" d="m119.7 21h-4.5c-0.1 0-0.1 0.1-0.1 0.2v6.8c0 0.1 0 0.2 0.1 0.2h4.5c0.1 0 0.1-0.1 0.1-0.2v-0.5c0 0 0-0.1-0.1-0.1h-3.9v-2.4h3c0.1 0 0.2-0.1 0.2-0.2v-0.4c0-0.1-0.1-0.2-0.2-0.2h-3v-2.4h3.9c0.1 0 0.1-0.1 0.1-0.2v-0.4c0-0.1 0-0.2-0.1-0.2z"/>
					<path id="&lt;Path&gt;" class="s3" d="m124 25.2q0.2 0 0.4-0.1 0.3 0 0.7-0.2 0.5-0.2 0.9-0.7 0.3-0.5 0.3-1.1 0-0.4-0.1-0.8-0.2-0.4-0.5-0.7-0.4-0.3-0.8-0.4-0.5-0.2-1-0.2h-2.4c-0.1 0-0.1 0.1-0.1 0.2v6.8c0 0.1 0 0.2 0.1 0.2h0.5c0.1 0 0.1-0.1 0.1-0.2v-6.2h1.8q0.5 0 0.9 0.2 0.4 0.2 0.6 0.5 0.2 0.3 0.2 0.6 0 0.4-0.3 0.7-0.2 0.3-0.5 0.4-0.5 0.2-1.2 0.2h-0.9q-0.1 0-0.1 0.1-0.1 0.1 0 0.2l2.9 3.4q0 0.1 0.1 0.1h0.6q0.1 0 0.1-0.1 0.1-0.1 0-0.1z"/>
					<path id="&lt;Path&gt;" class="s3" d="m132.6 25.3q-0.3-0.4-0.8-0.7-0.2-0.1-0.5-0.2-0.3-0.1-0.6-0.1l-0.4-0.1q-0.4 0-0.7-0.1-0.2 0-0.4-0.1-0.3-0.2-0.6-0.5-0.2-0.3-0.2-0.6 0-0.2 0.1-0.4 0.2-0.2 0.4-0.4 0.3-0.2 0.6-0.3c0.5-0.1 1-0.1 1.5 0q0.4 0.1 0.6 0.3 0.3 0.2 0.4 0.4 0.1 0.2 0.1 0.4 0 0.1 0.1 0.2 0.1 0 0.1 0l0.5-0.3q0.1 0 0.1-0.1-0.1-0.7-0.8-1.2-0.8-0.6-1.8-0.6-0.5 0-1 0.2-0.5 0.1-0.8 0.4-0.4 0.3-0.6 0.6-0.2 0.4-0.2 0.8 0 0.6 0.3 1 0.3 0.5 0.8 0.8 0.4 0.1 0.9 0.2 0.4 0.1 0.5 0.1 0.9 0.1 1.2 0.3 0.4 0.1 0.5 0.4 0.2 0.3 0.2 0.5 0 0.5-0.5 0.9-0.5 0.4-1.3 0.4-0.4 0-0.8-0.1-0.3-0.1-0.6-0.3-0.5-0.3-0.5-0.9 0 0-0.1-0.1 0 0-0.1 0l-0.5 0.3q0 0 0 0.1 0.1 0.7 0.8 1.2 0.3 0.3 0.8 0.4 0.5 0.2 1 0.2 1 0 1.8-0.6 0.4-0.3 0.6-0.7 0.2-0.3 0.2-0.8 0-0.5-0.3-0.9z"/>
				</g>
			</g>
			<g id="&lt;Group&gt;">
				<g id="&lt;Group&gt;">
					<g id="&lt;Group&gt;">
						<g id="&lt;Group&gt;">
							<path id="&lt;Path&gt;" class="s1" d="m30 77.8h-7.7c-0.5 0-1-0.5-1-1v-10.9c0-0.5 0.5-1 1-1h10.9c0.5 0 1 0.5 1 1 0 0.6-0.5 1-1 1h-9.9v8.9h6.7c0.5 0 1 0.4 1 1 0 0.5-0.5 1-1 1z"/>
						</g>
						<g id="&lt;Group&gt;">
							<path id="&lt;Path&gt;" class="s2" d="m44 88.6h-10.8c-0.6 0-1-0.4-1-0.9v-17.2c0-0.6 0.4-1 1-1 0.5 0 1 0.4 1 1v16.2h8.8v-8.9h-6.7c-0.5 0-0.9-0.5-0.9-1 0-0.6 0.4-1 0.9-1h7.7c0.6 0 1 0.4 1 1v10.9c0 0.5-0.4 0.9-1 0.9z"/>
						</g>
					</g>
				</g>
				<g id="&lt;Group&gt;">
					<g id="&lt;Group&gt;">
						<path id="&lt;Path&gt;" class="s1" d="m55.9 73l-0.7-0.5c-0.1 0-0.2 0-0.2 0l-0.1 0.1q-0.5 0.7-1.3 1-0.7 0.4-1.5 0.4-1 0-1.9-0.5-0.8-0.5-1.3-1.4-0.5-0.8-0.5-1.8 0-1 0.5-1.9 0.5-0.9 1.3-1.4 0.9-0.4 1.9-0.4 0.7 0 1.4 0.3 0.8 0.3 1.3 0.9v0.1c0.1 0 0.2 0 0.3 0l0.6-0.6q0.1 0 0.1-0.1 0-0.1-0.1-0.1v-0.1q-0.7-0.8-1.7-1.2-0.9-0.4-1.9-0.4-1.3 0-2.5 0.6-1.1 0.7-1.7 1.8-0.7 1.1-0.7 2.5 0 1.3 0.7 2.4 0.6 1.2 1.7 1.8 1.2 0.7 2.5 0.7 1.1 0 2.1-0.5 1-0.5 1.7-1.3v-0.1q0.1-0.1 0.1-0.2-0.1 0-0.1-0.1z"/>
						<path id="&lt;Path&gt;" class="s1" d="m61.1 71.1q0.2 0 0.4 0 0.4-0.1 0.9-0.3 0.7-0.3 1.2-1 0.5-0.6 0.5-1.5 0-0.5-0.2-1.1-0.3-0.5-0.7-0.9-0.5-0.4-1.1-0.6-0.6-0.2-1.3-0.2h-3.2c-0.1 0-0.2 0.1-0.2 0.2v9.2c0 0.1 0.1 0.2 0.2 0.2h0.8c0.1 0 0.2-0.1 0.2-0.2v-8.2h2.2q0.7 0 1.2 0.2 0.4 0.3 0.7 0.6 0.2 0.4 0.2 0.8 0 0.5-0.3 0.8-0.3 0.4-0.7 0.6-0.6 0.3-1.5 0.3h-1.4q-0.1 0-0.1 0.1-0.1 0.1 0 0.1l3.9 4.8q0.1 0.1 0.2 0.1h1.1q0.1 0 0.1-0.1 0.1-0.1 0-0.2z"/>
						<path id="&lt;Path&gt;" class="s1" d="m72.2 65.5h-6c-0.1 0-0.2 0.1-0.2 0.2v9.2c0 0.1 0.1 0.2 0.2 0.2h6c0.1 0 0.2-0.1 0.2-0.2v-0.8c0-0.1-0.1-0.2-0.2-0.2h-5v-3h3.9c0.1 0 0.1-0.1 0.1-0.2v-0.8c0-0.1 0-0.2-0.1-0.2h-3.9v-3h5c0.1 0 0.2-0.1 0.2-0.2v-0.8c0-0.1-0.1-0.2-0.2-0.2z"/>
						<path id="&lt;Compound Path&gt;" fill-rule="evenodd" class="s1" d="m82.7 74.8q0 0.1 0 0.2-0.1 0.1-0.2 0.1h-0.9q-0.1 0-0.1-0.1l-1-2.2h-4.5l-1 2.2q-0.1 0.1-0.2 0.1h-0.9q-0.1 0-0.1-0.1-0.1-0.1 0-0.2l4.2-9.2q0.1-0.2 0.3-0.2 0 0 0 0 0.2 0 0.3 0.2zm-2.7-3.2l-1.6-3.8-1.8 3.8z"/>
						<path id="&lt;Path&gt;" class="s1" d="m90.4 65.5h-8c-0.1 0-0.2 0.1-0.2 0.2v0.8c0 0.1 0.1 0.2 0.2 0.2h3.4v8.2c0 0.1 0.1 0.2 0.2 0.2h0.9c0.1 0 0.1-0.1 0.1-0.2v-8.2h3.4c0.1 0 0.2-0.1 0.2-0.2v-0.8c0-0.1-0.1-0.2-0.2-0.2z"/>
						<path id="&lt;Path&gt;" class="s1" d="m92.2 65.5h1.2v9.6h-1.2z"/>
						<path id="&lt;Path&gt;" class="s1" d="m103.6 65.5h-0.9q-0.1 0-0.2 0.1l-3.2 7.1-3.2-7.1q0-0.1-0.1-0.1h-1q0 0-0.1 0.1 0 0 0 0.1l4.1 9.3q0.1 0.2 0.3 0.2 0.2 0 0.3-0.2l4.1-9.3q0.1-0.1 0-0.1 0-0.1-0.1-0.1z"/>
						<path id="&lt;Path&gt;" class="s1" d="m111.4 66.7c0.1 0 0.1-0.1 0.1-0.2v-0.8c0-0.1 0-0.2-0.1-0.2h-6.1c-0.1 0-0.2 0.1-0.2 0.2v9.2c0 0.1 0.1 0.2 0.2 0.2h6.1c0.1 0 0.1-0.1 0.1-0.2v-0.8c0-0.1 0-0.2-0.1-0.2h-5.1v-3h3.9c0.1 0 0.2-0.1 0.2-0.2v-0.8c0-0.1-0.1-0.2-0.2-0.2h-3.9v-3z"/>
					</g>
					<g id="&lt;Group&gt;">
						<path id="&lt;Compound Path&gt;" fill-rule="evenodd" class="s3" d="m62.7 81.4q0 0.8-0.4 1.4-0.5 0.6-1.2 1-0.7 0.4-1.5 0.4h-2.4v3.7c0 0.1-0.1 0.2-0.2 0.2h-0.6c-0.1 0-0.2-0.1-0.2-0.2v-9q0-0.1 0-0.2 0.1 0 0.2 0h3.2q0.8 0 1.5 0.3 0.7 0.4 1.2 1 0.4 0.7 0.4 1.4zm-1.3-0.8q-0.3-0.4-0.8-0.7-0.4-0.2-1-0.2h-2.4v3.4h2.4q0.6 0 1-0.2 0.5-0.2 0.8-0.6 0.3-0.4 0.3-0.9 0-0.4-0.3-0.8z"/>
						<path id="&lt;Compound Path&gt;" fill-rule="evenodd" class="s3" d="m71.2 87.8q0 0.1 0 0.2-0.1 0.1-0.2 0.1h-0.6q-0.2 0-0.2-0.1l-1-2.2h-4.5l-1 2.2q-0.1 0.1-0.2 0.1h-0.7q-0.1 0-0.2-0.1 0-0.1 0-0.2l4.2-8.9q0-0.2 0.2-0.2 0 0 0 0 0.2 0 0.3 0.2zm-4.2-7l-1.9 4h3.7z"/>
						<path id="&lt;Path&gt;" class="s3" d="m76.3 84.1q0.2 0 0.5 0 0.4-0.1 0.9-0.3 0.6-0.3 1.1-0.9 0.5-0.7 0.5-1.5 0-0.5-0.2-1-0.3-0.5-0.7-0.9-0.4-0.4-1-0.6-0.6-0.2-1.3-0.2h-3.1c-0.1 0-0.2 0.1-0.2 0.2v9c0 0.1 0.1 0.2 0.2 0.2h0.6c0.1 0 0.2-0.1 0.2-0.2v-8.2h2.3q0.7 0 1.2 0.2 0.5 0.3 0.8 0.7 0.2 0.4 0.2 0.8 0 0.5-0.3 0.9-0.3 0.4-0.7 0.6-0.6 0.2-1.6 0.2h-1.1q-0.1 0-0.2 0.2 0 0.1 0 0.1l3.8 4.6q0 0.1 0.1 0.1h0.8q0.2 0 0.2-0.1 0.1-0.1 0-0.2z"/>
						<path id="&lt;Path&gt;" class="s3" d="m88.5 78.7h-7.7c-0.1 0-0.2 0.1-0.2 0.2v0.6c0 0.1 0.1 0.2 0.2 0.2h3.3v8.2c0 0.1 0.1 0.2 0.2 0.2h0.7c0.1 0 0.2-0.1 0.2-0.2v-8.2h3.3c0.1 0 0.2-0.1 0.2-0.2v-0.6c0-0.1-0.1-0.2-0.2-0.2z"/>
						<path id="&lt;Path&gt;" class="s3" d="m97.4 78.7h-0.6c-0.1 0-0.2 0.1-0.2 0.2v6.8l-5.9-7.1q-0.1-0.1-0.2 0-0.1 0-0.1 0.2v9.1c0 0.1 0.1 0.2 0.2 0.2h0.6c0.1 0 0.2-0.1 0.2-0.2v-6.8l5.9 7.1q0 0 0.1 0 0 0 0.1 0 0.1 0 0.1-0.2v-9.1c0-0.1-0.1-0.2-0.2-0.2z"/>
						<path id="&lt;Path&gt;" class="s3" d="m105.9 78.7h-5.8c-0.1 0-0.2 0.1-0.2 0.2v9c0 0.1 0.1 0.2 0.2 0.2h5.8c0.1 0 0.2-0.1 0.2-0.2v-0.7c0-0.1-0.1-0.2-0.2-0.2h-5v-3.1h3.9c0.1 0 0.1-0.1 0.1-0.2v-0.6c0-0.1 0-0.2-0.1-0.2h-3.9v-3.2h5c0.1 0 0.2-0.1 0.2-0.2v-0.6c0-0.1-0.1-0.2-0.2-0.2z"/>
						<path id="&lt;Path&gt;" class="s3" d="m111.6 84.1q0.2 0 0.5 0 0.4-0.1 0.8-0.3 0.7-0.3 1.2-0.9 0.5-0.7 0.5-1.5 0-0.5-0.2-1-0.3-0.5-0.7-0.9-0.4-0.4-1-0.6-0.6-0.2-1.3-0.2h-3.1c-0.1 0-0.2 0.1-0.2 0.2v9c0 0.1 0.1 0.2 0.2 0.2h0.6c0.1 0 0.2-0.1 0.2-0.2v-8.2h2.3q0.7 0 1.2 0.2 0.5 0.3 0.7 0.7 0.3 0.4 0.3 0.8 0 0.5-0.3 0.9-0.3 0.4-0.7 0.6-0.6 0.2-1.6 0.2h-1.1q-0.2 0-0.2 0.2-0.1 0.1 0 0.1l3.8 4.6q0 0.1 0.1 0.1h0.8q0.1 0 0.2-0.1 0-0.1 0-0.2z"/>
						<path id="&lt;Path&gt;" class="s3" d="m122.8 84.3q-0.4-0.6-1.1-1-0.2-0.1-0.6-0.2-0.4-0.1-0.8-0.2h-0.5q-0.5-0.1-0.9-0.2-0.3 0-0.6-0.1-0.4-0.3-0.7-0.6-0.3-0.4-0.3-0.8 0-0.3 0.2-0.6 0.2-0.3 0.5-0.5 0.3-0.3 0.8-0.4c0.6-0.2 1.3-0.2 1.9 0q0.5 0.1 0.8 0.4 0.3 0.2 0.5 0.5 0.2 0.3 0.2 0.6 0 0.1 0.1 0.2 0.1 0 0.1 0l0.6-0.4q0.1 0 0.1-0.2-0.1-0.8-1-1.5-1-0.7-2.4-0.7-0.6 0-1.2 0.2-0.6 0.1-1.1 0.5-0.5 0.4-0.8 0.9-0.3 0.4-0.3 1 0 0.7 0.4 1.3 0.5 0.6 1.2 0.9 0.4 0.3 1.1 0.4 0.6 0.1 0.7 0.1 1.1 0.1 1.5 0.3 0.5 0.3 0.7 0.6 0.3 0.3 0.3 0.7 0 0.6-0.7 1.1-0.7 0.6-1.8 0.6-0.5 0-0.9-0.2-0.5-0.1-0.8-0.4-0.7-0.4-0.7-1.1 0-0.1-0.1-0.1-0.1-0.1-0.2 0l-0.6 0.3q-0.1 0.1 0 0.2 0.1 0.9 1 1.5 0.5 0.4 1.1 0.6 0.6 0.2 1.2 0.2 1.4 0 2.4-0.8 0.5-0.3 0.8-0.8 0.3-0.5 0.3-1.1 0-0.6-0.4-1.2z"/>
					</g>
				</g>
			</g>
		</g>
		<g id="&lt;Group&gt;">
			<path id="&lt;Compound Path&gt;" class="s4" d="m-41.5 16.8h3.8q0 2-0.9 3.7-1 1.6-2.7 2.5l-0.7-0.6q1.5-0.7 2.3-2 0.8-1.3 0.9-2.7h-2.7zm5.1 7.9v-6.5q0-1.2-0.1-1.9h1.1v3.2h1.2v0.9h-1.2v4.3z"/>
			<path id="&lt;Compound Path&gt;" class="s4" d="m-33.7 23.7v-0.9h3.3v-1.3h-2.3v-1q0-1.2-0.1-1.8h4.6v-1.1h-4.5v-0.9h5.5v2.8h-4.5v1.2h4.8v0.8h-2.5v1.3h3.4v0.9z"/>
			<path id="&lt;Compound Path&gt;" fill-rule="evenodd" class="s4" d="m-25.2 17.6h4.7v0.7h-4.7zm4 3.4q-0.6 0.4-1.6 0.4-0.9 0-1.5-0.4-0.6-0.3-0.6-0.9 0-0.7 0.6-1 0.6-0.4 1.5-0.4 1 0 1.6 0.4 0.5 0.3 0.5 1 0 0.6-0.5 0.9zm-2.9-4.6h2.6v0.7h-2.6zm0.8 8.2q-0.8-0.4-0.8-1.2 0-0.8 0.8-1.2 0.8-0.4 2.2-0.4 1.3 0 2.1 0.4 0.8 0.4 0.8 1.2 0 0.8-0.8 1.2-0.8 0.4-2.1 0.4-1.4 0-2.2-0.4zm0.5-3.9q0.5 0 0.8-0.2 0.3-0.1 0.3-0.4 0-0.3-0.3-0.4-0.3-0.2-0.8-0.2-0.5 0-0.8 0.2-0.3 0.1-0.3 0.4 0 0.6 1.1 0.6zm-0.3 2.7q0 0.8 2 0.8 0.8 0 1.4-0.2 0.5-0.2 0.5-0.6 0-0.8-1.9-0.8-2 0-2 0.8zm2.7-4.1v-0.9h1.1q0-1-0.1-1.9h1.1v5.2h-1v-0.9h-1.1v-0.9h1.1v-0.6z"/>
		</g>
		<g id="&lt;Group&gt;">
			<path id="&lt;Compound Path&gt;" class="s4" d="m-39.5 72.9v1.7q0 2.6 1.7 3.8l-0.7 0.6q-1-0.7-1.5-2-0.2 0.7-0.6 1.3-0.5 0.6-1 1l-0.8-0.6q1.1-0.8 1.5-1.8 0.4-1.1 0.4-2.4 0-1.1-0.1-1.6zm0.8 3v-0.9h1.3v-0.5q0-1.1-0.1-1.8h1v7.9h-0.9v-4.7zm2.9 5v-6.5q0-1.1-0.1-1.9h1v8.4z"/>
			<path id="&lt;Compound Path&gt;" class="s4" d="m-33.7 79.9v-0.9h3.3v-1.3h-2.3v-1q0-1.2-0.1-1.8h4.6v-1.1h-4.5v-0.9h5.5v2.8h-4.5v1.1h4.8v0.9h-2.5v1.3h3.4v0.9z"/>
			<path id="&lt;Compound Path&gt;" fill-rule="evenodd" class="s4" d="m-25.2 73.8h4.7v0.7h-4.7zm4 3.4q-0.6 0.4-1.6 0.4-0.9 0-1.5-0.4-0.6-0.4-0.6-1 0-0.6 0.6-0.9 0.6-0.4 1.5-0.4 1 0 1.6 0.4 0.5 0.3 0.5 0.9 0 0.6-0.5 1zm-2.9-4.6h2.6v0.7h-2.6zm0.8 8.2q-0.8-0.4-0.8-1.2 0-0.8 0.8-1.2 0.8-0.4 2.2-0.4 1.3 0 2.1 0.4 0.8 0.4 0.8 1.2 0 0.8-0.8 1.2-0.8 0.4-2.1 0.4-1.4 0-2.2-0.4zm0.5-3.9q0.5 0 0.8-0.2 0.3-0.1 0.3-0.4 0-0.3-0.3-0.4-0.3-0.2-0.8-0.2-0.5 0-0.8 0.2-0.3 0.1-0.3 0.4 0 0.6 1.1 0.6zm-0.3 2.7q0 0.8 2 0.8 0.8 0 1.4-0.2 0.5-0.2 0.5-0.6 0-0.8-1.9-0.8-2 0-2 0.8zm2.7-4.1v-0.9h1.1q0-1-0.1-2h1.1v5.3h-1v-0.9h-1.1v-0.9h1.1v-0.6z"/>
		</g>
	</g>
</svg>