<svg version="1.2" xmlns="http://www.w3.org/2000/svg" viewBox="0 0 752 236" width="140" height="44">
	<title>CREATIVE PARTNERS_LOGO_최종 (1)-ai</title>
	<style>
		.s0 { fill: #f4f6f9 } 
		.s1 { fill: #16489b } 
		.s2 { fill: #3f4140 } 
		.s3 { fill: #2c2d2d } 
		.s4 { fill: #231f20 } 
	</style>
	<path id="Shape 1" class="s0" d="m752 0v236h-752v-236z"/>
	<g id="Layer 1">
		<g id="&lt;Group&gt;">
			<g id="&lt;Group&gt;">
				<g id="&lt;Group&gt;">
					<g id="&lt;Group&gt;">
						<g id="&lt;Group&gt;">
							<path id="&lt;Path&gt;" class="s1" d="m6.2-245.4h-37.8c-2.7 0-4.8-2.1-4.8-4.8v-53.5c0-2.7 2.1-4.9 4.8-4.9h53.5c2.7 0 4.8 2.2 4.8 4.9 0 2.7-2.1 4.9-4.8 4.9h-48.6v43.7h32.9c2.7 0 4.9 2.2 4.9 4.9 0 2.7-2.2 4.8-4.9 4.8z"/>
						</g>
						<g id="&lt;Group&gt;">
							<path id="&lt;Path&gt;" class="s2" d="m75.3-191.9h-53.4c-2.7 0-4.9-2.2-4.9-4.9v-84.6c0-2.7 2.2-4.9 4.9-4.9 2.7 0 4.8 2.2 4.8 4.9v79.7h43.7v-43.7h-32.9c-2.7 0-4.9-2.1-4.9-4.8 0-2.7 2.2-4.9 4.9-4.9h37.8c2.7 0 4.9 2.2 4.9 4.9v53.4c0 2.7-2.2 4.9-4.9 4.9z"/>
						</g>
					</g>
				</g>
				<g id="&lt;Group&gt;">
					<path id="&lt;Path&gt;" class="s1" d="m144.2-202.5l-3.2-2.6c-0.4-0.3-0.9-0.2-1.2 0.1l-0.3 0.4c-1.8 2.2-3.9 3.8-6.3 5-2.5 1.2-5.1 1.8-7.8 1.8-3.2 0-6.2-0.8-9-2.5-2.7-1.6-5-3.8-6.6-6.6-1.6-2.8-2.5-5.9-2.5-9.2 0-3.3 0.9-6.4 2.5-9.2 1.6-2.8 3.9-5 6.6-6.7 2.8-1.6 5.8-2.4 9-2.4 2.6 0 5 0.5 7.3 1.6 2.3 1 4.4 2.5 6.1 4.4l0.3 0.4c0.3 0.4 0.8 0.4 1.2 0.1l3.2-2.8q0.2-0.3 0.2-0.6 0.1-0.4-0.2-0.6l-0.3-0.4c-2.3-2.5-5.1-4.5-8.1-5.8-3.1-1.4-6.3-2.1-9.7-2.1-4.2 0-8.3 1.1-12 3.3-3.6 2.1-6.5 5.1-8.7 8.7-2.1 3.7-3.2 7.8-3.2 12.1 0 4.3 1.1 8.4 3.2 12.1 2.2 3.7 5.1 6.6 8.7 8.8 3.7 2.2 7.8 3.3 12 3.3 3.7 0 7.1-0.8 10.4-2.4 3.2-1.6 6-3.8 8.3-6.6l0.3-0.4q0.2-0.3 0.2-0.7-0.1-0.3-0.4-0.5z"/>
					<path id="&lt;Path&gt;" class="s1" d="m170.1-212q0.9-0.1 1.7-0.2c1.4-0.2 3-0.6 4.5-1.3 2.2-0.9 4.2-2.5 5.9-4.7 1.7-2.2 2.5-4.8 2.5-7.6q0-2.7-1.2-5.2-1.2-2.5-3.4-4.5-2.2-2-5.2-3.1-3-1.1-6.4-1.1h-16c-0.5 0-0.9 0.4-0.9 0.9v45.5c0 0.5 0.4 0.9 0.9 0.9h4.1c0.5 0 0.8-0.4 0.8-0.9v-40.6h11.1q3.2 0 5.6 1.2 2.4 1.3 3.6 3.1 1.2 1.8 1.2 3.8 0 2.2-1.4 4.1c-1 1.3-2.2 2.3-3.5 2.9-1.9 0.8-4.5 1.2-7.7 1.2h-6.6c-0.3 0-0.6 0.2-0.7 0.5-0.2 0.3-0.1 0.6 0.1 0.9l19.3 23.5c0.2 0.2 0.4 0.3 0.7 0.3h5.4c0.3 0 0.6-0.2 0.8-0.5 0.1-0.3 0.1-0.6-0.1-0.9z"/>
					<path id="&lt;Path&gt;" class="s1" d="m224.7-239.7h-29.9c-0.4 0-0.8 0.4-0.8 0.9v45.5c0 0.5 0.4 0.9 0.8 0.9h29.9c0.5 0 0.9-0.4 0.9-0.9v-4.2c0-0.5-0.4-0.9-0.9-0.9h-24.9v-14.7h19.2c0.5 0 0.9-0.4 0.9-0.9v-4.1c0-0.5-0.4-0.9-0.9-0.9h-19.2v-14.8h24.9c0.5 0 0.9-0.4 0.9-0.8v-4.2c0-0.5-0.4-0.9-0.9-0.9z"/>
					<path id="&lt;Compound Path&gt;" fill-rule="evenodd" class="s1" d="m276.1-193.6c0.1 0.3 0.1 0.6 0 0.8-0.2 0.2-0.5 0.4-0.8 0.4h-4.4c-0.4 0-0.7-0.2-0.8-0.5l-4.8-10.8h-21.9l-5.1 10.8c-0.1 0.3-0.4 0.5-0.8 0.5h-4.5c-0.3 0-0.6-0.2-0.7-0.4-0.2-0.2-0.2-0.5-0.1-0.8l21.1-45.4c0.3-0.6 0.8-0.9 1.4-0.9q0.1 0 0.1 0c0.6 0 1.1 0.3 1.4 0.9zm-13.4-15.9l-8.2-18.5-8.5 18.5z"/>
					<path id="&lt;Path&gt;" class="s1" d="m314.3-239.7h-39.4c-0.5 0-0.9 0.4-0.9 0.9v4.2c0 0.4 0.4 0.8 0.9 0.8h16.8v40.5c0 0.5 0.4 0.9 0.8 0.9h4.2c0.5 0 0.9-0.4 0.9-0.9v-40.5h16.7c0.5 0 0.9-0.4 0.9-0.8v-4.2c0-0.5-0.4-0.9-0.9-0.9z"/>
					<path id="&lt;Path&gt;" class="s1" d="m328.2-239.7h-4.1c-0.5 0-0.9 0.4-0.9 0.9v45.5c0 0.5 0.4 0.9 0.9 0.9h4.1c0.4 0 0.8-0.4 0.8-0.9v-45.5c0-0.5-0.4-0.9-0.8-0.9z"/>
					<path id="&lt;Path&gt;" class="s1" d="m379.1-239.7h-4.6c-0.3 0-0.6 0.2-0.7 0.5l-15.8 35.2-15.7-35.2c-0.2-0.3-0.5-0.5-0.8-0.5h-4.5c-0.3 0-0.5 0.2-0.7 0.4-0.2 0.3-0.2 0.6-0.1 0.8l20.4 45.5c0.2 0.6 0.8 1 1.4 1 0.7 0 1.2-0.4 1.5-1l20.4-45.5c0.1-0.2 0.1-0.5-0.1-0.8-0.1-0.2-0.4-0.4-0.7-0.4z"/>
					<path id="&lt;Path&gt;" class="s1" d="m417.3-233.8c0.5 0 0.9-0.4 0.9-0.8v-4.2c0-0.5-0.4-0.9-0.9-0.9h-29.8c-0.5 0-0.9 0.4-0.9 0.9v45.5c0 0.5 0.4 0.9 0.9 0.9h29.8c0.5 0 0.9-0.4 0.9-0.9v-4.2c0-0.5-0.4-0.9-0.9-0.9h-24.9v-14.7h19.2c0.5 0 0.9-0.4 0.9-0.9v-4.1c0-0.5-0.4-0.9-0.9-0.9h-19.2v-14.8z"/>
				</g>
				<g id="&lt;Group&gt;">
					<path id="&lt;Compound Path&gt;" fill-rule="evenodd" class="s3" d="m472.5-225.4c0 2.4-0.7 4.7-2.1 6.8-1.4 2-3.3 3.7-5.6 4.9-2.3 1.2-4.9 1.8-7.6 1.8h-11.8v18.3c0 0.5-0.4 0.9-0.9 0.9h-3.1c-0.5 0-0.9-0.4-0.9-0.9l-0.1-44.3q0-0.4 0.3-0.7 0.3-0.3 0.7-0.3h15.8c2.7 0 5.3 0.6 7.6 1.8 2.3 1.3 4.2 2.9 5.6 4.9 1.4 2.1 2.1 4.4 2.1 6.8zm-6.3-4.2q-1.4-1.9-3.8-3.1-2.4-1.2-5.2-1.2h-11.8v16.9h11.8q2.8 0 5.2-1.1 2.4-1.2 3.8-3.2c0.9-1.2 1.4-2.6 1.4-4.1 0-1.5-0.5-2.9-1.4-4.2z"/>
					<path id="&lt;Compound Path&gt;" fill-rule="evenodd" class="s3" d="m514.4-194c0.2 0.3 0.1 0.6 0 0.9-0.2 0.3-0.5 0.4-0.8 0.4h-3.3c-0.4 0-0.7-0.2-0.9-0.5l-4.7-10.7h-22.4l-5 10.7c-0.2 0.3-0.5 0.5-0.9 0.5h-3.4c-0.3 0-0.6-0.1-0.8-0.4-0.1-0.3-0.2-0.6 0-0.9l20.3-43.8c0.3-0.5 0.8-0.8 1.4-0.8q0 0 0 0c0.6 0 1.1 0.3 1.3 0.9zm-20.7-34.8l-9.2 19.9h18z"/>
					<path id="&lt;Path&gt;" class="s3" d="m539.4-212.2q1.3 0 2.4-0.2c1.5-0.1 3-0.6 4.4-1.2 2.2-1 4.1-2.5 5.7-4.6 1.6-2.1 2.5-4.6 2.5-7.3q-0.1-2.5-1.2-5-1.1-2.4-3.2-4.3-2.2-2-5.1-3-2.9-1.1-6.2-1.1h-15.5c-0.5 0-0.9 0.5-0.9 1v44.3c0 0.5 0.4 0.9 0.9 0.9h3.1c0.5 0 0.9-0.4 0.9-0.9v-40.4h11.5q3.3 0.1 5.7 1.3 2.5 1.3 3.8 3.2c0.8 1.3 1.2 2.6 1.2 4 0 1.6-0.5 3-1.5 4.4-1 1.3-2.3 2.3-3.6 3-2 0.8-4.6 1.2-7.9 1.2h-5.4c-0.4 0-0.7 0.2-0.8 0.5-0.2 0.4-0.1 0.7 0.1 1l18.4 22.4c0.2 0.2 0.4 0.3 0.7 0.3h4.1c0.4 0 0.7-0.2 0.8-0.5 0.2-0.3 0.1-0.7-0.1-1z"/>
					<path id="&lt;Path&gt;" class="s3" d="m599.7-238.9h-38.2c-0.5 0-0.9 0.5-0.9 1v3.1c0 0.5 0.4 0.9 0.9 0.9h16.7v40.3c0 0.5 0.4 0.9 0.9 0.9h3.1c0.5 0 0.9-0.4 0.9-0.9v-40.3h16.6c0.6 0 1-0.4 1-0.9v-3.1c0-0.5-0.4-1-1-1z"/>
					<path id="&lt;Path&gt;" class="s3" d="m643.5-238.9h-3.1c-0.5 0-0.9 0.5-0.9 1v33.6l-29.1-34.8c-0.2-0.3-0.6-0.4-1-0.3-0.4 0.2-0.6 0.5-0.6 0.9v44.9c0 0.5 0.4 0.9 0.9 0.9h3.1c0.5 0 0.9-0.4 0.9-0.9v-33.5l29.1 34.8c0.1 0.3 0.4 0.4 0.7 0.4q0.1 0 0.3-0.1c0.3-0.1 0.6-0.5 0.6-0.9v-45c0-0.5-0.4-1-0.9-1z"/>
					<path id="&lt;Path&gt;" class="s3" d="m685.3-238.9h-28.7c-0.5 0-1 0.5-1 1v44.3c0 0.5 0.5 0.9 1 0.9h28.7c0.5 0 0.9-0.4 0.9-0.9v-3.2c0-0.5-0.4-0.9-0.9-0.9h-24.7v-15.6h19c0.5 0 0.9-0.4 0.9-0.9v-3.1c0-0.5-0.4-1-0.9-1h-19v-15.6h24.7c0.5 0 0.9-0.4 0.9-0.9v-3.1c0-0.5-0.4-1-0.9-1z"/>
					<path id="&lt;Path&gt;" class="s3" d="m713.1-212.2q1.3 0 2.5-0.2c1.4-0.1 2.9-0.6 4.4-1.2 2.1-1 4.1-2.5 5.6-4.6 1.7-2.1 2.5-4.6 2.5-7.3q0-2.5-1.2-5-1.1-2.4-3.2-4.3-2.2-2-5.1-3-2.9-1.1-6.2-1.1h-15.5c-0.5 0-0.9 0.5-0.9 1v44.3c0 0.5 0.4 0.9 0.9 0.9h3.1c0.5 0 0.9-0.4 0.9-0.9v-40.4h11.5q3.3 0.1 5.8 1.3 2.4 1.3 3.7 3.2c0.9 1.3 1.3 2.6 1.3 4 0 1.6-0.5 3-1.5 4.4-1.1 1.3-2.3 2.3-3.7 3-2 0.8-4.6 1.2-7.8 1.2h-5.5c-0.3 0-0.7 0.2-0.8 0.5-0.2 0.4-0.1 0.7 0.1 1l18.4 22.4c0.2 0.2 0.5 0.3 0.7 0.3h4.1c0.4 0 0.7-0.2 0.9-0.5 0.1-0.3 0.1-0.7-0.2-1z"/>
					<path id="&lt;Path&gt;" class="s3" d="m768.3-211.3q-1.8-2.7-5.1-4.6-1.4-0.7-3.3-1.2-1.8-0.5-3.7-0.8l-2.5-0.4q-2.6-0.3-4.4-0.6-1.6-0.3-2.9-0.9-2.1-1.1-3.6-3-1.3-1.8-1.3-3.6 0-1.5 0.8-2.9 0.8-1.4 2.5-2.6 1.6-1.3 3.9-1.9c3-0.9 6.4-0.9 9.4 0q2.3 0.7 4 1.9 1.5 1.2 2.4 2.6 0.8 1.4 0.8 2.9c0 0.3 0.2 0.6 0.5 0.7 0.3 0.2 0.6 0.2 0.9 0l2.9-1.6c0.4-0.2 0.6-0.6 0.5-1q-0.8-4.3-5-7.5c-3.3-2.4-7.3-3.6-11.7-3.6q-3.2 0-6.2 0.9-3.1 1-5.4 2.7-2.5 1.8-3.9 4.2-1.3 2.4-1.4 5.2 0.1 3.4 2.1 6.4c1.4 1.9 3.3 3.4 5.6 4.6q2.3 1.1 5.4 1.6 2.9 0.4 3.4 0.5c3.8 0.5 6.4 1 7.8 1.7q2.2 1.2 3.4 2.9c0.8 1.1 1.1 2.2 1.1 3.4 0 2.2-1 4-3.2 5.6-2.3 1.7-5.3 2.6-8.7 2.6q-2.5 0-4.8-0.7-2.2-0.7-3.9-1.9c-2-1.5-3.1-3.3-3.2-5.5-0.1-0.3-0.2-0.6-0.5-0.7-0.3-0.2-0.6-0.2-0.9 0l-2.9 1.6c-0.4 0.2-0.6 0.6-0.5 1 0.6 3 2.3 5.5 5.1 7.6q2.3 1.7 5.4 2.6 3 1 6.2 1c4.4 0 8.4-1.2 11.7-3.6q2.5-1.9 3.8-4.3 1.3-2.5 1.3-5.3 0-3.2-1.9-6z"/>
				</g>
			</g>
			<g id="&lt;Group&gt;">
				<g id="&lt;Group&gt;">
					<g id="&lt;Group&gt;">
						<g id="&lt;Group&gt;">
							<path id="&lt;Path&gt;" class="s1" d="m108 126.3h-49.4c-3.5 0-6.4-2.8-6.4-6.4v-69.8c0-3.5 2.9-6.4 6.4-6.4h69.9c3.5 0 6.3 2.9 6.3 6.4 0 3.5-2.8 6.4-6.3 6.4h-63.5v57.1h43c3.5 0 6.4 2.8 6.4 6.3 0 3.6-2.9 6.4-6.4 6.4z"/>
						</g>
						<g id="&lt;Group&gt;">
							<path id="&lt;Path&gt;" class="s2" d="m198.3 196.2h-69.8c-3.6 0-6.4-2.9-6.4-6.4v-110.6c0-3.5 2.8-6.4 6.4-6.4 3.5 0 6.3 2.9 6.3 6.4v104.2h57.1v-57.1h-43c-3.5 0-6.4-2.8-6.4-6.4 0-3.5 2.9-6.3 6.4-6.3h49.4c3.5 0 6.4 2.8 6.4 6.3v69.9c0 3.5-2.9 6.4-6.4 6.4z"/>
						</g>
					</g>
				</g>
				<g id="&lt;Group&gt;">
					<g id="&lt;Group&gt;">
						<path id="&lt;Path&gt;" class="s1" d="m274.7 95.7l-4.3-3.3c-0.5-0.4-1.2-0.3-1.5 0.2l-0.5 0.5c-2.2 2.7-5 4.9-8.2 6.5-3.2 1.5-6.6 2.3-10.1 2.3-4.2 0-8.2-1.1-11.8-3.2-3.6-2.1-6.5-5.1-8.6-8.7-2.2-3.7-3.3-7.7-3.3-12 0-4.3 1.1-8.4 3.3-12 2.1-3.7 5-6.6 8.6-8.7 3.6-2.2 7.6-3.2 11.8-3.2 3.3 0 6.5 0.6 9.5 2 3 1.4 5.7 3.4 7.9 5.9l0.5 0.5c0.4 0.4 1.1 0.5 1.5 0.1l4.2-3.7c0.2-0.2 0.3-0.5 0.3-0.8 0-0.3-0.1-0.6-0.3-0.8l-0.4-0.5c-3-3.3-6.6-5.8-10.6-7.6-4-1.8-8.2-2.7-12.6-2.7-5.6 0-10.9 1.4-15.7 4.2-4.8 2.9-8.6 6.7-11.4 11.5-2.7 4.8-4.1 10.1-4.1 15.8 0 5.7 1.4 11 4.1 15.8 2.8 4.8 6.6 8.7 11.4 11.5 4.8 2.8 10.1 4.3 15.7 4.3 4.7 0 9.3-1.1 13.5-3.1 4.2-2 7.9-5 10.8-8.7l0.5-0.5c0.1-0.3 0.2-0.5 0.2-0.8 0-0.3-0.2-0.6-0.4-0.8z"/>
						<path id="&lt;Path&gt;" class="s1" d="m308.5 83.3q1.1-0.1 2.2-0.2c1.9-0.2 3.9-0.8 5.9-1.7 2.9-1.2 5.5-3.3 7.7-6.2 2.2-2.9 3.3-6.2 3.3-9.8 0-2.4-0.5-4.7-1.6-6.9-1-2.2-2.5-4.1-4.4-5.8-1.9-1.8-4.2-3.2-6.8-4.1-2.6-0.9-5.4-1.4-8.3-1.4h-21.1c-0.6 0-1.1 0.5-1.1 1.1v59.6c0 0.6 0.5 1.1 1.1 1.1h5.4c0.6 0 1.1-0.5 1.1-1.1v-53.1h14.6c2.7 0 5.1 0.5 7.2 1.6q3.1 1.5 4.7 4 1.6 2.4 1.6 5 0 2.8-1.9 5.3c-1.3 1.7-2.8 3-4.5 3.8-2.5 1-5.9 1.5-10.1 1.5h-8.6c-0.4 0-0.8 0.3-1 0.7-0.2 0.3-0.1 0.8 0.2 1.1l25.3 30.8c0.2 0.2 0.5 0.4 0.8 0.4h7.1c0.5 0 0.8-0.3 1-0.7 0.2-0.4 0.1-0.8-0.1-1.1z"/>
						<path id="&lt;Path&gt;" class="s1" d="m379.9 47.2h-39.1c-0.6 0-1.1 0.5-1.1 1.1v59.6c0 0.6 0.5 1.1 1.1 1.1h39.1c0.6 0 1.1-0.5 1.1-1.1v-5.6c0-0.6-0.5-1.1-1.1-1.1h-32.6v-19.3h25.1c0.6 0 1.1-0.5 1.1-1.1v-5.5c0-0.6-0.5-1.1-1.1-1.1h-25.1v-19.3h32.6c0.6 0 1.1-0.5 1.1-1.1v-5.5c0-0.6-0.5-1.1-1.1-1.1z"/>
						<path id="&lt;Compound Path&gt;" fill-rule="evenodd" class="s1" d="m447.1 107.4c0.1 0.4 0.1 0.8-0.1 1.1-0.2 0.3-0.6 0.5-0.9 0.5h-5.9c-0.4 0-0.8-0.3-1-0.7l-6.3-14.1h-28.7l-6.6 14.1c-0.1 0.4-0.5 0.7-1 0.7h-5.9c-0.4 0-0.7-0.2-0.9-0.5-0.3-0.4-0.3-0.8-0.1-1.1l27.6-59.4c0.3-0.7 1-1.2 1.8-1.2q0.1 0 0.1 0c0.8 0.1 1.5 0.5 1.8 1.3zm-17.5-20.8l-10.6-24.2-11.2 24.2z"/>
						<path id="&lt;Path&gt;" class="s1" d="m497 47.2h-51.6c-0.6 0-1.1 0.5-1.1 1.1v5.5c0 0.6 0.5 1.1 1.1 1.1h22v53c0 0.6 0.5 1.1 1.1 1.1h5.5c0.6 0 1.1-0.5 1.1-1.1v-53h21.9c0.6 0 1.1-0.5 1.1-1.1v-5.5c0-0.6-0.5-1.1-1.1-1.1z"/>
						<path id="&lt;Path&gt;" class="s1" d="m515.1 47.2h-5.3c-0.7 0-1.1 0.5-1.1 1.1v59.6c0 0.6 0.4 1.1 1.1 1.1h5.3c0.6 0 1.1-0.5 1.1-1.1v-59.6c0-0.6-0.5-1.1-1.1-1.1z"/>
						<path id="&lt;Path&gt;" class="s1" d="m581.7 47.2h-6c-0.4 0-0.8 0.2-1 0.6l-20.6 46-20.6-46c-0.1-0.4-0.5-0.6-1-0.6h-5.8c-0.4 0-0.7 0.2-0.9 0.5-0.3 0.3-0.3 0.7-0.1 1l26.5 59.5c0.4 0.8 1.1 1.3 1.9 1.3 0.9 0 1.6-0.5 2-1.3l26.6-59.5c0.2-0.3 0.1-0.7-0.1-1-0.2-0.3-0.5-0.5-0.9-0.5z"/>
						<path id="&lt;Path&gt;" class="s1" d="m631.7 54.9c0.6 0 1.1-0.5 1.1-1.1v-5.5c0-0.6-0.5-1.1-1.1-1.1h-39.1c-0.6 0-1.1 0.5-1.1 1.1v59.6c0 0.6 0.5 1.1 1.1 1.1h39.1c0.6 0 1.1-0.5 1.1-1.1v-5.6c0-0.6-0.5-1.1-1.1-1.1h-32.6v-19.3h25.1c0.6 0 1.1-0.5 1.1-1.1v-5.5c0-0.6-0.5-1.1-1.1-1.1h-25.1v-19.3z"/>
					</g>
					<g id="&lt;Group&gt;">
						<path id="&lt;Compound Path&gt;" fill-rule="evenodd" class="s3" d="m318.4 149.7c0 3.1-0.9 6.1-2.7 8.8-1.8 2.7-4.3 4.8-7.3 6.4-3.1 1.6-6.4 2.4-10 2.4h-15.4v23.9c0 0.7-0.5 1.2-1.2 1.2h-4c-0.7 0-1.2-0.5-1.2-1.2l-0.1-57.9c0-0.4 0.1-0.7 0.4-0.9 0.2-0.2 0.5-0.3 0.8-0.3h20.7c3.6 0 6.9 0.8 10 2.3 3 1.6 5.5 3.7 7.3 6.4 1.8 2.7 2.7 5.7 2.7 8.9zm-8.2-5.5q-1.8-2.6-4.9-4.1c-2.1-1-4.4-1.5-6.9-1.5h-15.5l0.1 22.1h15.4c2.5 0 4.8-0.5 6.9-1.5q3.1-1.6 4.9-4.1c1.2-1.7 1.8-3.5 1.8-5.4 0-2.1-0.6-3.9-1.8-5.5z"/>
						<path id="&lt;Compound Path&gt;" fill-rule="evenodd" class="s3" d="m373.3 190.7c0.1 0.4 0.1 0.8-0.1 1.2-0.3 0.3-0.6 0.5-1 0.5h-4.4c-0.5 0-0.9-0.3-1.1-0.7l-6.2-14h-29.3l-6.6 14c-0.2 0.5-0.6 0.7-1 0.7h-4.5c-0.4 0-0.8-0.2-1-0.5-0.2-0.4-0.3-0.8-0.1-1.2l26.6-57.2c0.3-0.7 1-1.1 1.8-1.1q0 0 0 0c0.7 0 1.4 0.4 1.7 1.1zm-27.1-45.4l-12 26h23.5z"/>
						<path id="&lt;Path&gt;" class="s3" d="m405.9 167q1.6-0.1 3.2-0.3c1.8-0.2 3.8-0.8 5.7-1.7 2.9-1.2 5.4-3.2 7.4-5.9 2.2-2.8 3.2-6 3.2-9.5q0-3.4-1.5-6.6c-1-2.1-2.4-4-4.2-5.6-1.9-1.7-4.1-3.1-6.7-4-2.5-0.9-5.2-1.3-8-1.3h-20.3c-0.6 0-1.2 0.5-1.2 1.2v57.9c0 0.7 0.6 1.2 1.2 1.2h4c0.7 0 1.2-0.5 1.2-1.2v-52.7h15.1c2.8 0 5.3 0.5 7.4 1.6q3.2 1.7 4.9 4.2c1.2 1.7 1.7 3.4 1.7 5.3 0 2-0.6 3.9-2 5.6-1.3 1.8-3 3.1-4.7 4-2.6 1-6.1 1.6-10.3 1.6h-7.1c-0.5 0-0.9 0.2-1.1 0.7-0.2 0.4-0.1 0.9 0.2 1.2l24 29.3c0.3 0.3 0.6 0.4 1 0.4h5.3c0.5 0 0.9-0.2 1.1-0.7 0.2-0.4 0.1-0.9-0.2-1.2z"/>
						<path id="&lt;Path&gt;" class="s3" d="m484.8 132.1h-50.1c-0.6 0-1.2 0.5-1.2 1.2v4.1c0 0.6 0.6 1.2 1.2 1.2h21.9v52.6c0 0.7 0.5 1.2 1.2 1.2h4.1c0.6 0 1.2-0.5 1.2-1.2v-52.6h21.7c0.6 0 1.2-0.6 1.2-1.2v-4.1c0-0.7-0.6-1.2-1.2-1.2z"/>
						<path id="&lt;Path&gt;" class="s3" d="m541.9 132.1h-4c-0.6 0-1.2 0.5-1.2 1.2v43.9l-38-45.4c-0.3-0.4-0.8-0.6-1.3-0.4-0.5 0.2-0.8 0.6-0.8 1.1v58.7c0 0.7 0.5 1.2 1.2 1.2h4c0.7 0 1.2-0.5 1.2-1.2v-43.7l38 45.5c0.2 0.2 0.6 0.4 0.9 0.4q0.2 0 0.4-0.1c0.5-0.1 0.8-0.6 0.8-1.1v-58.9c0-0.7-0.5-1.2-1.2-1.2z"/>
						<path id="&lt;Path&gt;" class="s3" d="m596.6 132.1h-37.6c-0.6 0-1.2 0.5-1.2 1.2v57.9c0 0.7 0.6 1.2 1.2 1.2h37.6c0.7 0 1.2-0.5 1.2-1.2v-4.2c0-0.6-0.5-1.2-1.2-1.2h-32.3v-20.3h24.9c0.7 0 1.2-0.5 1.2-1.2v-4.1c0-0.7-0.5-1.2-1.2-1.2h-24.9v-20.4h32.3c0.7 0 1.2-0.6 1.2-1.2v-4.1c0-0.7-0.5-1.2-1.2-1.2z"/>
						<path id="&lt;Path&gt;" class="s3" d="m633 167q1.6-0.1 3.2-0.3c1.9-0.2 3.8-0.8 5.7-1.7 2.9-1.2 5.4-3.2 7.5-5.9 2.1-2.8 3.1-6 3.1-9.5 0-2.3-0.5-4.5-1.5-6.6-0.9-2.1-2.4-4-4.2-5.6-1.9-1.7-4.1-3.1-6.6-4-2.5-0.9-5.3-1.3-8.1-1.3h-20.3c-0.6 0-1.2 0.5-1.2 1.2v57.9c0 0.7 0.6 1.2 1.2 1.2h4c0.7 0 1.2-0.5 1.2-1.2v-52.7h15.1c2.8 0 5.3 0.5 7.5 1.6q3.1 1.7 4.9 4.2c1.1 1.7 1.6 3.4 1.6 5.3 0 2-0.6 3.9-2 5.6-1.3 1.8-2.9 3.1-4.7 4-2.6 1-6 1.6-10.3 1.6h-7.1c-0.5 0-0.9 0.2-1.1 0.7-0.2 0.4-0.1 0.9 0.2 1.2l24 29.3c0.3 0.3 0.6 0.4 1 0.4h5.3c0.5 0 0.9-0.2 1.1-0.7 0.2-0.4 0.1-0.9-0.1-1.2z"/>
						<path id="&lt;Path&gt;" class="s3" d="m705.2 168.1c-1.7-2.4-3.9-4.4-6.8-6q-1.8-1-4.2-1.6-2.4-0.7-5-1.1l-3.1-0.4q-3.5-0.4-5.8-0.8-2.1-0.4-3.8-1.2-2.8-1.4-4.7-3.9-1.8-2.4-1.8-4.8c0-1.2 0.4-2.5 1.1-3.7q1.1-1.9 3.3-3.4 2.1-1.7 5.1-2.6c3.9-1.1 8.4-1.1 12.3 0 2 0.6 3.7 1.5 5.2 2.6q2 1.5 3.1 3.4 1 1.8 1.1 3.7c0 0.4 0.3 0.8 0.6 1 0.4 0.2 0.8 0.2 1.2 0l3.9-2.2c0.4-0.2 0.6-0.7 0.5-1.2-0.6-3.7-2.8-7.1-6.5-9.9-4.4-3.1-9.5-4.7-15.2-4.7-2.9 0-5.6 0.5-8.2 1.3-2.6 0.8-5 1.9-7.1 3.4-2.1 1.6-3.8 3.5-5 5.5-1.2 2.1-1.8 4.4-1.8 6.8 0 3 0.9 5.8 2.7 8.3 1.8 2.6 4.3 4.6 7.3 6.1 2 0.9 4.3 1.6 7 2.1q3.9 0.6 4.6 0.7c4.9 0.6 8.3 1.3 10.1 2.3q2.8 1.5 4.4 3.7c1 1.4 1.5 2.9 1.5 4.5 0 2.7-1.4 5.1-4.2 7.2-3.1 2.3-6.9 3.4-11.3 3.4q-3.3 0-6.3-0.9-2.9-0.8-5.1-2.5c-2.7-1.9-4.1-4.2-4.3-7.1 0-0.4-0.2-0.8-0.6-1-0.4-0.2-0.8-0.2-1.2 0l-3.8 2.1c-0.5 0.3-0.7 0.8-0.6 1.3 0.8 3.9 3 7.3 6.6 9.9 2.1 1.5 4.5 2.7 7.1 3.5 2.6 0.8 5.3 1.2 8.2 1.2 5.7 0 10.9-1.5 15.2-4.7 2.2-1.5 3.8-3.4 5-5.6 1.2-2.1 1.7-4.4 1.7-6.8 0-2.8-0.8-5.5-2.4-7.9z"/>
					</g>
				</g>
			</g>
		</g>
		<g id="&lt;Group&gt;">
			<path id="&lt;Compound Path&gt;" class="s4" d="m-351.9-265.7h24.2q0 12.7-5.9 23.3-6 10.6-16.9 16.5l-5-4q9.6-4.8 14.8-13 5.3-8.2 6.1-17.3h-17.3zm32.5 50.9v-42.1q0-7.3-0.4-12h6.9v20.7h7.6v6h-7.6v27.4z"/>
			<path id="&lt;Compound Path&gt;" class="s4" d="m-302.2-221.8v-5.4h21.4v-8.6h-14.6v-6.3q0-7.4-0.4-11.8h29.6v-7h-29.4v-5.4h35.8v17.8h-29.2v7.3h30.9v5.4h-16.2v8.6h21.7v5.4z"/>
			<path id="&lt;Compound Path&gt;" fill-rule="evenodd" class="s4" d="m-247-256v-5h30.3v5zm25.4 16.7q-3.7 2.4-9.9 2.4-6.2 0-9.9-2.4-3.7-2.3-3.7-6.2 0-3.9 3.7-6.3 3.7-2.3 9.9-2.3 6.3 0 9.9 2.3 3.7 2.4 3.7 6.3 0 3.9-3.7 6.2zm-1.8-29.9v4.9h-16.6v-4.9zm-11.6 52.6q-5-2.6-5-7.6 0-5 5.1-7.7 5-2.7 13.9-2.7 9 0 14 2.7 5 2.7 5 7.8 0 5-5 7.6-5 2.6-14 2.6-9 0-14-2.7zm3.5-25.1q3.3 0 5.2-1 1.9-1 1.9-2.8 0-1.9-1.9-2.8-1.9-1-5.2-1-3.2 0-5.1 1-1.9 0.9-1.9 2.8 0 3.8 7 3.8zm-2 17.5q0 5.1 12.5 5.1 5.7 0 9.1-1.3 3.4-1.2 3.4-3.7 0-5.2-12.5-5.2-12.5 0-12.5 5.1zm17-26.6v-5.7h7.4v-0.1q0-6.4-0.4-12.4h6.8v34h-6.4v-6.2h-7.4v-5.7h7.4v-3.9z"/>
		</g>
		<g id="&lt;Group&gt;">
			<path id="&lt;Compound Path&gt;" class="s4" d="m-339 94.7v11q0 16.8 10.9 24.5l-4.4 4.1q-6.9-4.9-9.8-13.3-1.3 4.5-4.1 8.5-2.9 4-6.2 6.4l-5.2-4q6.8-4.7 9.5-11.5 2.7-6.7 2.7-15.3 0-7-0.5-10.4zm5.2 19.5v-5.9h8v-2.9q0-7.3-0.5-12.1h6.6v50.8h-6.1v-29.9zm18.6 32.4v-42.1q0-7.3-0.4-12.1h6.5v54.2z"/>
			<path id="&lt;Compound Path&gt;" class="s4" d="m-302.2 139.7v-5.5h21.4v-8.6h-14.6v-6.3q0-7.4-0.4-11.7h29.6v-7.1h-29.4v-5.4h35.8v17.9h-29.2v7.2h30.9v5.4h-16.2v8.6h21.7v5.5z"/>
			<path id="&lt;Compound Path&gt;" fill-rule="evenodd" class="s4" d="m-247 105.4v-4.9h30.3v4.9zm25.4 16.7q-3.7 2.4-9.9 2.4-6.2 0-9.9-2.4-3.7-2.3-3.7-6.2 0-3.9 3.7-6.3 3.7-2.3 9.9-2.3 6.3 0 9.9 2.3 3.7 2.4 3.7 6.3 0 3.9-3.7 6.2zm-1.8-29.8v4.8h-16.6v-4.8zm-11.6 52.5q-5-2.6-5-7.6 0-4.9 5.1-7.6 5-2.7 13.9-2.8 9 0.1 14 2.8 5 2.7 5 7.7 0 5-5 7.6-5 2.6-14 2.6-9 0-14-2.7zm3.5-25.1q3.3 0 5.2-1 1.9-1 1.9-2.8 0-1.9-1.9-2.8-1.9-1-5.2-1-3.2 0-5.1 1-1.9 0.9-1.9 2.8 0 3.8 7 3.8zm-2 17.5q0 5.1 12.5 5.1 5.7 0 9.1-1.2 3.4-1.3 3.4-3.8 0-5.2-12.5-5.2-12.5 0-12.5 5.1zm17-26.6v-5.7h7.4v-0.1q0-6.4-0.4-12.4h6.8v34h-6.4v-6.2h-7.4v-5.7h7.4v-3.9z"/>
		</g>
	</g>
</svg>