<svg version="1.2" xmlns="http://www.w3.org/2000/svg" viewBox="0 0 477 150" width="140" height="44">
	<title>포티에_로고타입-ai</title>
	<style>
		.s0 { fill: #F4F6F9 } 
		.s1 { fill: #231f20 } 
		.s2 { fill: #d1d2d3 } 
		.s3 { fill: #a6a9ab } 
		.s4 { fill: none;stroke: #231f20;stroke-miterlimit:10;stroke-width: .5 } 
		.s5 { fill: #000000 } 
	</style>
	<g id="_Artboards_">
		<path id="0" class="s0" d="m-894 226.7h1717.5v-656.8h-1717.5z"/>
		<path id="Primary logo" class="s0" d="m-894 965.4h841.9v-595.3h-841.9z"/>
		<path id="Primary logo simple ver." class="s0" d="m-18.4 965.4h841.9v-595.3h-841.9z"/>
		<path id="Horizontal ver." class="s0" d="m-894 1597.9h841.9v-595.3h-841.9z"/>
		<path id="Horizontal ver. \(no line\)" class="s0" d="m-18.4 1597.9h841.9v-595.3h-841.9z"/>
		<path id="variation" class="s0" d="m-894 2295h1717.5v-656.9h-1717.5z"/>
	</g>
	<g id="레이어 1">
		<g id="&lt;Group&gt;">
			<g id="&lt;Group&gt;">
				<path id="&lt;Compound Path&gt;" fill-rule="evenodd" class="s1" d="m257 660.7h-8.6v-63h22.9c15.6 0 24.5 7.4 24.5 19.7 0 12.4-8.9 19.8-24.5 19.8h-14.3zm14.1-30.6c11 0 16.3-4.5 16.3-12.7 0-8.1-5.3-12.6-16.3-12.6h-14.1v25.3z"/>
				<path id="&lt;Compound Path&gt;" fill-rule="evenodd" class="s1" d="m413.7 660.7c-1.2-1.7-2.1-6.3-2.6-13.7-0.4-7-3.7-11.7-12.3-11.7h-17.8v25.4h-8.5v-63h25.6c16 0 23.7 7.4 23.7 18.6 0 9.7-6.6 14.8-14.3 15.7 7.7 1.5 11.4 6.2 12 13.6 0.8 9.2 1.1 12.8 3.2 15.1zm-16.1-32.3c10.7 0 15.5-4 15.5-11.8 0-7.2-4.8-11.8-15.5-11.8h-16.6v23.6z"/>
				<path id="&lt;Compound Path&gt;" class="s1" d="m392 737.9v-55.8h-22.9v-7.2h54.9v7.2h-23.3v55.8z"/>
				<path id="&lt;Compound Path&gt;" fill-rule="evenodd" class="s1" d="m547.5 737.9c-1.2-1.7-2.1-6.3-2.6-13.7-0.4-7-3.7-11.7-12.3-11.7h-17.8v25.4h-8.5v-63h25.6c16 0 23.7 7.4 23.7 18.6 0 9.7-6.6 14.8-14.3 15.7 7.7 1.5 11.4 6.2 12 13.6 0.8 9.2 1.1 12.8 3.2 15.1zm-16.1-32.3c10.7 0 15.5-4 15.5-11.8 0-7.2-4.8-11.8-15.5-11.8h-16.6v23.6z"/>
			</g>
			<path id="&lt;Compound Path&gt;" class="s1" d="m248.3 583.5v-7.2h174.4v7.2z"/>
			<path id="&lt;Compound Path&gt;" class="s1" d="m431.2 660.7v-7.3h125.6v7.3z"/>
			<path id="&lt;Compound Path&gt;" class="s1" d="m369.7 759.2v-7.2h187.1v7.2z"/>
		</g>
		<g id="&lt;Group&gt;">
			<g id="&lt;Group&gt;">
				<path id="&lt;Compound Path&gt;" fill-rule="evenodd" class="s1" d="m-618.6 660.7h-8.6v-63h22.9c15.6 0 24.5 7.4 24.5 19.7 0 12.4-8.9 19.8-24.5 19.8h-14.3zm14.1-30.6c11 0 16.3-4.5 16.3-12.7 0-8.1-5.3-12.6-16.3-12.6h-14.1v25.3z"/>
				<path id="&lt;Compound Path&gt;" fill-rule="evenodd" class="s1" d="m-542.5 661.9c-18.4 0-31.3-13.3-31.3-32.7 0-19.4 12.9-32.7 31.3-32.7 18.3 0 31.3 13.3 31.3 32.7 0 19.4-13 32.7-31.3 32.7zm0-58c-13.6 0-22.4 9.9-22.4 25.3 0 15.4 8.8 25.3 22.4 25.3 13.6 0 22.3-9.9 22.3-25.3 0-15.4-8.7-25.3-22.3-25.3z"/>
				<path id="&lt;Compound Path&gt;" fill-rule="evenodd" class="s1" d="m-461.9 660.7c-1.2-1.7-2.1-6.3-2.6-13.7-0.4-7-3.7-11.7-12.3-11.7h-17.8v25.4h-8.5v-63h25.6c16 0 23.7 7.4 23.7 18.6 0 9.7-6.6 14.8-14.3 15.7 7.7 1.5 11.4 6.2 12 13.6 0.8 9.2 1.1 12.8 3.2 15.1zm-16.1-32.3c10.7 0 15.5-4 15.5-11.8 0-7.2-4.8-11.8-15.5-11.8h-16.6v23.6z"/>
				<path id="&lt;Compound Path&gt;" class="s1" d="m-483.5 737.9v-55.8h-22.9v-7.2h54.8v7.2h-23.3v55.8z"/>
				<path id="&lt;Compound Path&gt;" class="s1" d="m-435.6 674.9v63h-8.7v-63z"/>
				<path id="&lt;Compound Path&gt;" class="s1" d="m-377.7 737.9h-44.9v-63h44v7.2h-35.6v19.8h28.3v7.1h-28.3v21.7h36.5z"/>
				<path id="&lt;Compound Path&gt;" fill-rule="evenodd" class="s1" d="m-328.1 737.9c-1.2-1.7-2.1-6.3-2.6-13.7-0.4-7-3.7-11.7-12.3-11.7h-17.8v25.4h-8.5v-63h25.6c16 0 23.7 7.4 23.7 18.6 0 9.7-6.6 14.8-14.3 15.7 7.7 1.5 11.4 6.2 12 13.6 0.8 9.2 1.1 12.8 3.2 15.1zm-16.1-32.3c10.7 0 15.5-4 15.5-11.8 0-7.2-4.8-11.8-15.5-11.8h-16.6v23.6z"/>
			</g>
			<path id="&lt;Compound Path&gt;" class="s1" d="m-627.3 583.5v-7.2h174.4v7.2z"/>
			<path id="&lt;Compound Path&gt;" class="s1" d="m-444.4 660.7v-7.3h125.6v7.3z"/>
			<path id="&lt;Compound Path&gt;" class="s1" d="m-505.8 759.2v-7.2h187v7.2z"/>
		</g>
		<g id="&lt;Group&gt;">
			<g id="&lt;Group&gt;">
				<path id="&lt;Compound Path&gt;" fill-rule="evenodd" class="s1" d="m-647.6 1331.7h-8.6v-63h22.9c15.6 0 24.5 7.4 24.5 19.7 0 12.4-8.9 19.8-24.5 19.8h-14.3zm14.1-30.6c11 0 16.3-4.5 16.3-12.7 0-8.1-5.3-12.6-16.3-12.6h-14.1v25.3z"/>
				<path id="&lt;Compound Path&gt;" fill-rule="evenodd" class="s1" d="m-571.5 1332.9c-18.4 0-31.3-13.3-31.3-32.7 0-19.4 12.9-32.7 31.3-32.7 18.3 0 31.3 13.3 31.3 32.7 0 19.4-13 32.7-31.3 32.7zm0-58c-13.6 0-22.4 9.9-22.4 25.3 0 15.4 8.8 25.3 22.4 25.3 13.6 0 22.3-9.9 22.3-25.3 0-15.4-8.7-25.3-22.3-25.3z"/>
				<path id="&lt;Compound Path&gt;" fill-rule="evenodd" class="s1" d="m-491 1331.7c-1.2-1.7-2.1-6.3-2.6-13.7-0.4-7-3.7-11.7-12.3-11.7h-17.8v25.4h-8.5v-63h25.6c16 0 23.7 7.4 23.7 18.6 0 9.7-6.6 14.8-14.3 15.7 7.7 1.5 11.4 6.2 12 13.6 0.8 9.2 1.1 12.8 3.2 15.1zm-16.1-32.3c10.7 0 15.5-4 15.5-11.8 0-7.2-4.8-11.8-15.5-11.8h-16.6v23.6z"/>
				<path id="&lt;Compound Path&gt;" class="s1" d="m-454.6 1331.7v-55.8h-22.9v-7.2h54.8v7.2h-23.3v55.8z"/>
				<path id="&lt;Compound Path&gt;" class="s1" d="m-406.4 1268.7v63h-8.7v-63z"/>
				<path id="&lt;Compound Path&gt;" class="s1" d="m-348.5 1331.7h-44.9v-63h44v7.2h-35.6v19.8h28.3v7.1h-28.3v21.7h36.5z"/>
				<path id="&lt;Compound Path&gt;" fill-rule="evenodd" class="s1" d="m-298.9 1331.7c-1.2-1.7-2.1-6.3-2.6-13.7-0.4-7-3.7-11.7-12.3-11.7h-17.8v25.4h-8.5v-63h25.6c16 0 23.7 7.4 23.7 18.6 0 9.7-6.6 14.8-14.3 15.7 7.7 1.5 11.4 6.2 12 13.6 0.8 9.2 1.1 12.8 3.2 15.1zm-16.1-32.3c10.7 0 15.5-4 15.5-11.8 0-7.2-4.8-11.8-15.5-11.8h-16.6v23.6z"/>
			</g>
			<path id="&lt;Compound Path&gt;" class="s1" d="m-656.2 1254.6v-7.3h366.3v7.3z"/>
			<path id="&lt;Compound Path&gt;" class="s1" d="m-656.2 1353.1v-7.2h366.3v7.2z"/>
		</g>
		<g id="&lt;Group&gt;">
			<g id="&lt;Group&gt;">
				<path id="&lt;Compound Path&gt;" fill-rule="evenodd" class="s1" d="m228 1249.9h-8.6v-63h22.9c15.6 0 24.5 7.4 24.5 19.7 0 12.4-8.9 19.8-24.5 19.8h-14.3zm14.1-30.6c11 0 16.3-4.5 16.3-12.7 0-8.1-5.3-12.6-16.3-12.6h-14.1v25.3z"/>
				<path id="&lt;Compound Path&gt;" fill-rule="evenodd" class="s1" d="m304.1 1251.1c-18.4 0-31.3-13.3-31.3-32.7 0-19.4 12.9-32.7 31.3-32.7 18.3 0 31.3 13.3 31.3 32.7 0 19.4-13 32.7-31.3 32.7zm0-58c-13.6 0-22.4 9.9-22.4 25.3 0 15.4 8.8 25.3 22.4 25.3 13.6 0 22.3-9.9 22.3-25.3 0-15.4-8.7-25.3-22.3-25.3z"/>
				<path id="&lt;Compound Path&gt;" fill-rule="evenodd" class="s1" d="m384.6 1249.9c-1.2-1.7-2.1-6.3-2.6-13.7-0.4-7-3.7-11.7-12.3-11.7h-17.8v25.4h-8.5v-63h25.6c16 0 23.7 7.4 23.7 18.6 0 9.7-6.6 14.8-14.3 15.7 7.7 1.5 11.4 6.2 12 13.6 0.8 9.2 1.1 12.8 3.2 15.1zm-16.1-32.3c10.7 0 15.5-4 15.5-11.8 0-7.2-4.8-11.8-15.5-11.8h-16.6v23.6z"/>
				<path id="&lt;Compound Path&gt;" class="s1" d="m421 1249.9v-55.8h-22.9v-7.2h54.8v7.2h-23.3v55.8z"/>
				<path id="&lt;Compound Path&gt;" class="s1" d="m469.2 1186.9v63h-8.7v-63z"/>
				<path id="&lt;Compound Path&gt;" class="s1" d="m527.1 1249.9h-44.9v-63h44v7.2h-35.6v19.8h28.3v7.1h-28.3v21.7h36.5z"/>
				<path id="&lt;Compound Path&gt;" fill-rule="evenodd" class="s1" d="m576.7 1249.9c-1.2-1.7-2.1-6.3-2.6-13.7-0.4-7-3.7-11.7-12.3-11.7h-17.8v25.4h-8.5v-63h25.6c16 0 23.7 7.4 23.7 18.6 0 9.7-6.6 14.8-14.3 15.7 7.7 1.5 11.4 6.2 12 13.6 0.8 9.2 1.1 12.8 3.2 15.1zm-16.1-32.3c10.7 0 15.5-4 15.5-11.8 0-7.2-4.8-11.8-15.5-11.8h-16.6v23.6z"/>
			</g>
		</g>
		<g id="&lt;Group&gt;">
			<g id="&lt;Group&gt;">
				<path id="&lt;Compound Path&gt;" fill-rule="evenodd" class="s1" d="m228 1414.8h-8.6v-63h22.9c15.6 0 24.5 7.4 24.5 19.7 0 12.4-8.9 19.8-24.5 19.8h-14.3zm14.1-30.6c11 0 16.3-4.5 16.3-12.7 0-8.1-5.3-12.6-16.3-12.6h-14.1v25.3z"/>
				<path id="&lt;Compound Path&gt;" fill-rule="evenodd" class="s1" d="m384.6 1414.8c-1.2-1.7-2.1-6.3-2.6-13.7-0.4-7-3.7-11.7-12.3-11.7h-17.8v25.4h-8.5v-63h25.6c16 0 23.7 7.4 23.7 18.6 0 9.7-6.6 14.8-14.3 15.7 7.7 1.5 11.4 6.2 12 13.6 0.8 9.2 1.1 12.8 3.2 15.1zm-16.1-32.3c10.7 0 15.5-4 15.5-11.8 0-7.2-4.8-11.8-15.5-11.8h-16.6v23.6z"/>
				<path id="&lt;Compound Path&gt;" class="s1" d="m421 1414.8v-55.8h-22.9v-7.2h54.8v7.2h-23.3v55.8z"/>
				<path id="&lt;Compound Path&gt;" fill-rule="evenodd" class="s1" d="m576.7 1414.8c-1.2-1.7-2.1-6.3-2.6-13.7-0.4-7-3.7-11.7-12.3-11.7h-17.8v25.4h-8.5v-63h25.6c16 0 23.7 7.4 23.7 18.6 0 9.7-6.6 14.8-14.3 15.7 7.7 1.5 11.4 6.2 12 13.6 0.8 9.2 1.1 12.8 3.2 15.1zm-16.1-32.3c10.7 0 15.5-4 15.5-11.8 0-7.2-4.8-11.8-15.5-11.8h-16.6v23.6z"/>
			</g>
		</g>
		<g id="&lt;Group&gt;">
			<path id="&lt;Compound Path&gt;" fill-rule="evenodd" class="s1" d="m-673.1-179.3h-8.6v-63.1h22.9c15.6 0 24.5 7.4 24.5 19.7 0 12.4-8.9 19.9-24.5 19.9h-14.3zm14.1-30.7c11 0 16.3-4.5 16.3-12.7 0-8.1-5.3-12.6-16.3-12.6h-14.1v25.3z"/>
			<path id="&lt;Compound Path&gt;" fill-rule="evenodd" class="s1" d="m-597-178.1c-18.4 0-31.3-13.3-31.3-32.7 0-19.5 12.9-32.8 31.3-32.8 18.3 0 31.3 13.3 31.3 32.8 0 19.4-13 32.7-31.3 32.7zm0-58.1c-13.6 0-22.4 9.9-22.4 25.4 0 15.4 8.8 25.3 22.4 25.3 13.6 0 22.3-9.9 22.3-25.3 0-15.5-8.7-25.4-22.3-25.4z"/>
			<path id="&lt;Compound Path&gt;" fill-rule="evenodd" class="s1" d="m-516.4-179.3c-1.2-1.7-2.1-6.3-2.6-13.7-0.4-7-3.7-11.7-12.3-11.7h-17.8v25.4h-8.5v-63.1h25.6c16 0 23.7 7.4 23.7 18.6 0 9.8-6.6 14.9-14.3 15.8 7.7 1.5 11.4 6.2 12 13.6 0.8 9.2 1.1 12.8 3.2 15.1zm-16.1-32.3c10.7 0 15.5-4.1 15.5-11.9 0-7.2-4.8-11.8-15.5-11.8h-16.6v23.7z"/>
			<path id="&lt;Compound Path&gt;" class="s1" d="m-538-102.1v-55.9h-22.9v-7.2h54.8v7.2h-23.3v55.9z"/>
			<path id="&lt;Compound Path&gt;" class="s1" d="m-490.1-165.2v63.1h-8.7v-63.1z"/>
			<path id="&lt;Compound Path&gt;" class="s1" d="m-432.2-102.1h-44.9v-63.1h44v7.2h-35.6v19.8h28.3v7.2h-28.3v21.7h36.5z"/>
			<path id="&lt;Compound Path&gt;" fill-rule="evenodd" class="s1" d="m-382.6-102.1c-1.2-1.7-2.1-6.3-2.6-13.7-0.4-7-3.7-11.7-12.3-11.7h-17.8v25.4h-8.5v-63.1h25.6c16 0 23.7 7.4 23.7 18.6 0 9.8-6.6 14.8-14.3 15.8 7.7 1.5 11.4 6.2 12 13.6 0.8 9.2 1.1 12.8 3.2 15.1zm-16.1-32.3c10.7 0 15.5-4 15.5-11.9 0-7.2-4.8-11.8-15.5-11.8h-16.6v23.7z"/>
		</g>
		<path id="&lt;Path&gt;" class="s2" d="m-373.3-256.5h-308.5v14.2h308.5z"/>
		<path id="&lt;Path&gt;" class="s3" d="m-498.9-179.4v-62.9h-8.5v62.9z"/>
		<path id="&lt;Path&gt;" class="s2" d="m-373.3-102.2h-308.5v14.2h308.5z"/>
		<path id="&lt;Path&gt;" class="s2" d="m-373.3-179.4h-308.5v14.2h308.5z"/>
		<path id="&lt;Compound Path&gt;" class="s1" d="m-681.8-256.5v-7.2h174.4v7.2z"/>
		<path id="&lt;Compound Path&gt;" class="s1" d="m-498.9-179.4v-7.2h125.6v7.2z"/>
		<path id="&lt;Compound Path&gt;" class="s1" d="m-560.3-80.8v-7.2h187v7.2z"/>
		<path id="&lt;Path&gt;" class="s2" d="m-118.2 29.2h-366.4v14.1h366.4z"/>
		<path id="&lt;Path&gt;" class="s2" d="m-118.2 106.3h-366.4v14.2h366.4z"/>
		<path id="&lt;Compound Path&gt;" class="s1" d="m-484.6 29.2v-7.2h366.4v7.2z"/>
		<path id="&lt;Compound Path&gt;" class="s1" d="m-484.6 127.7v-7.2h366.4v7.2z"/>
		<g id="&lt;Group&gt;">
			<path id="&lt;Compound Path&gt;" fill-rule="evenodd" class="s1" d="m-475.9 106.3h-8.6v-63h22.9c15.6 0 24.5 7.4 24.5 19.7 0 12.4-8.9 19.8-24.5 19.8h-14.3zm14.1-30.6c11 0 16.3-4.5 16.3-12.7 0-8.1-5.3-12.6-16.3-12.6h-14.1v25.3z"/>
			<path id="&lt;Compound Path&gt;" fill-rule="evenodd" class="s1" d="m-399.9 107.6c-18.4 0-31.3-13.4-31.3-32.8 0-19.4 12.9-32.7 31.3-32.7 18.3 0 31.3 13.3 31.3 32.7 0 19.4-13 32.8-31.3 32.8zm0-58.1c-13.6 0-22.4 9.9-22.4 25.3 0 15.4 8.8 25.4 22.4 25.4 13.6 0 22.3-10 22.3-25.4 0-15.4-8.7-25.3-22.3-25.3z"/>
			<path id="&lt;Compound Path&gt;" fill-rule="evenodd" class="s1" d="m-319.3 106.3c-1.2-1.6-2.1-6.3-2.6-13.7-0.4-7-3.7-11.7-12.3-11.7h-17.8v25.4h-8.5v-63h25.6c16 0 23.7 7.4 23.7 18.6 0 9.7-6.6 14.8-14.3 15.7 7.7 1.5 11.4 6.2 12 13.6 0.8 9.2 1.1 12.8 3.2 15.1zm-16.1-32.3c10.7 0 15.5-4 15.5-11.8 0-7.2-4.8-11.8-15.5-11.8h-16.6v23.6z"/>
			<path id="&lt;Compound Path&gt;" class="s1" d="m-282.9 106.3v-55.8h-22.9v-7.2h54.8v7.2h-23.3v55.8z"/>
			<path id="&lt;Compound Path&gt;" class="s1" d="m-234.7 43.3v63h-8.7v-63z"/>
			<path id="&lt;Compound Path&gt;" class="s1" d="m-176.8 106.3h-44.9v-63h44v7.2h-35.6v19.8h28.3v7.1h-28.3v21.7h36.5z"/>
			<path id="&lt;Compound Path&gt;" fill-rule="evenodd" class="s1" d="m-127.2 106.3c-1.2-1.6-2.1-6.3-2.6-13.7-0.4-7-3.7-11.7-12.3-11.7h-17.8v25.4h-8.5v-63h25.6c16 0 23.7 7.4 23.7 18.6 0 9.7-6.6 14.8-14.3 15.7 7.7 1.5 11.4 6.2 12 13.6 0.8 9.2 1.1 12.8 3.2 15.1zm-16.1-32.3c10.7 0 15.5-4 15.5-11.8 0-7.2-4.8-11.8-15.5-11.8h-16.6v23.6z"/>
		</g>
		<g id="&lt;Group&gt;">
			<g id="&lt;Group&gt;">
				<path id="&lt;Compound Path&gt;" fill-rule="evenodd" class="s1" d="m62.4 106.3h-8.6v-63h22.9c15.6 0 24.5 7.4 24.5 19.7 0 12.4-8.9 19.8-24.5 19.8h-14.3zm14.1-30.6c11 0 16.3-4.5 16.3-12.7 0-8.1-5.3-12.6-16.3-12.6h-14.1v25.3z"/>
				<path id="&lt;Compound Path&gt;" fill-rule="evenodd" class="s1" d="m138.5 107.6c-18.4 0-31.3-13.4-31.3-32.8 0-19.4 12.9-32.7 31.3-32.7 18.3 0 31.3 13.3 31.3 32.7 0 19.4-13 32.8-31.3 32.8zm0-58.1c-13.6 0-22.4 9.9-22.4 25.3 0 15.4 8.8 25.4 22.4 25.4 13.6 0 22.3-10 22.3-25.4 0-15.4-8.7-25.3-22.3-25.3z"/>
				<path id="&lt;Compound Path&gt;" fill-rule="evenodd" class="s1" d="m219 106.3c-1.2-1.6-2.1-6.3-2.6-13.7-0.4-7-3.7-11.7-12.3-11.7h-17.8v25.4h-8.5v-63h25.6c16 0 23.7 7.4 23.7 18.6 0 9.7-6.6 14.8-14.3 15.7 7.7 1.5 11.4 6.2 12 13.6 0.8 9.2 1.1 12.8 3.2 15.1zm-16.1-32.3c10.7 0 15.5-4 15.5-11.8 0-7.2-4.8-11.8-15.5-11.8h-16.6v23.6z"/>
				<path id="&lt;Compound Path&gt;" class="s1" d="m255.4 106.3v-55.8h-22.9v-7.2h54.8v7.2h-23.3v55.8z"/>
				<path id="&lt;Compound Path&gt;" class="s1" d="m303.6 43.3v63h-8.7v-63z"/>
				<path id="&lt;Compound Path&gt;" class="s1" d="m361.5 106.3h-44.9v-63h44v7.2h-35.6v19.8h28.3v7.1h-28.3v21.7h36.5z"/>
				<path id="&lt;Compound Path&gt;" fill-rule="evenodd" class="s1" d="m411.1 106.3c-1.2-1.6-2.1-6.3-2.6-13.7-0.4-7-3.7-11.7-12.3-11.7h-17.8v25.4h-8.5v-63h25.6c16 0 23.7 7.4 23.7 18.6 0 9.7-6.6 14.8-14.3 15.7 7.7 1.5 11.4 6.2 12 13.6 0.8 9.2 1.1 12.8 3.2 15.1zm-16.1-32.3c10.7 0 15.5-4 15.5-11.8 0-7.2-4.8-11.8-15.5-11.8h-16.6v23.6z"/>
			</g>
			<path id="&lt;Compound Path&gt;" class="s1" d="m53.8 29.2v-7.2h366.3v7.2z"/>
			<path id="&lt;Compound Path&gt;" class="s1" d="m53.8 127.7v-7.2h366.3v7.2z"/>
		</g>
		<path id="&lt;Path&gt;" class="s4" d="m-507.4-242.3v62.9"/>
		<path id="&lt;Path&gt;" class="s4" d="m-498.9-242.3v62.9"/>
		<path id="&lt;Path&gt;" class="s4" d="m-533.9-263.7v182.9"/>
		<path id="&lt;Path&gt;" class="s4" d="m-373.3-263.7h-308.5"/>
		<path id="&lt;Path&gt;" class="s4" d="m-373.3-256.5h-308.5"/>
		<path id="&lt;Path&gt;" class="s4" d="m-373.3-186.6h-308.5"/>
		<path id="&lt;Path&gt;" class="s4" d="m-373.3-242.4h-308.5"/>
		<path id="&lt;Path&gt;" class="s4" d="m-373.3-80.8h-308.5"/>
		<path id="&lt;Path&gt;" class="s4" d="m-373.3-179.3h-308.5"/>
		<path id="&lt;Path&gt;" class="s4" d="m-373.3-165.1h-308.5"/>
		<path id="&lt;Path&gt;" class="s4" d="m-373.3-102.2h-308.5"/>
		<path id="&lt;Path&gt;" class="s4" d="m-373.3-88h-308.5"/>
		<g id="&lt;Group&gt;">
			<path id="&lt;Compound Path&gt;" class="s1" d="m-513.4-247.8l1.5-1.6-1.5-1.5 0.4-0.4 1.5 1.5 1.6-1.5 0.4 0.4-1.6 1.5 1.6 1.6-0.4 0.4-1.6-1.6-1.5 1.6z"/>
			<path id="&lt;Compound Path&gt;" fill-rule="evenodd" class="s1" d="m-508.1-249.4c0-2.1 0.8-3.3 2.2-3.3 1.3 0 2.1 1.2 2.1 3.3 0 2.1-0.8 3.3-2.1 3.3-1.4 0-2.2-1.2-2.2-3.3zm3.7 0c0-1.7-0.5-2.7-1.5-2.7-1 0-1.5 1-1.5 2.7 0 1.7 0.5 2.7 1.5 2.7 1 0 1.5-1 1.5-2.7z"/>
			<path id="&lt;Compound Path&gt;" class="s1" d="m-502.8-246.6c0-0.3 0.2-0.5 0.5-0.5 0.3 0 0.5 0.2 0.5 0.5 0 0.2-0.2 0.4-0.5 0.4-0.3 0-0.5-0.2-0.5-0.4z"/>
			<path id="&lt;Compound Path&gt;" fill-rule="evenodd" class="s1" d="m-500.8-249.1c0-2.1 0.8-3.6 2.3-3.6 1.1 0 1.9 0.7 2 1.7h-0.6c-0.1-0.6-0.6-1.1-1.4-1.1-1.1 0-1.7 1-1.7 2.7h0.1c0.3-0.6 0.9-0.9 1.6-0.9 1.2 0 2.1 0.9 2.1 2.1 0 1.1-0.9 2.1-2.2 2.1-1.1 0-2.2-0.8-2.2-3zm3.8 0.9c0-0.9-0.7-1.6-1.5-1.6-0.9 0-1.6 0.8-1.6 1.6 0.1 0.9 0.7 1.5 1.5 1.5 0.9 0 1.6-0.7 1.6-1.5z"/>
		</g>
		<g id="&lt;Group&gt;">
			<path id="&lt;Compound Path&gt;" class="s1" d="m-367-248l1.6-1.6-1.6-1.6 0.4-0.3 1.5 1.5 1.6-1.5 0.4 0.3-1.6 1.6 1.6 1.6-0.4 0.4-1.6-1.6-1.5 1.6z"/>
			<path id="&lt;Compound Path&gt;" class="s1" d="m-359.5-246.5h-0.6v-5.7l-1.5 1v-0.6l1.5-1h0.6z"/>
		</g>
		<g id="&lt;Group&gt;">
			<path id="&lt;Compound Path&gt;" class="s1" d="m-110.7 37.9l1.6-1.6-1.6-1.6 0.4-0.3 1.6 1.5 1.6-1.5 0.3 0.3-1.5 1.6 1.5 1.6-0.3 0.4-1.6-1.6-1.6 1.6z"/>
			<path id="&lt;Compound Path&gt;" class="s1" d="m-103.1 39.4h-0.6v-5.7h-0.1l-1.5 1v-0.6l1.5-1h0.7z"/>
		</g>
		<g id="&lt;Group&gt;">
			<path id="&lt;Compound Path&gt;" class="s1" d="m-110.7 115l1.6-1.5-1.6-1.6 0.4-0.4 1.6 1.6 1.6-1.6 0.3 0.4-1.5 1.6 1.5 1.5-0.3 0.4-1.6-1.5-1.6 1.5z"/>
			<path id="&lt;Compound Path&gt;" class="s1" d="m-103.1 116.6h-0.6v-5.7h-0.1l-1.5 1v-0.6l1.5-1h0.7z"/>
		</g>
		<g id="&lt;Group&gt;">
			<path id="&lt;Compound Path&gt;" class="s1" d="m-367-170.9l1.6-1.6-1.6-1.5 0.4-0.4 1.5 1.6 1.6-1.6 0.4 0.4-1.6 1.5 1.6 1.6-0.4 0.4-1.6-1.6-1.5 1.6z"/>
			<path id="&lt;Compound Path&gt;" class="s1" d="m-359.5-169.3h-0.6v-5.7l-1.5 1v-0.7l1.5-1h0.6z"/>
		</g>
		<g id="&lt;Group&gt;">
			<path id="&lt;Compound Path&gt;" class="s1" d="m-367-93.8l1.6-1.5-1.6-1.6 0.4-0.4 1.5 1.6 1.6-1.6 0.4 0.4-1.6 1.6 1.6 1.5-0.4 0.4-1.6-1.5-1.5 1.5z"/>
			<path id="&lt;Compound Path&gt;" class="s1" d="m-359.5-92.2h-0.6v-5.7l-1.5 1v-0.6l1.5-1h0.6z"/>
		</g>
		<path id="&lt;Path&gt;" class="s4" d="m-373.6-80.8h-308.1v-182.9h308.1z"/>
		<g id="&lt;Group&gt;">
			<g id="&lt;Group&gt;">
				<path id="&lt;Compound Path&gt;" fill-rule="evenodd" class="s1" d="m-180.8-179.3h-8.6v-63.1h22.9c15.6 0 24.5 7.4 24.5 19.7 0 12.4-8.9 19.9-24.5 19.9h-14.3zm14.1-30.7c11 0 16.3-4.5 16.3-12.7 0-8.1-5.3-12.6-16.3-12.6h-14.1v25.3z"/>
				<path id="&lt;Compound Path&gt;" fill-rule="evenodd" class="s1" d="m-104.7-178.1c-18.4 0-31.3-13.3-31.3-32.7 0-19.5 12.9-32.8 31.3-32.8 18.3 0 31.3 13.3 31.3 32.8 0 19.4-13 32.7-31.3 32.7zm0-58.1c-13.6 0-22.4 9.9-22.4 25.4 0 15.4 8.8 25.3 22.4 25.3 13.6 0 22.3-9.9 22.3-25.3 0-15.5-8.7-25.4-22.3-25.4z"/>
				<path id="&lt;Compound Path&gt;" fill-rule="evenodd" class="s1" d="m-24.1-179.3c-1.2-1.7-2.1-6.3-2.6-13.7-0.4-7-3.7-11.7-12.3-11.7h-17.8v25.4h-8.5v-63.1h25.6c16 0 23.7 7.4 23.7 18.6 0 9.8-6.6 14.9-14.3 15.8 7.7 1.5 11.4 6.2 12 13.6 0.8 9.2 1.1 12.8 3.2 15.1zm-16.1-32.3c10.7 0 15.5-4.1 15.5-11.9 0-7.2-4.8-11.8-15.5-11.8h-16.6v23.7z"/>
				<path id="&lt;Compound Path&gt;" class="s1" d="m-45.7-102.1v-55.9h-22.9v-7.2h54.8v7.2h-23.3v55.9z"/>
				<path id="&lt;Compound Path&gt;" class="s1" d="m2.2-165.2v63.1h-8.7v-63.1z"/>
				<path id="&lt;Compound Path&gt;" class="s1" d="m60.1-102.1h-44.9v-63.1h44v7.2h-35.6v19.8h28.3v7.2h-28.3v21.7h36.5z"/>
				<path id="&lt;Compound Path&gt;" fill-rule="evenodd" class="s1" d="m109.7-102.1c-1.2-1.7-2.1-6.3-2.6-13.7-0.4-7-3.7-11.7-12.3-11.7h-17.8v25.4h-8.5v-63.1h25.6c16 0 23.7 7.4 23.7 18.6 0 9.8-6.6 14.8-14.3 15.8 7.7 1.5 11.4 6.2 12 13.6 0.8 9.2 1.1 12.8 3.2 15.1zm-16.1-32.3c10.7 0 15.5-4 15.5-11.9 0-7.2-4.8-11.8-15.5-11.8h-16.6v23.7z"/>
			</g>
			<path id="&lt;Compound Path&gt;" class="s1" d="m-189.5-256.5v-7.2h174.4v7.2z"/>
			<path id="&lt;Compound Path&gt;" class="s1" d="m-6.6-179.4v-7.2h125.6v7.2z"/>
			<path id="&lt;Compound Path&gt;" class="s1" d="m-68.1-80.8v-7.2h187.1v7.2z"/>
		</g>
		<g id="&lt;Group&gt;">
			<g id="&lt;Group&gt;">
				<path id="&lt;Compound Path&gt;" fill-rule="evenodd" class="s1" d="m304.5-179.3h-8.6v-63.1h22.9c15.6 0 24.5 7.4 24.5 19.7 0 12.4-8.9 19.9-24.5 19.9h-14.3zm14.1-30.7c11 0 16.3-4.5 16.3-12.7 0-8.1-5.3-12.6-16.3-12.6h-14.1v25.3z"/>
				<path id="&lt;Compound Path&gt;" fill-rule="evenodd" class="s1" d="m461.3-179.3c-1.2-1.7-2.1-6.3-2.6-13.7-0.4-7-3.7-11.7-12.3-11.7h-17.8v25.4h-8.5v-63.1h25.6c16 0 23.7 7.4 23.7 18.6 0 9.8-6.6 14.9-14.3 15.8 7.7 1.5 11.4 6.2 12 13.6 0.8 9.2 1.1 12.8 3.2 15.1zm-16.1-32.3c10.7 0 15.5-4.1 15.5-11.9 0-7.2-4.8-11.8-15.5-11.8h-16.6v23.7z"/>
				<path id="&lt;Compound Path&gt;" class="s1" d="m439.6-102.1v-55.9h-22.9v-7.2h54.8v7.2h-23.3v55.9z"/>
				<path id="&lt;Compound Path&gt;" fill-rule="evenodd" class="s1" d="m595.1-102.1c-1.2-1.7-2.1-6.3-2.6-13.7-0.4-7-3.7-11.7-12.3-11.7h-17.8v25.4h-8.5v-63.1h25.6c16 0 23.7 7.4 23.7 18.6 0 9.8-6.6 14.8-14.3 15.8 7.7 1.5 11.4 6.2 12 13.6 0.8 9.2 1.1 12.8 3.2 15.1zm-16.1-32.3c10.7 0 15.5-4 15.5-11.9 0-7.2-4.8-11.8-15.5-11.8h-16.6v23.7z"/>
			</g>
			<path id="&lt;Compound Path&gt;" class="s1" d="m295.9-256.5v-7.2h174.4v7.2z"/>
			<path id="&lt;Compound Path&gt;" class="s1" d="m478.8-179.4v-7.2h125.5v7.2z"/>
			<path id="&lt;Compound Path&gt;" class="s1" d="m417.3-80.8v-7.2h187v7.2z"/>
		</g>
		<g id="&lt;Group&gt;">
			<path id="&lt;Compound Path&gt;" class="s1" d="m-273.6-364.8v-22.1h15.1v2.6h-12.1v7.3h9.5v2.5h-9.5v9.7z"/>
			<path id="&lt;Compound Path&gt;" fill-rule="evenodd" class="s1" d="m-246.6-364.4c-6.4 0-11-4.6-11-11.4 0-6.8 4.6-11.5 11-11.5 6.4 0 11 4.7 11 11.5 0 6.8-4.6 11.4-11 11.4zm0-20.3c-4.8 0-7.8 3.5-7.8 8.9 0 5.4 3 8.8 7.8 8.8 4.8 0 7.8-3.4 7.8-8.8 0-5.4-3-8.9-7.8-8.9z"/>
			<path id="&lt;Compound Path&gt;" class="s1" d="m-232.7-373.2v-13.7h3v13.7c0 4.2 2.1 6.3 5.9 6.3 3.9 0 6-2.1 6-6.3v-13.7h3v13.7c0 6.4-4 8.8-9 8.8-5 0-8.9-2.4-8.9-8.8z"/>
			<path id="&lt;Compound Path&gt;" class="s1" d="m-195.6-370v-16.9h2.8v22.1h-2.4l-12.8-17.7v17.7h-2.9v-22.1h3.2z"/>
			<path id="&lt;Compound Path&gt;" fill-rule="evenodd" class="s1" d="m-188.5-386.9h7.9c7 0 11.3 4.2 11.3 11.1 0 6.9-4.3 11-11.3 11h-7.9zm7.8 19.6c5.4 0 8.3-3.2 8.3-8.6 0-5.3-2.9-8.5-8.3-8.5h-4.8v17.1z"/>
			<path id="&lt;Compound Path&gt;" class="s1" d="m-150.3-364.8h-15.7v-22.1h15.4v2.6h-12.5v6.9h9.9v2.5h-9.9v7.6h12.8z"/>
			<path id="&lt;Compound Path&gt;" fill-rule="evenodd" class="s1" d="m-132.4-364.8q-0.7-0.9-0.9-4.8c-0.2-2.5-1.3-4.1-4.3-4.1h-6.3v8.9h-3v-22.1h9c5.6 0 8.3 2.6 8.3 6.5 0 3.4-2.3 5.2-5 5.5 2.7 0.6 4 2.2 4.2 4.8 0.3 3.2 0.4 4.5 1.1 5.3zm-5.6-11.3c3.7 0 5.4-1.4 5.4-4.2 0-2.5-1.7-4.1-5.4-4.1h-5.8v8.3z"/>
			<path id="&lt;Compound Path&gt;" class="s1" d="m-124.5-372.9c0.2 4.1 2.9 6.1 6.6 6.1 3.3 0 5.4-1.4 5.4-3.8 0-2-1.3-3-4.2-3.6l-4.4-0.8c-3.2-0.6-5.5-2.4-5.5-5.8 0-3.9 3.1-6.5 7.9-6.5 5.5 0 8.7 3 8.7 7.9l-2.7 0.2c-0.1-3.7-2.3-5.7-6-5.7-3.2 0-5 1.5-5 3.9 0 2.2 1.5 2.9 4 3.4l4 0.7c4.1 0.8 6.1 2.6 6.1 6.1 0 4.1-3.5 6.4-8.3 6.4-5.4 0-9.4-3-9.4-8.3z"/>
			<path id="&lt;Compound Path&gt;" class="s1" d="m-99.2-375.8c0-6.8 4.7-11.5 10.8-11.5 6.2 0 9.8 3.5 10.2 9.1l-2.9 0.2c-0.3-4-2.9-6.7-7.3-6.7-4.5 0-7.7 3.4-7.7 8.9 0 5.5 3.2 8.9 8 8.9 4.1 0 6.8-2.6 7.2-6.4h-6.8v-2.4h9.5v10.9h-2.7v-3.9c-1 2.8-4.1 4.3-7.6 4.3-6.2 0-10.7-4.6-10.7-11.4z"/>
			<path id="&lt;Compound Path&gt;" fill-rule="evenodd" class="s1" d="m-59.7-364.8q-0.6-0.9-0.9-4.8c-0.2-2.5-1.3-4.1-4.3-4.1h-6.3v8.9h-2.9v-22.1h8.9c5.6 0 8.3 2.6 8.3 6.5 0 3.4-2.3 5.2-5 5.5 2.7 0.6 4 2.2 4.2 4.8 0.3 3.2 0.4 4.5 1.1 5.3zm-5.6-11.3c3.8 0 5.4-1.4 5.4-4.2 0-2.5-1.6-4.1-5.4-4.1h-5.8v8.3z"/>
			<path id="&lt;Compound Path&gt;" fill-rule="evenodd" class="s1" d="m-43.5-364.4c-6.4 0-11-4.6-11-11.4 0-6.8 4.6-11.5 11-11.5 6.4 0 11 4.7 11 11.5 0 6.8-4.6 11.4-11 11.4zm0-20.3c-4.8 0-7.8 3.5-7.8 8.9 0 5.4 3 8.8 7.8 8.8 4.8 0 7.8-3.4 7.8-8.8 0-5.4-3-8.9-7.8-8.9z"/>
			<path id="&lt;Compound Path&gt;" class="s1" d="m-24.5-364.8v-19.5h-8v-2.6h19.2v2.6h-8.2v19.5z"/>
			<path id="&lt;Compound Path&gt;" class="s1" d="m5.3-364.8h-15.7v-22.1h15.4v2.6h-12.5v6.9h9.9v2.5h-9.9v7.6h12.8z"/>
			<path id="&lt;Compound Path&gt;" class="s1" d="m9.8-372.9c0.1 4.1 2.9 6.1 6.6 6.1 3.3 0 5.4-1.4 5.4-3.8 0-2-1.4-3-4.2-3.6l-4.4-0.8c-3.3-0.6-5.5-2.4-5.5-5.8 0-3.9 3-6.5 7.9-6.5 5.5 0 8.7 3 8.7 7.9l-2.7 0.2c-0.1-3.7-2.3-5.7-6-5.7-3.2 0-5 1.5-5 3.9 0 2.2 1.5 2.9 4 3.4l4 0.7c4.1 0.8 6.1 2.6 6.1 6.1 0 4.1-3.5 6.4-8.3 6.4-5.4 0-9.4-3-9.4-8.3z"/>
			<path id="&lt;Compound Path&gt;" class="s1" d="m42.7-364.8l-9.1-10.5-2.5 2.6v7.9h-3.1v-22.1h3.1v10.9l10.7-10.9h3.6l-9.5 9.7 10.5 12.4z"/>
			<path id="&lt;Compound Path&gt;" class="s1" d="m46.1-375h8v2.6h-8z"/>
			<path id="&lt;Compound Path&gt;" fill-rule="evenodd" class="s1" d="m74.4-364.8q-0.6-0.9-0.9-4.8c-0.1-2.5-1.3-4.1-4.3-4.1h-6.2v8.9h-3v-22.1h9c5.6 0 8.2 2.6 8.2 6.5 0 3.4-2.3 5.2-5 5.5 2.7 0.6 4 2.2 4.2 4.8 0.3 3.2 0.4 4.5 1.2 5.3zm-5.7-11.3c3.8 0 5.5-1.4 5.5-4.2 0-2.5-1.7-4.1-5.5-4.1h-5.8v8.3z"/>
			<path id="&lt;Compound Path&gt;" class="s1" d="m96.7-364.8h-15.7v-22.1h15.4v2.6h-12.5v6.9h9.9v2.5h-9.9v7.6h12.8z"/>
			<path id="&lt;Compound Path&gt;" class="s1" d="m98.2-375.8c0-6.8 4.7-11.5 10.8-11.5 6.2 0 9.8 3.5 10.2 9.1l-2.9 0.2c-0.3-4-2.9-6.7-7.3-6.7-4.5 0-7.7 3.4-7.7 8.9 0 5.5 3.2 8.9 8 8.9 4.1 0 6.8-2.6 7.2-6.4h-6.8v-2.4h9.5v10.9h-2.7v-3.9c-1 2.8-4.1 4.3-7.6 4.3-6.2 0-10.7-4.6-10.7-11.4z"/>
			<path id="&lt;Compound Path&gt;" class="s1" d="m123-373.2v-13.7h3v13.7c0 4.2 2.1 6.3 5.9 6.3 3.9 0 6-2.1 6-6.3v-13.7h3v13.7c0 6.4-4 8.8-9 8.8-5 0-8.9-2.4-8.9-8.8z"/>
			<path id="&lt;Compound Path&gt;" class="s1" d="m147.9-386.9v19.6h12.3v2.5h-15.4v-22.1z"/>
			<path id="&lt;Compound Path&gt;" fill-rule="evenodd" class="s1" d="m173.8-386.9l9.2 22.1h-3.3l-2.6-6.5h-10.1l-2.6 6.5h-2.9l9-22.1zm-5.9 13.2h8.2l-4.1-9.8h-0.1z"/>
			<path id="&lt;Compound Path&gt;" fill-rule="evenodd" class="s1" d="m199.9-364.8q-0.6-0.9-0.9-4.8c-0.1-2.5-1.3-4.1-4.3-4.1h-6.2v8.9h-3v-22.1h9c5.6 0 8.3 2.6 8.3 6.5 0 3.4-2.4 5.2-5 5.5 2.6 0.6 3.9 2.2 4.2 4.8 0.2 3.2 0.3 4.5 1.1 5.3zm-5.7-11.3c3.8 0 5.5-1.4 5.5-4.2 0-2.5-1.7-4.1-5.5-4.1h-5.8v8.3z"/>
		</g>
		<g id="&lt;Group&gt;">
			<g id="&lt;Group&gt;">
				<g id="&lt;Group&gt;">
					<path id="&lt;Compound Path&gt;" fill-rule="evenodd" class="s1" d="m-404.2 2186.9h-8.6v-63h22.9c15.6 0 24.5 7.4 24.5 19.7 0 12.4-8.9 19.8-24.5 19.8h-14.3zm14.1-30.6c11 0 16.3-4.5 16.3-12.7 0-8.1-5.3-12.6-16.3-12.6h-14.1v25.3z"/>
					<path id="&lt;Compound Path&gt;" fill-rule="evenodd" class="s1" d="m-328.1 2188.1c-18.4 0-31.3-13.3-31.3-32.7 0-19.4 12.9-32.7 31.3-32.7 18.3 0 31.3 13.3 31.3 32.7 0 19.4-13 32.7-31.3 32.7zm0-58c-13.6 0-22.4 9.9-22.4 25.3 0 15.4 8.8 25.3 22.4 25.3 13.6 0 22.3-9.9 22.3-25.3 0-15.4-8.7-25.3-22.3-25.3z"/>
					<path id="&lt;Compound Path&gt;" fill-rule="evenodd" class="s1" d="m-247.5 2186.9c-1.2-1.7-2.1-6.3-2.6-13.7-0.4-7-3.7-11.7-12.3-11.7h-17.8v25.4h-8.6v-63h25.7c16 0 23.7 7.4 23.7 18.6 0 9.7-6.6 14.8-14.3 15.7 7.7 1.5 11.4 6.2 12 13.6 0.8 9.2 1.1 12.8 3.2 15.1zm-16.1-32.3c10.7 0 15.5-4 15.5-11.8 0-7.2-4.8-11.8-15.5-11.8h-16.6v23.6z"/>
					<path id="&lt;Compound Path&gt;" class="s1" d="m-211.2 2186.9v-55.8h-22.9v-7.2h54.8v7.2h-23.3v55.8z"/>
					<path id="&lt;Compound Path&gt;" class="s1" d="m-162.9 2123.9v63h-8.7v-63z"/>
					<path id="&lt;Compound Path&gt;" class="s1" d="m-105 2186.9h-44.9v-63h44v7.2h-35.6v19.8h28.3v7.1h-28.3v21.7h36.5z"/>
					<path id="&lt;Compound Path&gt;" fill-rule="evenodd" class="s1" d="m-55.5 2186.9c-1.2-1.7-2.1-6.3-2.6-13.7-0.4-7-3.7-11.7-12.3-11.7h-17.8v25.4h-8.5v-63h25.6c16 0 23.7 7.4 23.7 18.6 0 9.7-6.6 14.8-14.3 15.7 7.7 1.5 11.4 6.2 12 13.6 0.8 9.2 1.1 12.8 3.2 15.1zm-16.1-32.3c10.7 0 15.5-4 15.5-11.8 0-7.2-4.8-11.8-15.5-11.8h-16.6v23.6z"/>
				</g>
			</g>
			<g id="&lt;Group&gt;">
				<path id="&lt;Path&gt;" class="s5" d="m6.1 2153.6l-11.2-2.2c-8.3-1.6-12.8-3.9-12.8-11 0-7.9 5.6-12.8 15.6-12.8 11.5 0 18.3 6.7 18.5 18.2l5.8-0.5c0-14.2-9.1-22.6-24.4-22.6-13.3 0-21.6 7.5-21.6 17.9 0 9.5 6.2 14.3 15.2 16.1l12.8 2.5c9.1 1.8 12.9 5.2 12.9 11.6 0 7.8-6.5 12.4-16.9 12.4-11.5 0-19.9-6.9-20.4-19.4l-5.7 0.5c0 15.3 11.1 23.8 26.1 23.8 13.3 0 22.9-6.7 22.9-17.8 0-10-5.7-14.5-16.8-16.7z"/>
				<path id="&lt;Path&gt;" class="s5" d="m39.2 2156.9h29.3v-5.3h-29.3v-22.4h36.6v-5.3h-42.7v63h43.6v-5.3h-37.5z"/>
				<path id="&lt;Compound Path&gt;" fill-rule="evenodd" class="s5" d="m142 2155.4c0 19.4-12.5 32.7-30.9 32.7-18.4 0-30.9-13.3-30.9-32.7 0-19.4 12.5-32.7 30.9-32.7 18.4 0 30.9 13.3 30.9 32.7zm-6.6 0c0-16.7-9.5-27.4-24.3-27.4-14.8 0-24.3 10.7-24.3 27.4 0 16.7 9.5 27.4 24.3 27.4 14.8 0 24.3-10.7 24.3-27.4z"/>
				<path id="&lt;Path&gt;" class="s5" d="m180.6 2182.8c-13.8 0-24-10.5-24-27.4 0-16.9 10.2-27.4 24-27.4 12 0 19.8 6.9 22.1 17.1h6.2c-2.6-13.7-12.5-22.4-28.3-22.4-17.2 0-30.6 13.3-30.6 32.7 0 19.4 13.4 32.7 30.6 32.7 15.7 0 25.5-8.7 28.2-22.2h-6.2c-2.3 10-10.1 16.9-22 16.9z"/>
				<path id="&lt;Path&gt;" class="s5" d="m264.2 2151.6h-39.4v-27.7h-6.3v63h6.3v-30h39.4v30h6.3v-63h-6.3z"/>
				<path id="&lt;Compound Path&gt;" fill-rule="evenodd" class="s5" d="m342.3 2155.4c0 19.4-12.5 32.7-30.9 32.7-18.4 0-30.9-13.3-30.9-32.7 0-19.4 12.5-32.7 30.9-32.7 18.4 0 30.9 13.3 30.9 32.7zm-6.6 0c0-16.7-9.5-27.4-24.3-27.4-14.8 0-24.3 10.7-24.3 27.4 0 16.7 9.5 27.4 24.3 27.4 14.8 0 24.3-10.7 24.3-27.4z"/>
			</g>
		</g>
		<g id="&lt;Group&gt;">
			<g id="&lt;Group&gt;">
				<g id="&lt;Group&gt;">
					<path id="&lt;Compound Path&gt;" fill-rule="evenodd" class="s1" d="m-398.6 1842.4h-8.6v-63h22.9c15.6 0 24.5 7.4 24.5 19.7 0 12.4-8.9 19.8-24.5 19.8h-14.3zm14.1-30.6c11 0 16.3-4.5 16.3-12.7 0-8.1-5.3-12.6-16.3-12.6h-14.1v25.3z"/>
					<path id="&lt;Compound Path&gt;" fill-rule="evenodd" class="s1" d="m-322.4 1843.6c-18.4 0-31.3-13.3-31.3-32.7 0-19.4 12.9-32.7 31.3-32.7 18.3 0 31.3 13.3 31.3 32.7 0 19.4-13 32.7-31.3 32.7zm0-58c-13.6 0-22.4 9.9-22.4 25.3 0 15.4 8.8 25.3 22.4 25.3 13.6 0 22.3-9.9 22.3-25.3 0-15.4-8.7-25.3-22.3-25.3z"/>
					<path id="&lt;Compound Path&gt;" fill-rule="evenodd" class="s1" d="m-241.8 1842.4c-1.2-1.7-2.1-6.3-2.6-13.7-0.4-7-3.7-11.7-12.3-11.7h-17.8v25.4h-8.5v-63h25.6c16 0 23.7 7.4 23.7 18.6 0 9.7-6.6 14.8-14.3 15.7 7.7 1.5 11.4 6.2 12 13.6 0.8 9.2 1.1 12.8 3.2 15.1zm-16.1-32.3c10.7 0 15.5-4 15.5-11.8 0-7.2-4.8-11.8-15.5-11.8h-16.6v23.6z"/>
					<path id="&lt;Compound Path&gt;" class="s1" d="m-263.5 1919.6v-55.8h-22.9v-7.2h54.8v7.2h-23.3v55.8z"/>
					<path id="&lt;Compound Path&gt;" class="s1" d="m-215.5 1856.6v63h-8.7v-63z"/>
					<path id="&lt;Compound Path&gt;" class="s1" d="m-157.6 1919.6h-44.9v-63h44v7.2h-35.6v19.8h28.3v7.1h-28.3v21.7h36.5z"/>
					<path id="&lt;Compound Path&gt;" fill-rule="evenodd" class="s1" d="m-108 1919.6c-1.2-1.7-2.1-6.3-2.6-13.7-0.4-7-3.7-11.7-12.3-11.7h-17.8v25.4h-8.5v-63h25.6c16 0 23.7 7.4 23.7 18.6 0 9.7-6.6 14.8-14.3 15.7 7.7 1.5 11.4 6.2 12 13.6 0.8 9.2 1.1 12.8 3.2 15.1zm-16.1-32.3c10.7 0 15.5-4 15.5-11.8 0-7.2-4.8-11.8-15.5-11.8h-16.6v23.6z"/>
				</g>
				<path id="&lt;Compound Path&gt;" class="s1" d="m-407.2 1765.2v-7.2h174.4v7.2z"/>
				<path id="&lt;Compound Path&gt;" class="s1" d="m-224.3 1842.4v-7.2h125.5v7.2z"/>
				<path id="&lt;Compound Path&gt;" class="s1" d="m-285.8 1941v-7.2h187v7.2z"/>
			</g>
			<path id="&lt;Path&gt;" class="s2" d="m-98.8 1941h-187v17h187z"/>
			<g id="&lt;Group&gt;">
				<path id="&lt;Path&gt;" class="s5" d="m-268.9 1972.3l-5.7-1.1c-3.6-0.7-5.6-1.7-5.6-4.8 0-3.5 2.5-5.7 7-5.7 5.2 0 8.4 3 8.5 8.2l4-0.2c-0.1-7.1-4.6-11.3-12.5-11.3-6.9 0-11.2 3.7-11.2 9.2 0 4.9 3.2 7.4 7.8 8.3l6.2 1.2c4.1 0.8 6 2.2 6 5.1 0 3.4-2.9 5.4-7.6 5.4-5.3 0-9.2-2.9-9.5-8.7l-3.9 0.3c0 7.6 5.7 11.8 13.4 11.8 6.8 0 11.8-3.3 11.8-9.1 0-5.1-2.9-7.5-8.7-8.6z"/>
				<path id="&lt;Path&gt;" class="s5" d="m-251.2 1975h14.1v-3.5h-14.1v-9.9h17.7v-3.6h-21.9v31.4h22.4v-3.6h-18.2z"/>
				<path id="&lt;Compound Path&gt;" fill-rule="evenodd" class="s5" d="m-199.9 1973.7c0 9.7-6.5 16.3-15.6 16.3-9.2 0-15.6-6.6-15.6-16.3 0-9.7 6.4-16.3 15.6-16.3 9.1 0 15.6 6.6 15.6 16.3zm-4.5 0c0-7.7-4.3-12.6-11.1-12.6-6.8 0-11.2 4.9-11.2 12.6 0 7.7 4.4 12.6 11.2 12.6 6.8 0 11.1-4.9 11.1-12.6z"/>
				<path id="&lt;Path&gt;" class="s5" d="m-180.8 1986.3c-6.4 0-11-4.9-11-12.6 0-7.7 4.6-12.6 11-12.6 5.8 0 9.3 3.4 10.2 8.2h4.3c-1.2-7.1-6.2-11.9-14.5-11.9-8.7 0-15.4 6.6-15.4 16.3 0 9.7 6.7 16.3 15.4 16.3 8 0 12.9-4.4 14.3-11.1h-4.3c-1.2 4.4-4.6 7.4-10 7.4z"/>
				<path id="&lt;Path&gt;" class="s5" d="m-139.4 1971.5h-18v-13.5h-4.4v31.4h4.4v-14.4h18v14.4h4.4v-31.4h-4.4z"/>
				<path id="&lt;Compound Path&gt;" fill-rule="evenodd" class="s5" d="m-99.2 1973.7c0 9.7-6.4 16.3-15.6 16.3-9.2 0-15.6-6.6-15.6-16.3 0-9.7 6.4-16.3 15.6-16.3 9.2 0 15.6 6.6 15.6 16.3zm-4.4 0c0-7.7-4.4-12.6-11.2-12.6-6.8 0-11.2 4.9-11.2 12.6 0 7.7 4.4 12.6 11.2 12.6 6.8 0 11.2-4.9 11.2-12.6z"/>
			</g>
		</g>
		<g id="&lt;Group&gt;">
			<g id="&lt;Group&gt;">
				<g id="&lt;Group&gt;">
					<path id="&lt;Compound Path&gt;" fill-rule="evenodd" class="s1" d="m36.9 1842.4h-8.6v-63h22.9c15.6 0 24.5 7.4 24.5 19.7 0 12.4-8.9 19.8-24.5 19.8h-14.3zm14.1-30.6c11 0 16.3-4.5 16.3-12.7 0-8.1-5.3-12.6-16.3-12.6h-14.1v25.3z"/>
					<path id="&lt;Compound Path&gt;" fill-rule="evenodd" class="s1" d="m113.1 1843.6c-18.4 0-31.3-13.3-31.3-32.7 0-19.4 12.9-32.7 31.3-32.7 18.3 0 31.3 13.3 31.3 32.7 0 19.4-13 32.7-31.3 32.7zm0-58c-13.6 0-22.4 9.9-22.4 25.3 0 15.4 8.8 25.3 22.4 25.3 13.6 0 22.3-9.9 22.3-25.3 0-15.4-8.7-25.3-22.3-25.3z"/>
					<path id="&lt;Compound Path&gt;" fill-rule="evenodd" class="s1" d="m193.6 1842.4c-1.2-1.7-2.1-6.3-2.6-13.7-0.4-7-3.7-11.7-12.3-11.7h-17.8v25.4h-8.5v-63h25.6c16 0 23.7 7.4 23.7 18.6 0 9.7-6.6 14.8-14.3 15.7 7.7 1.5 11.4 6.2 12 13.6 0.8 9.2 1.1 12.8 3.2 15.1zm-16.1-32.3c10.7 0 15.5-4 15.5-11.8 0-7.2-4.8-11.8-15.5-11.8h-16.6v23.6z"/>
					<path id="&lt;Compound Path&gt;" class="s1" d="m172 1919.6v-55.8h-22.9v-7.2h54.8v7.2h-23.3v55.8z"/>
					<path id="&lt;Compound Path&gt;" class="s1" d="m219.9 1856.6v63h-8.7v-63z"/>
					<path id="&lt;Compound Path&gt;" class="s1" d="m277.8 1919.6h-44.9v-63h44v7.2h-35.6v19.8h28.3v7.1h-28.3v21.7h36.5z"/>
					<path id="&lt;Compound Path&gt;" fill-rule="evenodd" class="s1" d="m327.4 1919.6c-1.2-1.7-2.1-6.3-2.6-13.7-0.4-7-3.7-11.7-12.3-11.7h-17.8v25.4h-8.5v-63h25.6c16 0 23.7 7.4 23.7 18.6 0 9.7-6.6 14.8-14.3 15.7 7.7 1.5 11.4 6.2 12 13.6 0.8 9.2 1.1 12.8 3.2 15.1zm-16.1-32.3c10.7 0 15.5-4 15.5-11.8 0-7.2-4.8-11.8-15.5-11.8h-16.6v23.6z"/>
				</g>
				<path id="&lt;Compound Path&gt;" class="s1" d="m28.2 1765.2v-7.2h174.4v7.2z"/>
				<path id="&lt;Compound Path&gt;" class="s1" d="m211.1 1842.4v-7.2h125.6v7.2z"/>
				<path id="&lt;Compound Path&gt;" class="s1" d="m149.7 1941v-7.2h187v7.2z"/>
			</g>
			<g id="&lt;Group&gt;">
				<path id="&lt;Path&gt;" class="s5" d="m167.4 1972.3l-5.7-1.1c-3.6-0.7-5.6-1.7-5.6-4.8 0-3.5 2.5-5.7 7-5.7 5.2 0 8.4 3 8.5 8.2l4-0.2c-0.1-7.1-4.6-11.3-12.5-11.3-6.9 0-11.2 3.7-11.2 9.2 0 4.9 3.2 7.4 7.8 8.3l6.2 1.2c4.1 0.8 6 2.2 6 5.1 0 3.4-2.9 5.4-7.6 5.4-5.3 0-9.2-2.9-9.5-8.7l-3.9 0.3c0 7.6 5.7 11.8 13.4 11.8 6.8 0 11.8-3.3 11.8-9.1 0-5.1-2.9-7.5-8.7-8.6z"/>
				<path id="&lt;Path&gt;" class="s5" d="m185 1975h14.2v-3.5h-14.2v-9.9h17.8v-3.6h-21.9v31.4h22.4v-3.6h-18.3z"/>
				<path id="&lt;Compound Path&gt;" fill-rule="evenodd" class="s5" d="m236.4 1973.7c0 9.7-6.5 16.3-15.6 16.3-9.2 0-15.6-6.6-15.6-16.3 0-9.7 6.4-16.3 15.6-16.3 9.1 0 15.6 6.6 15.6 16.3zm-4.5 0c0-7.7-4.3-12.6-11.1-12.6-6.8 0-11.2 4.9-11.2 12.6 0 7.7 4.4 12.6 11.2 12.6 6.8 0 11.1-4.9 11.1-12.6z"/>
				<path id="&lt;Path&gt;" class="s5" d="m255.5 1986.3c-6.4 0-11-4.9-11-12.6 0-7.7 4.6-12.6 11-12.6 5.8 0 9.3 3.4 10.2 8.2h4.3c-1.2-7.1-6.2-11.9-14.5-11.9-8.7 0-15.4 6.6-15.4 16.3 0 9.7 6.7 16.3 15.4 16.3 8 0 12.9-4.4 14.3-11.1h-4.3c-1.2 4.4-4.6 7.4-10 7.4z"/>
				<path id="&lt;Path&gt;" class="s5" d="m296.9 1971.5h-18v-13.5h-4.4v31.4h4.4v-14.4h18v14.4h4.4v-31.4h-4.4z"/>
				<path id="&lt;Compound Path&gt;" fill-rule="evenodd" class="s5" d="m337.1 1973.7c0 9.7-6.4 16.3-15.6 16.3-9.2 0-15.6-6.6-15.6-16.3 0-9.7 6.4-16.3 15.6-16.3 9.2 0 15.6 6.6 15.6 16.3zm-4.5 0c0-7.7-4.3-12.6-11.1-12.6-6.8 0-11.2 4.9-11.2 12.6 0 7.7 4.4 12.6 11.2 12.6 6.8 0 11.1-4.9 11.1-12.6z"/>
			</g>
		</g>
	</g>
</svg>